<svg id="f785cd4e-1b51-4c04-8439-311a9358c6ac" data-name="Layer 1" xmlns="http://www.w3.org/2000/svg" viewBox="0 0 3817 1000"><title>Artboard 1</title><path d="M478.57,308.75c-11.25-2.93-22.79-3.71-34.31-4.66-22.75-1.88-45.42-4.2-67.56-10.18-29.55-8-55.18-22.42-76.28-44.87-19.57-20.82-35.7-44-49.48-68.95-15.87-28.66-29-58.49-37.83-90.11-1.66-5.93-3.18-11.92-3.42-18.13-.21-5.24.72-6.65,5.81-8.57a49.27,49.27,0,0,1,14-2.65,222.42,222.42,0,0,1,38.79,1.1,400.46,400.46,0,0,1,55.55,9.49c54.48,13.62,95.34,45.32,124,93.26,15.53,25.94,25.43,54,31.51,83.45,2.11,10.25,4.27,20.5,6.4,30.75a5.37,5.37,0,0,0,.9,2.58c-3.1,4.2-4.13,9.19-5.45,14.08C480.08,299.75,480.16,304.42,478.57,308.75ZM234,81.93c-.15-.45-.3-.52-.37-.21,0,0,.25.14.38.21a4.1,4.1,0,0,0,1.51,1.69c9.48,6.8,19,13.5,28.41,20.46q26.61,19.76,52.46,40.54c2.07,1.67,4.68,2.92,6.05,5.31-.6,1.4-1.8,1.38-2.8,1.68a337.85,337.85,0,0,1-37.09,9c-5,.89-10,1.68-14.92,2.58-1.27.23-3.1,0-2.92,2.13.2,2.38,2.19,1.56,3.58,1.77,2.52.39,4.84-.83,7.29-.91,9.56-.28,18.84-2.34,28.13-4.3a111.06,111.06,0,0,0,20.64-6.55c2-.85,3.68-1.08,5.8.71,5.88,4.93,11.62,10,17.56,14.88,4.18,3.4,7.85,7.33,12.11,10.65,4.56,3.56,8,8.34,13.56,12.09-1.06.54-1.46.78-1.9,1-1.13.47-2.27.94-3.43,1.34-11.75,4.13-23.55,8.13-35.83,10.39-6,1.11-12,2.5-18.2,2.47-4.12,0-8.2,1.23-12.38.91-.57,0-1.3.09-1.37.91s.58,1.37,1.33,1.59a7,7,0,0,0,1.83.21c10,0,20.05.58,30-1,14.29-2.31,28.31-5.74,41.47-12,1.74-.83,3.1-1,4.55.52,3.11,3.19,6.58,6,9.82,9.07,10.77,10.14,20.9,20.93,31,31.76.32.34.65.66.94,1,.74.89.71,1.71-.39,2.22q-3.15,1.44-6.34,2.76a153.75,153.75,0,0,1-57.81,12c-1.08,0-2.16,0-3.24.08a1.62,1.62,0,0,0-1.63,1.83,1.58,1.58,0,0,0,1.74,1.72c3.55-.12,6.94,1.1,10.53,1.1s7.31-1.11,11-1c6.37.19,12.51-1.27,18.65-2.53a121.93,121.93,0,0,0,30.95-10.41c1.9-1,3.05-.56,4.33,1Q440,263.79,452,276.22c4,4.1,8.13,8,12.07,12.15,1.73,1.81,3.94,2.95,5.71,4.66,1.43,1.39,2.93.76,4.17-.24s2-2.37,1-4.05c-.79-1.32-1.49-2.69-2.33-4a252.9,252.9,0,0,0-22.2-29.36c-8.23-9.35-16.34-18.84-25.43-27.4-2.71-2.55-5.11-5-3.06-9.09.19-.37,0-.91,0-1.37a133,133,0,0,0-4.78-42.85c-.68-2.37-1.05-5-3.26-7.56a17.71,17.71,0,0,0-.08,6.56c1.21,5.42,1,11,1.5,16.45.58,6.27.09,12.64.16,19,0,2.88-.82,5.52-1.43,8.87-10.47-10.76-21.32-20.05-32.17-29.35-7.11-6.08-14.27-12.12-21.53-18-2.52-2.05-3.83-4-2.77-7.5a29.92,29.92,0,0,0,1.31-9.06c-.08-7.52.44-15-.7-22.58a136.88,136.88,0,0,0-6.49-25.37c-.31-.87-.52-2-1.74-1.67-1.51.41-.84,1.58-.71,2.63.53,4.26,1,8.52,1.36,12.79.71,8.63-.65,17.21-1.16,25.78-.26,4.39.11,9.18-2.09,13.36a3.55,3.55,0,0,1-2.59-1c-5.13-4.15-10.15-8.46-15.42-12.42C314.88,134.61,300.16,124,285.09,114q-19.95-13.32-40.33-26C241.29,85.81,238.22,82.76,234,81.93Z" style="fill:#386f36"/><path d="M691.45,814.26c-1.83.6-1.85,2.17-2.12,3.7a145,145,0,0,1-10.39,34.89c-16.09,35.62-42.93,60-78.64,75.1-21.26,8.95-43.56,13.29-66.58,14-25.45.79-50.5-1.71-74.91-9.33a145.42,145.42,0,0,1-43.66-21.74,12.9,12.9,0,0,1-3.48-3A127.33,127.33,0,0,1,402.75,869c-.93-11.74-1-23.66,1.62-35.37,2.34-10.67,6-20.9,13.13-29.19,13.35-15.58,30.43-21.27,50.6-16.75,9.8,2.19,18.87,6.51,28.12,10.28,6.83,2.79,13.62,5.64,20.94,7s14.37,3,21.73,3.69c5.64.54,11.25,1.36,16.91,1.68,4.13.23,8.28-.26,12.41.79a13.41,13.41,0,0,0,6.42-.1,29.8,29.8,0,0,1,7.79-.66A102.74,102.74,0,0,0,609.27,807c22.14-5.79,41.24-16.74,55.85-34.67a42.4,42.4,0,0,0,9.57-24.08c.73-10.31.18-20.6-3.2-30.54a13.29,13.29,0,0,1-.33-1.8c1.49.79,1.92,2.35,2.65,3.68a132.12,132.12,0,0,1,13.92,37.92,188.11,188.11,0,0,1,3.75,32.36c.19,7.4-.63,14.71-1.35,22C690,813.3,690.18,813.94,691.45,814.26ZM684,769.69c-2.58,2.17-2.89,4.26-3.4,6.13-2,7.55-3.68,15.22-5.94,22.71-2.71,9-5.73,17.84-11.24,25.65-6.83,9.68-14.05,18.9-23,26.82a148.68,148.68,0,0,1-31.55,21.46,153.81,153.81,0,0,1-39.54,13.67c-12.36,2.44-24.79,4.36-37.47,3.91-8.6-.3-17.2.33-25.83-.77-6.22-.79-12.46-1.47-18.63-2.61a236.19,236.19,0,0,1-31.56-8.57c-6.39-2.11-12.86-3.87-19.79-3.89-10.06,0-12.85,6.78-12,14.64.62,5.75,3.6,10.72,7.56,15,8.15,8.79,18.79,13.16,29.86,16.67a146.75,146.75,0,0,0,19.26,4.39,187,187,0,0,0,29.25,3c11.83.17,23.68.61,35.55-.61,6.7-.69,13.5-1,20.08-2.31a166.09,166.09,0,0,0,47.3-16.36,131.84,131.84,0,0,0,26.88-19.29,126.76,126.76,0,0,0,24.05-30.77c6.64-11.61,11.13-24,14.72-36.72a170.46,170.46,0,0,0,4.84-26.18C684.38,787.21,684,778.88,684,769.69Z" style="fill:#b8181d"/><path d="M671.16,715.92a13.29,13.29,0,0,0,.33,1.8c3.38,9.94,3.93,20.23,3.2,30.54a42.4,42.4,0,0,1-9.57,24.08c-14.61,17.93-33.71,28.88-55.85,34.67a102.74,102.74,0,0,1-26.85,3.44,29.8,29.8,0,0,0-7.79.66,13.41,13.41,0,0,1-6.42.1c-4.13-1.05-8.28-.56-12.41-.79-5.66-.32-11.27-1.14-16.91-1.68-7.36-.71-14.51-2.32-21.73-3.69s-14.11-4.25-20.94-7c-9.25-3.77-18.32-8.09-28.12-10.28-20.17-4.52-37.25,1.17-50.6,16.75-7.11,8.29-10.79,18.52-13.13,29.19-2.58,11.71-2.55,23.63-1.62,35.37a127.33,127.33,0,0,0,8.92,38.87c-10.9-8-19.55-18.11-26.83-29.42a127.1,127.1,0,0,1-16.79-40.12c-.55-2.69-.91-5.43-1.71-8-1-3.21-.2-6.71-1.75-9.79a278.58,278.58,0,0,1-.89-31.25,4.06,4.06,0,0,0,.8-3,114.19,114.19,0,0,1,4-28.65c6.94-26.34,21.52-47.8,43-64.47a164.62,164.62,0,0,1,52.55-27.32c6.3-2,12.7-3.6,19.05-5.39a8.93,8.93,0,0,0,1.37-.1,293.74,293.74,0,0,1,50.44-7c-.06,2.09-.11,4.19-.17,6.28a23.76,23.76,0,0,1-9,1.71A152.66,152.66,0,0,0,508,663.56c-10.72,1.82-21.35,4.16-31.89,7a212.71,212.71,0,0,0-46.77,18.23,107.25,107.25,0,0,0-23.76,17.34,99.63,99.63,0,0,0-21.86,31.66C376.37,754.4,372.82,771.87,372,790c-.24,5.24.07,10.49-.07,15.73-.21,8.33,1.12,16.53,2.08,24.74a26.44,26.44,0,0,0,3.48,10.45c.7,1.17,1.34,2.41,3.35,2.5.43-1.91,1.21-3.8,1.23-5.71.1-7.68,1.58-15.31,1-23a8.47,8.47,0,0,1,.1-2.76c1.66-6,.67-12.22,1.54-18.33.92-6.49,1.17-13.13,2.38-19.59A111.91,111.91,0,0,1,401.6,736.3c4.85-8,11.13-14.71,17.92-21,1.83-1.7,4.24-2.49,6.46-3.53a3.6,3.6,0,0,1,4.23.9,26.65,26.65,0,0,1,6.16,9.13c7,16.18,17.19,29.68,32.23,39.28,11.3,7.21,22.77,14.06,35.72,18,4.89,1.49,9.79,2.51,14.9.71,4-1.42,4.77-3.68,1.89-6.74a38.35,38.35,0,0,0-5.54-4.85c-4.38-3.16-9.27-5.44-13.62-8.64a81.92,81.92,0,0,1-17.58-16.84C476.56,732.23,471,720.88,472,707.36a31.89,31.89,0,0,1,7.37-18.57c6-7.11,13.68-11.67,22.5-14.71,10.46-3.6,21.35-4,32.13-5.25.38,6.46-.7,12.82-1.37,19.2-.36,3.47-.11,7.07-1.42,10.43-3.63,1.42-7.54,1-11.29,1.76-7.74,1.46-15.35,3.28-22.23,7.19a20.81,20.81,0,0,0-9,9.6c-3.29,7.35,2.1,17.34,6.71,20.66,10.77,7.75,23,8.27,35.56,5.37.12,0,.2-.23.3-.35,1.35.24,2.69.54,4.05.71,8.31,1,16.44,1,24.17-3,4.47-2.33,7.7-5.46,8.91-10.44a35.29,35.29,0,0,0,16.14-12.5c5.79-7.78,3.75-12.67-2.75-18.22-6.73-5.75-14.62-7.21-23.21-5.51a15.83,15.83,0,0,1-2.76.08q-.58-12-1.18-24.1a104.23,104.23,0,0,1,13.2.85,139.66,139.66,0,0,1,30.45,7,90.41,90.41,0,0,1,30,16.78c7.17,6.15,11.94,14,15,22.85,2.56,7.35,2,14.93,1.73,22.43-.35,10.91-4.85,19.81-14.09,26.09a56.86,56.86,0,0,1-17.74,7.6,213.43,213.43,0,0,0-26.71,8.68c-2,.83-3.89,1.86-4.86,4.21a9.66,9.66,0,0,0,5.92,2c10.18.39,20.29-.15,30.18-2.82,13.14-3.55,24.44-9.87,32.19-21.55,8.46-12.73,10.39-26.74,7.89-41.45-2.41-14.15-9.5-25.91-20.12-35.41A92.38,92.38,0,0,0,606,668.63a142,142,0,0,0-51.59-8.19c-.12-.74-.26-1.48-.37-2.22-.63-4.12-.62-4.12,3.5-4.54a55.56,55.56,0,0,1,5.79.46c1.81.31,2.26-1,3-2,.06,1.79.76,2.7,2.77,2.85,6.13.45,12.11,1.93,18.06,3.35,14.27,3.4,28,8.29,40.73,15.69,8.81,5.12,17.21,10.74,24.42,18,2.49,2.51,4.78,5.23,7.66,7.33,1.38,1.82,2.81,3.61,4.13,5.47C666.56,708.42,669.84,711.54,671.16,715.92ZM561.88,765A132.94,132.94,0,0,0,584,763.06c7.46-1.33,14.71-3.43,21.18-7.62,8.45-5.47,12.37-13.22,11.11-23.21A73.81,73.81,0,0,0,607,703.88a26.36,26.36,0,0,0-5.78-7.17c-1.11-.91-2.36-1.73-3.78-.91s-1.35,2.34-1.1,3.73a39.82,39.82,0,0,0,2.63,8.84,37.91,37.91,0,0,1,2.83,18.09,25.72,25.72,0,0,1-7.6,16.91c-4.79,4.86-10.74,7.71-17.19,9.59-10,2.92-20.31,3.49-30.66,3.58a42.56,42.56,0,0,0-5.54.23c-1.95.28-4.46.48-4.74,2.88-.33,2.79,2.55,2.52,4.26,3.27a5.47,5.47,0,0,0,1.35.26A151.29,151.29,0,0,0,561.88,765Z" style="fill:#d52128"/><path d="M476.51,333c-9.8,5.59-17.67,13.38-24.85,21.91-10.79,12.82-19.29,27.11-26.78,42-8.71,17.35-17.41,34.72-27.84,51.14a148.67,148.67,0,0,1-20.51,26.17c-12.85,12.74-28.59,20.22-45.75,25a410,410,0,0,1-57.08,11.36A549.74,549.74,0,0,1,183.21,515c-10.63-.34-21.27-1-31.69-3.49-9.22-2.16-10-3.36-8.42-12.73,1.83-10.68,5.45-20.84,9.26-30.93a345.69,345.69,0,0,1,23.95-50.48c23.54-40.83,58.51-67.28,103-81.66,18.12-5.86,36.85-8.73,55.79-10.44,19.39-1.74,38.82-2,58.26-1.88s38.58,0,57.85-.86c8.78-.39,17.54-1.12,26.32-1.69C478,325,476.63,328.94,476.51,333ZM183,472.55a13.9,13.9,0,0,1-2,2.44c-7.38,5.58-13.22,12.76-19.89,19.07-.79.75-2.16,1.35-1.66,2.89.92.66,1.44-.06,2-.51,6.63-5.39,13.34-10.68,19.84-16.22,2.18-1.86,5.06-3,6.4-5.8h1.81a23.13,23.13,0,0,0,7.22,1c7.67,0,15.05-2,22.52-3.32,5.53-1,11-2.15,16.54-3.23-1.58,10.78-5.57,20.79-9.85,30.74,7.95-9.49,12.12-20.61,14.51-32.52l.06-.06a250,250,0,0,0,33.31-10.19,282.28,282.28,0,0,0,31.45-13.89l.05.05a32.9,32.9,0,0,1-.15,5.07c-2,11-3.89,22-8,32.51a21.65,21.65,0,0,0-1.07,3.52c-.14.7-.23,1.63.74,1.92s1.39-.48,1.78-1.12c.47-.79.81-1.66,1.26-2.47,3.6-6.49,5.88-13.51,7.86-20.59a106.32,106.32,0,0,0,4-22.54l0-.95a4.78,4.78,0,0,0,2.5-1A99.68,99.68,0,0,0,334.22,421a56.47,56.47,0,0,0,14.23-25.43c.57-2.29,0-4.63.69-6.86,1.33-4,0-7.77-1.26-11.53,0-.3,0-.61,0-.91,2.83-.32,5-2.24,7.69-3.06,2.05-.62,3.15-.42,4,1.58a113,113,0,0,1,8.54,33.79c.88,10.14-.39,20.21-2.55,30.19-1.95,9-4.5,17.85-7.18,26.66-.3,1-.55,1.94.1,2.82a3.48,3.48,0,0,0,2.24-2c2.78-5.49,5.73-10.92,7.61-16.81A143.89,143.89,0,0,0,374.08,422a102.31,102.31,0,0,0-.84-27.48,86.5,86.5,0,0,0-7.51-23.16c-.74-1.62-.58-2.47,1.13-3.16,6.28-2.53,12.49-5.22,18.78-7.71,11-4.36,22.05-8.63,33.09-12.9a5.79,5.79,0,0,0,2.31-1.45,2.54,2.54,0,0,0,.53-3c-.54-1.2-1.24-2.19-2.74-2a11.6,11.6,0,0,0-2.68.55c-8,2.75-16.06,5.37-24,8.34-15.55,5.84-30.88,12.22-46.11,18.86l-.06,0c-4.09-7.57-10.26-13-17.86-16.76-14.09-7.06-29-8.7-44.39-6.09a105.22,105.22,0,0,0-35.32,13c-17.28,10.06-32.15,23-45.25,38.17A194.34,194.34,0,0,0,182,426.07c-3.26,5.58-6.21,11.33-7.26,17.83v.89a18.94,18.94,0,0,0-1.82,7.88C172.67,461.12,176,467.77,183,472.55Z" style="fill:#386f36"/><path d="M778.55,574.15c8.22,5.73,14.53,13.28,20.22,21.38,7.78,11.07,13,23.41,17.47,36.09,6.16,17.46,11.27,35.2,13.67,53.63,1.87,14.31,2,28.59-.94,42.79-4.64,22.16-16.51,39.59-34.73,52.82-15.18,11-32.27,17.92-50.17,23-6.35,1.8-12.69,3.76-19.27,4.67.61-1,1.92-1.38,1.66-3-1.91-11.91-3.23-23.94-5.64-35.75a205.9,205.9,0,0,0-13-41.67c-4.31-9.82-10.11-18.58-16.32-27.17-1.55-2.14-3.48-4-6.56-3.43.67-1.08,1.77-.88,2.79-.93a18.67,18.67,0,0,0,3.64-.38,168.5,168.5,0,0,0,30-8.83c13.22-5.4,26.5-10.65,37.93-19.55,8.25-6.43,16.29-13,22.19-21.83a74.82,74.82,0,0,0,8.15-17c.21.22.51.4.62.66,6.25,13.76,10.37,28.22,14.35,42.74,3.37,12.28,6,24.77,10.91,36.6.65,1.58,1.18,3.19,2.53,4.32s2.42.91,3.12-.85a20.53,20.53,0,0,0,1.53-9c-.37-4.69-1-9.44-1.82-14.09-1.41-8-2.67-16-4.24-23.94-4-20-9.57-39.37-19.79-57.16-2.58-4.49-5-9.19-9-12.65l-1.9-3.67c-.75-4.34-3.2-8-5-11.89C780.05,578.15,778.59,576.43,778.55,574.15Z" style="fill:#881215"/><path d="M274.67,815.27c-9.28-4.78-17.23-11.35-24.64-18.56-13.43-13.06-23.54-28.28-27.5-46.78-5.84-27.31-7.44-54.75,1.16-81.83,9.35-29.45,28.56-49.54,58.16-59.27,20.36-6.7,40.42-14.2,60.29-22.19,4.57-1.84,9-4.08,13.54-6A50.33,50.33,0,0,1,369,577l-1.95,7.6c-10.25,1.76-19.68,6-29.24,9.78C318.61,601.85,299.3,609,279.92,616c-9,3.26-17.66,7.29-24.91,13.73a79.22,79.22,0,0,0-21.84,32.66c-5.62,15.27-7.89,31.2-8.37,47.36a126.18,126.18,0,0,0,.64,20.73A73.69,73.69,0,0,0,228.32,744c.46,1.37,1,2.58,2.62,3,1.59-1.25,1.71-3.21,2-4.94a166.28,166.28,0,0,0,1.78-17.36c.77-11.33,2-22.56,3.8-33.77a79.42,79.42,0,0,1,13.2-33.59c4.29-6.17,9.43-11.42,16.45-14.39s14.33-3.22,21.26.82c3.58,2.1,7.09,4.32,10.66,6.44a153.72,153.72,0,0,0,23,11.73,35.14,35.14,0,0,0,15.4,2.21,2.64,2.64,0,0,0,2.6-1.57,2.42,2.42,0,0,0-1-2.84c-.69-.6-1.51-1-2.26-1.58-3-2.12-6.23-4-9-6.39-10.58-9-14.49-18.93-5.83-30.42a30.48,30.48,0,0,1,2.43-2.77c5.94-6.18,13.2-10.55,20.66-14.55,5.81-3.12,11.66-6.3,18.29-7.46-1.32,8.24-3.73,16.09-8.35,23.15a48.89,48.89,0,0,0-12.83,1c-4.76,1.18-9.64,2-13.92,4.65-6,3.69-7.24,10-2.59,15.24,5,5.62,11,9.84,18.47,11.53l-.06,0a1.79,1.79,0,0,0,1.75,1,54.61,54.61,0,0,0,5.38,2.64c10.79,3.94,21.49,5.59,31.68-1.74,3.21-.49,5.66-2.44,7.82-4.59,5.36-5.33,5.7-10.8,1.36-17-2.67-3.81-6.64-5.87-10.62-7.94a145.82,145.82,0,0,1,.8-30.69c9.93-.42,19.31,1.86,28.53,5.39,3.39,1.29,6.28,3.93,10.16,3.94l0,.95c-1.46,2.78-1,5.61-.42,8.52,1.79,8.35,5.58,15.95,8.77,23.76a27.78,27.78,0,0,1,1.35,17c-.94,4.35-3.65,7.74-5.14,11.74l-2.72,1.9c-3.86.78-7,3.11-10.2,5.11-6.48,4-13.08,7.92-18.53,13.37l-1.85.93a17.79,17.79,0,0,0-4.14.14c-7.38,2-14.74.63-21.95-.47-9.51-1.47-18.82-4.2-28.32-5.84-10.21-1.77-20.37-4.1-31-2.29a55.44,55.44,0,0,0-15.72,5c-9.86,5-17.12,13-23,22.12-10.43,16.35-14.67,34.64-15.67,53.72-.43,8.27,1.08,16.49,3,24.55,2.76,11.43,7.85,21.62,16.57,29.76A4.23,4.23,0,0,1,274.67,815.27ZM400.79,634.38c-1,2.89.21,5.66,1,8.38,1.79,6.24.27,11.6-4,16.17a28.81,28.81,0,0,1-13.8,8c-2.37.63-4.79,1.11-7.15,1.77-1.73.48-4.58.77-4.44,2.54.17,2.21,3.08,2.07,4.94,2.12a47.53,47.53,0,0,0,22-4.39c14.62-7,14-24.69,3.39-34.26A1.61,1.61,0,0,0,400.79,634.38Z" style="fill:#b12126"/><path d="M274.67,815.27a4.23,4.23,0,0,0-1.54-2.25c-8.72-8.14-13.81-18.33-16.57-29.76-1.95-8.06-3.46-16.28-3-24.55,1-19.08,5.24-37.37,15.67-53.72,5.84-9.16,13.1-17.13,23-22.12a55.44,55.44,0,0,1,15.72-5c10.59-1.81,20.75.52,31,2.29,9.5,1.64,18.81,4.37,28.32,5.84,7.21,1.1,14.57,2.47,21.95.47a17.79,17.79,0,0,1,4.14-.14,5.7,5.7,0,0,1-2.39,2.76c-5,2.83-8,7.72-11.48,11.89a115.35,115.35,0,0,0-18.74,31.06,147.78,147.78,0,0,0-10.92,53.34h0c-3.1-.28-6.09.74-9.12.87a267.52,267.52,0,0,1-38.2-1.12,67.42,67.42,0,0,0-16.87.34c-5.34.8-8.46,4.94-6.8,9.41,1.93,5.2,4.45,10.1,9.59,13.14a92.63,92.63,0,0,0,14.84,7.34,149.37,149.37,0,0,0,25.25,6.85,188,188,0,0,0,23.17,3h0c.09,4.45,1.81,8.68,1.81,13.15-17.14.05-33.63-3.51-49.71-9.16C293.51,825.65,283.61,821.45,274.67,815.27Z" style="fill:#881215"/><path d="M529.42,306.76a5.14,5.14,0,0,1,1.16.71c5.59,6.46,13.19,7.92,21.16,8.73,11.5,1.16,23,2.68,34,6.51,24.14,8.39,43.21,22.78,54.47,46.3,4,8.39,6.48,17.29,8.6,26.29a147.32,147.32,0,0,1,3.41,21,29.91,29.91,0,0,1-.19,8.29c-.85,4.42-1.36,4.88-5.74,4.73A58.89,58.89,0,0,1,634,427.24c-21.86-5.46-42.33-14.05-61-26.82-15.72-10.76-25.76-25.35-30.64-43.66-1.94-7.3-3.3-14.71-4.57-22.15-.63-3.64-1.28-7.28-2-10.9-.83-3.89-2.56-7.25-6.23-9.27C529.45,311.88,529.43,309.32,529.42,306.76ZM640.51,416.1l-.92-.93a3.8,3.8,0,0,0-.78-2.12c-10.13-13.33-20.42-26.53-32.07-38.6a2.29,2.29,0,0,1-1-2.26c2.09-1.44,4.81-1.06,7.23-1.77,2.62-.76,5.21-.37,7.79-.64,2.37-.24,5,.82,7.55-1.16-8.52-2.92-16.66-3.43-24.86-1.07a4.25,4.25,0,0,1-5.21-1.71A62.81,62.81,0,0,0,587,354.43a51.09,51.09,0,0,1-9.38-9.77c7.19-1.1,13.86-1,20.77-1.18-.48-.6-.62-1-.85-1-7.11-1.83-14.32-1.7-21.52-.87-1.48.17-2.75.48-3.76-.75-1.79-2.17-4.22-3.57-6.37-5.31A124.4,124.4,0,0,0,546,322.14c-1.23-.65-2.84-2.33-4.09-.67s.66,2.83,1.75,3.74q7.79,6.5,15.73,12.77c3.33,2.63,3.59,2.61,2,6.71-2.13,5.38-2.24,11.1-3.19,16.67-.55,3.22.38,6.41.88,9.59.13.8-.23,2,1.77,1.9-.09-10,.05-20.12,4.39-29.61,3.08.25,4.52,2.75,6.54,4.28a100.26,100.26,0,0,1,12.5,10.89c1.28,1.34,1.94,2.66,1.36,4.55a93.89,93.89,0,0,0-2.91,13.93,35.72,35.72,0,0,0,1.08,16.85,6.34,6.34,0,0,0,.27-2.27,99,99,0,0,1,3.7-26.34c.7-2.65,1.17-2.78,3.22-.88,4.51,4.17,8.92,8.47,13.54,12.54,2.55,2.25,3,4.5,2,7.77-2.11,7-2.4,14.21-2.08,21.46,0,.82-.31,2,1.65,2.07,0-8.35,1.53-16.5,3.38-25,7.87,6.87,14.23,14.55,20.9,21.94,3.07,3.4,5.54,7.36,9.24,10.19l.93.92c.15.45.29.53.36.22C640.89,416.27,640.64,416.17,640.51,416.1Z" style="fill:#386f36"/><path d="M383.92,654c-10.19,7.33-20.89,5.68-31.68,1.74a54.61,54.61,0,0,1-5.38-2.64,2,2,0,0,0-1.75-1l.06,0c-1.36-1.46-2.76-2.89-4.07-4.39-4.51-5.19-4.36-10.74.34-15.66a18.71,18.71,0,0,1,5.57-4,20.83,20.83,0,0,0,9-8.28c4.62-7.06,7-14.91,8.36-23.15q1.32-6,2.65-12L369,577c9.93-39,22.66-77,39.93-113.45A417.79,417.79,0,0,1,443.2,404q17.81-25.62,33.34-52.67c.2.69.21,1.47.91,1.92,2.25,5.06,7.23,6.27,11.67,8.19,2.24,1,4.87.54,7.05,1.8-1.18.23-2.8-.08-2.24,2.11.11.44-.42,1-.65,1.57-1.47,1.57-2.92,3.16-4.4,4.72-26.53,27.84-48.07,59.25-66.27,93-14.52,26.92-27,54.63-32.6,85-1.59,8.61-3.81,17.11-4.25,25.9-1.12,2-.85,4.16-.93,6.29-1.27,3.91-1.16,8-1.55,12a145.82,145.82,0,0,0-.8,30.69A37.33,37.33,0,0,0,385.1,636C387.75,642.17,387.89,648.24,383.92,654ZM369,656.78a21.57,21.57,0,0,0,10.57-2.91c5-3.06,6.53-8.38,4-13.59-.8-1.67-2-2.87-3.88-2.78a4,4,0,0,0-3.84,3.45,21.29,21.29,0,0,0-.24,3.67c-.2,3.33-1.65,5-4.89,5.68-7.07,1.47-13.29-.77-19.23-4.32-1.45-.87-2.88-1.8-4.4-2.53-1-.49-2.15-1.71-3.3-.42s-.09,2.63.55,3.79a6.62,6.62,0,0,0,1.62,1.59C352.63,654,360.62,656,369,656.78Z" style="fill:#819b3e"/><path d="M525.83,355c14.29,20.51,29.94,40,45.7,59.34,31.52,38.75,59.57,79.79,81.35,124.88,3.81,7.9,7.24,16,10.85,24a6.86,6.86,0,0,0,1.69,3.89c.94,4.1,2.74,7.9,4.2,11.82a70.22,70.22,0,0,0,7.18,16.85c1.24,3.41,3.85,5.75,6.36,8.16a22,22,0,0,0,3.68,4.68c1.1,4.2-.13,7.44-4.28,10a38.77,38.77,0,0,1-20.43,5.88c-4.62,0-5.38-.79-5.91-5.58,0-2.23,1.34-4.25,1-6.52a28.18,28.18,0,0,0-1.06-9.27,89.79,89.79,0,0,0-3.79-18.43,55,55,0,0,0-2.94-10.29c-.57-1.86-1.13-3.73-1.7-5.59a314,314,0,0,0-19.22-43.94c-21.76-41.21-49.39-78.33-79.55-113.66-8.49-9.94-17.33-19.59-26-29.37a10.59,10.59,0,0,1-1.66-2.7c-1.39-5.6-2.64-11.23-3.94-16.85C520.46,360.19,524.18,358.81,525.83,355Z" style="fill:#9eba4c"/><path d="M685,697.49c3.08-.57,5,1.29,6.56,3.43,6.21,8.59,12,17.35,16.32,27.17a205.9,205.9,0,0,1,13,41.67c2.41,11.81,3.73,23.84,5.64,35.75.26,1.65-1.05,2.06-1.66,3-7.46,2.32-15.19,3.38-22.87,4.61-3.46.55-6.93,1.31-10.48,1.11-1.27-.32-1.46-1-1.32-2.34.72-7.33,1.54-14.64,1.35-22a188.11,188.11,0,0,0-3.75-32.36,132.12,132.12,0,0,0-13.92-37.92c-.73-1.33-1.16-2.89-2.65-3.68-1.32-4.38-4.6-7.5-7.13-11.1-1.32-1.86-2.75-3.65-4.13-5.47,3.07-.05,6.2.29,9.18-.23C674.35,698.2,679.72,698.5,685,697.49Z" style="fill:#710d0f"/><path d="M525.83,355c-1.65,3.82-5.37,5.2-8.52,7.25a59.42,59.42,0,0,1-21.14.95c-2.18-1.26-4.81-.82-7.05-1.8-4.44-1.92-9.42-3.13-11.67-8.19.2-1.31.74-1.86,2.19-1.35,2.18.74,4.43,1.26,6.63,1.91a24.68,24.68,0,0,0,20.43-2.35c5.89-3.55,5.25-9.46.25-12a40.93,40.93,0,0,0-12.69-3.83c-3.21-.47-6.38-1-9.18-2.76s-2.71-4,.08-5.66a16.75,16.75,0,0,1,5.61-1.88c5.2-.95,10.41-.72,15.63-.82,2.1,0,4.2-.48,4.75-2.81s-1.81-2.93-3.16-4a8,8,0,0,0-1.69-.68c-2.65-1.22-5.46-.82-8.2-.76a10.59,10.59,0,0,1-6.53-1.91c-2.34-1.65-2.33-3.53.08-5.1a25.17,25.17,0,0,1,8.1-3.24c3.73-.88,7.49-1.65,10.91-3.56,2.1-1.17,3.37-2.67,2.92-5.18-.39-2.16-1.88-3.24-4.83-3.26a35.38,35.38,0,0,0-7.79.56c-3.13.68-6.61,1.22-9.11-2,1.15-1.6,2.67-1.94,4.12-2.39,4-1.22,8-2.27,11.87-3.71,3.58-1.32,7.22-2.77,9.73-5.9,3-3.78,2.09-7.64-2.19-9.82-2-1-4.49-1.07-6.34-2.57,7.62-2.47,11.59-.8,14.81,6.49,3.1,7,4,14.51,4.65,22.05q.45,5.07.92,10.12c0,2.56,0,5.12,0,7.68q-.45,8.46-.92,16.92A161.61,161.61,0,0,1,525.83,355Z" style="fill:#592d12"/><path d="M509,268.1c1.85,1.5,4.29,1.53,6.34,2.57,4.28,2.18,5.22,6,2.19,9.82-2.51,3.13-6.15,4.58-9.73,5.9-3.88,1.44-7.9,2.49-11.87,3.71-1.45.45-3,.79-4.12,2.39,2.5,3.21,6,2.67,9.11,2a35.38,35.38,0,0,1,7.79-.56c2.95,0,4.44,1.1,4.83,3.26.45,2.51-.82,4-2.92,5.18-3.42,1.91-7.18,2.68-10.91,3.56a25.17,25.17,0,0,0-8.1,3.24c-2.41,1.57-2.42,3.45-.08,5.1a10.59,10.59,0,0,0,6.53,1.91c2.74-.06,5.55-.46,8.2.76a8,8,0,0,1,1.69.68c1.35,1.11,3.71,1.7,3.16,4s-2.65,2.77-4.75,2.81c-5.22.1-10.43-.13-15.63.82a16.75,16.75,0,0,0-5.61,1.88c-2.79,1.67-2.82,4-.08,5.66s6,2.29,9.18,2.76A40.93,40.93,0,0,1,507,339.41c5,2.54,5.64,8.45-.25,12a24.68,24.68,0,0,1-20.43,2.35c-2.2-.65-4.45-1.17-6.63-1.91-1.45-.51-2,0-2.19,1.35-.7-.45-.71-1.23-.91-1.92l0-18.26c.12-4.08,1.5-8,1-12.18.6-4,1.34-8,1.06-12.09,1.59-4.33,1.51-9,2.7-13.41,1.32-4.89,2.35-9.88,5.45-14.08a60.29,60.29,0,0,1,20.54-12.82A10.37,10.37,0,0,1,509,268.1Z" style="fill:#794720"/><path d="M665.42,567.09a6.86,6.86,0,0,1-1.69-3.89l1.08-.34.25.09.08-.26c17.65-5.86,35.72-9.14,54.37-8.66,21,.54,40.33,6,57.39,18.58a18.35,18.35,0,0,1,1.65,1.54c0,2.28,1.5,4,2.38,6,1.76,3.92,4.21,7.55,5,11.89-4.27-3.33-7.5-7.79-11.71-11.15-17.32-13.85-37.47-20.05-59.34-21.19a95.39,95.39,0,0,0-15.64.69A146.2,146.2,0,0,0,670.82,566,16.09,16.09,0,0,1,665.42,567.09Z" style="fill:#b12126"/><path d="M353.39,838.39c0-4.47-1.72-8.7-1.81-13.15a75.09,75.09,0,0,1,8.23.19c4.63.59,4.61.74,4.74-4,0-.3,0-.61,0-.91,1.55,3.08.76,6.58,1.75,9.79.8,2.62,1.16,5.36,1.71,8C363.16,838.34,358.28,839.48,353.39,838.39Z" style="fill:#720e10"/><polygon points="665.14 562.69 665.06 562.96 664.81 562.86 664.89 562.61 665.14 562.69" style="fill:#9eba4c"/><path d="M234,81.93c4.25.83,7.32,3.88,10.79,6q20.37,12.66,40.33,26c15.07,10.06,29.79,20.65,44.28,31.55,5.27,4,10.29,8.27,15.42,12.42a3.55,3.55,0,0,0,2.59,1c2.2-4.18,1.83-9,2.09-13.36.51-8.57,1.87-17.15,1.16-25.78-.35-4.27-.83-8.53-1.36-12.79-.13-1.05-.8-2.22.71-2.63,1.22-.33,1.43.8,1.74,1.67a136.88,136.88,0,0,1,6.49,25.37c1.14,7.55.62,15.06.7,22.58a29.92,29.92,0,0,1-1.31,9.06c-1.06,3.46.25,5.45,2.77,7.5,7.26,5.91,14.42,11.95,21.53,18,10.85,9.3,21.7,18.59,32.17,29.35.61-3.35,1.46-6,1.43-8.87-.07-6.32.42-12.69-.16-19-.51-5.48-.29-11-1.5-16.45a17.71,17.71,0,0,1,.08-6.56c2.21,2.58,2.58,5.19,3.26,7.56A133,133,0,0,1,422,217.54c0,.46.14,1,0,1.37-2.05,4.09.35,6.54,3.06,9.09,9.09,8.56,17.2,18.05,25.43,27.4a252.9,252.9,0,0,1,22.2,29.36c.84,1.29,1.54,2.66,2.33,4,1,1.68.27,3-1,4.05s-2.74,1.63-4.17.24c-1.77-1.71-4-2.85-5.71-4.66-3.94-4.13-8.1-8.05-12.07-12.15q-12-12.41-23.09-25.72c-1.28-1.54-2.43-1.95-4.33-1a121.93,121.93,0,0,1-30.95,10.41c-6.14,1.26-12.28,2.72-18.65,2.53-3.68-.1-7.26,1-11,1s-7-1.22-10.53-1.1a1.58,1.58,0,0,1-1.74-1.72,1.62,1.62,0,0,1,1.63-1.83c1.08-.09,2.16-.07,3.24-.08a153.75,153.75,0,0,0,57.81-12q3.19-1.32,6.34-2.76c1.1-.51,1.13-1.33.39-2.22-.29-.36-.62-.68-.94-1C410.1,229.94,400,219.15,389.2,209c-3.24-3-6.71-5.88-9.82-9.07-1.45-1.5-2.81-1.35-4.55-.52-13.16,6.25-27.18,9.68-41.47,12-9.91,1.61-20,1-30,1a7,7,0,0,1-1.83-.21c-.75-.22-1.42-.65-1.33-1.59s.8-.95,1.37-.91c4.18.32,8.26-.93,12.38-.91,6.21,0,12.19-1.36,18.2-2.47,12.28-2.26,24.08-6.26,35.83-10.39,1.16-.4,2.3-.87,3.43-1.34.44-.18.84-.42,1.9-1-5.51-3.75-9-8.53-13.56-12.09-4.26-3.32-7.93-7.25-12.11-10.65C341.74,166.08,336,161,330.12,156c-2.12-1.79-3.8-1.56-5.8-.71a111.06,111.06,0,0,1-20.64,6.55c-9.29,2-18.57,4-28.13,4.3-2.45.08-4.77,1.3-7.29.91-1.39-.21-3.38.61-3.58-1.77-.18-2.1,1.65-1.9,2.92-2.13,5-.9,9.95-1.69,14.92-2.58a337.85,337.85,0,0,0,37.09-9c1-.3,2.2-.28,2.8-1.68-1.37-2.39-4-3.64-6.05-5.31q-25.82-20.81-52.46-40.54c-9.37-7-18.93-13.66-28.41-20.46A4.1,4.1,0,0,1,234,81.93Z" style="fill:#205e2f"/><path d="M234,81.93c-.13-.07-.39-.17-.38-.21.07-.31.22-.24.37.21Z" style="fill:#205e2f"/><path d="M684,769.69c-.06,9.19.34,17.52-.65,25.92a170.46,170.46,0,0,1-4.84,26.18c-3.59,12.76-8.08,25.11-14.72,36.72a126.76,126.76,0,0,1-24.05,30.77,131.84,131.84,0,0,1-26.88,19.29,166.09,166.09,0,0,1-47.3,16.36c-6.58,1.29-13.38,1.62-20.08,2.31-11.87,1.22-23.72.78-35.55.61a187,187,0,0,1-29.25-3,146.75,146.75,0,0,1-19.26-4.39c-11.07-3.51-21.71-7.88-29.86-16.67-4-4.28-6.94-9.25-7.56-15-.83-7.86,2-14.68,12-14.64,6.93,0,13.4,1.78,19.79,3.89a236.19,236.19,0,0,0,31.56,8.57c6.17,1.14,12.41,1.82,18.63,2.61,8.63,1.1,17.23.47,25.83.77,12.68.45,25.11-1.47,37.47-3.91a153.81,153.81,0,0,0,39.54-13.67A148.68,148.68,0,0,0,640.43,851c9-7.92,16.2-17.14,23-26.82,5.51-7.81,8.53-16.68,11.24-25.65,2.26-7.49,3.89-15.16,5.94-22.71C681.15,774,681.46,771.86,684,769.69Z" style="fill:#9d1115"/><path d="M534,668.83c-10.78,1.3-21.67,1.65-32.13,5.25-8.82,3-16.51,7.6-22.5,14.71A31.89,31.89,0,0,0,472,707.36c-1,13.52,4.56,24.87,12.37,35.34A81.92,81.92,0,0,0,502,759.54c4.35,3.2,9.24,5.48,13.62,8.64a38.35,38.35,0,0,1,5.54,4.85c2.88,3.06,2.14,5.32-1.89,6.74-5.11,1.8-10,.78-14.9-.71-12.95-3.94-24.42-10.79-35.72-18-15-9.6-25.25-23.1-32.23-39.28a26.65,26.65,0,0,0-6.16-9.13,3.6,3.6,0,0,0-4.23-.9c-2.22,1-4.63,1.83-6.46,3.53-6.79,6.31-13.07,13-17.92,21A111.91,111.91,0,0,0,387.11,774c-1.21,6.46-1.46,13.1-2.38,19.59-.87,6.11.12,12.32-1.54,18.33a8.47,8.47,0,0,0-.1,2.76c.55,7.71-.93,15.34-1,23,0,1.91-.8,3.8-1.23,5.71-2-.09-2.65-1.33-3.35-2.5A26.44,26.44,0,0,1,374,830.43c-1-8.21-2.29-16.41-2.08-24.74.14-5.24-.17-10.49.07-15.73.83-18.09,4.38-35.56,11.74-52.22a99.63,99.63,0,0,1,21.86-31.66,107.25,107.25,0,0,1,23.76-17.34,212.71,212.71,0,0,1,46.77-18.23c10.54-2.79,21.17-5.13,31.89-7a152.66,152.66,0,0,1,17.78-2.28,23.76,23.76,0,0,0,9-1.71A28.58,28.58,0,0,1,534,668.83Z" style="fill:#ef3641"/><path d="M534,668.83a28.58,28.58,0,0,0,.74-9.26c.06-2.09.11-4.19.17-6.28a356.18,356.18,0,0,0,.34-45.74c-.47-8-.5-16-1-24-1-16.6-2.67-33.14-4.62-49.66-2-17.28-4.63-34.48-7.66-51.6a1028.74,1028.74,0,0,0-26.32-111.88c-.39-1.32-.2-3.29-2.37-3.52.23-.53.76-1.13.65-1.57-.56-2.19,1.06-1.88,2.24-2.11a59.42,59.42,0,0,0,21.14-.95c1.3,5.62,2.55,11.25,3.94,16.85a10.59,10.59,0,0,0,1.66,2.7c-1.09.59-.79,1.52-.58,2.41,3.84,16.32,6.82,32.82,9.48,49.35,2.25,14,4.09,28,6,42,1.54,11.43,3,22.87,4.3,34.32,1.17,10.39,2.1,20.81,3.08,31.22q1.77,18.6,3.43,37.21c.73,8.43,1.4,16.86,1.95,25.3,1,15.51,2.12,31,2.8,46.54.15,3.49,2.57,2.66,4.18,3.54-4.13.42-4.14.42-3.51,4.54.11.74.25,1.48.37,2.22a49.94,49.94,0,0,0,.27,9.23q.58,12.06,1.18,24.1.25,5.57.52,11.11l.09,7.3c-.09,1.26-.19,2.51-.28,3.77-3.08,4.9-8,7-13.26,8.2-7.06,1.58-10.39.07-13.58-5.35a2,2,0,0,0-.78-1.94,4,4,0,0,0-.08-.85,4.52,4.52,0,0,0,.78-2.92,26,26,0,0,0,1.11-8.22c1-2,.93-4.23.86-6.41,1.31-3.36,1.06-7,1.42-10.43C533.3,681.65,534.38,675.29,534,668.83Z" style="fill:#b1d25a"/><path d="M480.2,650.29c1.56,3.2,1.94,6.74,2.9,10.12-6.35,1.79-12.75,3.43-19.05,5.39a164.62,164.62,0,0,0-52.55,27.32c-21.44,16.67-36,38.13-43,64.47a114.19,114.19,0,0,0-4,28.65,4.06,4.06,0,0,1-.8,3l-.09-1.81c-.18-4.05-.52-4.24-4.59-3.46-3.08.59-6.2,1-9.3,1.42a147.78,147.78,0,0,1,10.92-53.34A115.35,115.35,0,0,1,379.38,701c3.5-4.17,6.47-9.06,11.48-11.89a5.7,5.7,0,0,0,2.39-2.76l1.85-.93a57.76,57.76,0,0,0,25-13.5c1.54-1.36,3.54-2.54,3.72-5l2.72-1.9A186.94,186.94,0,0,1,458.14,654C465.41,652.29,472.59,650,480.2,650.29Z" style="fill:#710d0f"/><path d="M554.65,669.67a49.94,49.94,0,0,1-.27-9.23A142,142,0,0,1,606,668.63,92.38,92.38,0,0,1,637.74,687c10.62,9.5,17.71,21.26,20.12,35.41,2.5,14.71.57,28.72-7.89,41.45-7.75,11.68-19.05,18-32.19,21.55-9.89,2.67-20,3.21-30.18,2.82a9.66,9.66,0,0,1-5.92-2c1-2.35,2.85-3.38,4.86-4.21a213.43,213.43,0,0,1,26.71-8.68,56.86,56.86,0,0,0,17.74-7.6c9.24-6.28,13.74-15.18,14.09-26.09.23-7.5.83-15.08-1.73-22.43-3.1-8.89-7.87-16.7-15-22.85a90.41,90.41,0,0,0-30-16.78,139.66,139.66,0,0,0-30.45-7A104.23,104.23,0,0,0,554.65,669.67Z" style="fill:#ef3641"/><path d="M566.26,652.11a16.79,16.79,0,0,1,2-6.47c2.07-1.66,4.14,0,6.21,0,10.17.27,20.08,2.4,29.93,4.65,22.72,5.21,44,13.75,62.87,27.71,7.43,5.5,14.55,11.35,20.45,18.53-1,.05-2.12-.15-2.79.93-5.25,1-10.62.71-15.89,1.63-3,.52-6.11.18-9.18.23-2.88-2.1-5.17-4.82-7.66-7.33-7.21-7.28-15.61-12.9-24.42-18-12.74-7.4-26.46-12.29-40.73-15.69-6-1.42-11.93-2.9-18.06-3.35C567,654.81,566.32,653.9,566.26,652.11Z" style="fill:#93181b"/><path d="M561.88,765a151.29,151.29,0,0,1-20.21-1.81,5.47,5.47,0,0,1-1.35-.26c-1.71-.75-4.59-.48-4.26-3.27.28-2.4,2.79-2.6,4.74-2.88a42.56,42.56,0,0,1,5.54-.23c10.35-.09,20.65-.66,30.66-3.58,6.45-1.88,12.4-4.73,17.19-9.59a25.72,25.72,0,0,0,7.6-16.91A37.91,37.91,0,0,0,599,708.37a39.82,39.82,0,0,1-2.63-8.84c-.25-1.39-.33-2.91,1.1-3.73s2.67,0,3.78.91a26.36,26.36,0,0,1,5.78,7.17,73.81,73.81,0,0,1,9.32,28.35c1.26,10-2.66,17.74-11.11,23.21-6.47,4.19-13.72,6.29-21.18,7.62A132.94,132.94,0,0,1,561.88,765Z" style="fill:#eeaebc"/><path d="M531.21,698.46c.07,2.18.17,4.37-.86,6.41-6.45-.37-12.53,1.31-18.32,3.87-4.13,1.83-8.21,4.52-9.19,9.14-1.52,7.08.28,13.55,6.84,18.33,5,3.66,11.06,4.24,17.05,4.7a7.21,7.21,0,0,1,4.55,1.78c-.1.12-.18.33-.3.35-12.56,2.9-24.79,2.38-35.56-5.37-4.61-3.32-10-13.31-6.71-20.66a20.81,20.81,0,0,1,9-9.6c6.88-3.91,14.49-5.73,22.23-7.19C523.67,699.51,527.58,699.88,531.21,698.46Z" style="fill:#b12126"/><path d="M556.35,704.88q-.27-5.55-.52-11.11a15.83,15.83,0,0,0,2.76-.08c8.59-1.7,16.48-.24,23.21,5.51,6.5,5.55,8.54,10.44,2.75,18.22a35.29,35.29,0,0,1-16.14,12.5l-.09-2.83c2.09-1.85,4.17-3.85,3.56-6.93C570.63,713.91,562.53,705.3,556.35,704.88Z" style="fill:#b12126"/><path d="M349.72,785.43c3.1-.47,6.22-.83,9.3-1.42,4.07-.78,4.41-.59,4.59,3.46l.09,1.81a278.58,278.58,0,0,0,.89,31.25c0,.3,0,.61,0,.91-.13,4.73-.11,4.58-4.74,4a75.09,75.09,0,0,0-8.23-.19h0a19.17,19.17,0,0,0-.09-3.22,102.09,102.09,0,0,1-1.78-20.94c.08-5.22,0-10.44,0-15.65Z" style="fill:#5e090b"/><path d="M568.32,727.09l.09,2.83c-1.21,5-4.44,8.11-8.91,10.44-7.73,4-15.86,4.08-24.17,3-1.36-.17-2.7-.47-4.05-.71a7.21,7.21,0,0,0-4.55-1.78c-2.93-2.23-6.14-4-8.67-6.83-4.69-5.18-4.68-10.11.42-15a25.71,25.71,0,0,1,10.76-6,4.52,4.52,0,0,1-.78,2.92c-4.12.3-5.29,1.34-5.53,5.08a11.3,11.3,0,0,0,.39,4.11,13,13,0,0,0,7.16,8c7.26,3.65,14.91,2.76,22.51,1.54a21.71,21.71,0,0,0,8.14-3.15c2.11-1.34,4.08-3.07,4-5.8-.09-4.14-4.68-9-9-9.83.09-1.26.19-2.51.28-3.77A27.78,27.78,0,0,1,568.32,727.09Z" style="fill:#7e953d"/><path d="M174.7,443.9c1.05-6.5,4-12.25,7.26-17.83a194.34,194.34,0,0,1,21.22-28.91c13.1-15.16,28-28.11,45.25-38.17a105.22,105.22,0,0,1,35.32-13c15.38-2.61,30.3-1,44.39,6.09,7.6,3.8,13.77,9.19,17.86,16.76a18.08,18.08,0,0,0-2.05,1.07c-3.46,2.39-6.31,1.73-9.56-.89A41.62,41.62,0,0,0,324,363.19a101,101,0,0,0-25.78-6.53c-10.93-1.4-21.77-.7-32.63.36-.73.07-1.86.19-1.86,1.65,7.23.18,14.44.21,21.65.81,10.15.85,20.13,2.22,29.61,6a61.58,61.58,0,0,1,16.13,9.82,10.37,10.37,0,0,1-3.68,2.4c-10.25,5.32-20.83,10-30.82,15.85-4,2.32-8.16,4.34-12.17,6.62-1.72,1-3,.76-4.58-.38a47.23,47.23,0,0,0-5.66-3.95c-9.78-5-20.2-7.11-31.07-7.56a110.7,110.7,0,0,0-18.39,1.06c-4.24.54-8.4,1.74-12.58,2.69-.85.2-2,.49-1.5,1.76.32.83,1.18.66,2,.59,8.71-.71,17.41-1.77,26.19-1.44,7.39.27,14.72,1.11,21.65,3.79,5.26,2,10.44,4.4,14.95,8.52-6,3.75-11.81,7.16-17.41,10.88-10.5,7-21.18,13.69-31.19,21.36a6.52,6.52,0,0,1-6.45,1.13,53.75,53.75,0,0,0-13.59-2.14c-6.66-.25-13.13,1.15-19.47,3C183.05,440.77,178.9,442.42,174.7,443.9Z" style="fill:#43932e"/><path d="M174.7,443.9c4.2-1.48,8.35-3.13,12.62-4.39,6.34-1.86,12.81-3.26,19.47-3a53.75,53.75,0,0,1,13.59,2.14,6.52,6.52,0,0,0,6.45-1.13c10-7.67,20.69-14.39,31.19-21.36,5.6-3.72,11.39-7.13,17.41-10.88-4.51-4.12-9.69-6.49-14.95-8.52-6.93-2.68-14.26-3.52-21.65-3.79-8.78-.33-17.48.73-26.19,1.44-.81.07-1.67.24-2-.59-.48-1.27.65-1.56,1.5-1.76,4.18-.95,8.34-2.15,12.58-2.69a110.7,110.7,0,0,1,18.39-1.06c10.87.45,21.29,2.59,31.07,7.56a47.23,47.23,0,0,1,5.66,3.95c1.62,1.14,2.86,1.36,4.58.38,4-2.28,8.18-4.3,12.17-6.62,10-5.83,20.57-10.53,30.82-15.85a10.37,10.37,0,0,0,3.68-2.4A61.58,61.58,0,0,0,315,365.5c-9.48-3.8-19.46-5.17-29.61-6-7.21-.6-14.42-.63-21.65-.81,0-1.46,1.13-1.58,1.86-1.65,10.86-1.06,21.7-1.76,32.63-.36A101,101,0,0,1,324,363.19a41.62,41.62,0,0,1,10.41,5.86c3.25,2.62,6.1,3.28,9.56.89a18.08,18.08,0,0,1,2.05-1.07l.06,0c1,2.36,2,4.7,1.86,7.35,0,.3,0,.61,0,.91a13.2,13.2,0,0,0-1.77.48c-12.21,5.1-24,11-35.85,17-1.66.84-2.07,1.76-1.53,3.66,2.6,9.18,3.43,18.62,4,28.11.23,4-.63,7.93-.93,11.9l0,.95c-2.61.42-4.26,2.52-6.44,3.7l-.05-.05c-.13-2,.94-3.83,1-5.88a166.37,166.37,0,0,0-2.83-35.71c-.46-2.37-.75-2.48-2.9-1.41-8.95,4.48-17.64,9.42-26.18,14.61C265,420.18,255.9,426.18,246.65,432c-2.41,1.5-3.77,3.17-3.5,6.3a87.52,87.52,0,0,1,0,12A67.64,67.64,0,0,1,240.5,467l-.06.06a8,8,0,0,1-4.57.92,127.69,127.69,0,0,0,1.54-29.27,14.14,14.14,0,0,0-2.22.95c-13.39,9.49-26.7,19.09-39.59,29.26-2.13,1.69-4.83,2.84-6.1,5.51h-1.81l-3.75-1.89c1.57-2.78,4.43-4.18,6.7-6.21,7.76-6.94,15.76-13.6,24.12-19.8,1-.72,2.14-1.27,2.16-3.06a27.67,27.67,0,0,0-10-2.39,77,77,0,0,0-28.05,4c-1.46.47-2.89,1.29-4.19-.28Z" style="fill:#267c28"/><path d="M240.5,467a67.64,67.64,0,0,0,2.69-16.71,87.52,87.52,0,0,0,0-12c-.27-3.13,1.09-4.8,3.5-6.3,9.25-5.78,18.37-11.78,27.68-17.45,8.54-5.19,17.23-10.13,26.18-14.61,2.15-1.07,2.44-1,2.9,1.41A166.37,166.37,0,0,1,306.24,437c0,2.05-1.11,3.85-1,5.88a282.28,282.28,0,0,1-31.45,13.89A250,250,0,0,1,240.5,467Z" style="fill:#43932e"/><path d="M311.78,438.3c.3-4,1.16-7.87.93-11.9-.55-9.49-1.38-18.93-4-28.11-.54-1.9-.13-2.82,1.53-3.66,11.81-5.95,23.64-11.88,35.85-17a13.2,13.2,0,0,1,1.77-.48c1.22,3.76,2.59,7.5,1.26,11.53-.73,2.23-.12,4.57-.69,6.86A56.47,56.47,0,0,1,334.22,421a99.68,99.68,0,0,1-19.94,16.27A4.78,4.78,0,0,1,311.78,438.3Z" style="fill:#43932e"/><path d="M347.92,376.26c.14-2.65-.9-5-1.86-7.35,15.23-6.64,30.56-13,46.11-18.86,7.92-3,16-5.59,24-8.34a11.6,11.6,0,0,1,2.68-.55c1.5-.17,2.2.82,2.74,2a2.54,2.54,0,0,1-.53,3,5.79,5.79,0,0,1-2.31,1.45c-11,4.27-22.09,8.54-33.09,12.9-6.29,2.49-12.5,5.18-18.78,7.71-1.71.69-1.87,1.54-1.13,3.16a86.5,86.5,0,0,1,7.51,23.16,102.31,102.31,0,0,1,.84,27.48,143.89,143.89,0,0,1-5.72,27.41c-1.88,5.89-4.83,11.32-7.61,16.81a3.48,3.48,0,0,1-2.24,2c-.65-.88-.4-1.82-.1-2.82,2.68-8.81,5.23-17.64,7.18-26.66,2.16-10,3.43-20.05,2.55-30.19a113,113,0,0,0-8.54-33.79c-.84-2-1.94-2.2-4-1.58C352.94,374,350.75,375.94,347.92,376.26Z" style="fill:#205e2f"/><path d="M189.5,474.41c1.27-2.67,4-3.82,6.1-5.51,12.89-10.17,26.2-19.77,39.59-29.26a14.14,14.14,0,0,1,2.22-.95A127.69,127.69,0,0,1,235.87,468l-.09.86c-5.51,1.08-11,2.25-16.54,3.23-7.47,1.32-14.85,3.3-22.52,3.32A23.13,23.13,0,0,1,189.5,474.41Z" style="fill:#43932e"/><path d="M174.7,444.79c1.3,1.57,2.73.75,4.19.28a77,77,0,0,1,28.05-4,27.67,27.67,0,0,1,10,2.39c0,1.79-1.2,2.34-2.16,3.06-8.36,6.2-16.36,12.86-24.12,19.8-2.27,2-5.13,3.43-6.7,6.21l-.9,0c-7-4.78-10.37-11.43-10.16-19.88A18.94,18.94,0,0,1,174.7,444.79Z" style="fill:#43932e"/><path d="M305.31,443c2.18-1.18,3.83-3.28,6.44-3.7a106.32,106.32,0,0,1-4,22.54c-2,7.08-4.26,14.1-7.86,20.59-.45.81-.79,1.68-1.26,2.47-.39.64-.84,1.4-1.78,1.12s-.88-1.22-.74-1.92a21.65,21.65,0,0,1,1.07-3.52c4.08-10.49,5.95-21.52,8-32.51A32.9,32.9,0,0,0,305.31,443Z" style="fill:#205e2f"/><path d="M183,472.55l.9,0,3.75,1.89c-1.34,2.8-4.22,3.94-6.4,5.8-6.5,5.54-13.21,10.83-19.84,16.22-.56.45-1.08,1.17-2,.51-.5-1.54.87-2.14,1.66-2.89,6.67-6.31,12.51-13.49,19.89-19.07A13.9,13.9,0,0,0,183,472.55Z" style="fill:#215f2f"/><path d="M235.78,468.82l.09-.86a8,8,0,0,0,4.57-.92c-2.39,11.91-6.56,23-14.51,32.52C230.21,489.61,234.2,479.6,235.78,468.82Z" style="fill:#215f2f"/><path d="M687.76,696.56c-5.9-7.18-13-13-20.45-18.53-18.87-14-40.15-22.5-62.87-27.71-9.85-2.25-19.76-4.38-29.93-4.65-2.07,0-4.14-1.69-6.21,0,2.74-9.58,7.42-18.23,13-26.38,15-21.89,35.53-36.93,59.51-47.63,1.83-.81,3.71-1.51,5.56-2.26l.28.07.11-.28.94-.4c.56,1.86,1.12,3.73,1.69,5.59a159.2,159.2,0,0,0-21.35,11c-11.56,7.35-22.95,14.93-32.38,25.06a27,27,0,0,0-5.87,9.3c-.45,1.29-2,3.07-.43,4.21s3.12-.52,4.44-1.5a12.51,12.51,0,0,0,2-1.93,79,79,0,0,1,10.35-9.18,185.13,185.13,0,0,1,46.19-26.63,89.79,89.79,0,0,1,3.79,18.43,27.09,27.09,0,0,0-9.35,4.81c-7.17,5.31-10.06,14.11-5.62,23.26a5.63,5.63,0,0,0,2.44,2.64,22.12,22.12,0,0,0,17.27,1.84,52.69,52.69,0,0,0,19.49-2.93c6.54-2.29,13.16-4.46,17.76-10.15,3.89-.8,6.08-3.91,8.68-6.45a4.07,4.07,0,0,0,1.27-3.78c-1.51-7.79-4.11-13.82-12.64-16.45a27,27,0,0,0-7.21-1.17,63.08,63.08,0,0,0-11.41,1.07,70.22,70.22,0,0,1-7.18-16.85c1.57-1.24,3.55-.85,5.32-1.29,10.25-2.53,20.59-3.26,30.89-.37,8.87,2.48,17,6.16,22.54,14.12,3.18,4.59,5.15,9.85,4.46,15.15-1.91,14.73-10.13,25.4-23.18,32.34a81.94,81.94,0,0,1-11.7,5.47,14.35,14.35,0,0,0-6.37,4.43,3.45,3.45,0,0,0-.87,3.41,2.63,2.63,0,0,0,2.89,1.8,46.33,46.33,0,0,0,7.37-.28,113.94,113.94,0,0,0,25.12-7.39c7.1-3.06,13.85-6.81,18.72-13.07,2.83-3.63,5.36-7.48,8.05-11.21,3.44-4.79,7.15-9.19,13.2-10.93a12.7,12.7,0,0,1,12.47,2.73c3.61,3.11,6.93,6.56,9,11a4.11,4.11,0,0,0,2.08,2.36V629a74.82,74.82,0,0,1-8.15,17c-5.9,8.84-13.94,15.4-22.19,21.83-11.43,8.9-24.71,14.15-37.93,19.55a168.5,168.5,0,0,1-30,8.83A18.67,18.67,0,0,1,687.76,696.56Zm-37.32-41.4c2.48,0,5,.13,7.37-.54,1.46-.41,3.12-1,3-3-.14-1.69-1.49-2.16-2.95-2.41-1.21-.2-2.4-.55-3.62-.69-7.77-.87-14.91-3.6-21.76-7.25-7-3.76-10.71-9.46-10.66-17.51a25.83,25.83,0,0,0-.32-5c-.45-2.31-1.43-2.68-3.67-1.8a8,8,0,0,0-2.91,2.22,14.09,14.09,0,0,0-1.83,17.47,28,28,0,0,0,7.28,8.27C629.26,651.6,639.46,654.51,650.44,655.16Z" style="fill:#b12126"/><path d="M789.62,627.16a4.11,4.11,0,0,1-2.08-2.36c-2.08-4.42-5.4-7.87-9-11a12.7,12.7,0,0,0-12.47-2.73c-6,1.74-9.76,6.14-13.2,10.93-2.69,3.73-5.22,7.58-8.05,11.21-4.87,6.26-11.62,10-18.72,13.07A113.94,113.94,0,0,1,701,653.69a46.33,46.33,0,0,1-7.37.28,2.63,2.63,0,0,1-2.89-1.8,3.45,3.45,0,0,1,.87-3.41,14.35,14.35,0,0,1,6.37-4.43,81.94,81.94,0,0,0,11.7-5.47c13.05-6.94,21.27-17.61,23.18-32.34.69-5.3-1.28-10.56-4.46-15.15-5.51-8-13.67-11.64-22.54-14.12-10.3-2.89-20.64-2.16-30.89.37-1.77.44-3.75,0-5.32,1.29-1.46-3.92-3.26-7.72-4.2-11.82a16.09,16.09,0,0,0,5.4-1.09,146.2,146.2,0,0,1,28.38-5.66,95.39,95.39,0,0,1,15.64-.69c21.87,1.14,42,7.34,59.34,21.19,4.21,3.36,7.44,7.82,11.71,11.15l1.9,3.67a87.1,87.1,0,0,1,2.74,27.75c0,.61,0,1.23,0,1.85a2,2,0,0,0-.89,1.89Z" style="fill:#e13033"/><path d="M790.51,625.26c0-.62,0-1.24,0-1.85a87.1,87.1,0,0,0-2.74-27.75c4.07,3.46,6.46,8.16,9,12.65,10.22,17.79,15.83,37.16,19.79,57.16,1.57,8,2.83,16,4.24,23.94.82,4.65,1.45,9.4,1.82,14.09a20.53,20.53,0,0,1-1.53,9c-.7,1.76-1.72,2-3.12.85s-1.88-2.74-2.53-4.32c-4.87-11.83-7.54-24.32-10.91-36.6-4-14.52-8.1-29-14.35-42.74-.11-.26-.41-.44-.62-.66v-1.85h0A1.86,1.86,0,0,0,790.51,625.26Z" style="fill:#ae1a1c"/><path d="M367.05,584.58q-1.33,6-2.65,12c-6.64,1.16-12.49,4.34-18.3,7.46-7.46,4-14.72,8.37-20.66,14.55a30.48,30.48,0,0,0-2.43,2.77c-8.66,11.49-4.75,21.38,5.83,30.42,2.8,2.38,6,4.27,9,6.39.75.53,1.57,1,2.26,1.58a2.42,2.42,0,0,1,1,2.84,2.64,2.64,0,0,1-2.6,1.57,35.14,35.14,0,0,1-15.4-2.21,153.72,153.72,0,0,1-23-11.73c-3.57-2.12-7.08-4.34-10.66-6.44-6.93-4-14.12-3.85-21.26-.82s-12.16,8.22-16.45,14.39a79.42,79.42,0,0,0-13.2,33.59c-1.77,11.21-3,22.44-3.8,33.77A166.28,166.28,0,0,1,233,742.07c-.31,1.73-.43,3.69-2,4.94-1.65-.46-2.16-1.67-2.62-3a73.69,73.69,0,0,1-2.88-13.45,126.18,126.18,0,0,1-.64-20.73c.48-16.16,2.75-32.09,8.37-47.36A79.22,79.22,0,0,1,255,629.77c7.25-6.44,15.9-10.47,24.91-13.73,19.38-7,38.69-14.19,57.89-21.68C347.37,590.63,356.8,586.34,367.05,584.58ZM329.68,658a12.27,12.27,0,0,0-4.75-4.3c-2.08-1.3-4.18-2.61-6.12-4.1-7.22-5.54-10.91-12.7-9.88-22a53.49,53.49,0,0,0,.19-5.52c0-1.1-.14-2.3-1.27-2.78-1.44-.61-2.32.54-3,1.5-6.46,8.68-7.72,19.4,1.74,28.16C313,654.85,321.12,657,329.68,658Z" style="fill:#e13033"/><path d="M480.2,650.29c-7.61-.28-14.79,2-22.06,3.71a186.94,186.94,0,0,0-31.59,11.07c1.49-4,4.2-7.39,5.14-11.74a27.78,27.78,0,0,0-1.35-17c-3.19-7.81-7-15.41-8.77-23.76-.62-2.91-1-5.74.42-8.52a118.76,118.76,0,0,1,25.82,19.86c5.95,6,10.93,12.83,15.73,19.77a8.14,8.14,0,0,0,3.73,3.29,1.87,1.87,0,0,0,2.7-2,10,10,0,0,0-.51-1.76A50.16,50.16,0,0,0,461,625.52C455.64,618,450.48,610.4,442.81,605c-3.87-2.74-7.7-5.55-11.55-8.33a22.54,22.54,0,0,1,11,2.26c1.22.58,2.35,1.46,3.81,1.4,7.86,5.34,14.08,12.31,19.55,20A90.28,90.28,0,0,1,480.2,650.29Z" style="fill:#881215"/><path d="M431.26,596.62c3.85,2.78,7.68,5.59,11.55,8.33,7.67,5.45,12.83,13.08,18.19,20.57a50.16,50.16,0,0,1,8.46,17.75A10,10,0,0,1,470,645a1.87,1.87,0,0,1-2.7,2,8.14,8.14,0,0,1-3.73-3.29c-4.8-6.94-9.78-13.78-15.73-19.77A118.76,118.76,0,0,0,422,604.06c0-.32,0-.64,0-1,1.18-3,3.1-5.11,6.46-5.59C429.49,597.6,430.33,597,431.26,596.62Z" style="fill:#ae1a1c"/><path d="M428.43,597.51c-3.36.48-5.28,2.61-6.46,5.59-3.88,0-6.77-2.64-10.16-3.93-9.22-3.53-18.6-5.81-28.53-5.39.39-4,.28-8.12,1.55-12,3.36.14,6.68.37,10,.78,12,1.46,22.39,7,32.91,12.35C429.09,595.54,429,596.43,428.43,597.51Z" style="fill:#e13033"/><path d="M356,619.73a20.83,20.83,0,0,1-9,8.28,18.71,18.71,0,0,0-5.57,4c-4.7,4.92-4.85,10.47-.34,15.66,1.31,1.5,2.71,2.93,4.07,4.39-7.5-1.69-13.5-5.91-18.47-11.53-4.65-5.26-3.42-11.55,2.59-15.24,4.28-2.63,9.16-3.47,13.92-4.65A48.89,48.89,0,0,1,356,619.73Z" style="fill:#8b191c"/><path d="M400.79,634.38a1.61,1.61,0,0,1,1.84.32c10.65,9.57,11.23,27.3-3.39,34.26a47.53,47.53,0,0,1-22,4.39c-1.86-.05-4.77.09-4.94-2.12-.14-1.77,2.71-2.06,4.44-2.54,2.36-.66,4.78-1.14,7.15-1.77a28.81,28.81,0,0,0,13.8-8c4.32-4.57,5.84-9.93,4-16.17C401,640,399.76,637.27,400.79,634.38Z" style="fill:#eeadbb"/><path d="M383.92,654c4-5.74,3.83-11.81,1.18-17.94a37.33,37.33,0,0,1-2.62-11.57c4,2.07,7.95,4.13,10.62,7.94,4.34,6.18,4,11.65-1.36,17C389.58,651.54,387.13,653.49,383.92,654Z" style="fill:#8b1a1c"/><path d="M423.83,667c-.18,2.44-2.18,3.62-3.72,5a57.76,57.76,0,0,1-25,13.5c5.45-5.45,12-9.34,18.53-13.37C416.86,670.08,420,667.75,423.83,667Z" style="fill:#93181b"/><path d="M345.11,652.07a2,2,0,0,1,1.75,1A1.79,1.79,0,0,1,345.11,652.07Z" style="fill:#8b191c"/><path d="M349.72,785.43c0,5.21.07,10.43,0,15.65A102.09,102.09,0,0,0,351.49,822a19.17,19.17,0,0,1,.09,3.22,188,188,0,0,1-23.17-3,149.37,149.37,0,0,1-25.25-6.85,92.63,92.63,0,0,1-14.84-7.34c-5.14-3-7.66-7.94-9.59-13.14-1.66-4.47,1.46-8.61,6.8-9.41a67.42,67.42,0,0,1,16.87-.34,267.52,267.52,0,0,0,38.2,1.12C343.63,786.17,346.62,785.15,349.72,785.43Z" style="fill:#710d0f"/><path d="M639.59,415.17c-3.7-2.83-6.17-6.79-9.24-10.19-6.67-7.39-13-15.07-20.9-21.94-1.85,8.55-3.33,16.7-3.38,25-2-.1-1.61-1.25-1.65-2.07-.32-7.25,0-14.49,2.08-21.46,1-3.27.54-5.52-2-7.77-4.62-4.07-9-8.37-13.54-12.54-2.05-1.9-2.52-1.77-3.22.88a99,99,0,0,0-3.7,26.34,6.34,6.34,0,0,1-.27,2.27,35.72,35.72,0,0,1-1.08-16.85A93.89,93.89,0,0,1,585.59,363c.58-1.89-.08-3.21-1.36-4.55a100.26,100.26,0,0,0-12.5-10.89c-2-1.53-3.46-4-6.54-4.28-4.34,9.49-4.48,19.57-4.39,29.61-2,.07-1.64-1.1-1.77-1.9-.5-3.18-1.43-6.37-.88-9.59,1-5.57,1.06-11.29,3.19-16.67,1.62-4.1,1.36-4.08-2-6.71q-7.95-6.27-15.73-12.77c-1.09-.91-3-2.1-1.75-3.74s2.86,0,4.09.67a124.4,124.4,0,0,1,19.86,13.37c2.15,1.74,4.58,3.14,6.37,5.31,1,1.23,2.28.92,3.76.75,7.2-.83,14.41-1,21.52.87.23.05.37.44.85,1-6.91.14-13.58.08-20.77,1.18a51.09,51.09,0,0,0,9.38,9.77,62.81,62.81,0,0,1,11.34,11.41,4.25,4.25,0,0,0,5.21,1.71c8.2-2.36,16.34-1.85,24.86,1.07-2.58,2-5.18.92-7.55,1.16-2.58.27-5.17-.12-7.79.64-2.42.71-5.14.33-7.23,1.77a2.29,2.29,0,0,0,1,2.26c11.65,12.07,21.94,25.27,32.07,38.6a3.8,3.8,0,0,1,.78,2.12Z" style="fill:#205e2f"/><path d="M640.51,416.1c.13.07.38.17.37.21-.07.31-.21.23-.36-.22Z" style="fill:#205e2f"/><path d="M640.52,416.09l-.93-.92h0l.92.93Z" style="fill:#205e2f"/><path d="M428.43,597.51c.61-1.08.66-2-.65-2.63-10.52-5.31-20.89-10.89-32.91-12.35-3.36-.41-6.68-.64-10-.78.08-2.13-.19-4.31.93-6.29a83.46,83.46,0,0,1,30,7.86c7.77,3.65,15.81,6.72,23,11.47,2.54,1.67,5.28,3.11,7.3,5.49-1.46.06-2.59-.82-3.81-1.4a22.54,22.54,0,0,0-11-2.26C430.33,597,429.49,597.6,428.43,597.51Z" style="fill:#b22227"/><path d="M369,656.78c-8.39-.82-16.38-2.74-23-8.37a6.62,6.62,0,0,1-1.62-1.59c-.64-1.16-1.74-2.44-.55-3.79s2.29-.07,3.3.42c1.52.73,2.95,1.66,4.4,2.53,5.94,3.55,12.16,5.79,19.23,4.32,3.24-.68,4.69-2.35,4.89-5.68a21.29,21.29,0,0,1,.24-3.67,4,4,0,0,1,3.84-3.45c1.86-.09,3.08,1.11,3.88,2.78,2.51,5.21,1,10.53-4,13.59A21.57,21.57,0,0,1,369,656.78Z" style="fill:#55692f"/><path d="M652.33,584.64a185.13,185.13,0,0,0-46.19,26.63,79,79,0,0,0-10.35,9.18,12.51,12.51,0,0,1-2,1.93c-1.32,1-2.81,2.64-4.44,1.5s0-2.92.43-4.21a27,27,0,0,1,5.87-9.3c9.43-10.13,20.82-17.71,32.38-25.06a159.2,159.2,0,0,1,21.35-11A55,55,0,0,1,652.33,584.64Z" style="fill:#e13033"/><path d="M698.11,622.54c-4.6,5.69-11.22,7.86-17.76,10.15a52.69,52.69,0,0,1-19.49,2.93c-1.18-.31-2.37-.59-3.54-.93-6.74-2-9.14-8.77-6.52-14.71a16.72,16.72,0,0,1,6.38-7.64c.38,2.27-1,4.29-1,6.52-2,1.67-1.87,3.49-.85,5.75a8.73,8.73,0,0,0,7.54,5.24,38,38,0,0,0,22.66-4.44c4-2.16,7.47-4.86,9.09-9.34a7.52,7.52,0,0,0-4.76-10q-3.31-.93-3.06,2.51a22,22,0,0,1-3.68-4.68c2.16,0,4.33,0,6.48.1,4.93.32,8.56,3.36,10.26,8C701.34,616,699.84,619.23,698.11,622.54Z" style="fill:#738638"/><path d="M657.18,612.34A16.72,16.72,0,0,0,650.8,620c-2.62,5.94-.22,12.75,6.52,14.71,1.17.34,2.36.62,3.54.93a22.12,22.12,0,0,1-17.27-1.84,5.63,5.63,0,0,1-2.44-2.64c-4.44-9.15-1.55-17.95,5.62-23.26a27.09,27.09,0,0,1,9.35-4.81A28.18,28.18,0,0,1,657.18,612.34Z" style="fill:#6c1010"/><path d="M698.11,622.54c1.73-3.31,3.23-6.58,1.79-10.5-1.7-4.66-5.33-7.7-10.26-8-2.15-.14-4.32-.08-6.48-.1-2.51-2.41-5.12-4.75-6.36-8.16a63.08,63.08,0,0,1,11.41-1.07,27,27,0,0,1,7.21,1.17c8.53,2.63,11.13,8.66,12.64,16.45a4.07,4.07,0,0,1-1.27,3.78C704.19,618.63,702,621.74,698.11,622.54Z" style="fill:#6c1010"/><path d="M686.84,608.6q-.26-3.44,3.06-2.51a7.52,7.52,0,0,1,4.76,10c-1.62,4.48-5.11,7.18-9.09,9.34a38,38,0,0,1-22.66,4.44,8.73,8.73,0,0,1-7.54-5.24c-1-2.26-1.1-4.08.85-5.75.53,4.79,1.29,5.57,5.91,5.58a38.77,38.77,0,0,0,20.43-5.88C686.71,616,687.94,612.8,686.84,608.6Z" style="fill:#55682f"/><path d="M646.76,569.16l-.11.28-.28-.07s.1-.27.1-.27Z" style="fill:#9eba4c"/><path d="M556.16,716c4.32.86,8.91,5.69,9,9.83.05,2.73-1.92,4.46-4,5.8a21.71,21.71,0,0,1-8.14,3.15c-7.6,1.22-15.25,2.11-22.51-1.54a13,13,0,0,1-7.16-8,11.3,11.3,0,0,1-.39-4.11c.24-3.74,1.41-4.78,5.53-5.08a4,4,0,0,1,.08.85,1.81,1.81,0,0,0,.78,1.94c3.19,5.42,6.52,6.93,13.58,5.35C548.16,723,553.08,720.85,556.16,716Z" style="fill:#607634"/><path d="M529.24,713.09a25.71,25.71,0,0,0-10.76,6c-5.1,4.84-5.11,9.77-.42,15,2.53,2.78,5.74,4.6,8.67,6.83-6-.46-12-1-17.05-4.7-6.56-4.78-8.36-11.25-6.84-18.33,1-4.62,5.06-7.31,9.19-9.14,5.79-2.56,11.87-4.24,18.32-3.87A26,26,0,0,1,529.24,713.09Z" style="fill:#8b191c"/><path d="M568.32,727.09a27.78,27.78,0,0,0-11.88-14.91l-.09-7.3c6.18.42,14.28,9,15.53,15.28C572.49,723.24,570.41,725.24,568.32,727.09Z" style="fill:#8b1a1c"/><path d="M529.32,718.8a1.81,1.81,0,0,1-.78-1.94A2,2,0,0,1,529.32,718.8Z" style="fill:#7e953d"/><path d="M650.44,655.16c-11-.65-21.18-3.56-30.11-10.27a28,28,0,0,1-7.28-8.27,14.09,14.09,0,0,1,1.83-17.47,8,8,0,0,1,2.91-2.22c2.24-.88,3.22-.51,3.67,1.8a25.83,25.83,0,0,1,.32,5c0,8.05,3.62,13.75,10.66,17.51,6.85,3.65,14,6.38,21.76,7.25,1.22.14,2.41.49,3.62.69,1.46.25,2.81.72,2.95,2.41.16,2-1.5,2.57-3,3C655.41,655.29,652.92,655.11,650.44,655.16Z" style="fill:#eeaebb"/><path d="M790.51,625.26a1.86,1.86,0,0,1-.89,1.89A2,2,0,0,1,790.51,625.26Z" style="fill:#b12126"/><path d="M329.68,658c-8.56-.92-16.73-3.11-23.12-9-9.46-8.76-8.2-19.48-1.74-28.16.71-1,1.59-2.11,3-1.5,1.13.48,1.27,1.68,1.27,2.78a53.49,53.49,0,0,1-.19,5.52c-1,9.29,2.66,16.45,9.88,22,1.94,1.49,4,2.8,6.12,4.1A12.27,12.27,0,0,1,329.68,658Z" style="fill:#eeadbb"/><text transform="translate(927.23 684.49)" style="font-size:452px;fill:#005f2d;font-family:CooperBlack, Cooper Black">Che<tspan x="871.78" y="0" style="letter-spacing:0.00439453125em">r</tspan><tspan x="1115.43" y="0" style="letter-spacing:0.009765625em">r</tspan><tspan x="1361.52" y="0">y Bi</tspan><tspan x="2239.7" y="0" style="letter-spacing:-0.00634765625em">t</tspan><tspan x="2446.05" y="0">e</tspan></text></svg>