<?xml version="1.0" encoding="utf-8"?>
<!-- Designed by Vexels.com - 2020 All Rights Reserved - https://vexels.com/terms-and-conditions/  -->
<svg version="1.1" id="Layer_1" xmlns="http://www.w3.org/2000/svg" xmlns:xlink="http://www.w3.org/1999/xlink" x="0px" y="0px"
	 viewBox="0 0 1200 1200" enable-background="new 0 0 1200 1200" xml:space="preserve">
<g>
	<path fill="#2D1F44" d="M729.129,1020.768c-0.074,4.479-0.074,8.957-0.738,13.411c-0.345,2.239-0.295,4.602-0.345,6.915
		c0.025,0.246,0,0.517,0,0.763c0,0.148,0,0.32-0.025,0.468c-0.271,8.17-0.172,16.339-1.28,24.435
		c-0.074,0.541-0.123,1.058-0.148,1.599c-0.049,0.468-0.074,0.911-0.074,1.378c-0.049,1.575-0.025,3.15-0.074,4.725
		c-0.271,6.054-0.221,12.156-1.156,18.185c-0.418,2.805-0.271,5.758-0.394,8.637c-0.172,3.839-0.246,7.653-0.91,11.443
		c-0.394,2.19-0.492,4.454-0.492,6.693c0,4.798,0.295,14.371-1.969,18.776c-3.371,6.521-9.622,4.971-17.398,5.118
		c-19.957,0.32-39.914,0.64-59.871,0.984c-19.612,0.32-39.102,1.353-58.739,2.51c-3.74,0.221-7.505,0.074-11.196,1.058
		c-1.452,0.394-3.002,0.295-4.503,0.369c-1.107,0.049-2.239,0.074-3.347,0.123c-0.615,0.025-1.23,0.049-1.846,0.049
		c-19.022,0.664-38.044,0.91-57.09,0.099c-1.747-0.074-3.494-0.123-5.241-0.271c-1.772-0.172-3.396-1.033-4.897-2.239
		c-1.304-1.058-2.313-2.559-2.535-4.577c-0.246-2.19-0.369-4.454-0.345-6.693c0.025-2.953,0.099-5.906,0.148-8.859
		c0.025-0.418,0.025-0.837,0.049-1.28c0.025-1.747,0.049-3.494,0.049-5.241c-0.025-8.17-0.049-16.315-0.099-24.485v-1.255
		c-0.049-8.736-0.098-17.472-0.148-26.207c-0.024-1.919,0.074-3.888-0.221-5.758c-0.074-0.517-0.148-1.058-0.222-1.575
		c-0.049-0.418-0.098-0.837-0.148-1.255c-0.492-4.774-0.443-9.622-0.517-14.42c-0.074-4.922-0.123-9.843-0.172-14.765
		c0-0.418-0.025-0.812,0-1.23c-0.074-6.546-0.123-13.067-0.148-19.612c-0.025-3.199,0.074-6.423,0.344-9.597
		c0.369-4.134,2.092-6.866,4.676-8.637c7.309-4.995,21.359-2.264,30.292-2.116c14.912,0.222,29.849,0.271,44.761,0.172
		c0.541,0,1.107,0,1.649-0.025c4.331-0.024,8.637-0.074,12.968-0.123c13.46-0.197,26.896-0.517,40.332-0.96
		c3.371-0.123,6.718-0.246,10.089-0.369c0-0.025,0-0.025,0.025-0.025c7.382-0.271,14.789-0.591,22.172-0.96
		c1.476-0.074,2.953-0.148,4.429-0.246c13.19-0.664,26.38-1.501,39.569-2.436c20.178-1.452,24.411,7.801,25.026,19.957
		c0,0.418,0.025,0.837,0.049,1.255v0.025C729.622,1009.793,729.203,1015.33,729.129,1020.768z"/>
	<g>
		<g>
			<path fill="#F0DED4" d="M664.829,985.899c-1.673,0.443-3.322,1.009-4.872,1.772c-3.027,1.501-5.709,3.642-8.047,6.127
				c-4.7,5.02-8.268,11.024-12.919,16.29c-2.313,2.633-4.995,5.069-8.244,6.669c-3.224,1.6-6.939,2.092-10.458,1.673
				c-7.112-0.886-13.313-4.552-20.08-5.463c-3.347-0.443-6.767-0.148-9.991,0.935c-3.199,1.083-6.177,2.83-8.859,4.946
				c-5.389,4.232-9.745,9.695-13.682,15.331c-3.888,5.734-7.776,11.566-12.575,16.684c-4.749,5.045-10.68,9.572-17.791,10.876
				c-3.494,0.689-7.136,0.468-10.557-0.271c-3.445-0.714-6.767-1.796-10.114-2.633c-3.322-0.861-6.718-1.181-10.139-1.157
				c-3.42,0.049-6.792,0.689-10.089,1.575c-0.787,0.246-1.55,0.517-2.338,0.812c-0.049-0.418-0.098-0.837-0.148-1.255
				c0.714-0.271,1.427-0.517,2.141-0.738c3.396-0.91,6.866-1.575,10.409-1.624c3.519-0.049,7.087,0.295,10.483,1.206
				c6.693,1.698,13.387,4.306,20.129,2.879c6.718-1.23,12.451-5.561,17.102-10.508c4.725-5.02,8.564-10.778,12.476-16.536
				c3.986-5.709,8.391-11.246,13.928-15.626c2.781-2.165,5.857-3.986,9.253-5.118c3.347-1.156,7.013-1.476,10.532-1.009
				c7.062,1.009,13.288,4.651,20.031,5.487c3.347,0.394,6.792-0.074,9.794-1.575c3.051-1.476,5.611-3.814,7.875-6.373
				c4.528-5.143,8.12-11.172,12.919-16.315c2.411-2.559,5.241-4.823,8.44-6.398c0.32-0.148,0.64-0.295,0.96-0.418
				C661.877,986.071,663.353,985.998,664.829,985.899z"/>
		</g>
		<g>
			<path fill="#F0DED4" d="M574.815,988.581c-8.17,9.031-11.91,21.064-18.653,31.399c-3.421,5.168-7.579,10.089-13.018,13.362
				c-5.414,3.347-12.107,4.306-18.284,3.248c-6.201-0.96-12.033-3.174-17.939-4.848c-4.479-1.304-9.08-2.264-13.682-2.116
				c0-0.418-0.025-0.812,0-1.23c4.749-0.148,9.523,0.861,14.002,2.166c5.98,1.698,11.787,3.888,17.816,4.823
				c6.004,0.984,12.279,0.099,17.447-3.101c5.192-3.125,9.277-7.899,12.624-12.968c6.447-9.819,10.138-21.507,18.037-30.711
				C573.707,988.606,574.273,988.606,574.815,988.581z"/>
			<path fill="#F0DED4" d="M638.204,987.13c-1.255,0.689-2.633,1.206-4.06,1.28c-2.092,0.197-4.11-0.221-6.029-0.91
				C631.486,987.376,634.833,987.253,638.204,987.13z"/>
		</g>
		<g>
			<path fill="#F0DED4" d="M728.047,1041.094c0.025,0.246,0,0.517,0,0.763c0,0.148,0,0.32-0.025,0.468
				c-1.575,0.025-3.125,0.025-4.675,0.025c-8.465-0.098-17.102-0.738-24.977,2.166c-0.96,0.394-1.969,0.714-2.904,1.156
				l-2.707,1.526c-0.96,0.443-1.722,1.157-2.534,1.772c-0.394,0.32-0.812,0.64-1.206,0.96l-1.058,1.132
				c-2.879,3.002-4.971,6.693-6.669,10.508c-3.347,7.727-5.291,16.069-9.228,23.746c-1.969,3.79-4.552,7.407-8.022,10.064
				c-3.396,2.707-7.653,4.331-11.935,4.799c-8.711,0.935-17.152-1.747-25.075-4.626c-7.924-3.076-15.823-6.226-24.214-7.013
				c-4.134-0.443-8.391-0.197-12.304,1.132c-3.937,1.255-7.308,3.888-9.818,7.161c-4.995,6.718-6.644,15.33-10.778,22.885
				c-2.067,3.765-4.995,7.235-8.859,9.351c-3.839,2.141-8.268,2.904-12.55,2.879c-8.736,0-16.807-3.396-24.878-5.635
				c-8.096-2.387-16.635-2.904-24.903-1.353c-1.378,0.246-2.731,0.541-4.06,0.91c-2.707,0.714-5.364,1.673-7.924,2.805
				c-1.919,0.861-3.765,1.821-5.561,2.904l-1.083,0.664c-0.295,0.197-0.664,0.099-0.861-0.197c-0.197-0.271-0.099-0.64,0.197-0.837
				l1.107-0.689c1.846-1.107,3.74-2.092,5.709-2.978c2.731-1.206,5.561-2.215,8.465-2.953c1.255-0.344,2.51-0.615,3.79-0.837
				c8.416-1.6,17.25-1.058,25.444,1.378c8.17,2.264,16.143,5.586,24.558,5.586c4.134,0.025,8.367-0.714,11.959-2.707
				c3.593-2.018,6.373-5.241,8.367-8.883c4.036-7.333,5.66-15.97,10.877-23.033c2.633-3.445,6.25-6.275,10.409-7.604
				c4.134-1.378,8.563-1.624,12.82-1.181c8.588,0.812,16.659,4.036,24.509,7.087c7.875,2.854,16.192,5.463,24.509,4.577
				c4.109-0.468,8.12-1.993,11.344-4.577c3.273-2.51,5.758-5.955,7.678-9.646c3.839-7.456,5.783-15.823,9.203-23.673
				c1.723-3.888,3.863-7.702,6.866-10.852l1.132-1.181c0.394-0.369,0.837-0.689,1.28-1.033c0.861-0.664,1.673-1.403,2.658-1.87
				l2.83-1.599c0.96-0.443,1.993-0.787,3.002-1.181c4.06-1.452,8.367-2.141,12.648-2.264c4.257-0.197,8.514-0.025,12.747,0.025
				C724.921,1041.119,726.472,1041.119,728.047,1041.094z"/>
		</g>
		<g>
			<path fill="#F0DED4" d="M726.595,1068.36c-0.049,0.468-0.074,0.911-0.074,1.378c-1.6-0.886-3.248-1.624-4.971-2.166
				c-2.928-0.861-6.053-1.058-8.908-0.074c-2.854,0.984-5.291,2.978-6.988,5.488c-3.47,5.094-4.872,11.344-6.816,17.324
				c-3.74,12.181-12.107,22.86-22.959,29.48c-10.877,6.718-24.263,8.933-36.764,6.595c-6.275-1.083-12.279-3.593-17.767-6.693
				c-5.512-2.978-10.975-6.3-17.078-7.259c-3.002-0.468-6.127-0.246-8.957,0.886c-2.83,1.132-5.291,3.027-7.407,5.266
				c-4.159,4.602-7.038,10.237-10.286,15.651c-3.076,5.168-6.816,9.942-11.147,14.125c-0.615,0.025-1.23,0.049-1.846,0.049
				c4.651-4.331,8.711-9.326,11.959-14.814c3.224-5.365,6.103-11.073,10.434-15.847c2.19-2.338,4.799-4.356,7.85-5.561
				c3.027-1.23,6.398-1.452,9.597-0.984c6.447,1.034,11.984,4.454,17.471,7.407c5.463,3.076,11.246,5.487,17.398,6.57
				c12.205,2.288,25.297,0.123,35.903-6.447c10.606-6.472,18.776-16.881,22.418-28.791c1.944-5.93,3.322-12.255,6.988-17.668
				c1.796-2.658,4.479-4.872,7.604-5.93c3.125-1.083,6.57-0.886,9.646,0.049C723.543,1066.908,725.094,1067.572,726.595,1068.36z"/>
		</g>
		<g>
			<path fill="#F0DED4" d="M729.474,1004.675v0.025c-1.575,0.394-3.174,0.689-4.774,0.935c-7.776,1.156-15.577,0.812-23.304,1.132
				c-7.678,0.295-15.503,1.353-22.221,5.069c-6.718,3.667-12.058,9.548-15.897,16.167c-1.944,3.322-3.347,6.89-4.848,10.508
				c-1.501,3.568-3.199,7.21-5.98,10.163c-2.781,2.879-6.447,4.922-10.385,5.635c-3.913,0.787-7.924,0.664-11.787,0.197
				c-7.801-0.935-15.281-3.224-22.934-4.06c-7.604-0.763-15.503-0.197-22.541,2.879c-3.544,1.427-6.816,3.494-9.868,5.832
				c-3.076,2.313-5.881,4.971-8.564,7.727c-5.389,5.537-10.286,11.615-15.749,17.176c-2.682,2.805-5.611,5.438-8.711,7.825
				c-3.051,2.338-6.447,4.823-10.606,5.241c-4.06,0.369-7.899-0.665-11.713-1.206c-3.814-0.615-7.653-1.181-11.492-1.501
				c-4.479-0.344-9.031-0.32-13.436,0.443v-1.255c4.479-0.738,9.08-0.738,13.534-0.394c3.888,0.295,7.751,0.861,11.59,1.501
				c3.839,0.542,7.678,1.55,11.393,1.181c3.716-0.344,6.964-2.658,9.991-4.971c3.027-2.362,5.906-4.946,8.563-7.727
				c5.438-5.512,10.311-11.566,15.749-17.176c2.731-2.781,5.561-5.487,8.711-7.85c3.101-2.387,6.472-4.503,10.138-5.98
				c7.259-3.174,15.38-3.765,23.131-2.978c7.825,0.861,15.306,3.15,22.959,4.085c3.79,0.443,7.678,0.566,11.393-0.197
				c3.716-0.664,7.112-2.584,9.745-5.266c5.192-5.61,6.546-13.731,10.655-20.449c3.913-6.767,9.4-12.821,16.364-16.635
				c6.988-3.839,15.011-4.922,22.762-5.217c7.776-0.32,15.577,0.025,23.18-1.132c1.649-0.246,3.297-0.566,4.897-0.984
				C729.425,1003.838,729.449,1004.257,729.474,1004.675z"/>
		</g>
	</g>
	<path fill="#4C8C7B" d="M451.532,1022.232c-0.319-1.357-1.287-2.699-2.655-3.289c-0.675-0.311-1.493-0.434-2.274-0.231
		c-0.793,0.202-1.406,0.724-1.866,1.238c-3.484,4.139-4.666,9.541-4.844,14.673c-0.09,2.589,0.035,5.171,0.278,7.728
		c0.287,2.548,0.725,5.066,1.08,7.6l1.696,11.455c-0.415-0.976-0.814-1.959-1.175-2.961c-0.837-2.345-1.551-4.745-2.275-7.153
		c-1.436-4.805-3.001-9.706-5.716-14.075c-1.35-2.177-3.004-4.199-4.998-5.86c-0.96-0.807-2.148-1.681-3.63-1.842
		c-0.722-0.088-1.679,0.113-2.234,0.796c-0.579,0.672-0.66,1.46-0.752,2.07c-0.365,2.554-0.315,5.161,0.13,7.699
		c0.222,1.269,0.543,2.521,0.96,3.74c0.206,0.611,0.441,1.211,0.698,1.803c0.143,0.329,0.3,0.629,0.423,0.97
		c0.095,0.262,0.192,0.529,0.365,0.747c0.133,0.167,0.365,0.307,0.553,0.206c0.061-0.033,0.108-0.087,0.152-0.14
		c0.108-0.132,0.209-0.27,0.302-0.413c0.028-0.043,0.055-0.087,0.063-0.137c0.013-0.081-0.026-0.161-0.065-0.234
		c-0.545-1.006-0.959-2.108-1.327-3.201c-0.396-1.158-0.701-2.348-0.912-3.554c-0.422-2.412-0.47-4.891-0.123-7.312
		c0.111-1.283,0.583-1.935,1.647-1.817c1.058,0.118,2.028,0.764,2.966,1.564c1.872,1.56,3.443,3.473,4.74,5.563
		c2.611,4.199,4.15,8.98,5.583,13.78c0.723,2.404,1.443,4.824,2.295,7.213c0.43,1.193,0.895,2.377,1.407,3.544
		c0.056,0.125,0.119,0.247,0.176,0.371c-0.724,0.461-1.673,0.082-2.558-0.579c-1.883-1.495-3.51-3.591-5.431-5.295
		c-1.841-1.752-3.63-3.546-5.215-5.495c-1.537-1.773-3.246-4.773-3.144-4.681c-0.152-0.293-0.523-0.408-0.828-0.258
		c-0.305,0.15-0.421,0.523-0.26,0.833c-0.106-0.094,1.692,3.056,3.278,4.882c1.639,2.014,3.465,3.843,5.322,5.61
		c1.906,1.682,3.418,3.686,5.537,5.384c0.57,0.384,1.136,0.81,1.921,0.979c0.596,0.154,1.347,0.079,1.921-0.236
		c0.035,0.071,0.065,0.143,0.101,0.214l0.442,0.851l0.223,0.414c-0.065,0.024-0.091,0.035,0.004,0.008c0,0,0.057,0.106,0.099,0.185
		c2.284-0.813,0.632-0.234,1.139-0.433c0,0-0.034-0.233-0.035-0.233l-0.399-2.695c0.397-0.683,0.671-1.405,0.952-2.085
		c3.569-9.669,5.332-19.877,6.207-30.077l0.281-3.833C451.827,1024.955,451.889,1023.598,451.532,1022.232z M450.245,1029.966
		c-0.867,10.122-2.619,20.232-6.134,29.752c-0.04,0.104-0.084,0.207-0.125,0.312l-1.515-10.227c-0.354-2.521-0.791-5.04-1.076-7.564
		c-0.24-2.525-0.361-5.054-0.274-7.569c0.161-4.981,1.352-10.125,4.531-13.897c1.397-1.996,4.288-0.451,4.689,1.777
		C450.864,1024.797,450.37,1027.457,450.245,1029.966z"/>
	<path fill="#4C8C7B" d="M807.726,1011.86c0,1.28-0.025,2.559-0.025,3.814v1.526c-0.025,6.915-0.098,13.805-1.28,20.646
		c-0.123,0.787-0.221,1.575-0.246,2.362c-0.049,0.295-0.049,0.591-0.049,0.886v0.664c-0.025,8.219-1.156,16.339-2.042,24.485
		c-0.517,4.823-1.28,9.646-2.682,14.371c-1.329,4.552-4.454,6.792-8.883,7.112c-7.579,0.541-15.109,1.747-22.762,1.698
		c-4.626-0.049-9.228,0.32-13.829,0.935c-4.823,0.64-9.769,0.492-14.666,0.714c-3.519,0.148-7.062,0.049-10.557,0.861
		c-1.304,0.295-2.707,0.271-4.06,0.295c-6.546,0.148-13.067,0.246-19.612,0.32c-1.083,0.025-2.165-0.049-3.248-0.148
		c-3.47-0.369-6.177-3.1-6.127-6.472c0.049-2.855,0.098-5.734,0.221-8.588v-0.024c0.025-0.984,0.074-1.969,0.148-2.953v-0.025
		c0.074-1.575,0.197-3.125,0.369-4.7c0.369-3.519,0.664-7.013,0.787-10.532c0.049-1.181,0.074-2.362,0.098-3.544
		c0.049-0.664,0.049-1.329,0.074-1.993c0.074-2.51,0.148-4.995,0.221-7.505c0.049-1.624-0.025-3.273,0.246-4.872
		c0.492-2.977,0.812-5.955,1.033-8.933c0.049-0.64,0.098-1.304,0.123-1.944c0.295-5.02,0.271-10.064,0.148-15.109
		c-0.025-1.353-0.049-2.731,0.148-4.085c0.32-2.215,1.403-4.036,3.347-5.34c2.559-1.673,5.315-2.805,8.342-3.052
		c6.226-0.517,12.476-1.107,18.702-1.304c0.837-0.025,1.698-0.049,2.535-0.074h0.025c0.738-0.024,1.476-0.049,2.215-0.049
		c6.792-0.197,13.583-0.246,20.375-0.345h0.025c0.714,0,1.427-0.025,2.141-0.025h0.025c0.96-0.025,1.919-0.025,2.879-0.049v-0.197
		h13.706c4.134,0,8.293,0,12.427,0.025c3.002,0,5.98,0.172,8.982,0.246c0.492,0.025,0.984,0.074,1.476,0.148
		c0.541,0.098,1.083,0.222,1.6,0.394c1.083,0.345,2.092,0.837,3.076,1.403c2.485,1.452,4.06,3.593,4.405,6.521
		C807.628,1010.236,807.726,1011.048,807.726,1011.86z"/>
	<g>
		<g>
			<path fill="#F66D5B" d="M734.223,1001.353h-0.025c-7.333,5.118-14.346,10.729-20.966,16.758
				c-4.257,3.888-8.367,7.973-12.255,12.205c-0.025,0.64-0.074,1.304-0.123,1.944c4.183-4.602,8.613-9.031,13.214-13.239
				c7.013-6.423,14.494-12.353,22.368-17.718C735.7,1001.304,734.961,1001.328,734.223,1001.353z"/>
		</g>
		<g>
			<path fill="#F66D5B" d="M758.979,1000.935l-0.345,0.246l-5.217,3.74c-3.47,2.535-6.865,5.143-10.237,7.801
				c-6.693,5.34-13.165,10.975-19.391,16.856c-6.25,5.881-12.23,12.033-17.939,18.406c-2.215,2.485-4.429,5.02-6.57,7.579
				c0.049-0.664,0.049-1.329,0.074-1.993c1.821-2.166,3.691-4.306,5.561-6.423c5.758-6.398,11.763-12.575,18.013-18.48
				c6.275-5.906,12.771-11.541,19.489-16.905c3.371-2.682,6.792-5.291,10.261-7.85l4.134-2.953h0.025
				C757.551,1000.959,758.265,1000.935,758.979,1000.935z"/>
		</g>
		<g>
			<path fill="#F66D5B" d="M775.589,1000.688l-36.272,33.614c-3.888,3.544-7.727,7.136-11.763,10.508
				c-3.986,3.396-8.022,6.767-11.861,10.311c-3.839,3.543-7.555,7.235-10.803,11.319c-1.624,2.018-3.15,4.134-4.503,6.349
				c-0.738,1.083-1.304,2.239-1.944,3.371l-0.566,1.157c0.025-0.984,0.074-1.969,0.148-2.953v-0.025
				c0.418-0.738,0.837-1.501,1.304-2.215c1.403-2.239,2.953-4.405,4.602-6.472c3.297-4.134,7.062-7.874,10.926-11.443
				c3.888-3.568,7.899-6.939,11.91-10.335c4.011-3.371,7.85-6.939,11.738-10.483l35.263-32.704H775.589z"/>
		</g>
		<g>
			<path fill="#F66D5B" d="M800.073,1001.5l-6.152,4.356c-4.11,2.978-8.194,6.078-12.156,9.253
				c-4.011,3.174-7.85,6.521-11.615,9.966l-11.393,10.237l-22.885,20.35c-3.765,3.445-7.481,6.939-11.049,10.557
				c-1.796,1.821-3.544,3.691-5.241,5.561l-2.51,2.854l-1.796,2.141c-0.222,0.271-0.615,0.295-0.861,0.098
				c-0.271-0.221-0.32-0.615-0.099-0.886l1.821-2.141l2.535-2.879c1.723-1.919,3.47-3.79,5.266-5.611
				c3.593-3.642,7.308-7.161,11.098-10.606l22.91-20.35l11.393-10.261c3.79-3.445,7.628-6.816,11.664-9.991
				c3.986-3.199,8.071-6.3,12.205-9.302l5.266-3.74C799.015,1001.205,799.557,1001.328,800.073,1001.5z"/>
		</g>
		<g>
			<path fill="#F66D5B" d="M807.702,1015.674v1.526l-3.986,2.953l-11.024,8.268c-7.333,5.537-14.617,11.172-21.729,16.979
				c-7.136,5.807-14.125,11.787-20.892,17.988c-3.371,3.125-6.693,6.3-9.966,9.523l-4.848,4.897l-4.134,4.405
				c-0.222,0.246-0.615,0.246-0.861,0.025c-0.246-0.246-0.271-0.615-0.025-0.861l4.134-4.405l4.872-4.922
				c3.273-3.248,6.619-6.423,9.991-9.548c6.792-6.25,13.805-12.23,20.941-18.062c7.136-5.807,14.42-11.443,21.753-17.004
				l11.073-8.293L807.702,1015.674z"/>
		</g>
		<g>
			<path fill="#F66D5B" d="M806.176,1040.208c-0.049,0.295-0.049,0.591-0.049,0.886v0.664
				c-15.281,10.877-29.948,22.664-43.875,35.287l-0.517,0.468c-0.246,0.221-0.64,0.197-0.861-0.049
				c-0.246-0.246-0.222-0.64,0.024-0.861l0.541-0.468C775.613,1063.29,790.55,1051.282,806.176,1040.208z"/>
		</g>
	</g>
	<path fill="#4C8C7B" d="M908.434,763.367c-0.307,1.294-0.702,2.81-1.023,4.342c-1.342,6.415-5.583,10.271-11.403,12.498
		c-2.917,1.117-6.05,1.669-8.542,2.332c-11.183-1.009-21.53-3.274-31.824-5.844c-0.445-0.111-1.069,0.499-1.671,0.804
		c5.361,4.766,10.577,9.557,15.973,14.136c2.744,2.329,5.001,5.035,6.98,7.956c1.306,1.929,2.417,4.107,3.08,6.333
		c1.642,5.514,0.378,11.463-6.071,15.073c-3.939,2.204-8.179,2.709-12.577,1.729c-8.834-1.969-17.588-4.203-25.954-7.754
		c-2.529-1.073-5.096-2.072-7.703-2.932c-0.601-0.198-1.436,0.315-2.349,0.547c7.529,7.589,15.838,14.071,24.577,19.979
		c8.471,5.727,17.065,11.281,25.735,16.704c16.041,10.034,31.536,20.823,45.522,33.588c6.686,6.102,12.469,13.138,16.94,21.078
		c3.789,6.727,5.083,14.082,3.834,21.686c-1.161,7.065-5.253,12.33-11.689,15.339c-3.886,1.817-8.115,2.819-12.533,3.08
		c-9.215,0.545-18.044-1.035-26.563-4.353c-11.727-4.568-23.465-9.125-34.733-14.78c-1.369-0.687-2.799-1.25-4.297-1.913
		c-0.235,1.921-1.529-0.214-0.788,1.175c1.666,3.121,3.376,6.219,5.033,9.345c2.043,3.852,3.35,7.995,4.37,12.197
		c1.609,6.63-0.394,12.529-4.608,17.589c-1.436,1.724-3.701,2.966-5.827,3.854c-2.512,1.049-5.285,1.477-8.257,2.256
		c-4.363-1.045-9.047-1.5-13.533-3.1c-4.368-1.558-8.324-4.36-13.467-4.479c-0.679,2.571-1.256,5.229-2.085,7.807
		c-3.013,9.362-13.588,13.793-21.849,11.105c-6.903-2.246-12.818-6.001-18.157-10.697c-6.792-5.975-13.339-12.227-20.03-18.318
		c-1.711-1.558-3.017-3.672-5.458-4.252c-0.789-0.027-1.36,0.447-1.349,1.415c0.018,1.567,0.002,3.185,0.376,4.689
		c2.408,9.68,2.203,19.523,1.82,29.353c-0.322,8.25-4.044,15.03-9.709,20.909c-8.323,8.639-23.538,8.986-32.193,0.994
		c-3.451-3.187-6.828-6.608-9.524-10.427c-7.458-10.563-28.453-36.341-27.118-49.423c-1.269,12.739-2.537,25.478-3.806,38.217
		c-0.271,2.722-0.574,5.544-1.975,7.894c-1.401,2.35-4.235,4.083-6.863,3.321c-3.071-0.891-4.35-4.455-5.183-7.542
		c-3.041-11.268-6.081-22.535-9.122-33.803c-2.234,17.069-0.959,37.995-12.103,51.993c-5.88,7.386-14.571,13.125-24.011,13.155
		c-9.35,0.03-18.146-5.678-23.289-13.487c-5.143-7.809-6.966-17.441-6.705-26.787c-14.498,9.981-22.347,27.893-40.066,32.281
		c-21.037,5.211-17.328-25.86-18.831-25.772c-29.125,1.702-50.952,32.269-80.127,32.406c-4.122,0.019-8.504-0.712-11.582-3.454
		c-5.363-4.776-4.494-13.776-0.427-19.694c4.067-5.918,10.443-9.735,16.081-14.182c11.281-8.897,20.073-20.916,25.136-34.362
		c-45.036,14.803-84.122,51.896-131.501,50.288c-1.631-0.055-3.347-0.186-4.704-1.092c-4.467-2.983-1.02-9.906,2.724-13.757
		c16.489-16.96,34.642-32.303,54.112-45.736c-15.063-4.618-40.589,10.137-55.858,13.027c-19.599,3.71-40.329,4.534-59.042-3.433
		c-7.591-3.232-14.194-9.986-14.99-18.198c-0.73-7.532,3.535-14.853,9.318-19.734c5.783-4.881,12.949-7.759,19.98-10.558
		c21.074-8.39,42.148-16.779,63.222-25.169c21.121-8.408,43.475-17.771,56.38-36.487c-26.851,13.18-55.842,21.987-85.487,25.97
		c-7.591,1.02-17.804-0.02-19.372-7.517c-1.305-6.24,4.871-11.324,10.454-14.4c10.192-5.615,21.01-10.094,32.188-13.328
		c14.344-4.149,31.618-8.162,36.919-22.12c-13.323-3.002-29.916,5.797-43.373,7.869c-14.505,2.233-32.283,0.603-46.818-0.79
		c-7.454-0.714-15.46-7.296-13.222-14.442c0.958-3.06,3.539-5.296,6.085-7.245c19.726-15.104,43.589-22.774,65.744-33.405
		c5.034-2.416,27.098-10.522,26.049-18.237c-1.116-8.205-20.896-1.103-26.573-0.127c-15.104,2.598-35.476-3.887-27.106-23.41
		c2.355-5.493,5.548-10.381,10.471-14.005c6.02-4.431,53.806-28.64,60.241-32.471c5.408-3.219,10.849-6.385,16.221-9.664
		c2.326-1.42,4.836-2.614,6.681-4.706c0.231-0.692-0.193-1.392-1.164-1.273c-2.325,0.286-4.674,0.652-6.912,1.325
		c-11.449,3.446-23.132,4.46-35.014,3.639c-6.172-0.426-11.563-2.762-15.555-7.456c-4.857-5.71-6.865-12.236-4.233-19.712
		c1.732-4.918,4.426-9.144,8.009-12.929c6.276-6.628,13.602-11.954,21.116-16.978c6.859-4.586,13.957-8.856,21.177-12.854
		c26.486-14.666,49.321-34.868,75.31-49.626c-11.94,6.78-25.483,10.717-39.197,11.394c-3.713,0.183-7.57,0.103-10.944-1.457
		c-3.374-1.56-6.149-4.945-5.937-8.657c0.239-4.198,3.944-7.261,7.417-9.632c10.717-7.317,22.293-13.374,34.413-18.009
		c4.785-1.83,9.76-3.496,13.749-6.711c3.989-3.215,6.841-8.434,5.665-13.42c-18.69,6.591-37.381,13.182-56.071,19.772
		c-3.478,1.226-7.178,2.47-10.782,1.688c-3.604-0.781-6.844-4.449-5.754-7.972c0.805-2.601,3.486-4.062,5.922-5.278
		c9.214-4.599,104.963-63.727,102.877-66.101c-0.236-0.269-0.711-0.59-0.988-0.519c-1.884,0.482-3.808,0.903-5.601,1.634
		c-10.928,4.454-21.851,8.927-33.182,12.27c-12.14,3.582-24.479,5.682-37.231,4.877c-5.638-0.356-10.807-1.911-15.699-4.614
		c-3.943-2.179-6.697-5.343-8.369-9.555c-1.215-3.06-1.371-6.039-0.525-9.218c1.244-4.677,3.416-8.747,6.825-12.213
		c4.699-4.777,9.429-9.491,15.158-13.077c4.334-2.713,8.44-5.831,12.927-8.249c9.368-5.047,18.223-10.916,27.282-16.458
		c0.541-0.331,0.857-1.03,1.393-1.702c-5.743-2.128-11.06-4.647-11.944-11.793c1.048-5.879,3.95-10.929,8.278-15.155
		c2.528-2.468,5.088-4.956,7.915-7.057c14.941-11.102,29.851-23.887,46.207-32.675c6.727-3.615,13.159-5.536,19.416-10.694
		c5.164-4.257,10.648-14.652,16.058-17.478c-11.801,6.163-23.824,11.9-36.038,17.196c-3.967,1.72-8.082,3.421-12.405,3.463
		c-4.323,0.041-8.95-1.97-10.745-5.903c-1.12-2.454-1.007-5.324-0.284-7.923c2.166-7.795,9.104-13.159,15.628-17.944
		c11.082-8.127,25.445-15.745,34.951-25.623c3.877-4.029,12.233-15.701-1.559-9.114c-8.676,4.149-18.352,7.934-27.692,5.642
		c-18.42-4.521-14.876-24.188-5.719-35.009c5.61-6.629,11.773-12.707,18.992-17.604c6.837-4.638,13.726-9.202,20.621-13.754
		c7.924-5.231,17.103-10.815,24.321-16.689c5.568-4.532,10.006-18.113,14.392-20.819c-8.417,5.194-18.547,7.559-28.394,6.628
		c0.79-10.533,10.802-17.489,19.124-23.994c11.466-8.963,21.366-19.894,29.219-32.144c6.946-10.836,8.032-26.013,16.994-35.15
		c0.779-0.795,1.713-1.568,2.825-1.63c2.321-0.128,3.551,2.657,4.058,4.925c2.64,11.801,0.609,23.494,2.261,34.84
		c1.757,12.065,10.276,24.734,16.714,34.881c14.408,22.708,33.424,42.516,55.696,57.611c3.148,2.134,6.492,4.319,8.27,7.681
		c1.778,3.362,1.25,8.285-2.133,10.023c-1.741,0.895-3.809,0.773-5.759,0.603c-14.091-1.23-28.059-3.87-41.626-7.868
		c22.664,19.877,45.329,39.755,67.993,59.632c4.119,3.612,8.625,9.143,5.911,13.902c-2.362,4.143-8.277,4.023-12.995,3.334
		c-10.177-1.484-20.336-3.092-30.474-4.821c7.224,1.232,22.141,21.251,28.009,26.515c11.034,9.899,22.335,19.559,34.025,28.678
		c16.311,12.725,37.464,18.384,38.074,43.057c0.16,6.457-2.585,11.298-7.26,15.434c-2.441,2.16-5.546,2.892-8.215,4.502
		c-0.367,0.222-0.201,1.328-0.32,2.354c3.191,2.021,6.518,4.097,9.813,6.223c5.949,3.838,11.96,7.587,17.794,11.592
		c5.87,4.03,10.839,9.103,15.541,14.424c3.181,3.599,5.22,7.848,6.75,12.353c1.175,3.459,1.335,6.998-0.023,10.406
		c-1.013,2.542-2.325,4.98-3.67,7.37c-1.178,2.093-2.998,3.617-5.068,4.835c-4.479,2.636-9.326,4.322-14.474,4.671
		c-5.88,0.398-11.756,0.288-17.62-0.907c-15.428-3.145-30.632-6.984-45.431-12.464c-7.36-2.725-14.99-4.725-22.518-6.985
		c-1.103-0.331-2.335-0.442-3.479-0.339c-0.576,0.052-1.162,0.75-1.597,1.277c-0.185,0.224-0.154,0.891,0.048,1.13
		c1.77,2.094,3.355,4.442,5.463,6.133c4.594,3.686,9.259,7.361,14.263,10.444c9.373,5.774,19.023,11.097,28.526,16.663
		c3.393,1.987,6.744,4.056,10.015,6.235c1.956,1.302,3.792,2.811,5.558,4.367c3.622,3.192,6.339,6.98,7.296,11.838
		c0.227,1.153,0.51,2.295,0.716,3.215c-0.111,1.022-0.088,1.831-0.297,2.574c-1.724,6.149-5.45,10.337-11.778,12.012
		c-1.496,0.396-2.84,1.142-3.07,3.157c0.786,0.695,1.579,1.577,2.536,2.212c5.244,3.481,10.553,6.864,15.791,10.354
		c3.95,2.632,7.508,5.754,10.568,9.378c4.237,5.019,4.697,10.646,2.131,16.554c-0.951,2.19-2.439,4.03-4.574,5.26
		c-1.683,0.97-3.342,1.981-5.285,3.137c1.091,0.993,1.803,2.115,2.79,2.467c13.401,4.789,25.709,11.872,38.365,18.216
		c2.791,1.399,5.542,3.08,7.886,5.12c3.638,3.167,7.608,5.65,12.175,7.023c7.352,2.21,13.403,6.541,19.113,11.406
		c1.756,1.496,3.267,3.423,4.461,5.41c3.879,6.455,2.219,14.621-3.98,18.876c-5.863,4.025-12.155,7.311-19.301,8.45
		c-5.427,0.865-10.778,2.075-16.338,2.284c-9.921,0.374-19.604-0.298-29.087-3.545c-4.442-1.521-9.1-2.445-13.703-3.446
		c-1.352-0.294-2.992-0.448-4.166,1.241c0.815,0.771,1.524,1.764,2.487,2.304c7.916,4.435,15.289,9.672,22.547,15.082
		c6.334,4.722,12.093,10.065,17.205,16.1c2.949,3.482,4.2,7.463,3.911,12.013c-0.244,3.847-2.058,6.801-5.16,8.827
		c-3.733,2.44-7.896,3.523-12.387,2.596c-7.702-1.59-15.356-3.311-22.704-6.254c-5.458-2.186-11.046-4.07-16.947-4.729
		c-0.311-0.035-0.76,0.307-0.981,0.599c-0.171,0.226-0.231,0.743-0.086,0.963c0.634,0.962,1.254,1.971,2.07,2.768
		c6.561,6.397,14.532,10.772,22.463,15.094c6.901,3.761,14.122,6.942,21.234,10.309c8.53,4.039,17.128,7.936,25.635,12.023
		c8.177,3.929,15.769,8.842,23.232,13.988c3.592,2.476,6.806,5.326,9.959,8.297C903.777,750.618,907.134,756.249,908.434,763.367z"
		/>
	<path fill="#F66D5B" d="M556.92,1006.698c-0.266-0.591-0.806-1.052-1.413-1.238c-0.601-0.183-1.179-0.149-1.704-0.057
		c-3.889,1.246-7.054,3.238-10.237,5.453c-0.768,0.554-1.519,1.131-2.253,1.729c0.93-1.642,1.828-3.305,2.616-5.06
		c0.618-1.436,1.121-2.964,1.29-4.575c0.079-0.819,0.092-1.588-0.04-2.468c-0.075-0.434-0.314-1.043-0.874-1.361
		c-0.544-0.301-1.07-0.272-1.5-0.226c-3.353,0.474-5.925,2.767-7.891,5.131c-1.973,2.429-3.615,5.023-5.16,7.7
		c-2.149,3.78-3.896,7.782-5.26,11.909l0.162-2.101l0.682-8.842c0.226-2.947,0.448-5.921,0.37-8.92
		c-0.039-1.498-0.153-3.002-0.391-4.493c-0.122-0.745-0.263-1.489-0.447-2.224c-0.1-0.374-0.163-0.714-0.318-1.138
		c-0.137-0.41-0.483-0.936-1.022-1.168c-1.145-0.413-2.009,0.134-2.674,0.587c-0.629,0.543-1.182,1.044-1.668,1.669
		c-0.994,1.2-1.738,2.589-2.251,4.039c-1.007,2.921-1.163,6.007-0.995,8.999c0.166,3.009,0.739,5.951,1.479,8.821l1.62,6.834
		c-0.515-0.557-1.012-1.132-1.495-1.722c-1.013-1.243-1.963-2.547-2.899-3.869c-1.872-2.643-3.691-5.375-5.887-7.855
		c-2.212-2.477-4.863-4.608-7.941-5.984c-3.057-1.374-6.662-1.859-9.984-0.593c-0.429,0.189-0.916,0.51-1.204,1.024
		c-0.284,0.506-0.332,1.053-0.303,1.521c0.082,0.948,0.329,1.717,0.602,2.535c0.574,1.602,1.421,3.074,2.39,4.429
		c1.964,2.689,4.322,5.038,6.936,7.065c2.617,2.023,5.51,3.678,8.563,4.947c1.533,0.62,3.104,1.143,4.703,1.566l1.206,0.292
		l0.699,0.143l0.385,0.075c0.341,0.067,0.662-0.151,0.719-0.486c0.057-0.335-0.162-0.658-0.489-0.722l-0.372-0.073l-0.675-0.138
		l-1.164-0.282c-1.544-0.409-3.063-0.914-4.545-1.513c-2.951-1.227-5.75-2.827-8.279-4.783c-2.523-1.952-4.816-4.243-6.688-6.807
		c-0.921-1.287-1.707-2.662-2.231-4.125c-0.475-1.459-1.019-3.183,0.249-3.545c2.813-1.067,6.152-0.699,8.982,0.595
		c2.871,1.281,5.411,3.311,7.519,5.675c2.121,2.394,3.921,5.088,5.804,7.749c0.942,1.331,1.908,2.658,2.949,3.936
		c0.522,0.638,1.06,1.265,1.624,1.872c0.289,0.297,0.561,0.609,0.865,0.894l0.4,0.389c-0.021,0.014-0.026,0.018,0.002,0.002
		l0.045,0.043l0.112,0.109l0.056,0.054l0.028,0.027c2.025-1.236,0.559-0.353,1.01-0.634l-0.004-0.018l-0.07-0.295l0,0l-2.035-8.586
		c-0.737-2.854-1.295-5.735-1.454-8.639c-0.164-2.89-0.001-5.829,0.928-8.517c0.474-1.334,1.149-2.587,2.039-3.664
		c0.416-0.548,0.973-1.041,1.454-1.465c0.488-0.382,1.153-0.601,1.441-0.449c0.296,0.057,0.472,0.746,0.644,1.475
		c0.176,0.699,0.31,1.408,0.427,2.121c0.229,1.428,0.339,2.879,0.377,4.335c0.076,2.915-0.14,5.848-0.367,8.792l-0.682,8.842
		l-0.341,4.421l-0.17,2.21l-0.085,1.105l-0.021,0.276l-0.011,0.138l-0.001,0.017c0.541,0.087-1.212-0.171,1.212,0.2l0.008-0.033
		l0.014-0.059c0.144,0.021,0.089,0.01,0.001-0.005l0.001-0.002l0.13-0.533l0,0c1.421-5.886,3.665-11.576,6.659-16.842
		c1.506-2.614,3.152-5.203,5.036-7.521c1.875-2.272,4.269-4.308,7.095-4.696c0.716-0.042,0.884,0.006,1.017,0.603
		c0.094,0.631,0.1,1.403,0.024,2.103c-0.15,1.435-0.607,2.849-1.196,4.216c-1.22,2.723-2.769,5.387-4.319,7.987
		c-0.041,0.068-0.086,0.132-0.127,0.2c-3.909,3.748-7.206,8.134-9.629,12.984l0,0l-0.261,0.519l-0.111,0.221
		c-0.312-0.201-0.231-0.145-0.003,0.006l-0.017,0.033l-0.033,0.065l-0.016,0.032l-0.008,0.016c-0.228-0.135,1.937,1.26,1.027,0.662
		l0.093-0.11l0.746-0.879l1.462-1.784c0.964-1.198,1.9-2.418,2.807-3.659c1.74-2.369,3.369-4.819,4.905-7.325
		c1.565-1.491,3.219-2.888,4.971-4.151c3-2.127,6.414-4.167,9.738-5.241c0.832-0.163,1.532,0.017,1.779,0.598
		c0.261,0.551,0.034,1.442-0.345,2.211c-0.829,1.621-1.873,3.196-3.022,4.654c-2.304,2.938-5.065,5.514-7.914,7.991
		c-2.87,2.467-5.731,4.96-8.757,7.181c-3.025,2.209-6.263,4.17-9.8,5.275c-0.883,0.269-1.777,0.499-2.684,0.659
		c-0.089,0.021-0.181,0.023-0.271,0.038l0.881-1.096c0.213-0.265,0.171-0.652-0.094-0.865c-0.265-0.213-0.652-0.171-0.865,0.094
		l-1.221,1.52l-0.445,0.554l-0.111,0.139l-0.056,0.069l-0.014,0.017c1.069,1.996,0.31,0.552,0.554,0.996l0.045-0.006l0.364-0.045
		c0.483-0.071,0.974-0.097,1.45-0.206c0.962-0.17,1.907-0.412,2.838-0.697c3.727-1.166,7.071-3.203,10.157-5.455
		c3.092-2.27,5.957-4.77,8.839-7.246c2.87-2.496,5.689-5.12,8.074-8.16c1.196-1.522,2.263-3.12,3.162-4.878
		C556.97,1009.057,557.427,1007.948,556.92,1006.698z"/>
	<path fill="#F6C25C" d="M643.145,1080.29c5.917-0.577,12.081-1.363,18.319-1.867c4.017-0.324,8.004-0.811,12.008-1.208
		c1.001-0.099,2.016-0.148,3.028-0.193c3.236-0.141,6.481-0.16,9.68-0.622c1.371-0.198,2.827-0.147,4.245-0.199
		c3.44-0.127,6.897-0.102,10.292-0.605c0.978-0.145,2.018-0.114,3.031-0.15c4.048-0.142,8.088-0.225,12.122-0.626
		c3.192-0.317,6.479-0.22,9.723-0.312c2.43-0.068,4.846-0.155,7.268-0.398c2.595-0.26,5.257-0.234,7.89-0.326
		c3.238-0.114,6.472-0.133,9.697-0.499c2.381-0.271,4.854-0.202,7.286-0.278c4.251-0.134,8.529-0.003,12.734-0.587
		c0.588-0.082,1.213-0.064,1.821-0.072c14.002-0.191,28.003-0.422,42.011-0.219c3.06,0.044,6.045,0.341,9.023,0.792
		c4.816,0.729,7.265,2.634,7.407,5.902c0.058,1.327,0.066,2.656,0.04,3.983c-0.063,3.32-0.146,6.639-0.245,9.958
		c-0.055,1.856-0.071,3.709-0.606,5.553c-0.3,1.033-0.217,2.116-0.286,3.177c-0.226,3.445-0.121,6.9-1.041,10.32
		c-0.279,1.037-0.164,2.119-0.254,3.18c-0.212,2.515-0.182,5.037-0.925,7.533c-0.345,1.161-0.234,2.381-0.33,3.575
		c-0.128,1.59-0.205,3.177-0.742,4.747c-0.307,0.899-0.401,1.845-0.397,2.77c0.009,2.016-0.856,3.937-1.365,5.895
		c-0.168,0.646-0.606,1.261-0.925,1.89c-1.5,2.955-4.963,4.042-9.378,4.128c-1.612,0.031-3.235-0.114-4.848-0.215
		c-1.814-0.113-3.618-0.309-5.434-0.392c-3.841-0.175-7.702-0.139-11.517-0.605c-1.382-0.169-2.833-0.097-4.252-0.131
		c-13.394-0.319-26.789-0.214-40.185-0.083c-3.45,0.034-6.9,0.073-10.35,0.114c-1.218,0.014-2.453-0.04-3.649,0.075
		c-6.653,0.642-13.365,0.459-20.048,0.659c-3.037,0.091-6.083,0.037-9.093,0.445c-1.179,0.16-2.424,0.122-3.641,0.145
		c-16.842,0.326-33.686,0.487-50.532,0.12c-1.42-0.031-2.841-0.053-4.258-0.12c-1.445-0.069-2.769-0.426-3.98-0.922
		c-1.062-0.435-1.868-1.066-2.048-1.893c-0.199-0.915-0.3-1.847-0.29-2.771c0.022-2.124,0.212-4.249,0.202-6.372
		c-0.035-7.171-0.123-14.341-0.203-21.511c-0.009-0.796,0.059-1.612-0.173-2.384c-0.711-2.366-0.645-4.759-0.716-7.144
		c-0.146-4.912-0.214-9.826-0.261-14.739c-0.013-1.325,0.054-2.659,0.28-3.975C639.544,1082.304,640.604,1081.053,643.145,1080.29z"
		/>
	<path fill="#2D1F44" d="M875.078,1114.351c-0.025,1.649-0.049,3.297-0.098,4.971c-0.025,0.935-0.025,1.846-0.221,2.781
		c0,0.049-0.025,0.074,0,0.123c-0.074,0.394-0.074,0.812-0.098,1.23v0.221c-0.074,1.723-0.049,3.445-0.369,5.167
		c-0.098,0.517-0.049,1.058-0.098,1.6c-0.074,1.255-0.049,2.51-0.32,3.765c-0.123,0.566-0.074,1.181-0.123,1.772
		c-0.025,0.246-0.025,0.468-0.025,0.714c-0.049,0.418-0.074,0.837-0.148,1.255c-0.025,0.148-0.074,0.271-0.099,0.418
		c-0.098,0.443-0.148,0.911-0.123,1.378c0,1.009-0.32,1.969-0.492,2.953c-0.074,0.32-0.221,0.615-0.344,0.935
		c-0.541,1.477-1.772,2.018-3.347,2.067c-0.591,0.025-1.181-0.049-1.747-0.098c-0.64-0.074-1.304-0.172-1.944-0.197
		c-1.378-0.099-2.756-0.074-4.134-0.32c-0.492-0.074-1.009-0.049-1.526-0.049c-2.166-0.098-4.331-0.123-6.472-0.123h-1.329
		c-2.215,0-4.405,0.025-6.595,0.074c-1.255,0.025-2.485,0.049-3.716,0.049c-0.443,0.025-0.886,0-1.304,0.049
		c-2.387,0.32-4.798,0.221-7.185,0.32c-1.083,0.049-2.19,0.025-3.273,0.221c-0.418,0.099-0.861,0.074-1.304,0.074
		c-6.029,0.172-12.058,0.246-18.111,0.074c-0.517-0.025-1.009-0.025-1.526-0.074c-0.517-0.025-0.984-0.197-1.427-0.443
		c-0.369-0.222-0.664-0.541-0.738-0.96c-0.074-0.443-0.099-0.911-0.099-1.378c0-1.058,0.074-2.141,0.074-3.199
		c0-3.568-0.049-7.161-0.074-10.754c0-0.394,0.025-0.812-0.049-1.181c-0.099-0.418-0.148-0.861-0.172-1.279
		c-0.049-0.443-0.074-0.886-0.074-1.329c-0.025-0.32-0.025-0.64-0.025-0.96c-0.049-2.461-0.074-4.922-0.098-7.382
		c0-0.664,0.025-1.329,0.098-1.993c0.074-0.517,0.271-0.984,0.689-1.304c0.197-0.197,0.418-0.344,0.714-0.468
		c0.271-0.025,0.541-0.074,0.812-0.123h0.025c1.87-0.246,3.79-0.566,5.734-0.812c0.64-0.074,1.279-0.148,1.919-0.246
		c0.787-0.123,1.575-0.246,2.362-0.344c0.369-0.049,0.738-0.074,1.107-0.098c1.156-0.074,2.313-0.074,3.47-0.32
		c0.492-0.099,1.009-0.074,1.501-0.099c0.615-0.025,1.255-0.049,1.87-0.074h0.025c0.591-0.049,1.206-0.099,1.796-0.222
		c0.369-0.074,0.738-0.049,1.083-0.074c1.452-0.074,2.904-0.123,4.356-0.32c1.156-0.148,2.313-0.099,3.494-0.148
		c0.861-0.025,1.723-0.074,2.608-0.197c0.91-0.123,1.87-0.123,2.83-0.172c1.156-0.049,2.313-0.049,3.47-0.246
		c0.837-0.123,1.723-0.099,2.608-0.148c1.526-0.049,3.051,0,4.553-0.271c0.197-0.049,0.369-0.049,0.566-0.049h0.098
		c0.394,0,0.763-0.025,1.157-0.025c4.626-0.098,9.277-0.197,13.903-0.074c1.083,0.025,2.165,0.172,3.224,0.394
		c1.723,0.344,2.608,1.304,2.658,2.953C875.078,1113.022,875.078,1113.687,875.078,1114.351z"/>
	<path fill="#F66D5B" d="M460.01,1063.695c-1.356-0.894-2.846-1.76-4.242-2.828c-1.501-1.149-2.392-2.977-2.29-5.3
		c0.237-5.373,0.555-10.745,0.939-16.109c0.094-1.307,0.501-2.614,0.881-3.864c1.202-3.955,3.586-5.895,6.689-6.412
		c1.019-0.17,2.061-0.073,3.091-0.046c3.093,0.081,6.184,0.262,9.279,0.256c2.056-0.004,4.117-0.259,6.176-0.407
		c1.236-0.089,2.473-0.246,3.708-0.277c4.329-0.108,8.663,0.217,12.978-0.815c7.629,0.313,15.256-1.161,22.888-0.877
		c3.292,0.123,6.591,0.293,9.891-0.456c1.008-0.229,2.062-0.12,3.091-0.085c13.193,0.448,26.388,0.87,39.578,1.397
		c3.501,0.14,6.987,0.614,10.479,0.932c1.862,0.17,3.616,0.834,5.384,1.558c2.93,1.2,5.004,3.451,6.091,7.433
		c0.235,5.227-0.51,10.555-1.114,15.886c-0.241,2.129-0.723,4.219-1.032,6.339c-0.321,2.206-1.114,4.06-2.492,5.861
		c-1.256,0.892-2.702,1.919-3.86,2.741c-0.909,1.909-0.711,3.552-0.79,5.142c-0.432,8.6-0.917,17.199-1.266,25.803
		c-0.318,7.83-1.673,15.487-2.68,23.192c-0.693,5.298-1.944,10.495-3.016,15.716c-0.319,1.553-0.792,3.083-1.34,4.534
		c-1.525,4.036-4.157,6.003-7.462,6.437c-1.225,0.161-2.471-0.027-3.707-0.072c-8.658-0.311-17.315-0.626-25.973-0.937
		c-0.618-0.022-1.24-0.099-1.856-0.032c-8.264,0.902-16.496,0.07-24.745,0.132c-2.474,0.019-4.934,0.084-7.417,0.359
		c-3.287,0.364-6.6,0.149-9.901,0.17c-3.503,0.023-6.99,0.031-10.509,0.441c-4.526,0.526-9.085,0.33-13.449-1.524
		c-0.389-0.165-0.802-0.248-1.181-0.439c-3.381-1.7-5.172-4.962-5.466-9.677c-0.017-0.267-0.025-0.539-0.005-0.806
		c0.475-6.202-0.058-12.353-0.297-18.501c-0.333-8.559-0.647-17.131-1.445-25.634c-0.747-7.962-1.496-15.924-2.22-23.89
		C461.227,1067.161,461.004,1065.333,460.01,1063.695z"/>
	<g>
		<path fill="#2D1F44" d="M585.519,1070.5c-6.693,0.615-13.46,0.271-20.178-0.369c-8.317-0.812-16.61-1.993-24.977-2.682
			c-8.367-0.714-16.733-1.107-25.124-1.23c-4.183-0.074-8.391-0.049-12.575,0.049l-6.3,0.197l-5.758,0.271
			c-0.345,0.025-0.591,0.295-0.591,0.64c0.025,0.344,0.32,0.615,0.664,0.591l5.734-0.271l6.275-0.197
			c4.183-0.099,8.367-0.123,12.525-0.049c8.367,0.123,16.709,0.517,25.051,1.23c8.317,0.664,16.61,1.87,24.952,2.682
			c6.693,0.64,13.46,0.984,20.178,0.394L585.519,1070.5z"/>
	</g>
	<path fill="#4C8C7B" d="M497.669,1070.919c-0.074,7.358,0.123,14.715-0.738,22.024c-0.049,0.394-0.099,0.812-0.148,1.23
		c-0.123,0.911-0.271,1.821-0.418,2.731c-0.172,1.083-0.295,2.165-0.295,3.248c0,14.371-0.517,28.594-0.812,42.94
		c-0.049,2.19-0.246,4.7-2.018,6.004c-1.255,0.935-2.953,0.935-4.503,0.886c-17.078-0.369-34.131-0.763-51.184-1.132
		c-0.443-0.025-0.861-0.025-1.28-0.025c-10.188-0.246-20.375-0.468-30.563-0.689c-20.498-0.443-17.102-14.666-16.586-29.972
		c0.148-4.356,0.271-8.687,0.394-13.042c0.049-1.624-0.025-3.273,0.246-4.872c0.714-4.429,1.107-8.883,1.279-13.362
		c0.025-0.418,0.025-0.837,0.049-1.255c0.098-3.79,0.074-7.579-0.025-11.369c-0.025-1.353-0.049-2.731,0.148-4.085
		c0.32-2.215,1.403-4.036,3.347-5.34c2.559-1.673,5.315-2.805,8.342-3.051c6.226-0.517,12.476-1.107,18.702-1.304
		c6.521-0.222,13.042-0.32,19.563-0.394c0.418,0,0.812,0,1.23-0.025c3.15-0.025,6.275-0.074,9.425-0.123v-0.197
		c8.711,0,17.422-0.025,26.133,0.025c3.002,0,5.98,0.172,8.982,0.246c2.239,0.074,4.282,0.861,6.152,1.944
		c2.485,1.452,4.06,3.593,4.405,6.521C497.571,1069.295,497.669,1070.107,497.669,1070.919z"/>
	<g>
		<g>
			<path fill="#2D1F44" d="M496.931,1092.943c-0.049,0.394-0.099,0.812-0.148,1.23l-3.076-0.098
				c-5.168-0.222-10.335-0.517-15.503-0.837l-30.956-1.87c-2.756-0.172-5.512-0.345-8.268-0.517
				c-0.418-0.025-0.837-0.049-1.255-0.074c-7.161-0.443-14.322-0.886-21.458-1.403c-5.168-0.394-10.335-0.812-15.478-1.353
				l-7.727-0.861l-2.018-0.271c0.025-0.418,0.025-0.837,0.049-1.255l2.141,0.295l7.678,0.861c5.143,0.541,10.286,0.984,15.454,1.353
				c7.161,0.542,14.322,0.984,21.507,1.427c0.418,0.025,0.812,0.049,1.23,0.074c2.731,0.148,5.487,0.32,8.219,0.492l30.957,1.895
				c5.168,0.295,10.335,0.591,15.478,0.812L496.931,1092.943z"/>
		</g>
		<g>
			<path fill="#2D1F44" d="M442.4,1060.067l-2.387,21.433c-0.295,2.707-0.615,5.438-0.91,8.145
				c-0.049,0.418-0.099,0.812-0.123,1.206c-0.566,4.848-1.083,9.671-1.526,14.494c-1.378,14.469-2.116,29.135,0.099,43.506
				c-0.443-0.025-0.861-0.025-1.28-0.025c-2.165-14.445-1.403-29.16-0.049-43.58c0.468-4.848,0.984-9.646,1.501-14.469
				c0.074-0.394,0.098-0.812,0.148-1.206c0.32-2.731,0.615-5.487,0.91-8.219l2.387-21.261
				C441.589,1060.091,441.982,1060.091,442.4,1060.067z"/>
		</g>
	</g>
	<g>
		<path fill="#2D1F44" d="M831.697,1095.755l-22.134,0.366l-24.187,0.522l-48.373,1.045c-16.125,0.352-32.248,0.661-48.354,1.319
			c-8.053,0.329-16.101,0.746-24.139,1.3c-4.019,0.277-8.035,0.596-12.048,0.94l-10.63,1.038c-0.338,0.035-0.641-0.21-0.678-0.548
			c-0.037-0.338,0.208-0.64,0.546-0.675l10.654-1.041c4.021-0.345,8.045-0.665,12.071-0.942c8.052-0.555,16.112-0.972,24.174-1.302
			c16.124-0.659,32.254-0.968,48.378-1.32l48.373-1.044l24.187-0.522l22.161-0.366c0.34-0.005,0.615,0.267,0.615,0.607
			C832.311,1095.471,832.036,1095.75,831.697,1095.755z"/>
	</g>
	<g>
		<g>
			<path fill="#5C5CF7" d="M873.724,1136.695c-0.049,0.418-0.074,0.837-0.148,1.255c-1.919,0.123-3.962-0.197-5.611-1.526
				c-0.96-0.763-1.526-2.042-1.624-3.174c-0.148-1.107-0.123-2.19-0.369-3.076c-0.221-0.886-0.837-1.378-1.747-1.378
				c-0.886,0-1.87,0.344-2.805,0.763c-1.821,0.861-3.716,2.239-6.103,2.436c-1.132,0.123-2.461-0.098-3.445-0.886
				c-1.009-0.763-1.55-1.969-1.796-3.076c-0.468-2.215-0.246-4.429-0.96-6.177c-0.591-1.698-3.101-0.492-5.094-0.098l-6.201,1.526
				l-3.125,0.763c-1.034,0.271-2.165,0.541-3.42,0.32c-1.23-0.172-2.412-1.157-2.805-2.362c-0.394-1.181-0.345-2.313-0.295-3.396
				c0.123-2.116,0.394-4.331-0.837-5.709c-1.206-1.378-3.47-1.353-5.438-1.009c-2.018,0.369-4.134,0.935-6.201,1.403
				c-2.092,0.418-4.109,1.255-6.521,1.033c-0.689-0.074-1.452-0.344-2.067-0.787c0.197-0.197,0.418-0.344,0.714-0.468
				c0.271-0.025,0.541-0.074,0.812-0.123h0.025c0.221,0.074,0.443,0.123,0.664,0.148c1.895,0.221,4.011-0.566,6.078-0.984
				c0.295-0.074,0.615-0.148,0.91-0.221c1.772-0.418,3.519-0.861,5.364-1.23c1.107-0.172,2.215-0.271,3.371-0.123
				c0.517,0.049,1.058,0.172,1.575,0.418h0.025c0.615,0.246,1.181,0.615,1.624,1.107c0.812,0.959,1.157,2.215,1.23,3.322
				c0.074,1.156-0.049,2.239-0.098,3.273c-0.049,1.058-0.074,2.092,0.222,2.928c0.295,0.837,1.009,1.427,1.87,1.575
				c1.796,0.246,3.962-0.664,6.029-1.058l6.201-1.55c1.058-0.246,2.018-0.541,3.174-0.763c0.566-0.074,1.23-0.123,1.895,0.123
				c0.689,0.246,1.206,0.861,1.452,1.427c0.861,2.264,0.591,4.454,1.034,6.423c0.32,1.993,1.944,3.297,3.937,3.027
				c1.969-0.148,3.691-1.378,5.684-2.338c1.009-0.468,2.092-0.861,3.347-0.886c0.615,0,1.329,0.172,1.87,0.615
				c0.566,0.418,0.886,1.058,1.034,1.649c0.541,2.338,0.024,4.503,1.599,5.66C870.058,1136.547,871.952,1136.843,873.724,1136.695z"
				/>
		</g>
		<g>
			<path fill="#5C5CF7" d="M853.324,1144.914h-1.304c-0.172-0.665-0.197-1.329-0.148-1.92c0.074-1.206,0.197-2.239-0.148-3.199
				c-0.32-0.96-0.984-1.452-1.944-1.206c-0.984,0.222-2.141,0.664-3.224,0.984l-6.57,2.092l-1.649,0.542
				c-0.591,0.148-1.329,0.394-2.165-0.049c-0.861-0.517-0.911-1.501-0.911-2.067l0.049-1.747l0.148-6.275l-0.345,0.074l-1.353,0.32
				l-2.682,0.64l-5.389,1.279c-1.821,0.418-3.494,0.886-5.438,1.23c-0.984,0.197-2.215-0.024-3.076-0.787
				c-0.886-0.738-1.23-1.797-1.427-2.732c-0.418-1.895-0.418-3.765-1.058-5.291c-0.615-1.575-2.239-2.116-3.937-1.747
				c-1.427,0.295-2.879,0.812-4.232,1.452c-0.049-0.443-0.074-0.886-0.074-1.329c1.304-0.566,2.633-1.058,4.085-1.329
				c0.96-0.172,2.042-0.197,3.076,0.197c1.034,0.394,1.796,1.304,2.19,2.264c0.787,1.895,0.738,3.814,1.132,5.512
				c0.295,1.747,1.452,2.904,3.15,2.584c1.698-0.295,3.568-0.812,5.34-1.23l5.365-1.255l2.682-0.64l1.353-0.32l0.664-0.172
				l0.345-0.074l0.074-0.025h0.049c0,0,0.025,0,0.049,0.025c0.098,0.074,0.32,0.246,0.738,0.591l-0.025,0.172l-0.172,6.915
				c0,1.083-0.197,2.559,0.246,2.707c0.443,0.295,1.772-0.295,2.83-0.591l6.57-2.116c1.132-0.32,2.116-0.714,3.371-1.009
				c0.615-0.148,1.452-0.098,2.092,0.32c0.664,0.443,1.034,1.083,1.255,1.698c0.443,1.255,0.246,2.584,0.197,3.642
				C853.078,1143.733,853.103,1144.373,853.324,1144.914z"/>
		</g>
		<g>
			<path fill="#5C5CF7" d="M874.758,1122.226c-0.074,0.394-0.074,0.812-0.098,1.23c-0.591-0.123-1.23-0.172-1.895-0.197
				c-0.935-0.074-1.993-0.099-3.027-0.591c-1.058-0.492-1.747-1.673-1.919-2.682c-0.197-1.034-0.197-1.993-0.443-2.781
				s-0.763-1.255-1.55-1.403c-1.649-0.32-3.371,0.541-5.241,1.157c-0.96,0.32-1.993,0.492-3.076,0.394
				c-1.034-0.074-2.215-0.517-2.904-1.526c-0.689-0.984-0.763-2.116-0.763-3.076c0-0.984,0.025-1.944,0.098-2.928
				c0.025-0.246,0.049-0.468,0.074-0.714h0.098c0.394,0,0.763-0.025,1.157-0.025c-0.049,0.271-0.074,0.566-0.099,0.837
				c-0.049,1.821-0.394,3.962,0.443,5.217c0.886,1.23,2.953,1.206,4.602,0.664c1.722-0.541,3.617-1.599,5.857-1.206
				c1.107,0.148,2.215,1.157,2.461,2.239c0.32,1.058,0.295,2.042,0.492,2.879c0.172,0.861,0.566,1.501,1.28,1.846
				c0.689,0.344,1.6,0.418,2.559,0.468C873.478,1122.078,874.093,1122.103,874.758,1122.226z"/>
		</g>
	</g>
	<g>
		<g>
			<path fill="#225748" d="M595.871,643.092l-0.624,1.357c-0.948,2.002-1.938,3.987-3.008,5.927
				c-2.116,3.895-4.485,7.649-7.06,11.255c-2.571,3.61-5.383,7.046-8.367,10.321c-3.032,3.214-6.079,6.484-9.856,8.992
				c-1.884,1.238-3.966,2.236-6.205,2.76c-2.249,0.519-4.616,0.482-6.844-0.15c-2.217-0.62-4.337-1.892-5.73-3.827
				c-1.401-1.944-1.884-4.331-1.976-6.576c-0.043-8.96,1.9-17.791,5.401-25.974l0,0l0.464-1.05l0.058-0.131l0.029-0.066
				c-0.202-0.173,1.849,1.335,0.966,0.71l-0.027,0.024l-0.213,0.192l-0.425,0.383l-1.702,1.531
				c-1.142,1.012-2.336,1.964-3.508,2.941c-2.41,1.872-4.86,3.698-7.427,5.349c-5.113,3.33-10.505,6.246-16.145,8.583
				c-5.633,2.349-11.476,4.197-17.439,5.502c-2.997,0.619-5.977,1.153-9.05,1.498c-1.542,0.126-3.204,0.135-4.775-0.534
				c-1.572-0.647-2.801-2.138-3.143-3.798c-0.623-3.359,0.771-6.406,2.246-9.081c1.552-2.622,3.153-5.217,4.87-7.734
				c3.421-5.044,7.183-9.855,11.248-14.395c8.124-9.087,17.522-17.025,27.79-23.589l0,0l0.525-0.342l0.066-0.043
				c1.161,2.16,0.301,0.608,0.551,1.095l-0.035,0.016l-0.142,0.065l-0.284,0.13l-1.135,0.519l-2.269,1.039l-4.538,2.078
				l-9.076,4.156l-18.153,8.311l-36.306,16.622c-12.128,5.386-24.026,11.689-37.14,14.809c-3.266,0.764-6.593,1.309-9.95,1.546
				c-1.679,0.125-3.363,0.137-5.048,0.12c-1.638-0.051-3.658-0.207-5.051-1.674c-1.37-1.449-1.545-3.54-1.091-5.262
				c0.412-1.775,1.643-3.335,3.102-4.302c1.455-1.016,3.095-1.631,4.711-2.117l1.43-0.405c0.331-0.089,0.668,0.107,0.754,0.435
				c0.087,0.329-0.108,0.665-0.434,0.753l-1.395,0.395c-1.562,0.468-3.079,1.05-4.36,1.947c-1.305,0.881-2.256,2.108-2.616,3.599
				c-0.387,1.449-0.189,3.099,0.79,4.11c0.957,1.046,2.591,1.256,4.195,1.293c1.643,0.016,3.287,0.004,4.928-0.118
				c3.282-0.232,6.543-0.764,9.754-1.516c12.889-3.06,24.767-9.333,36.908-14.73l36.306-16.622l18.153-8.311l9.076-4.156
				l4.538-2.078l2.269-1.039l1.135-0.519l0.284-0.13l0.142-0.065l0.035-0.016c0.271,0.477-0.556-1.091,0.616,1.066l-0.065,0.042
				l-0.521,0.339l0,0c-10.172,6.504-19.485,14.368-27.535,23.373c-4.028,4.499-7.756,9.266-11.145,14.263
				c-1.702,2.494-3.287,5.065-4.825,7.663c-1.425,2.519-2.648,5.478-2.111,8.187c0.277,1.316,1.195,2.424,2.434,2.946
				c1.241,0.537,2.722,0.562,4.179,0.437c2.956-0.332,5.954-0.866,8.896-1.475c5.889-1.289,11.659-3.115,17.223-5.435
				c5.571-2.308,10.897-5.189,15.947-8.477c2.536-1.631,4.955-3.434,7.335-5.282c1.157-0.965,2.336-1.905,3.464-2.904l1.68-1.512
				l0.42-0.378l0.21-0.189l0.026-0.024c-0.869-0.634,1.218,0.832,0.994,0.698l-0.028,0.064l-0.057,0.129l-0.455,1.031l0,0
				c-3.436,8.003-5.343,16.765-5.301,25.432c0.087,2.126,0.544,4.248,1.746,5.912c1.197,1.664,3.057,2.798,5.065,3.361
				c4.094,1.222,8.499-0.066,12.041-2.456c3.593-2.379,6.626-5.611,9.624-8.794c2.951-3.239,5.731-6.636,8.273-10.205
				c2.546-3.566,4.889-7.278,6.981-11.129c1.059-1.918,2.037-3.88,2.974-5.86l0.616-1.341c0.141-0.307,0.507-0.443,0.817-0.305
				C595.878,642.418,596.014,642.781,595.871,643.092z"/>
		</g>
		<g>
			<path fill="#225748" d="M597.09,528.772l-10.492,16.544c-1.99,3.007-4.191,5.994-7.133,8.286
				c-2.902,2.298-6.799,3.57-10.548,2.952c-3.747-0.555-7.082-2.641-9.591-5.346c-2.545-2.689-4.265-6.194-4.834-9.844
				c-1.257-7.368,1.043-14.729,4.261-21.154l0,0l0.181-0.364l0.023-0.045c2.004,1.385,0.545,0.394,0.988,0.708l-0.017,0.018
				l-0.07,0.073l-0.139,0.147l-0.557,0.587l-1.114,1.174l-2.299,2.278c-1.573,1.478-3.178,2.92-4.841,4.295
				c-3.327,2.748-6.845,5.264-10.52,7.524c-7.368,4.495-15.289,8.077-23.695,10.264c-2.124,0.485-4.326,0.795-6.557,0.638
				c-2.213-0.157-4.492-0.822-6.298-2.239c-1.855-1.364-3.092-3.411-3.748-5.555c-0.608-2.164-0.735-4.445-0.366-6.639
				c0.621-4.476,3.404-8.308,6.603-11.208c1.625-1.461,3.372-2.767,5.175-3.959c0.898-0.603,1.813-1.173,2.728-1.742l1.589-0.967
				c0.292-0.176,0.67-0.083,0.845,0.209c0.175,0.291,0.082,0.669-0.209,0.844l-1.58,0.961c-0.906,0.563-1.81,1.126-2.691,1.718
				c-1.772,1.171-3.467,2.44-5.03,3.845c-3.087,2.813-5.645,6.358-6.216,10.49c-0.666,4.009,0.354,8.585,3.642,11.02
				c3.258,2.521,7.818,2.323,11.835,1.382c8.191-2.13,16.078-5.683,23.326-10.113c3.627-2.23,7.098-4.712,10.38-7.424
				c1.641-1.357,3.225-2.779,4.776-4.237l2.268-2.247l1.099-1.158l0.549-0.579l0.137-0.145l0.069-0.072l0.017-0.018
				c0.45,0.308-0.983-0.715,1.013,0.686l-0.022,0.044l-0.177,0.356l0,0c-3.158,6.292-5.344,13.43-4.147,20.39
				c0.543,3.458,2.131,6.677,4.524,9.218c2.349,2.537,5.468,4.469,8.873,4.966c3.399,0.553,6.89-0.568,9.614-2.711
				c2.752-2.14,4.895-5.021,6.855-7.987l10.479-16.525c0.182-0.287,0.562-0.373,0.849-0.191
				C597.187,528.105,597.272,528.484,597.09,528.772z"/>
		</g>
		<g>
			<path fill="#225748" d="M766.074,511.914l0.228,0.421l0.655,1.266c0.679,1.376,1.329,2.771,1.859,4.223
				c1.063,2.881,1.838,5.988,1.507,9.179c-0.267,3.199-2.227,6.249-5.06,7.81c-2.862,1.59-6.204,1.672-9.249,1.23
				c-3.079-0.453-6.027-1.494-8.83-2.682c-2.815-1.181-5.572-2.5-8.264-3.94c-5.378-2.89-10.486-6.286-15.216-10.147l0,0
				l-0.467-0.379l-0.058-0.047l-0.029-0.024l-0.015-0.012c-0.2,0.176,1.668-1.604,0.883-0.842l0.091,0.122l0.181,0.244l0.714,0.983
				c0.467,0.661,0.911,1.339,1.335,2.028c0.848,1.379,1.612,2.809,2.288,4.28c1.351,2.942,2.347,6.048,2.947,9.231
				c0.58,3.149,0.931,6.548-0.207,9.773c-0.568,1.593-1.571,3.052-2.885,4.14c-1.316,1.093-2.911,1.787-4.537,2.153
				c-3.278,0.723-6.641,0.313-9.755-0.642c-3.143-0.986-5.98-2.584-8.669-4.384c-5.34-3.665-9.769-8.65-12.745-14.409l0,0
				l-0.164-0.309l-0.021-0.039c2.325-0.488,0.644-0.123,1.163-0.226l-0.001,0.022l-0.005,0.087l-0.009,0.173l-0.037,0.692
				l-0.089,1.384l-0.225,2.764c-0.173,1.841-0.39,3.677-0.653,5.507c-0.552,3.637-1.108,7.34-2.413,10.873
				c-1.29,3.484-3.104,6.965-6.158,9.391c-3.011,2.464-7.532,3.012-11.02,1.246c-3.517-1.689-6.07-4.694-8.014-7.873
				c-1.911-3.214-3.393-6.67-4.396-10.263c-1.023-3.589-1.554-7.308-1.647-11.037c-0.012-1.865,0.041-3.732,0.257-5.586
				c0.105-0.926,0.236-1.851,0.4-2.769l0.178-0.923c0.065-0.34,0.387-0.556,0.719-0.482c0.332,0.073,0.55,0.398,0.487,0.726
				l-0.172,0.896c-0.159,0.891-0.286,1.789-0.388,2.688c-0.21,1.801-0.261,3.615-0.25,5.427c0.092,3.623,0.607,7.24,1.602,10.727
				c0.974,3.489,2.418,6.855,4.265,9.96c1.856,3.05,4.312,5.883,7.482,7.395c3.137,1.568,7.034,1.09,9.745-1.103
				c2.758-2.178,4.52-5.479,5.756-8.837c1.254-3.385,1.802-7.009,2.352-10.63c0.26-1.81,0.474-3.627,0.646-5.448l0.223-2.734
				l0.088-1.369l0.036-0.685l0.009-0.171l0.005-0.086l0.001-0.021c0.52-0.117-1.161,0.232,1.165-0.268l0.02,0.037l0.159,0.299l0,0
				c2.879,5.573,7.175,10.409,12.349,13.959c2.595,1.741,5.384,3.301,8.336,4.222c2.952,0.911,6.144,1.28,9.119,0.618
				c2.98-0.602,5.559-2.652,6.537-5.512c1.017-2.85,0.728-6.065,0.155-9.126c-0.581-3.083-1.547-6.094-2.857-8.946
				c-0.655-1.426-1.395-2.813-2.217-4.149c-0.411-0.668-0.841-1.325-1.293-1.965l-0.691-0.952l-0.176-0.236l-0.088-0.118
				c-0.789,0.755,1.06-1.048,0.877-0.855l0.014,0.012l0.029,0.023l0.058,0.047l0.461,0.374l0,0
				c4.669,3.812,9.712,7.163,15.02,10.017c2.658,1.421,5.379,2.723,8.158,3.889c2.774,1.176,5.599,2.166,8.535,2.6
				c2.898,0.426,5.97,0.31,8.467-1.086c2.481-1.382,4.195-4.003,4.438-6.874c0.303-2.876-0.407-5.833-1.437-8.612
				c-0.51-1.399-1.143-2.758-1.806-4.101l-0.641-1.238l-0.224-0.413c-0.16-0.295-0.05-0.669,0.247-0.835
				C765.537,511.501,765.91,511.612,766.074,511.914z"/>
		</g>
		<g>
			<path fill="#225748" d="M780.423,667.194l-1.029,0.074c-1.076,0.052-2.153,0.086-3.231,0.076
				c-2.155-0.017-4.308-0.17-6.443-0.455c-4.269-0.573-8.473-1.664-12.468-3.282c-8.018-3.225-15.057-8.545-20.851-14.863l0,0
				l-0.401-0.437l-0.05-0.055c0.474-0.202-1.08,0.433,1.06-0.456l0.001,0.019l0.002,0.037l0.007,0.148l0.014,0.296l0.051,1.185
				l0.037,2.372c-0.003,1.581-0.057,3.163-0.161,4.74c-0.224,3.154-0.64,6.297-1.283,9.394c-0.67,3.07-1.349,6.207-2.8,9.117
				c-0.721,1.441-1.597,2.824-2.717,4.033c-1.112,1.196-2.508,2.259-4.189,2.686c-1.657,0.443-3.484,0.258-4.999-0.494
				c-1.531-0.725-2.773-1.834-3.887-2.98c-2.192-2.318-4.119-4.847-5.82-7.53c-3.364-5.382-5.731-11.395-6.841-17.651v0
				l-0.057-0.298l-0.007-0.037c2.326,0.31,0.64,0.096,1.158,0.169l-0.008,0.017l-0.032,0.068l-0.064,0.136l-0.254,0.544
				l-0.512,1.087l-1.055,2.16c-0.71,1.437-1.457,2.855-2.215,4.267c-1.532,2.815-3.143,5.588-4.862,8.293
				c-1.712,2.709-3.516,5.361-5.41,7.946c-0.936,1.3-1.961,2.601-3.186,3.723c-1.223,1.104-2.697,2.112-4.477,2.39
				c-1.771,0.294-3.648-0.371-4.902-1.633c-1.233-1.286-1.885-2.912-2.281-4.516c-0.795-3.267-0.472-6.537-0.344-9.713
				c0.186-3.205,0.534-6.4,1.019-9.574c0.247-1.586,0.53-3.167,0.848-4.74l0.712-3.234c0.079-0.333,0.41-0.538,0.74-0.457
				c0.33,0.081,0.535,0.412,0.457,0.741l-0.703,3.195c-0.315,1.554-0.594,3.116-0.838,4.683c-0.479,3.135-0.823,6.292-1.007,9.459
				c-0.133,3.17-0.427,6.373,0.312,9.35c0.36,1.479,0.965,2.907,1.959,3.941c0.998,0.993,2.447,1.511,3.847,1.282
				c2.866-0.516,5.045-3.133,6.852-5.622c1.878-2.563,3.666-5.191,5.363-7.877c1.703-2.682,3.301-5.431,4.82-8.221
				c0.751-1.4,1.492-2.805,2.196-4.23l1.046-2.141l0.507-1.078l0.252-0.54l0.063-0.135l0.031-0.067l0.008-0.017
				c0.522,0.063-1.158-0.165,1.173,0.137l0.007,0.036l0.055,0.29l0,0c1.081,6.097,3.391,11.965,6.671,17.213
				c1.655,2.612,3.547,5.092,5.664,7.331c1.06,1.094,2.211,2.103,3.527,2.722c1.298,0.643,2.786,0.776,4.155,0.417
				c2.795-0.76,4.775-3.418,6.121-6.077c1.363-2.719,2.035-5.78,2.697-8.818c0.632-3.043,1.04-6.131,1.26-9.23
				c0.102-1.55,0.155-3.104,0.159-4.658l-0.037-2.33l-0.05-1.164l-0.013-0.291l-0.007-0.146l-0.002-0.036l-0.001-0.018
				c2.141-0.897,0.601-0.241,1.082-0.438l0.049,0.054l0.394,0.429l0,0c5.694,6.209,12.589,11.411,20.405,14.554
				c3.899,1.579,8.003,2.644,12.171,3.204c2.085,0.278,4.186,0.428,6.289,0.444c1.052,0.009,2.103-0.023,3.153-0.074l1.004-0.072
				c0.334-0.024,0.63,0.23,0.661,0.569C781.021,666.875,780.767,667.169,780.423,667.194z"/>
		</g>
		<g>
			<path fill="#225748" d="M648.091,763.336c0.034,0.5,0.06,0.068,0.187,2.699c0.056,1.94-0.06,3.885-0.337,5.806
				c-0.319,1.927-0.624,3.798-1.446,5.702c-0.427,0.922-1.135,1.885-2.206,2.348c-1.055,0.488-2.271,0.379-3.241,0.02
				c-1.997-0.732-3.426-2.148-4.831-3.451c-1.4-1.346-2.67-2.822-3.815-4.388c-2.282-3.136-4.059-6.649-5.158-10.375v0l-0.226-0.788
				l-0.028-0.099l-0.014-0.049l-0.007-0.025c2.411-0.192,0.667-0.039,1.204-0.075l-0.022,0.201l-0.043,0.402l-0.175,1.609
				l-0.44,3.208c-0.32,2.135-0.712,4.258-1.176,6.366c-0.913,4.219-2.102,8.379-3.55,12.445c-1.486,4.066-3.044,8.051-5.204,11.888
				c-1.125,1.875-2.49,3.694-4.378,5.004c-1.861,1.344-4.38,1.845-6.641,1.198c-2.265-0.696-4.025-2.383-5.215-4.248
				c-1.232-1.87-2.038-3.951-2.605-6.07c-1.012-4.267-1.443-8.568-1.511-12.908c-0.089-8.659,1.514-17.35,4.835-25.359l0,0
				l0.171-0.427l0.021-0.053c2.054,1.289,0.558,0.37,1.012,0.663l-0.019,0.021l-0.077,0.085l-0.154,0.17l-0.615,0.681l-1.245,1.348
				c-0.833,0.897-1.698,1.762-2.56,2.629c-1.742,1.718-3.55,3.369-5.411,4.958c-3.718,3.183-7.686,6.069-11.826,8.675
				c-2.081,1.297-4.187,2.511-6.371,3.667c-1.127,0.556-2.338,1.049-3.711,1.127c-1.356,0.138-2.969-0.596-3.621-1.902
				c-0.687-1.257-0.767-2.556-0.841-3.814c-0.043-1.271,0.077-2.545,0.357-3.773c0.549-2.463,1.575-4.762,2.784-6.909
				c5.109-8.395,11.031-16.125,17.309-23.602c3.154-3.72,6.429-7.337,9.82-10.842c1.702-1.746,3.423-3.474,5.179-5.167l3.787-3.572
				c0.25-0.232,0.638-0.217,0.867,0.034c0.229,0.251,0.214,0.641-0.034,0.871l-3.766,3.552c-1.746,1.683-3.457,3.401-5.15,5.138
				c-3.372,3.486-6.629,7.082-9.765,10.782c-6.226,7.407-12.17,15.184-17.174,23.407c-1.174,2.083-2.146,4.279-2.656,6.57
				c-0.261,1.143-0.368,2.312-0.329,3.469c0.057,1.147,0.173,2.359,0.683,3.251c0.483,0.904,1.427,1.35,2.493,1.278
				c1.068-0.055,2.174-0.478,3.214-0.997c2.114-1.12,4.225-2.335,6.271-3.611c4.09-2.575,8.009-5.425,11.681-8.569
				c1.837-1.57,3.623-3.2,5.344-4.897c0.852-0.857,1.706-1.711,2.529-2.597l1.23-1.331l0.607-0.673l0.152-0.168l0.076-0.084
				l0.019-0.021c0.464,0.283-1.011-0.664,1.044,0.63l-0.021,0.052l-0.168,0.419l0,0c-3.257,7.852-4.829,16.381-4.742,24.875
				c0.061,4.235,0.501,8.525,1.47,12.609c0.537,2.016,1.309,3.993,2.443,5.708c1.1,1.728,2.659,3.165,4.532,3.743
				c1.893,0.526,3.967,0.141,5.599-1.031c1.658-1.144,2.951-2.831,4.019-4.62c2.054-3.641,3.65-7.685,5.101-11.669
				c1.431-4.017,2.605-8.127,3.507-12.295c0.459-2.082,0.846-4.18,1.162-6.289l0.435-3.169l0.173-1.59l0.043-0.397l0.021-0.199
				c0.539-0.052-1.203,0.08,1.21-0.122l0.007,0.024l0.013,0.047l0.027,0.095l0.218,0.759v0c1.057,3.588,2.772,6.977,4.972,10.001
				c1.103,1.51,2.328,2.934,3.677,4.23c1.359,1.275,2.754,2.596,4.383,3.174c1.641,0.675,3.252-0.076,3.927-1.733
				c0.699-1.598,1.049-3.532,1.34-5.353c0.266-1.851,0.379-3.725,0.325-5.594c-0.122-2.535-0.147-2.117-0.18-2.599
				c-0.039-0.33,0.203-0.634,0.54-0.678C647.746,762.748,648.051,762.991,648.091,763.336z"/>
		</g>
		<g>
			<path fill="#225748" d="M493.09,773.527c0.055,0.229,0.027,0.467,0.026,0.702l-0.002,0.088c-0.009,0.032,0.009,0.301-0.033,0.434
				c-0.084,0.322-0.106,0.67-0.254,0.968c-0.236,0.62-0.568,1.203-1.002,1.679c-1.706,1.937-4.291,2.9-6.839,2.629
				c-2.637-0.366-4.635-2.14-6.036-4.122c-1.393-2.023-2.214-4.329-2.755-6.649l0-0.001l-0.178-0.828l-0.042-0.207l-0.021-0.104
				c2.316,0.302,0.635,0.097,1.15,0.171l-0.012,0.023l-0.023,0.047l-0.184,0.374l-0.736,1.497c-0.487,1-1.031,1.97-1.544,2.956
				c-1.083,1.942-2.203,3.864-3.415,5.728c-2.411,3.735-5.07,7.313-7.976,10.678c-2.912,3.36-6.054,6.521-9.399,9.451
				c-1.678,1.466-3.395,2.859-5.183,4.211c-0.915,0.667-1.896,1.29-3.006,1.725c-1.094,0.434-2.411,0.633-3.642,0.246
				c-1.225-0.352-2.262-1.302-2.814-2.386c-0.593-1.083-0.82-2.261-0.941-3.41c-0.213-2.334,0.229-4.557,0.579-6.747
				c0.806-4.394,2.117-8.699,3.952-12.772c3.661-8.146,9.242-15.44,16.282-20.964l0,0l0.458-0.37l0.057-0.046
				c0.889,2.191,0.226,0.61,0.415,1.1l-0.036,0.004l-0.144,0.017l-0.287,0.034l-1.15,0.137l-2.295,0.305
				c-1.528,0.216-3.053,0.461-4.57,0.747c-3.037,0.559-6.051,1.237-9.034,2.034c-5.968,1.589-11.804,3.668-17.44,6.189
				c-5.624,2.464-11.039,5.799-17.32,7.088c-3.116,0.623-6.467,0.56-9.514-0.649c-1.484-0.619-3.079-1.652-3.648-3.468
				c-0.507-1.852,0.275-3.507,0.892-4.891c2.538-5.842,6.92-10.647,11.782-14.56c4.886-3.94,10.276-7.13,15.657-10.227
				l30.318-17.433c0.295-0.169,0.67-0.068,0.84,0.227c0.169,0.295,0.068,0.671-0.227,0.84l-30.318,17.432
				c-5.37,3.09-10.707,6.253-15.497,10.117c-4.77,3.839-8.996,8.495-11.428,14.096c-0.641,1.372-1.208,2.827-0.84,4.047
				c0.36,1.232,1.61,2.14,2.935,2.68c2.759,1.092,5.855,1.172,8.81,0.58c5.977-1.215,11.351-4.492,17.054-7.004
				c5.697-2.548,11.594-4.649,17.625-6.255c3.015-0.805,6.061-1.491,9.13-2.055c1.533-0.29,3.074-0.537,4.619-0.755l2.32-0.309
				l1.162-0.138l0.29-0.035l0.145-0.017l0.036-0.004c0.203,0.491-0.404-1.106,0.466,1.1l-0.056,0.045l-0.447,0.362l0,0
				c-6.876,5.394-12.338,12.531-15.919,20.5c-1.795,3.984-3.077,8.193-3.864,12.486c-0.348,2.155-0.765,4.329-0.565,6.416
				c0.162,2.057,1.019,4.2,2.891,4.732c1.833,0.57,3.87-0.552,5.561-1.789c1.735-1.312,3.451-2.703,5.1-4.145
				c3.302-2.891,6.402-6.012,9.277-9.328c2.869-3.322,5.493-6.853,7.873-10.54c1.196-1.84,2.302-3.737,3.371-5.653
				c0.506-0.973,1.044-1.931,1.524-2.917l0.726-1.477l0.182-0.369l0.023-0.046l0.011-0.023c0.521,0.06-1.151-0.167,1.172,0.129
				l0.02,0.099l0.04,0.199l0.17,0.792l0,0c0.514,2.217,1.301,4.39,2.566,6.223c1.231,1.787,3.109,3.344,5.176,3.603
				c2.091,0.242,4.383-0.622,5.751-2.205c0.356-0.384,0.606-0.842,0.785-1.308c0.121-0.227,0.119-0.483,0.191-0.721
				c0.036-0.098,0.013-0.296,0.022-0.32l0.002-0.065c-0.001-0.173,0.03-0.347-0.018-0.518c-0.049-0.277,0.183-0.582,0.509-0.678
				C492.703,772.895,493.026,773.134,493.09,773.527z"/>
		</g>
		<g>
			<path fill="#225748" d="M822.059,802.912l-1.311-0.177c-0.848-0.095-1.676-0.304-2.515-0.451
				c-1.667-0.348-3.315-0.791-4.934-1.318c-3.237-1.059-6.358-2.469-9.295-4.191c-5.873-3.441-11.027-8.136-14.9-13.751l0,0
				l-0.22-0.306l-0.027-0.038c2.107-1.257,0.59-0.335,1.062-0.61l0.01,0.023l0.038,0.092l0.077,0.185l0.303,0.741
				c0.177,0.501,0.276,1.033,0.381,1.554c0.105,1.058,0.114,2.141-0.15,3.165c-0.443,2.07-1.518,3.933-2.913,5.455
				c-1.393,1.529-3.106,2.763-5.023,3.567c-1.93,0.83-4.053,1.021-6.08,0.951c-4.122-0.161-7.984-1.718-11.5-3.603
				c-3.523-1.93-6.783-4.212-10.004-6.545c-6.404-4.723-12.376-10.027-17.827-15.823c-2.716-2.907-5.301-5.936-7.743-9.076
				c-1.234-1.56-2.405-3.169-3.556-4.791c-0.564-0.819-1.153-1.622-1.695-2.455l-1.181-1.789c-0.188-0.285-0.109-0.665,0.177-0.848
				c0.286-0.183,0.669-0.103,0.855,0.179l1.17,1.772c0.537,0.826,1.121,1.62,1.679,2.432c1.14,1.606,2.3,3.2,3.522,4.746
				c2.419,3.11,4.98,6.111,7.67,8.99c5.4,5.741,11.316,10.995,17.658,15.673c3.187,2.31,6.435,4.579,9.86,6.455
				c3.424,1.838,7.126,3.31,10.965,3.455c1.91,0.062,3.836-0.113,5.56-0.86c1.735-0.727,3.309-1.859,4.579-3.254
				c1.276-1.388,2.239-3.08,2.624-4.892c0.236-0.9,0.217-1.828,0.134-2.732c-0.094-0.443-0.174-0.896-0.325-1.324l-0.26-0.633
				l-0.064-0.158l-0.032-0.079l-0.008-0.02c0.472-0.28-1.068,0.598,1.056-0.633l0.027,0.037l0.214,0.297l0,0
				c3.765,5.459,8.786,10.035,14.51,13.388c2.862,1.678,5.903,3.052,9.055,4.083c1.577,0.514,3.18,0.944,4.803,1.283
				c0.816,0.142,1.622,0.347,2.447,0.438l1.275,0.172c0.331,0.045,0.571,0.355,0.536,0.693
				C822.707,802.722,822.401,802.958,822.059,802.912z"/>
		</g>
		<g>
			<path fill="#225748" d="M732.972,914.534c0.13,0.46,0.341,0.374,0.456,2.111c-0.01,1.336-0.546,2.567-1.267,3.602
				c-0.745,1.027-1.738,1.867-2.891,2.425c-1.172,0.574-2.485,0.695-3.713,0.641c-2.51-0.157-4.788-1.234-6.785-2.531
				c-2.005-1.321-3.782-2.884-5.492-4.524c-6.768-6.634-11.327-15.476-12.726-24.859l0,0l-0.068-0.417l-0.009-0.052
				c2.44-0.064,0.675-0.003,1.219-0.01l-0.003,0.026l-0.01,0.104l-0.021,0.208l-0.082,0.831l-0.177,1.664
				c-0.119,1.11-0.268,2.221-0.43,3.331c-0.347,2.217-0.795,4.436-1.519,6.591c-0.702,2.157-1.706,4.239-3.028,6.117
				c-1.372,1.871-3.127,3.447-5.152,4.562c-2.004,1.145-4.287,1.831-6.633,1.905c-2.344,0.037-4.747-0.701-6.592-2.202
				c-1.849-1.489-3.106-3.489-4.144-5.482c-1.015-2.015-1.929-4.042-2.789-6.11c-3.453-8.249-5.838-16.946-7.06-25.804
				c-0.616-4.428-0.952-8.895-1.001-13.366c-0.04-2.235,0.024-4.472,0.142-6.704c0.081-1.115,0.11-2.234,0.233-3.345l0.217-2.234
				c0.033-0.341,0.333-0.585,0.671-0.545c0.338,0.039,0.585,0.343,0.552,0.679l-0.215,2.207c-0.122,1.098-0.15,2.204-0.231,3.305
				c-0.116,2.205-0.18,4.415-0.14,6.624c0.049,4.418,0.38,8.833,0.989,13.209c1.207,8.755,3.564,17.35,6.976,25.5
				c1.811,3.968,3.311,8.399,6.569,11.107c1.626,1.317,3.699,1.957,5.801,1.931c2.101-0.068,4.199-0.686,6.051-1.748
				c1.873-1.029,3.497-2.495,4.753-4.205c1.237-1.758,2.189-3.723,2.862-5.79c0.694-2.062,1.13-4.216,1.47-6.388
				c0.16-1.089,0.306-2.181,0.424-3.281l0.175-1.651l0.082-0.828l0.02-0.207l0.01-0.104l0.003-0.026
				c0.546-0.014-1.219-0.005,1.225-0.038l0.008,0.051l0.066,0.405l0,0c1.356,9.108,5.794,17.719,12.37,24.162
				c3.288,3.09,7.041,6.357,11.487,6.705c2.207,0.203,4.266-0.783,5.535-2.556c0.604-0.867,1.033-1.885,1.035-2.897
				c-0.087-1.303-0.241-1.22-0.334-1.564c-0.141-0.241-0.024-0.602,0.251-0.802C732.389,914.066,732.777,914.184,732.972,914.534z"
				/>
		</g>
		<g>
			<path fill="#225748" d="M830.267,904.121l-1.261-0.608c-0.898-0.4-1.728-0.926-2.587-1.4c-1.695-0.986-3.319-2.092-4.867-3.294
				c-3.098-2.403-5.885-5.199-8.293-8.289c-4.813-6.177-8.123-13.561-9.297-21.33l0-0.001l-0.075-0.431l-0.009-0.054
				c-0.262,0.046,2.254-0.545,1.194-0.28l0.009,0.026l0.036,0.103l0.072,0.206l0.286,0.823l0.525,1.667
				c0.34,1.115,0.615,2.254,0.855,3.401c0.431,2.298,0.697,4.692,0.282,7.081c-0.353,2.378-1.589,4.732-3.551,6.24
				c-1.964,1.542-4.492,2.117-6.872,2.064c-2.398-0.054-4.752-0.626-6.913-1.557c-2.181-0.877-4.246-2.031-6.151-3.393
				c-3.84-2.699-7.077-6.12-9.948-9.754c-2.88-3.64-5.412-7.514-7.897-11.391c-2.49-3.877-4.911-7.811-7.131-11.868
				c-2.228-4.051-4.199-8.259-5.799-12.617c-0.761-2.192-1.484-4.404-2.001-6.673c-0.298-1.125-0.491-2.274-0.715-3.415
				c-0.118-0.57-0.172-1.151-0.261-1.726l-0.095-0.681c-0.048-0.342,0.187-0.648,0.525-0.686c0.338-0.038,0.649,0.201,0.696,0.533
				l0.093,0.665c0.087,0.561,0.139,1.128,0.255,1.685c0.22,1.116,0.407,2.238,0.699,3.339c0.505,2.22,1.215,4.39,1.962,6.543
				c1.572,4.282,3.514,8.434,5.722,12.446c2.198,4.018,4.604,7.927,7.087,11.794c2.48,3.869,4.993,7.71,7.826,11.291
				c2.825,3.576,5.987,6.909,9.692,9.511c1.838,1.315,3.82,2.42,5.908,3.26c2.058,0.889,4.264,1.415,6.469,1.466
				c2.192,0.047,4.41-0.481,6.094-1.804c1.698-1.317,2.765-3.313,3.094-5.475c0.38-2.16,0.139-4.431-0.276-6.635
				c-0.231-1.104-0.496-2.204-0.828-3.29l-0.512-1.625l-0.28-0.806l-0.07-0.202l-0.035-0.101l-0.009-0.025
				c-1.063,0.259,1.438-0.386,1.183-0.305l0.009,0.052l0.073,0.419l0,0c1.14,7.545,4.361,14.74,9.051,20.757
				c2.346,3.011,5.062,5.735,8.077,8.073c1.506,1.17,3.087,2.246,4.735,3.204c0.835,0.46,1.642,0.973,2.514,1.36l1.225,0.591
				c0.301,0.145,0.434,0.515,0.298,0.826C830.941,904.141,830.578,904.271,830.267,904.121z"/>
		</g>
		<g>
			<path fill="#225748" d="M566.701,858.864l-0.194,0.515l-0.278,0.679l-0.556,1.285c-0.767,1.703-1.66,3.347-2.653,4.928
				c-1.985,3.167-4.386,6.055-7.16,8.583c-1.406,1.238-3.054,2.414-5.066,2.787c-1.995,0.354-4.165-0.274-5.619-1.671
				c-2.882-2.824-3.812-6.706-4.411-10.353v0l-0.077-0.588l-0.039-0.294l-0.005-0.037l-0.002-0.018
				c2.147,0.663,0.588,0.192,1.064,0.343l-0.048,0.055l-0.096,0.109l-0.768,0.875l-1.545,1.745c-1.035,1.159-2.08,2.313-3.155,3.44
				c-2.141,2.262-4.37,4.455-6.757,6.482c-4.742,4.041-10.268,7.466-16.487,8.838c-1.531,0.363-3.133,0.619-4.767,0.543
				c-1.616-0.074-3.339-0.494-4.693-1.6c-1.36-1.099-2.1-2.789-2.322-4.41c-0.238-1.639-0.096-3.259,0.168-4.823
				c1.121-6.189,3.412-12.142,6.719-17.481l0,0l0.279-0.45l0.035-0.056c1.928,1.504,0.521,0.43,0.946,0.772l-0.023,0.023
				l-0.091,0.094l-0.182,0.188l-0.727,0.751l-1.455,1.502l-2.924,2.992l-5.916,5.921c-4,3.895-8.103,7.69-12.359,11.316
				c-8.549,7.172-17.81,13.722-28.191,18.071c-5.159,2.202-10.57,3.888-16.131,4.75c-2.733,0.567-5.671,0.799-8.528,0.199
				c-1.424-0.298-2.849-0.871-4.025-1.857c-1.172-0.98-1.989-2.406-2.249-3.91c-0.476-3.068,0.76-5.889,2.045-8.359
				c1.302-2.516,2.916-4.864,4.733-7.032c1.839-2.151,3.887-4.127,6.147-5.834c1.119-0.868,2.302-1.65,3.51-2.386l0.918-0.535
				l0.668-0.364l0.369-0.195c0.307-0.162,0.677-0.046,0.829,0.258c0.152,0.304,0.036,0.677-0.259,0.833l-0.357,0.188l-0.647,0.352
				l-0.888,0.517c-1.169,0.713-2.315,1.469-3.398,2.31c-2.189,1.652-4.172,3.568-5.954,5.65c-1.76,2.1-3.323,4.373-4.582,6.807
				c-1.263,2.389-2.335,5.039-1.923,7.574c0.217,1.238,0.874,2.381,1.833,3.187c0.966,0.811,2.196,1.325,3.492,1.593
				c2.613,0.546,5.36,0.354,8.063-0.21c5.458-0.845,10.774-2.502,15.854-4.67c10.22-4.28,19.388-10.755,27.876-17.878
				c4.227-3.601,8.309-7.376,12.293-11.257l5.899-5.904l2.918-2.986l1.453-1.5l0.726-0.75l0.182-0.188l0.091-0.094l0.023-0.023
				c0.434,0.334-0.939-0.78,0.978,0.742l-0.034,0.055l-0.272,0.438l0,0c-3.225,5.202-5.463,11.028-6.553,17.041
				c-0.512,2.892-0.49,6.264,1.722,8.073c2.221,1.752,5.532,1.508,8.411,0.807c5.954-1.312,11.305-4.609,15.959-8.575
				c2.34-1.987,4.539-4.149,6.659-6.389c1.065-1.116,2.101-2.261,3.131-3.414l1.538-1.737l0.766-0.873l0.096-0.109l0.048-0.055
				c0.483,0.147-1.063-0.349,1.085,0.327l0.002,0.018l0.005,0.035l0.037,0.283l0.074,0.565l0,0c0.549,3.502,1.544,7.231,4.021,9.617
				c1.227,1.17,2.933,1.642,4.574,1.37c1.644-0.297,3.14-1.32,4.467-2.497c2.664-2.428,5.014-5.248,6.934-8.317
				c0.963-1.535,1.83-3.131,2.574-4.783l0.54-1.247l0.27-0.659l0.188-0.499c0.118-0.312,0.472-0.473,0.793-0.358
				C566.662,858.186,566.823,858.54,566.701,858.864z"/>
		</g>
		<g>
			<path fill="#225748" d="M609.053,957.794l-0.467,0.249c-0.107,0.053-0.09,0.06-0.305,0.136l-0.638,0.237
				c-0.852,0.309-1.751,0.473-2.649,0.538c-1.8,0.125-3.596-0.204-5.254-0.825c-3.313-1.262-6.17-3.617-8.023-6.645
				c-1.82-3.024-2.734-6.467-3.158-9.885c-0.427-3.431-0.401-6.869-0.343-10.27v0l0.006-0.338l0.001-0.042
				c2.227,0.731,0.61,0.212,1.104,0.38l-0.012,0.017l-0.05,0.068l-0.1,0.137l-0.399,0.548l-0.803,1.092l-1.627,2.168l-3.338,4.272
				c-2.262,2.819-4.597,5.579-7.002,8.277c-2.383,2.71-5.081,5.364-8.532,6.921c-1.702,0.782-3.705,1.165-5.645,0.756
				c-1.92-0.447-3.635-1.667-4.677-3.324c-2.026-3.387-1.945-7.313-1.624-10.906c0.385-3.602,0.907-7.19,1.618-10.742
				c0.699-3.554,1.565-7.075,2.589-10.55c0.511-1.737,1.06-3.464,1.654-5.175l0.915-2.558l0.695-1.827
				c0.123-0.319,0.479-0.476,0.795-0.351c0.316,0.125,0.473,0.482,0.352,0.797l-0.688,1.808l-0.905,2.531
				c-0.588,1.693-1.131,3.402-1.637,5.121c-1.014,3.439-1.871,6.923-2.562,10.441c-0.704,3.515-1.22,7.067-1.602,10.63
				c-0.332,3.472-0.32,7.225,1.437,10.117c0.886,1.406,2.311,2.404,3.909,2.785c1.603,0.333,3.323,0.036,4.881-0.682
				c3.162-1.423,5.767-3.939,8.109-6.613c2.391-2.682,4.712-5.426,6.961-8.228l3.318-4.247l1.617-2.155l0.798-1.085l0.396-0.545
				l0.099-0.136l0.05-0.068l0.012-0.017c0.5,0.164-1.1-0.392,1.123,0.364l-0.001,0.042l-0.006,0.337v0.001
				c-0.116,6.698-0.1,13.755,3.324,19.497c1.69,2.772,4.363,4.977,7.402,6.129c1.519,0.57,3.145,0.861,4.739,0.75
				c0.795-0.058,1.585-0.201,2.328-0.473l0.557-0.206c0.189-0.065,0.174-0.071,0.267-0.119l0.407-0.219
				c0.276-0.148,0.649-0.034,0.833,0.251S609.376,957.62,609.053,957.794z"/>
		</g>
		<g>
			<path fill="#225748" d="M599.039,377.694l-1.479,2.775c-0.925,1.721-1.868,3.437-2.85,5.133
				c-1.962,3.391-4.098,6.707-6.562,9.788c-4.872,6.148-11.369,11.377-19.13,13.469c-3.831,0.984-8,1.366-11.898-0.025
				c-1.924-0.689-3.72-1.958-4.882-3.715c-1.156-1.761-1.644-3.873-1.612-5.908c0.038-4.105,1.801-7.944,3.953-11.203
				c2.108-3.31,4.487-6.419,5.792-9.984l0,0l0.187-0.524l0.023-0.065c1.748,1.456,0.466,0.413,0.848,0.742l-0.032,0.017
				l-0.127,0.067l-0.254,0.134l-1.018,0.534l-2.036,1.068l-4.071,2.137l-8.142,4.273l-16.291,8.543
				c-5.439,2.801-11.123,5.536-17.357,6.423c-1.551,0.196-3.12,0.331-4.691,0.257c-0.779-0.01-1.599-0.071-2.427-0.309
				c-0.819-0.224-1.679-0.742-2.188-1.524c-1.001-1.593-0.843-3.364-0.641-4.884c0.161-1.577,0.599-3.11,1.122-4.595
				c2.286-5.952,6.827-10.536,11.509-14.488c4.782-3.915,9.762-7.47,14.734-11.077c4.99-3.574,10.043-7.059,15.16-10.449
				l7.719-5.017l6.219-3.901c0.289-0.179,0.668-0.09,0.846,0.2c0.178,0.29,0.089,0.669-0.2,0.848l-6.204,3.891l-7.7,5.005
				c-5.104,3.382-10.145,6.859-15.123,10.424c-4.95,3.59-9.956,7.167-14.661,11.021c-4.618,3.889-9.001,8.366-11.146,13.976
				c-0.492,1.4-0.905,2.837-1.053,4.313c-0.221,1.454-0.248,2.999,0.44,4.045c0.667,1.041,2.16,1.277,3.637,1.291
				c1.494,0.072,2.992-0.058,4.478-0.245c5.975-0.846,11.553-3.507,16.963-6.298l16.284-8.539l8.142-4.273l4.071-2.137l2.036-1.068
				l1.018-0.534l0.254-0.134l0.127-0.067l0.032-0.017c0.395,0.328-0.838-0.757,0.893,0.731l-0.025,0.07l-0.199,0.559l0,0
				c-1.4,3.801-3.846,6.968-5.91,10.222c-2.119,3.207-3.718,6.78-3.761,10.552c-0.028,1.857,0.415,3.702,1.407,5.218
				c1.002,1.51,2.541,2.615,4.282,3.241c3.515,1.267,7.498,0.938,11.156-0.01c7.414-1.995,13.728-7.039,18.486-13.049
				c2.411-3.014,4.515-6.277,6.458-9.636c0.973-1.68,1.909-3.384,2.831-5.099l1.476-2.768c0.159-0.3,0.531-0.415,0.832-0.255
				C599.084,377.022,599.199,377.394,599.039,377.694z"/>
		</g>
		<g>
			<path fill="#225748" d="M673.865,472.708c0.05,0.22,0.103,0.44,0.112,0.666l0.031,0.347c0.011,0.174,0.039,0.347,0.035,0.521
				c-0.016,0.347-0.018,0.696-0.05,1.04c-0.151,1.381-0.629,2.701-1.316,3.879c-1.388,2.35-3.571,4.183-6.12,5.15
				c-5.247,1.869-10.885,0.075-15.235-2.736c-8.833-5.786-14.485-15.93-14.979-26.437l0-0.001l-0.022-0.363l-0.003-0.045
				c2.251,0.633,0.617,0.186,1.116,0.332l-0.013,0.019l-0.05,0.074l-0.099,0.148l-0.396,0.593l-0.793,1.186l-1.586,2.373
				l-3.172,4.745l-6.344,9.491c-2.093,3.104-4.435,6.58-8.33,8.073c-1.893,0.692-4.041,0.846-6.017,0.132
				c-2.011-0.705-3.477-2.552-4.058-4.468c-0.638-1.924-0.761-3.875-0.927-5.768c-0.168-1.907-0.262-3.82-0.321-5.733
				c-0.11-3.827,0.013-7.66,0.344-11.474c0.332-3.814,0.876-7.609,1.631-11.362c0.373-1.878,0.816-3.741,1.29-5.595l0.765-2.767
				l0.541-1.775c0.1-0.328,0.443-0.509,0.767-0.405c0.324,0.104,0.506,0.449,0.408,0.772l-0.535,1.753l-0.756,2.734
				c-0.468,1.832-0.905,3.672-1.274,5.527c-0.746,3.708-1.283,7.457-1.611,11.225c-0.327,3.768-0.449,7.554-0.34,11.335
				c0.058,1.89,0.151,3.779,0.317,5.663c0.162,1.887,0.297,3.776,0.867,5.476c0.538,1.709,1.693,3.122,3.323,3.71
				c1.618,0.589,3.501,0.478,5.163-0.135c3.385-1.274,5.661-4.495,7.731-7.602l6.343-9.49l3.172-4.745l1.586-2.373l0.793-1.186
				l0.396-0.593l0.099-0.148l0.05-0.074l0.012-0.019c0.506,0.141-1.114-0.342,1.137,0.312l0.003,0.044l0.022,0.349v0
				c0.465,10.099,5.947,19.919,14.416,25.458c4.159,2.701,9.465,4.3,14.136,2.618c2.269-0.856,4.259-2.526,5.491-4.62
				c0.611-1.048,1.026-2.206,1.155-3.391l0.043-0.89l-0.057-0.737c-0.005-0.193-0.053-0.378-0.095-0.565
				c-0.067-0.3,0.144-0.624,0.469-0.724C673.454,472.131,673.785,472.343,673.865,472.708z"/>
		</g>
		<g>
			<path fill="#225748" d="M760.147,370.864l-0.387,0.352l-0.101,0.083l-0.245,0.182c-0.345,0.252-0.678,0.524-1.053,0.729
				c-1.454,0.9-3.077,1.49-4.736,1.805c-3.329,0.624-6.774,0.221-9.916-0.934c-6.344-2.425-10.985-7.479-15.222-12.339l0,0
				l-0.371-0.427l-0.185-0.214l-0.023-0.027l-0.012-0.013c-0.895,0.631,1.205-0.877,0.993-0.713l0.032,0.068l0.065,0.136
				l0.514,1.088c0.247,0.757,0.526,1.52,0.597,2.316c0.246,1.576,0.135,3.195-0.281,4.715c-0.778,3.054-2.624,5.819-5.188,7.681
				c-1.296,0.902-2.76,1.617-4.344,1.907c-1.588,0.266-3.194,0.22-4.732-0.135c-3.086-0.715-5.796-2.384-8.171-4.297
				c-9.299-7.883-16.446-18.113-20.906-29.407l0,0l-0.193-0.483l-0.024-0.06c2.372-0.511,0.658-0.123,1.188-0.229l0.001,0.033
				l0.004,0.13l0.008,0.261l0.033,1.043l0.005,2.086c-0.04,1.39-0.106,2.78-0.246,4.164c-0.27,2.768-0.748,5.515-1.429,8.211
				c-0.69,2.694-1.587,5.335-2.676,7.893c-0.538,1.283-1.148,2.534-1.781,3.772c-0.644,1.205-1.412,2.631-2.968,3.321
				c-1.583,0.677-3.282,0.068-4.47-0.692c-1.265-0.769-2.249-1.753-3.275-2.669c-1.019-0.935-2.068-1.839-3.064-2.798l-2.914-2.954
				c-3.772-4.039-7.364-8.274-10.434-12.879c-3.117-4.565-5.947-9.339-8.286-14.352c-1.264-2.463-2.233-5.058-3.322-7.599
				c-0.905-2.613-1.932-5.185-2.655-7.857c-1.639-5.283-2.759-10.721-3.501-16.199c-0.163-1.373-0.36-2.743-0.494-4.119l-0.279-4.14
				c-0.13-1.379-0.085-2.764-0.113-4.147l-0.022-2.251c-0.003-0.342,0.269-0.614,0.609-0.607c0.34,0.007,0.618,0.286,0.621,0.623
				l0.022,2.223c0.028,1.366-0.017,2.734,0.112,4.096l0.276,4.09c0.132,1.359,0.328,2.713,0.488,4.07
				c0.734,5.413,1.84,10.787,3.46,16.009c0.714,2.642,1.73,5.184,2.624,7.767c1.078,2.511,2.034,5.078,3.284,7.512
				c2.312,4.956,5.11,9.675,8.19,14.187c3.034,4.552,6.585,8.735,10.31,12.726l2.878,2.918c0.983,0.948,2.019,1.84,3.026,2.764
				c1.019,0.914,2.004,1.883,3.102,2.541c1.081,0.686,2.322,1.056,3.347,0.607c1.032-0.431,1.747-1.577,2.356-2.758
				c0.618-1.21,1.214-2.432,1.74-3.685c1.064-2.5,1.941-5.081,2.616-7.714c0.665-2.636,1.133-5.321,1.396-8.026
				c0.138-1.352,0.202-2.71,0.241-4.068l-0.006-2.038l-0.032-1.018l-0.008-0.255l-0.004-0.127l-0.001-0.032
				c0.531-0.117-1.19,0.218,1.19-0.271l0.024,0.059l0.19,0.475l0,0c4.371,11.095,11.451,21.203,20.532,28.898
				c2.292,1.85,4.859,3.407,7.67,4.056c1.401,0.326,2.853,0.355,4.233,0.127c1.391-0.253,2.69-0.889,3.855-1.697
				c2.307-1.671,4.013-4.215,4.714-6.988c0.38-1.38,0.475-2.835,0.256-4.23c-0.059-0.709-0.313-1.375-0.524-2.043l-0.451-0.954
				l-0.056-0.12l-0.028-0.06c-0.222,0.145,1.896-1.338,1.006-0.703l0.012,0.013l0.023,0.027l0.185,0.213l0.369,0.426l0,0
				c4.211,4.846,8.759,9.725,14.721,11.993c2.944,1.086,6.189,1.457,9.257,0.879c1.53-0.291,3.008-0.831,4.319-1.642
				c0.341-0.184,0.637-0.431,0.948-0.656l0.22-0.163l0.091-0.075l0.346-0.317c0.235-0.215,0.624-0.196,0.868,0.04
				C760.431,370.23,760.414,370.62,760.147,370.864z"/>
		</g>
		<g>
			<path fill="#225748" d="M651.864,249.204c0.019,0.262-0.039,0.518-0.069,0.776c-0.727,4.451-5.842,7.643-10.135,5.728
				c-2.04-0.946-3.449-2.719-4.508-4.497c-1.056-1.812-1.87-3.682-2.67-5.579c-3.088-7.616-4.556-15.891-4.19-24.106l0.023-0.487
				c0.016-0.344,0.303-0.605,0.643-0.583c0.339,0.022,0.602,0.311,0.586,0.646l-0.022,0.477c-0.359,8.035,1.079,16.139,4.1,23.589
				c0.776,1.846,1.594,3.713,2.588,5.415c0.999,1.683,2.275,3.231,3.968,4.009c3.359,1.612,7.878-1.171,8.401-4.794
				c0.022-0.206,0.076-0.412,0.055-0.62c-0.006-0.294,0.267-0.564,0.605-0.602C651.577,248.537,651.86,248.818,651.864,249.204z"/>
		</g>
		<g>
			<path fill="#225748" d="M602.576,268.078l-0.418,0.567c-2.563,3.446-5.381,7.005-9.36,9.162
				c-3.921,2.122-9.141,2.384-12.925-0.453c-1.871-1.416-2.98-3.691-3.209-5.957c-0.254-2.28,0.175-4.534,0.893-6.629
				c1.493-4.207,4.164-7.707,5.418-11.712l0.136-0.446c0.085-0.314,0.422-0.504,0.753-0.424c0.331,0.08,0.523,0.421,0.43,0.763
				l-0.145,0.477c-1.356,4.264-4.048,7.793-5.429,11.744c-0.678,1.97-1.061,4.064-0.834,6.085c0.209,2.011,1.154,3.922,2.746,5.13
				c3.212,2.451,8.034,2.29,11.581,0.338c3.683-1.988,6.416-5.386,8.956-8.812l0.416-0.563c0.201-0.273,0.585-0.332,0.86-0.131
				C602.719,267.419,602.778,267.803,602.576,268.078z"/>
		</g>
		<g>
			<path fill="#225748" d="M612.704,341.689c-0.138,0.222-0.326,0.403-0.506,0.591c-1.402,1.485-3.457,2.077-5.368,2.085
				c-1.935-0.011-3.841-0.57-5.471-1.617c-3.297-2.225-4.769-6.06-5.356-9.665c-0.574-3.676-0.473-7.337-0.207-10.984
				c0.315-3.646,1.014-7.284,2.275-10.751l0.176-0.459c0.125-0.324,0.48-0.483,0.795-0.355c0.315,0.128,0.473,0.483,0.354,0.794
				l-0.17,0.442c-1.216,3.342-1.898,6.873-2.205,10.434c-0.263,3.558-0.354,7.193,0.195,10.679c0.541,3.428,1.985,6.946,4.813,8.833
				c2.765,1.812,6.966,2.068,9.285-0.292c0.144-0.15,0.298-0.292,0.406-0.473c0.169-0.243,0.549-0.302,0.845-0.135
				C612.861,340.983,612.925,341.375,612.704,341.689z"/>
		</g>
		<g>
			<path fill="#225748" d="M646.001,186.693l-0.03,0.465l-0.016,0.232l-0.09,0.61c-0.119,0.895-0.323,1.778-0.596,2.635
				c-0.532,1.719-1.312,3.367-2.364,4.846c-1.052,1.471-2.397,2.794-4.072,3.641c-1.661,0.882-3.685,1.067-5.504,0.585
				c-3.74-1.033-6.122-4.487-6.969-7.972c-0.846-3.562-0.373-7.174,0.115-10.605v0l0.057-0.398l0.007-0.05
				c-0.216-0.134,1.917,1.044,1.004,0.555l-0.019,0.017l-0.075,0.066l-0.15,0.133l-0.602,0.532l-1.205,1.062l-2.43,2.105
				c-1.623,1.401-3.288,2.76-4.975,4.092c-3.384,2.651-6.95,5.104-10.761,7.154c-3.828,2.002-7.926,3.595-12.222,4.338
				c-1.084,0.144-2.13,0.375-3.27,0.402c-1.114,0.028-2.371-0.087-3.44-0.827c-1.088-0.724-1.612-2.038-1.703-3.19
				c-0.11-1.175,0.062-2.298,0.284-3.367c1.74-8.459,5.104-16.563,9.772-23.816c2.334-3.628,4.996-7.045,7.948-10.192
				c1.484-1.566,3.031-3.071,4.639-4.51l2.473-2.088l1.823-1.41c0.272-0.21,0.655-0.158,0.856,0.116
				c0.201,0.274,0.149,0.663-0.117,0.868l-1.79,1.384l-2.429,2.05c-1.58,1.413-3.099,2.891-4.558,4.43
				c-2.9,3.092-5.516,6.451-7.811,10.016c-4.589,7.129-7.894,15.094-9.601,23.398c-0.433,1.967-0.572,4.285,0.919,5.301
				c1.486,1.015,3.763,0.522,5.792,0.221c4.144-0.717,8.119-2.259,11.858-4.213c3.724-2.004,7.233-4.415,10.58-7.037
				c1.669-1.319,3.319-2.665,4.933-4.058l2.419-2.095l1.201-1.059l0.6-0.53l0.15-0.133l0.075-0.066l0.019-0.017
				c-0.905-0.491,1.256,0.647,1.03,0.542l-0.007,0.05l-0.057,0.396l0,0c-0.492,3.417-0.917,6.879-0.136,10.143
				c0.757,3.169,2.963,6.235,6.088,7.07c3.182,0.943,6.413-1.035,8.26-3.753c0.965-1.356,1.694-2.892,2.189-4.493
				c0.255-0.798,0.445-1.621,0.554-2.449l0.084-0.565l0.015-0.214l0.027-0.428c0.021-0.323,0.313-0.58,0.653-0.576
				C645.766,186.045,646.023,186.337,646.001,186.693z"/>
		</g>
		<g>
			<path fill="#225748" d="M648.682,140.476c-0.237,0.079-0.473,0.162-0.719,0.203c-2.71,0.655-5.578,0.127-7.985-1.111
				c-2.42-1.236-4.49-3.153-5.851-5.522c-2.714-4.773-2.717-10.523-1.446-15.62l0.128-0.476c0.092-0.336,0.43-0.53,0.756-0.434
				c0.326,0.097,0.52,0.434,0.432,0.753l-0.123,0.456c-1.223,4.892-1.181,10.329,1.322,14.71c2.431,4.243,7.661,7.181,12.483,6.046
				c0.217-0.035,0.423-0.109,0.63-0.179c0.297-0.098,0.643,0.078,0.771,0.393C649.208,140.012,649.031,140.361,648.682,140.476z"/>
		</g>
		<g>
			<path fill="#225748" d="M735.433,431.335l-0.693-0.206c-5.485-1.674-9.893-5.653-13.217-10.085
				c-3.366-4.469-5.903-9.443-8.259-14.431l0,0l-0.119-0.251l-0.015-0.031c2.279-0.154,0.629-0.033,1.136-0.063l-0.005,0.016
				l-0.021,0.066l-0.043,0.132l-0.171,0.528l-0.346,1.056l-0.716,2.109c-0.493,1.404-1.024,2.8-1.627,4.173
				c-1.207,2.738-2.703,5.405-4.767,7.664c-2.063,2.237-4.642,4.046-7.582,5.003c-2.923,0.958-6.277,0.86-9.086-0.478
				c-2.834-1.288-5.1-3.446-6.994-5.773c-1.867-2.365-3.464-4.913-4.773-7.613c-1.322-2.691-2.339-5.53-3.067-8.437
				c-0.376-1.452-0.635-2.931-0.858-4.413c-0.093-0.744-0.193-1.487-0.247-2.235l-0.082-1.122l-0.028-0.571
				c-0.017-0.346,0.245-0.633,0.585-0.642c0.34-0.009,0.628,0.254,0.644,0.587l0.027,0.554l0.08,1.088
				c0.051,0.726,0.149,1.448,0.239,2.17c0.216,1.439,0.467,2.875,0.833,4.285c0.707,2.824,1.695,5.582,2.979,8.195
				c1.268,2.618,2.83,5.106,4.625,7.379c1.817,2.236,3.967,4.258,6.545,5.425c2.556,1.211,5.513,1.296,8.202,0.427
				c2.694-0.874,5.117-2.563,7.049-4.662c1.933-2.113,3.379-4.67,4.548-7.328c0.586-1.333,1.106-2.701,1.592-4.085l0.708-2.088
				l0.344-1.051l0.171-0.526l0.043-0.132l0.021-0.066l0.005-0.016c0.511-0.034-1.137,0.054,1.148-0.081l0.015,0.031l0.119,0.249l0,0
				c2.342,4.963,4.852,9.868,8.127,14.214c3.24,4.318,7.449,8.083,12.601,9.653l0.653,0.194c0.314,0.094,0.505,0.438,0.427,0.769
				C736.107,431.248,735.771,431.435,735.433,431.335z"/>
		</g>
		<g>
			<path fill="#225748" d="M659,629.392l-0.657-0.314c-8.507-4.386-12.968-15.277-9.645-24.339l0,0l0.091-0.273l0.011-0.034
				c2.288,0.899,0.63,0.259,1.139,0.464l-0.007,0.016l-0.028,0.065l-0.056,0.13l-0.226,0.519c-0.156,0.343-0.289,0.698-0.465,1.032
				c-0.335,0.676-0.665,1.355-1.049,2.005c-0.732,1.319-1.577,2.573-2.487,3.775c-1.825,2.402-3.969,4.557-6.366,6.388
				c-2.387,1.844-5.038,3.34-7.839,4.473c-1.408,0.55-2.933,1.016-4.563,0.958c-1.625-0.046-3.262-0.77-4.355-2.001
				c-1.121-1.212-1.703-2.748-2.016-4.256c-0.317-1.519-0.389-3.055-0.326-4.572c0.148-3.065,0.878-5.94,1.427-8.859
				c0.609-2.909,1.296-5.801,2.058-8.674l1.202-4.293l1.165-3.788c0.104-0.325,0.45-0.503,0.773-0.398
				c0.323,0.105,0.502,0.451,0.398,0.774l-1.157,3.76l-1.193,4.261c-0.757,2.851-1.438,5.722-2.043,8.61
				c-0.546,2.89-1.271,5.799-1.402,8.661c-0.087,2.815,0.203,5.931,2.019,7.942c0.877,0.988,2.164,1.563,3.498,1.604
				c1.346,0.052,2.728-0.348,4.063-0.873c2.686-1.087,5.243-2.527,7.541-4.305c2.31-1.765,4.377-3.842,6.135-6.157
				c0.876-1.158,1.69-2.366,2.395-3.636c0.37-0.625,0.687-1.279,1.01-1.929c0.17-0.321,0.297-0.662,0.447-0.992l0.217-0.499
				l0.054-0.125l0.027-0.062l0.007-0.016c0.511,0.202-1.133-0.473,1.147,0.448l-0.01,0.032l-0.083,0.254l0,0
				c-3.125,8.393,1.122,18.771,9.048,22.814l0.61,0.291c0.293,0.14,0.428,0.51,0.301,0.825S659.321,629.545,659,629.392z"/>
		</g>
	</g>
	<g>
		<path fill="#F0DED4" d="M816.621,789.97l-8.608,2.348l-7.257,1.979l-3.628,0.99c-1.219,0.29-2.454,0.511-3.681,0.77l-14.741,2.999
			c-2.445,0.569-4.942,0.83-7.423,1.188l-7.451,1.029l-7.451,1.029c-2.487,0.309-4.996,0.414-7.493,0.631
			c-5,0.365-9.997,0.797-14.999,1.107c-10.024,0.092-20.054,0.62-30.069-0.03l-7.514-0.296l-3.757-0.148l-3.743-0.346l-14.972-1.405
			c-4.989-0.48-9.927-1.386-14.893-2.058l-7.439-1.091c-2.475-0.389-4.921-0.947-7.383-1.412l-14.746-2.938l-14.591-3.627
			c-4.889-1.118-9.68-2.592-14.479-4.036c-4.785-1.487-9.643-2.746-14.367-4.422l-14.198-4.943c-2.38-0.787-4.718-1.687-7.037-2.637
			l-6.984-2.778c-9.387-3.528-18.433-7.863-27.601-11.909c-4.522-2.157-8.978-4.453-13.47-6.672l-6.722-3.363l-6.582-3.63
			c-4.378-2.438-8.798-4.8-13.141-7.3c-4.334-2.519-8.604-5.144-12.85-7.811c-16.869-10.802-32.968-23.078-46.567-37.911
			c-6.799-7.396-12.837-15.522-17.8-24.275c-2.449-4.388-4.73-8.89-6.548-13.585c-0.46-1.171-1.002-2.311-1.395-3.507l-1.163-3.593
			l-1.024-3.167c-0.105-0.326,0.074-0.663,0.402-0.755c0.328-0.091,0.677,0.095,0.781,0.416l1.013,3.129l1.148,3.55
			c0.388,1.181,0.925,2.309,1.38,3.466c1.797,4.641,4.053,9.094,6.476,13.436c4.911,8.662,10.892,16.715,17.64,24.054
			c13.495,14.72,29.51,26.938,46.318,37.702c4.231,2.658,8.487,5.275,12.809,7.786c4.331,2.493,8.742,4.85,13.109,7.282l6.566,3.621
			l6.706,3.355c4.481,2.214,8.927,4.504,13.438,6.657c9.146,4.036,18.17,8.36,27.534,11.879l6.967,2.772
			c2.313,0.948,4.646,1.845,7.02,2.63l14.162,4.93c4.712,1.672,9.558,2.926,14.33,4.41c4.787,1.441,9.565,2.91,14.44,4.025
			l14.551,3.618l14.704,2.929c2.455,0.464,4.894,1.02,7.362,1.408l7.417,1.087c4.951,0.67,9.875,1.573,14.849,2.052l14.926,1.4
			l3.732,0.345l3.745,0.147l7.49,0.295c9.983,0.649,19.978,0.121,29.969,0.03c4.985-0.309,9.964-0.74,14.947-1.103
			c2.488-0.216,4.988-0.32,7.466-0.628l7.423-1.025l7.423-1.025c2.472-0.357,4.96-0.617,7.396-1.184l14.685-2.988
			c1.222-0.258,2.452-0.478,3.667-0.767l3.614-0.986l7.229-1.972l8.575-2.339c0.327-0.089,0.673,0.101,0.774,0.426
			C817.134,789.545,816.95,789.88,816.621,789.97z"/>
	</g>
	<g>
		<path fill="#F0DED4" d="M736.187,444.992l-4.547,3.693c-2.401,2.033-4.992,3.821-7.5,5.717
			c-5.077,3.708-10.329,7.175-15.703,10.437c-10.753,6.516-22.032,12.148-33.642,16.959c-23.236,9.62-47.741,15.978-72.578,19.693
			c-24.856,3.717-50.033,4.851-75.125,4.427c-12.551-0.211-25.092-0.809-37.611-1.669c-6.259-0.436-12.514-0.927-18.763-1.471
			l-16.296-1.525c-0.339-0.033-0.585-0.333-0.551-0.672c0.034-0.338,0.335-0.586,0.673-0.553l16.281,1.524
			c6.243,0.543,12.49,1.034,18.741,1.469c12.501,0.859,25.021,1.456,37.547,1.666c25.042,0.423,50.151-0.71,74.924-4.414
			c24.75-3.702,49.16-10.037,72.289-19.613c11.557-4.788,22.78-10.393,33.476-16.874c5.345-3.244,10.568-6.692,15.616-10.379
			c2.493-1.886,5.07-3.663,7.456-5.684l4.52-3.671c0.263-0.214,0.654-0.177,0.875,0.082
			C736.488,444.393,736.452,444.777,736.187,444.992z"/>
	</g>
	<g>
		<path fill="#F0DED4" d="M760.219,316.3l-5.221,0.753c-2.752,0.461-5.541,0.611-8.313,0.911c-5.554,0.48-11.133,0.678-16.708,0.631
			c-11.15-0.104-22.288-1.249-33.23-3.396c-21.878-4.293-42.992-12.601-61.799-24.61c-18.811-12.003-35.225-27.678-48.303-45.737
			c-6.543-9.03-12.259-18.659-17.036-28.735c-1.13-2.548-2.35-5.058-3.404-7.638c-1.008-2.599-2.119-5.159-3.041-7.79
			c-0.882-2.644-1.881-5.251-2.666-7.927l-1.753-5.99c-0.096-0.328,0.092-0.664,0.421-0.751c0.328-0.087,0.672,0.105,0.767,0.43
			l1.741,5.947c0.779,2.657,1.772,5.245,2.647,7.871c0.915,2.613,2.019,5.155,3.019,7.736c1.047,2.563,2.26,5.055,3.381,7.586
			c4.744,10.007,10.422,19.571,16.92,28.54c12.99,17.937,29.293,33.506,47.97,45.422c18.671,11.923,39.643,20.176,61.374,24.44
			c10.867,2.133,21.931,3.27,33.004,3.373c5.537,0.047,11.076-0.15,16.592-0.626c2.752-0.298,5.522-0.446,8.254-0.904l5.184-0.748
			c0.335-0.048,0.652,0.184,0.709,0.519C760.784,315.941,760.557,316.251,760.219,316.3z"/>
	</g>
	<g>
		<path fill="#F6C25C" d="M525.306,250.28c10.244,0.428,20.488,0.857,30.732,1.285c-3.298,8.391-6.595,16.783-9.893,25.174
			c14.85-9.904,29.7-19.808,44.549-29.712c-4.532-8.056-9.477-15.879-14.81-23.429c-3.037-4.3-7.985,0.518-11.645,2.54
			c-4.575,2.527-9.106,5.133-13.591,7.816c-4.37,2.614-8.696,5.302-12.976,8.062C535.25,243.578,527.985,250.392,525.306,250.28z"/>
		<path fill="#2D1F44" d="M568.297,307.76c9.963-2.42,19.926-4.841,29.889-7.261c-0.849,8.976-1.698,17.952-2.547,26.928
			c11.533-13.623,23.066-27.246,34.599-40.87c-6.583-6.489-13.498-12.64-20.71-18.422c-4.107-3.293-7.531,2.706-10.489,5.66
			c-3.698,3.693-7.332,7.45-10.901,11.269c-3.477,3.721-6.891,7.499-10.241,11.335C576.001,298.569,570.902,307.127,568.297,307.76z
			"/>
		<path fill="#F0DED4" d="M637.393,353.331c8.318-5.995,16.635-11.99,24.953-17.985c2.595,8.635,5.189,17.269,7.784,25.904
			c5.552-16.964,11.103-33.928,16.655-50.892c-8.542-3.531-17.265-6.624-26.123-9.264c-5.045-1.503-5.957,5.343-7.584,9.194
			c-2.034,4.814-3.986,9.663-5.853,14.545c-1.819,4.756-3.559,9.543-5.217,14.358C641.068,341.915,639.569,351.763,637.393,353.331z
			"/>
		<path fill="#F6C25C" d="M724.654,372.666c4.769-9.077,9.537-18.153,14.306-27.23c6.175,6.57,12.35,13.139,18.525,19.709
			c-2.601-17.659-5.202-35.318-7.804-52.977c-9.22,0.651-18.407,1.775-27.512,3.366c-5.186,0.906-2.947,7.44-2.685,11.612
			c0.328,5.216,0.745,10.426,1.252,15.628c0.494,5.068,1.073,10.128,1.737,15.177C722.849,360.811,725.901,370.292,724.654,372.666z
			"/>
	</g>
	<g>
		<path fill="#F0DED4" d="M482.487,569.586c-0.69-2.739,6.159-12.709,7.473-15.483c2.617-5.524,5.191-11.069,7.722-16.634
			c5.199-11.431,10.081-22.99,15.066-34.514c-10.45-1.452-21.263-2.311-32.018-2.534c-8.97-0.186-13.79,0.081-11.986,9.877
			C472.409,530.2,477.542,549.971,482.487,569.586z"/>
		<path fill="#F66D5B" d="M614.068,566.159c-1.336-2.489,2.881-13.826,3.481-16.837c1.194-5.995,2.341-12,3.442-18.013
			c2.261-12.352,4.184-24.752,6.214-37.142c-10.489,1.134-21.186,2.932-31.672,5.334c-8.745,2.003-13.356,3.434-9.222,12.497
			C594.708,530.409,604.498,548.337,614.068,566.159z"/>
		<path fill="#2D1F44" d="M809.474,466.63c-2.441-1.422-4.78-13.29-5.845-16.169c-2.12-5.734-4.285-11.451-6.494-17.151
			c-4.538-11.709-9.388-23.281-14.142-34.902c-8.344,6.456-16.519,13.586-24.198,21.12c-6.404,6.283-9.584,9.916-1.319,15.475
			C774.269,446.298,791.993,456.452,809.474,466.63z"/>
		<path fill="#F6C25C" d="M731.572,526.769c-2.064-1.929-1.705-14.02-2.102-17.064c-0.792-6.061-1.63-12.117-2.516-18.165
			c-1.82-12.425-3.974-24.786-6.025-37.173c-9.571,4.438-19.127,9.571-28.289,15.208c-7.642,4.701-11.549,7.536-4.728,14.794
			C701.771,499.115,716.793,512.957,731.572,526.769z"/>
	</g>
	<g>
		<path fill="#2D1F44" d="M346.262,716.471c14.131-1.703,28.262-3.407,42.393-5.11c-2.642,12.234-5.284,24.469-7.925,36.703
			c18.132-16.89,36.263-33.779,54.394-50.669c-8.011-10.024-16.535-19.637-25.529-28.789c-5.122-5.212-10.825,2.495-15.387,6.083
			c-5.703,4.485-11.329,9.069-16.874,13.747c-5.403,4.559-10.729,9.209-15.976,13.947
			C358.389,705.065,349.958,716.026,346.262,716.471z"/>
		<path fill="#F66D5B" d="M435.252,793.736c12.933-5.944,25.866-11.888,38.798-17.833c1.227,12.456,2.454,24.912,3.682,37.368
			c12.096-21.626,24.192-43.253,36.288-64.879c-10.693-7.093-21.749-13.638-33.112-19.6c-6.471-3.396-9.543,5.687-12.789,10.498
			c-4.058,6.014-8.012,12.099-11.86,18.25c-3.749,5.993-7.398,12.049-10.944,18.165
			C443.308,779.167,438.634,792.181,435.252,793.736z"/>
		<path fill="#F0DED4" d="M545.147,846.55c11.34-8.602,22.681-17.203,34.021-25.805c3.893,11.896,7.786,23.791,11.679,35.687
			c7.131-23.731,14.261-47.462,21.392-71.193c-11.974-4.611-24.185-8.609-36.568-11.972c-7.052-1.915-8.086,7.617-10.215,13.017
			c-2.66,6.75-5.204,13.546-7.63,20.384c-2.364,6.662-4.616,13.364-6.755,20.102C549.861,830.583,548.113,844.3,545.147,846.55z"/>
		<path fill="#2D1F44" d="M801.973,868.673c3.605-13.769,7.21-27.539,10.814-41.308c10.41,6.95,20.819,13.9,31.229,20.85
			c-9.051-23.067-18.103-46.134-27.154-69.201c-12.265,3.77-24.337,8.169-36.153,13.174c-6.729,2.85-1.654,10.985,0.008,16.546
			c2.077,6.952,4.275,13.867,6.591,20.743c2.256,6.7,4.625,13.361,7.106,19.981C795.817,853.205,802.916,865.072,801.973,868.673z"
			/>
		<path fill="#F6C25C" d="M664.511,877.079c8.227-11.615,16.454-23.23,24.681-34.845c7.292,10.173,14.583,20.346,21.875,30.52
			c-0.339-24.777-0.679-49.554-1.018-74.331c-12.807-0.795-25.654-0.934-38.476-0.416c-7.302,0.295-5.42,9.697-5.825,15.487
			c-0.506,7.238-0.888,14.484-1.144,21.735c-0.25,7.065-0.381,14.134-0.394,21.203C664.203,860.433,666.663,874.041,664.511,877.079
			z"/>
	</g>
	<path fill="#F0DED4" d="M519.347,646.203c-1.821-0.105-3.542-0.68-5.12-1.351c-5.636-2.398-5.753-12.168-1.951-16.234
		c4.175-4.465,14.722-3.76,16.846,2.515c1.097,3.241,0.904,6.883-0.703,9.981c-0.508,0.979-1.104,1.933-1.987,2.751
		C524.766,645.41,522.04,646.357,519.347,646.203z"/>
	<path fill="#F0DED4" d="M626.341,917.52c-1.635-0.094-3.181-0.61-4.598-1.213c-5.061-2.153-5.166-10.926-1.752-14.577
		c3.749-4.009,13.219-3.376,15.126,2.259c0.985,2.91,0.811,6.18-0.631,8.962c-0.456,0.879-0.991,1.736-1.784,2.47
		C631.206,916.808,628.759,917.658,626.341,917.52z"/>
	<path fill="#F0DED4" d="M452.864,872.161c-2.804-0.162-5.454-1.046-7.884-2.08c-8.679-3.693-8.859-18.736-3.004-24.998
		c6.429-6.875,22.67-5.79,25.94,3.873c1.689,4.991,1.391,10.598-1.083,15.369c-0.782,1.507-1.699,2.977-3.059,4.235
		C461.208,870.94,457.011,872.398,452.864,872.161z"/>
	<path fill="#F0DED4" d="M749.188,724.787c-2.804-0.162-5.454-1.046-7.884-2.08c-8.679-3.693-8.859-18.736-3.004-24.998
		c6.429-6.875,22.67-5.79,25.94,3.873c1.689,4.991,1.391,10.598-1.083,15.369c-0.782,1.507-1.699,2.977-3.059,4.235
		C757.532,723.566,753.334,725.024,749.188,724.787z"/>
	<path fill="#F0DED4" d="M671.513,586.142c-0.728-2.712-0.723-5.506-0.506-8.139c0.775-9.4,14.998-14.303,22.784-10.715
		c8.549,3.94,12.628,19.697,4.484,25.842c-4.206,3.174-9.622,4.655-14.929,3.807c-1.677-0.268-3.361-0.677-4.983-1.571
		C675.297,593.678,672.593,590.153,671.513,586.142z"/>
	<path fill="#F0DED4" d="M633.021,211.919c-0.728-2.712-0.723-5.507-0.506-8.139c0.775-9.4,14.998-14.303,22.784-10.715
		c8.549,3.94,12.628,19.697,4.484,25.842c-4.206,3.174-9.622,4.655-14.929,3.807c-1.677-0.268-3.361-0.677-4.983-1.571
		C636.805,219.455,634.101,215.929,633.021,211.919z"/>
	<path fill="#F0DED4" d="M561.319,432.076c-0.728-2.712-0.723-5.507-0.506-8.139c0.775-9.4,14.998-14.303,22.784-10.715
		c8.549,3.94,12.628,19.697,4.484,25.842c-4.206,3.174-9.622,4.655-14.929,3.807c-1.677-0.268-3.361-0.677-4.983-1.571
		C565.103,439.613,562.399,436.087,561.319,432.076z"/>
	<path fill="#F0DED4" d="M679.643,395.03c-0.354-1.319-0.352-2.679-0.246-3.959c0.377-4.573,7.296-6.958,11.083-5.212
		c4.159,1.917,6.143,9.582,2.181,12.571c-2.046,1.544-4.681,2.264-7.262,1.852c-0.816-0.13-1.635-0.329-2.424-0.764
		C681.483,398.696,680.168,396.981,679.643,395.03z"/>
</g>
</svg>
