<?xml version="1.0" encoding="utf-8"?>
<!-- Designed by Vexels.com - 2020 All Rights Reserved - https://vexels.com/terms-and-conditions/  -->
<svg version="1.1" id="Layer_1" xmlns="http://www.w3.org/2000/svg" xmlns:xlink="http://www.w3.org/1999/xlink" x="0px" y="0px"
	 viewBox="0 0 1200 1200" enable-background="new 0 0 1200 1200" xml:space="preserve">
<g>
	<path fill="#2D1F44" d="M675.123,401.232c-0.981-2.182-2.978-3.886-5.218-4.573c-2.221-0.677-4.355-0.549-6.295-0.209
		c-14.363,4.603-26.051,11.959-37.809,20.138c-2.836,2.045-5.61,4.177-8.323,6.384c3.436-6.063,6.753-12.206,9.663-18.689
		c2.281-5.303,4.139-10.945,4.764-16.895c0.293-3.024,0.34-5.866-0.149-9.115c-0.277-1.604-1.161-3.852-3.228-5.026
		c-2.008-1.113-3.953-1.006-5.541-0.835c-12.383,1.752-21.881,10.22-29.143,18.949c-7.285,8.972-13.35,18.551-19.058,28.438
		c-7.936,13.96-14.388,28.739-19.428,43.984l0.598-7.759l2.517-32.654c0.836-10.885,1.654-21.868,1.367-32.942
		c-0.146-5.533-0.564-11.086-1.446-16.595c-0.449-2.752-0.97-5.499-1.652-8.212c-0.369-1.382-0.601-2.638-1.173-4.204
		c-0.508-1.515-1.785-3.457-3.775-4.313c-4.227-1.524-7.419,0.494-9.876,2.167c-2.324,2.006-4.366,3.857-6.161,6.165
		c-3.669,4.433-6.417,9.563-8.314,14.918c-3.718,10.789-4.297,22.183-3.677,33.234c0.614,11.112,2.729,21.978,5.463,32.577
		l5.984,25.238c-1.9-2.058-3.739-4.182-5.521-6.361c-3.742-4.59-7.249-9.406-10.705-14.29c-6.913-9.76-13.633-19.85-21.744-29.01
		c-8.168-9.149-17.961-17.018-29.33-22.101c-11.29-5.074-24.604-6.867-36.875-2.189c-1.586,0.698-3.382,1.885-4.445,3.782
		c-1.049,1.868-1.225,3.889-1.119,5.617c0.302,3.502,1.215,6.341,2.225,9.364c2.121,5.916,5.249,11.354,8.829,16.357
		c7.254,9.93,15.961,18.607,25.618,26.091c9.665,7.471,20.35,13.583,31.626,18.269c5.661,2.29,11.464,4.222,17.37,5.784l4.453,1.078
		l2.583,0.529l1.422,0.278c1.258,0.246,2.445-0.558,2.655-1.796c0.209-1.239-0.598-2.432-1.805-2.668l-1.372-0.268l-2.494-0.51
		l-4.3-1.041c-5.703-1.51-11.311-3.377-16.785-5.589c-10.9-4.531-21.236-10.442-30.578-17.665
		c-9.317-7.211-17.785-15.672-24.7-25.139c-3.401-4.752-6.305-9.833-8.241-15.235c-1.755-5.388-3.764-11.756,0.919-13.092
		c10.391-3.94,22.72-2.582,33.174,2.199c10.604,4.73,19.982,12.227,27.769,20.96c7.835,8.84,14.48,18.792,21.435,28.62
		c3.48,4.917,7.046,9.816,10.893,14.535c1.927,2.356,3.916,4.672,6,6.912c1.068,1.098,2.073,2.251,3.195,3.301l1.478,1.438
		c-0.076,0.052-0.095,0.068,0.007,0.007l0.165,0.16l0.412,0.4l0.207,0.201l0.103,0.1c7.478-4.564,2.064-1.305,3.729-2.341
		l-0.017-0.068l-0.258-1.091l-0.001-0.002l-7.514-31.71c-2.723-10.54-4.784-21.179-5.372-31.907
		c-0.607-10.674-0.003-21.526,3.428-31.455c1.749-4.928,4.242-9.556,7.531-13.531c1.536-2.024,3.595-3.844,5.369-5.412
		c1.803-1.409,4.257-2.218,5.321-1.658c1.094,0.212,1.743,2.756,2.377,5.448c0.649,2.58,1.145,5.201,1.576,7.835
		c0.844,5.273,1.25,10.631,1.392,16.009c0.28,10.765-0.519,21.597-1.356,32.472l-2.518,32.654l-1.259,16.327l-0.63,8.163
		l-0.314,4.082l-0.079,1.021l-0.039,0.51l-0.005,0.064c1.996,0.323-4.477-0.632,4.476,0.74l0.03-0.123l0.053-0.219
		c0.53,0.075,0.327,0.037,0.004-0.021l0.002-0.008l0.48-1.97l0.001-0.002c5.25-21.738,13.537-42.753,24.593-62.2
		c5.564-9.655,11.642-19.217,18.6-27.775c6.926-8.391,15.766-15.91,26.202-17.343c2.644-0.154,3.266,0.021,3.756,2.226
		c0.349,2.331,0.368,5.183,0.089,7.767c-0.554,5.301-2.243,10.523-4.417,15.571c-4.508,10.058-10.227,19.894-15.95,29.498
		c-0.151,0.25-0.318,0.489-0.47,0.738c-14.435,13.842-26.614,30.04-35.563,47.952l-0.001,0.002l-0.965,1.916l-0.41,0.815
		c-1.153-0.743-0.853-0.535-0.011,0.022l-0.061,0.121l-0.12,0.24l-0.06,0.12l-0.03,0.059c-0.842-0.498,7.154,4.652,3.793,2.443
		l0.344-0.406l2.755-3.247l5.399-6.588c3.56-4.423,7.017-8.929,10.367-13.514c6.426-8.749,12.444-17.796,18.114-27.053
		c5.779-5.506,11.889-10.665,18.36-15.33c11.078-7.857,23.688-15.388,35.966-19.354c3.074-0.602,5.657,0.064,6.57,2.209
		c0.963,2.036,0.124,5.325-1.275,8.166c-3.062,5.986-6.918,11.802-11.162,17.188c-8.509,10.85-18.705,20.363-29.228,29.513
		c-10.599,9.11-21.167,18.319-32.343,26.522c-11.172,8.16-23.13,15.402-36.194,19.481c-3.262,0.995-6.564,1.842-9.914,2.433
		c-0.329,0.076-0.668,0.085-1,0.141l3.253-4.048c0.787-0.979,0.631-2.407-0.347-3.194c-0.979-0.787-2.408-0.631-3.195,0.348
		l-4.511,5.614l-1.645,2.047l-0.411,0.512l-0.206,0.256l-0.052,0.064c3.949,7.371,1.143,2.037,2.046,3.68l0.168-0.021l1.343-0.166
		c1.783-0.261,3.596-0.359,5.355-0.759c3.552-0.628,7.042-1.523,10.48-2.572c13.765-4.307,26.115-11.828,37.512-20.148
		c11.42-8.385,21.999-17.616,32.645-26.763c10.598-9.219,21.011-18.91,29.82-30.137c4.415-5.621,8.358-11.524,11.678-18.017
		C675.307,409.943,676.995,405.848,675.123,401.232z"/>
	<path fill="#2D1F44" d="M839.968,543.641c-0.171,10.39-0.171,20.779-1.712,31.112c-0.799,5.195-0.685,10.675-0.799,16.041
		c0.057,0.571,0,1.199,0,1.77c0,0.343,0,0.742-0.057,1.085c-0.628,18.953-0.4,37.905-2.969,56.686
		c-0.171,1.256-0.285,2.455-0.342,3.711c-0.114,1.085-0.171,2.112-0.171,3.197c-0.114,3.654-0.057,7.307-0.171,10.96
		c-0.628,14.043-0.514,28.2-2.683,42.186c-0.97,6.508-0.628,13.358-0.914,20.037c-0.399,8.905-0.571,17.754-2.112,26.545
		c-0.913,5.081-1.141,10.332-1.141,15.527c0,11.132,0.685,33.338-4.567,43.556c-7.821,15.128-22.32,11.531-40.359,11.874
		c-46.297,0.742-92.593,1.484-138.89,2.284c-45.497,0.742-90.709,3.14-136.264,5.823c-8.677,0.514-17.411,0.171-25.974,2.455
		c-3.368,0.913-6.965,0.685-10.447,0.856c-2.569,0.114-5.195,0.171-7.764,0.286c-1.427,0.057-2.854,0.114-4.281,0.114
		c-44.127,1.541-88.255,2.112-132.439,0.229c-4.053-0.171-8.106-0.286-12.159-0.628c-4.11-0.399-7.878-2.398-11.36-5.195
		c-3.026-2.455-5.366-5.937-5.88-10.618c-0.571-5.081-0.856-10.333-0.799-15.527c0.057-6.85,0.229-13.7,0.342-20.551
		c0.057-0.97,0.057-1.941,0.114-2.969c0.057-4.053,0.114-8.106,0.114-12.159c-0.057-18.952-0.114-37.848-0.229-56.8v-2.911
		c-0.114-20.266-0.228-40.531-0.342-60.796c-0.057-4.453,0.171-9.02-0.514-13.358c-0.171-1.199-0.342-2.455-0.514-3.653
		c-0.114-0.971-0.228-1.941-0.342-2.911c-1.142-11.075-1.027-22.321-1.199-33.452c-0.171-11.417-0.286-22.834-0.4-34.251
		c0-0.971-0.057-1.884,0-2.854c-0.171-15.185-0.285-30.312-0.342-45.497c-0.057-7.421,0.171-14.899,0.799-22.263
		c0.856-9.591,4.853-15.927,10.846-20.037c16.955-11.589,49.55-5.252,70.272-4.91c34.594,0.514,69.245,0.628,103.839,0.4
		c1.256,0,2.569,0,3.825-0.057c10.047-0.057,20.037-0.171,30.084-0.285c31.226-0.456,62.395-1.199,93.564-2.226
		c7.821-0.286,15.584-0.571,23.405-0.856c0-0.057,0-0.057,0.057-0.057c17.126-0.628,34.309-1.37,51.434-2.226
		c3.425-0.171,6.85-0.342,10.275-0.571c30.598-1.541,61.196-3.482,91.794-5.651c46.81-3.368,56.629,18.096,58.056,46.296
		c0,0.97,0.057,1.941,0.114,2.911v0.057C841.109,518.181,840.139,531.025,839.968,543.641z"/>
	<g>
		<g>
			<path fill="#F0DED4" d="M690.803,462.75c-3.882,1.027-7.706,2.34-11.303,4.11c-7.022,3.482-13.244,8.449-18.667,14.215
				c-10.903,11.645-19.181,25.574-29.97,37.791c-5.366,6.108-11.588,11.76-19.124,15.47c-7.478,3.711-16.098,4.853-24.261,3.882
				c-16.498-2.055-30.884-10.561-46.582-12.673c-7.764-1.028-15.699-0.343-23.177,2.169c-7.421,2.512-14.329,6.565-20.551,11.474
				c-12.502,9.819-22.606,22.492-31.74,35.564c-9.02,13.301-18.039,26.83-29.171,38.704c-11.017,11.703-24.775,22.206-41.273,25.232
				c-8.106,1.598-16.555,1.085-24.49-0.628c-7.992-1.656-15.699-4.167-23.462-6.108c-7.707-1.998-15.585-2.74-23.52-2.683
				c-7.935,0.114-15.755,1.599-23.405,3.654c-1.827,0.571-3.596,1.199-5.423,1.884c-0.114-0.971-0.228-1.941-0.342-2.911
				c1.656-0.628,3.311-1.199,4.966-1.713c7.878-2.112,15.927-3.654,24.147-3.768c8.163-0.114,16.441,0.685,24.318,2.797
				c15.527,3.939,31.055,9.99,46.696,6.679c15.584-2.854,28.885-12.901,39.674-24.376c10.961-11.645,19.866-25.004,28.942-38.362
				c9.248-13.244,19.466-26.088,32.311-36.249c6.451-5.024,13.586-9.248,21.464-11.874c7.764-2.683,16.269-3.425,24.432-2.34
				c16.384,2.34,30.826,10.789,46.468,12.73c7.764,0.914,15.756-0.171,22.72-3.654c7.079-3.425,13.016-8.848,18.268-14.785
				c10.504-11.931,18.838-25.917,29.97-37.848c5.594-5.937,12.159-11.189,19.58-14.842c0.742-0.343,1.484-0.685,2.226-0.971
				C683.952,463.15,687.378,462.978,690.803,462.75z"/>
		</g>
		<g>
			<path fill="#F0DED4" d="M481.983,468.972c-18.953,20.951-27.629,48.866-43.271,72.841c-7.935,11.988-17.582,23.405-30.199,30.997
				c-12.559,7.764-28.086,9.99-42.415,7.535c-14.386-2.226-27.915-7.364-41.615-11.246c-10.39-3.026-21.065-5.252-31.74-4.909
				c0-0.971-0.057-1.884,0-2.854c11.017-0.342,22.092,1.998,32.482,5.024c13.872,3.939,27.344,9.019,41.33,11.189
				c13.929,2.284,28.486,0.229,40.474-7.193c12.045-7.25,21.521-18.324,29.285-30.084c14.956-22.777,23.519-49.893,41.844-71.243
				C479.415,469.03,480.728,469.03,481.983,468.972z"/>
			<path fill="#F0DED4" d="M629.036,465.605c-2.911,1.598-6.108,2.797-9.419,2.969c-4.852,0.456-9.534-0.514-13.986-2.112
				C613.452,466.175,621.215,465.89,629.036,465.605z"/>
		</g>
		<g>
			<path fill="#F0DED4" d="M837.456,590.793c0.057,0.571,0,1.199,0,1.77c0,0.343,0,0.742-0.057,1.085
				c-3.654,0.057-7.25,0.057-10.846,0.057c-19.638-0.228-39.675-1.712-57.942,5.024c-2.226,0.913-4.567,1.655-6.736,2.683
				l-6.28,3.539c-2.226,1.028-3.996,2.683-5.88,4.11c-0.914,0.742-1.884,1.484-2.797,2.226l-2.455,2.626
				c-6.679,6.965-11.531,15.528-15.47,24.376c-7.764,17.925-12.274,37.277-21.407,55.088c-4.567,8.791-10.561,17.182-18.61,23.348
				c-7.878,6.279-17.754,10.047-27.686,11.132c-20.209,2.169-39.789-4.053-58.17-10.732c-18.382-7.136-36.706-14.443-56.172-16.269
				c-9.59-1.028-19.466-0.457-28.543,2.626c-9.134,2.911-16.954,9.02-22.777,16.612c-11.588,15.584-15.413,35.564-25.004,53.09
				c-4.795,8.734-11.588,16.783-20.551,21.693c-8.905,4.966-19.181,6.736-29.114,6.679c-20.265,0-38.989-7.878-57.714-13.073
				c-18.781-5.537-38.59-6.736-57.771-3.14c-3.197,0.571-6.336,1.256-9.419,2.112c-6.279,1.655-12.445,3.882-18.381,6.508
				c-4.453,1.998-8.734,4.224-12.901,6.736l-2.512,1.541c-0.685,0.457-1.541,0.229-1.998-0.456
				c-0.457-0.628-0.229-1.484,0.456-1.941l2.569-1.598c4.281-2.569,8.677-4.852,13.244-6.907c6.336-2.797,12.901-5.138,19.637-6.85
				c2.911-0.799,5.823-1.427,8.791-1.941c19.524-3.711,40.017-2.455,59.027,3.197c18.953,5.252,37.448,12.958,56.971,12.958
				c9.59,0.057,19.409-1.655,27.744-6.279c8.334-4.681,14.785-12.159,19.409-20.608c9.362-17.012,13.13-37.049,25.232-53.432
				c6.108-7.992,14.5-14.557,24.147-17.639c9.59-3.197,19.866-3.768,29.741-2.74c19.923,1.884,38.647,9.362,56.857,16.44
				c18.267,6.622,37.562,12.673,56.857,10.618c9.533-1.085,18.838-4.624,26.316-10.618c7.592-5.823,13.358-13.815,17.811-22.378
				c8.905-17.297,13.415-36.706,21.35-54.916c3.996-9.02,8.962-17.868,15.927-25.175l2.626-2.74
				c0.914-0.856,1.941-1.598,2.969-2.398c1.998-1.541,3.882-3.254,6.165-4.339l6.565-3.71c2.226-1.028,4.624-1.827,6.965-2.74
				c9.419-3.368,19.409-4.966,29.342-5.252c9.876-0.457,19.752-0.057,29.571,0.057C830.206,590.851,833.802,590.851,837.456,590.793
				z"/>
		</g>
		<g>
			<path fill="#F0DED4" d="M834.088,654.044c-0.114,1.085-0.171,2.112-0.171,3.197c-3.711-2.055-7.535-3.768-11.531-5.024
				c-6.793-1.998-14.043-2.455-20.665-0.171c-6.622,2.284-12.273,6.907-16.212,12.73c-8.049,11.817-11.303,26.316-15.813,40.188
				c-8.677,28.258-28.086,53.032-53.261,68.389c-25.232,15.585-56.286,20.722-85.286,15.299
				c-14.557-2.511-28.486-8.334-41.216-15.527c-12.787-6.908-25.46-14.614-39.617-16.84c-6.965-1.085-14.214-0.571-20.779,2.055
				c-6.565,2.626-12.274,7.022-17.183,12.216c-9.647,10.675-16.326,23.748-23.862,36.306c-7.136,11.988-15.813,23.063-25.86,32.767
				c-1.427,0.057-2.854,0.114-4.281,0.114c10.789-10.047,20.208-21.635,27.744-34.365c7.478-12.445,14.157-25.689,24.204-36.763
				c5.081-5.423,11.132-10.104,18.21-12.901c7.021-2.854,14.842-3.368,22.264-2.284c14.956,2.398,27.801,10.333,40.531,17.183
				c12.673,7.136,26.088,12.73,40.36,15.242c28.314,5.309,58.684,0.286,83.288-14.956c24.604-15.014,43.556-39.161,52.005-66.79
				c4.51-13.757,7.706-28.429,16.212-40.987c4.167-6.165,10.39-11.303,17.64-13.758c7.25-2.512,15.242-2.055,22.377,0.114
				C827.009,650.676,830.606,652.218,834.088,654.044z"/>
		</g>
		<g>
			<path fill="#F0DED4" d="M840.767,506.307v0.057c-3.654,0.913-7.364,1.598-11.075,2.169c-18.039,2.683-36.135,1.884-54.06,2.626
				c-17.811,0.685-35.964,3.14-51.548,11.76c-15.585,8.506-27.972,22.149-36.877,37.505c-4.51,7.707-7.764,15.984-11.246,24.376
				c-3.482,8.277-7.421,16.726-13.872,23.576c-6.451,6.679-14.957,11.417-24.09,13.073c-9.077,1.827-18.381,1.541-27.344,0.457
				c-18.096-2.169-35.45-7.478-53.204-9.419c-17.64-1.77-35.964-0.456-52.291,6.679c-8.22,3.311-15.813,8.106-22.891,13.529
				c-7.136,5.366-13.644,11.531-19.866,17.925c-12.502,12.844-23.862,26.945-36.535,39.846
				c-6.223,6.508-13.016,12.616-20.209,18.153c-7.079,5.423-14.956,11.189-24.604,12.159c-9.419,0.856-18.324-1.541-27.173-2.797
				c-8.848-1.427-17.754-2.74-26.659-3.482c-10.39-0.799-20.95-0.742-31.169,1.028v-2.911c10.39-1.713,21.065-1.713,31.397-0.914
				c9.02,0.685,17.982,1.998,26.887,3.482c8.905,1.256,17.811,3.596,26.431,2.74c8.62-0.799,16.155-6.165,23.177-11.531
				c7.021-5.48,13.701-11.474,19.866-17.925c12.616-12.787,23.919-26.83,36.535-39.846c6.336-6.451,12.901-12.73,20.208-18.21
				c7.193-5.537,15.014-10.447,23.519-13.872c16.84-7.364,35.679-8.734,53.661-6.907c18.153,1.998,35.507,7.307,53.261,9.476
				c8.791,1.028,17.811,1.313,26.431-0.457c8.62-1.541,16.497-5.994,22.606-12.216c12.045-13.015,15.185-31.854,24.718-47.438
				c9.077-15.699,21.807-29.741,37.962-38.59c16.212-8.905,34.822-11.417,52.804-12.102c18.039-0.742,36.135,0.057,53.775-2.626
				c3.825-0.571,7.649-1.313,11.36-2.284C840.653,504.366,840.71,505.336,840.767,506.307z"/>
		</g>
	</g>
	<path fill="#4C8C7B" d="M1022.299,522.976c0,2.969-0.057,5.937-0.057,8.848v3.539c-0.057,16.041-0.228,32.025-2.969,47.895
		c-0.285,1.827-0.514,3.654-0.571,5.48c-0.114,0.685-0.114,1.37-0.114,2.055v1.541c-0.057,19.066-2.683,37.905-4.738,56.8
		c-1.199,11.189-2.969,22.377-6.222,33.338c-3.083,10.561-10.333,15.756-20.608,16.498c-17.582,1.256-35.051,4.053-52.804,3.939
		c-10.732-0.114-21.407,0.742-32.082,2.169c-11.189,1.484-22.663,1.142-34.023,1.655c-8.163,0.342-16.384,0.114-24.49,1.998
		c-3.026,0.685-6.28,0.628-9.419,0.685c-15.185,0.342-30.313,0.571-45.497,0.742c-2.512,0.057-5.024-0.114-7.535-0.342
		c-8.049-0.856-14.329-7.193-14.214-15.013c0.114-6.622,0.228-13.301,0.514-19.923v-0.057c0.057-2.284,0.171-4.567,0.342-6.85
		v-0.057c0.171-3.654,0.457-7.25,0.856-10.904c0.856-8.163,1.541-16.269,1.827-24.432c0.114-2.74,0.171-5.48,0.228-8.22
		c0.114-1.541,0.114-3.082,0.171-4.624c0.171-5.823,0.342-11.589,0.514-17.411c0.114-3.768-0.057-7.592,0.571-11.303
		c1.141-6.907,1.884-13.815,2.398-20.722c0.114-1.484,0.228-3.025,0.285-4.51c0.685-11.645,0.628-23.348,0.343-35.051
		c-0.057-3.14-0.114-6.336,0.342-9.476c0.742-5.138,3.254-9.362,7.764-12.388c5.937-3.882,12.331-6.508,19.352-7.079
		c14.443-1.199,28.943-2.569,43.385-3.025c1.941-0.057,3.939-0.114,5.88-0.171h0.057c1.713-0.057,3.425-0.114,5.138-0.114
		c15.756-0.457,31.511-0.571,47.267-0.799h0.057c1.655,0,3.311-0.057,4.966-0.057h0.057c2.226-0.057,4.453-0.057,6.679-0.114v-0.456
		h31.797c9.59,0,19.238,0,28.828,0.057c6.965,0,13.872,0.399,20.836,0.571c1.141,0.057,2.283,0.171,3.425,0.342
		c1.256,0.228,2.512,0.514,3.711,0.913c2.512,0.799,4.852,1.941,7.136,3.254c5.766,3.368,9.419,8.335,10.218,15.128
		C1022.071,519.208,1022.299,521.092,1022.299,522.976z"/>
	<g>
		<g>
			<path fill="#F66D5B" d="M851.784,498.6h-0.057c-17.011,11.874-33.281,24.89-48.637,38.875
				c-9.876,9.02-19.409,18.496-28.429,28.315c-0.057,1.484-0.171,3.026-0.285,4.51c9.705-10.675,19.98-20.95,30.655-30.712
				c16.269-14.9,33.624-28.657,51.891-41.102C855.209,498.486,853.497,498.543,851.784,498.6z"/>
		</g>
		<g>
			<path fill="#F66D5B" d="M909.213,497.63l-0.799,0.571l-12.102,8.677c-8.049,5.88-15.927,11.931-23.747,18.096
				c-15.527,12.388-30.541,25.46-44.984,39.104c-14.5,13.644-28.372,27.915-41.616,42.7c-5.138,5.766-10.275,11.646-15.242,17.582
				c0.114-1.541,0.114-3.082,0.171-4.624c4.224-5.024,8.563-9.99,12.901-14.899c13.358-14.842,27.287-29.171,41.787-42.871
				c14.557-13.701,29.628-26.773,45.212-39.218c7.821-6.222,15.755-12.274,23.805-18.21l9.59-6.85h0.057
				C905.902,497.687,907.557,497.63,909.213,497.63z"/>
		</g>
		<g>
			<path fill="#F66D5B" d="M947.745,497.059l-84.144,77.979c-9.02,8.22-17.925,16.555-27.287,24.376
				c-9.248,7.878-18.61,15.699-27.515,23.919s-17.525,16.783-25.06,26.259c-3.768,4.681-7.307,9.59-10.447,14.728
				c-1.712,2.512-3.026,5.195-4.51,7.821l-1.313,2.683c0.057-2.284,0.171-4.567,0.342-6.85v-0.057
				c0.97-1.713,1.941-3.482,3.026-5.138c3.254-5.195,6.85-10.218,10.675-15.014c7.649-9.59,16.384-18.267,25.346-26.545
				c9.019-8.278,18.324-16.098,27.629-23.976c9.305-7.821,18.21-16.098,27.23-24.319l81.804-75.867H947.745z"/>
		</g>
		<g>
			<path fill="#F66D5B" d="M1004.546,498.942l-14.271,10.104c-9.534,6.907-19.01,14.1-28.2,21.464
				c-9.305,7.364-18.21,15.128-26.945,23.12l-26.431,23.748l-53.09,47.21c-8.734,7.992-17.354,16.098-25.631,24.49
				c-4.167,4.224-8.22,8.563-12.159,12.901l-5.823,6.622l-4.167,4.966c-0.514,0.628-1.427,0.685-1.998,0.228
				c-0.628-0.514-0.742-1.427-0.229-2.055l4.224-4.966l5.88-6.679c3.996-4.453,8.049-8.791,12.216-13.016
				c8.334-8.449,16.954-16.612,25.746-24.604l53.147-47.21l26.431-23.805c8.791-7.992,17.696-15.813,27.059-23.177
				c9.248-7.421,18.724-14.614,28.314-21.578l12.216-8.677C1002.091,498.257,1003.347,498.543,1004.546,498.942z"/>
		</g>
		<g>
			<path fill="#F66D5B" d="M1022.242,531.824v3.539l-9.248,6.85l-25.574,19.181c-17.012,12.844-33.909,25.917-50.407,39.389
				c-16.555,13.472-32.767,27.344-48.466,41.73c-7.821,7.25-15.528,14.614-23.12,22.092l-11.246,11.36l-9.59,10.219
				c-0.514,0.571-1.427,0.571-1.998,0.057c-0.571-0.571-0.628-1.427-0.057-1.998l9.59-10.218l11.303-11.417
				c7.592-7.535,15.356-14.899,23.177-22.149c15.756-14.5,32.025-28.372,48.58-41.901c16.555-13.472,33.452-26.545,50.464-39.446
				l25.689-19.238L1022.242,531.824z"/>
		</g>
		<g>
			<path fill="#F66D5B" d="M1018.703,588.738c-0.114,0.685-0.114,1.37-0.114,2.055v1.541
				c-35.45,25.232-69.473,52.576-101.784,81.861l-1.199,1.085c-0.571,0.514-1.484,0.457-1.998-0.114
				c-0.571-0.571-0.514-1.484,0.057-1.998l1.256-1.085C947.803,642.285,982.454,614.427,1018.703,588.738z"/>
		</g>
	</g>
	<path fill="#F6C25C" d="M640.498,681.722c13.726-1.338,28.025-3.163,42.497-4.331c9.319-0.752,18.567-1.882,27.856-2.802
		c2.323-0.23,4.678-0.344,7.024-0.447c7.507-0.327,15.035-0.372,22.455-1.443c3.18-0.459,6.558-0.341,9.848-0.462
		c7.981-0.294,15.999-0.236,23.875-1.404c2.268-0.336,4.682-0.265,7.032-0.348c9.39-0.33,18.763-0.523,28.121-1.451
		c7.404-0.735,15.03-0.511,22.557-0.723c5.638-0.159,11.241-0.359,16.861-0.922c6.019-0.604,12.195-0.542,18.304-0.757
		c7.511-0.264,15.013-0.308,22.495-1.159c5.524-0.628,11.259-0.467,16.901-0.645c9.861-0.31,19.786-0.007,29.541-1.363
		c1.365-0.19,2.813-0.147,4.225-0.167c32.482-0.442,64.963-0.98,97.458-0.509c7.099,0.103,14.025,0.791,20.932,1.837
		c11.172,1.69,16.853,6.111,17.183,13.692c0.134,3.078,0.152,6.16,0.094,9.24c-0.146,7.701-0.34,15.402-0.567,23.102
		c-0.127,4.307-0.164,8.605-1.406,12.882c-0.697,2.397-0.503,4.908-0.665,7.369c-0.525,7.991-0.28,16.008-2.415,23.941
		c-0.648,2.407-0.381,4.916-0.588,7.377c-0.491,5.835-0.423,11.685-2.146,17.476c-0.801,2.694-0.542,5.524-0.765,8.292
		c-0.297,3.688-0.476,7.369-1.72,11.011c-0.712,2.085-0.93,4.28-0.921,6.425c0.02,4.676-1.986,9.132-3.166,13.675
		c-0.389,1.498-1.405,2.926-2.145,4.384c-3.48,6.856-11.514,9.377-21.755,9.577c-3.739,0.073-7.505-0.266-11.247-0.498
		c-4.208-0.262-8.393-0.717-12.607-0.909c-8.912-0.406-17.868-0.322-26.717-1.403c-3.206-0.392-6.572-0.226-9.865-0.304
		c-31.071-0.74-62.146-0.497-93.222-0.192c-8.004,0.078-16.008,0.169-24.011,0.264c-2.825,0.033-5.691-0.093-8.465,0.175
		c-15.434,1.49-31.004,1.064-46.508,1.53c-7.046,0.212-14.11,0.087-21.094,1.032c-2.734,0.37-5.624,0.282-8.445,0.337
		c-39.071,0.756-78.145,1.129-117.226,0.278c-3.294-0.072-6.592-0.123-9.877-0.279c-3.352-0.159-6.424-0.989-9.233-2.138
		c-2.464-1.008-4.333-2.473-4.751-4.392c-0.462-2.122-0.696-4.285-0.673-6.429c0.052-4.928,0.492-9.856,0.468-14.783
		c-0.081-16.634-0.286-33.269-0.472-49.903c-0.021-1.847,0.137-3.739-0.402-5.531c-1.65-5.488-1.497-11.04-1.662-16.573
		c-0.339-11.396-0.495-22.794-0.605-34.192c-0.03-3.075,0.124-6.169,0.65-9.222C632.145,686.393,634.604,683.491,640.498,681.722z"
		/>
	<path fill="#2D1F44" d="M1150,760.738c-0.057,3.825-0.114,7.649-0.228,11.531c-0.057,2.169-0.057,4.281-0.514,6.451
		c0,0.114-0.057,0.171,0,0.286c-0.171,0.913-0.171,1.884-0.228,2.854v0.514c-0.171,3.996-0.114,7.992-0.856,11.988
		c-0.228,1.199-0.114,2.455-0.228,3.711c-0.171,2.911-0.114,5.823-0.742,8.734c-0.285,1.313-0.172,2.74-0.285,4.11
		c-0.057,0.571-0.057,1.085-0.057,1.655c-0.114,0.971-0.171,1.941-0.343,2.911c-0.057,0.342-0.171,0.628-0.229,0.971
		c-0.228,1.027-0.343,2.112-0.285,3.197c0,2.34-0.742,4.567-1.142,6.85c-0.171,0.742-0.514,1.427-0.799,2.169
		c-1.256,3.425-4.11,4.681-7.764,4.795c-1.37,0.057-2.74-0.114-4.053-0.228c-1.484-0.171-3.026-0.4-4.51-0.457
		c-3.197-0.229-6.394-0.171-9.59-0.742c-1.142-0.171-2.34-0.114-3.539-0.114c-5.024-0.228-10.047-0.285-15.014-0.285h-3.083
		c-5.138,0-10.218,0.057-15.299,0.171c-2.911,0.057-5.766,0.114-8.62,0.114c-1.027,0.057-2.055,0-3.026,0.114
		c-5.537,0.742-11.131,0.514-16.669,0.742c-2.512,0.114-5.081,0.057-7.593,0.514c-0.97,0.229-1.998,0.171-3.025,0.171
		c-13.986,0.4-27.972,0.571-42.015,0.171c-1.199-0.057-2.341-0.057-3.539-0.171c-1.199-0.057-2.284-0.457-3.311-1.028
		c-0.856-0.514-1.541-1.256-1.712-2.226c-0.171-1.028-0.229-2.112-0.229-3.197c0-2.455,0.171-4.966,0.171-7.421
		c0-8.278-0.114-16.612-0.171-24.946c0-0.914,0.057-1.884-0.114-2.74c-0.229-0.97-0.342-1.998-0.4-2.968
		c-0.114-1.027-0.171-2.055-0.171-3.083c-0.057-0.742-0.057-1.484-0.057-2.226c-0.114-5.709-0.171-11.417-0.228-17.126
		c0-1.541,0.057-3.083,0.228-4.624c0.171-1.199,0.628-2.284,1.599-3.026c0.457-0.457,0.97-0.799,1.655-1.085
		c0.628-0.057,1.256-0.171,1.884-0.285h0.057c4.339-0.571,8.791-1.313,13.301-1.884c1.484-0.171,2.968-0.342,4.453-0.571
		c1.827-0.285,3.654-0.571,5.48-0.799c0.856-0.114,1.712-0.171,2.569-0.228c2.683-0.171,5.366-0.171,8.049-0.742
		c1.142-0.229,2.34-0.171,3.482-0.229c1.427-0.057,2.911-0.114,4.339-0.171h0.057c1.37-0.114,2.797-0.229,4.167-0.514
		c0.856-0.171,1.713-0.114,2.512-0.171c3.368-0.171,6.736-0.285,10.104-0.742c2.683-0.343,5.366-0.229,8.106-0.343
		c1.998-0.057,3.996-0.171,6.051-0.457c2.112-0.285,4.339-0.285,6.565-0.4c2.683-0.114,5.366-0.114,8.049-0.571
		c1.941-0.285,3.996-0.229,6.051-0.342c3.539-0.114,7.079,0,10.561-0.628c0.456-0.114,0.856-0.114,1.313-0.114h0.228
		c0.914,0,1.77-0.057,2.683-0.057c10.732-0.228,21.521-0.457,32.253-0.171c2.512,0.057,5.024,0.4,7.478,0.914
		c3.996,0.799,6.051,3.025,6.165,6.85C1150,757.655,1150,759.196,1150,760.738z"/>
	<path fill="#F66D5B" d="M215.657,643.224c-3.147-2.074-6.603-4.082-9.84-6.56c-3.482-2.666-5.55-6.906-5.312-12.294
		c0.549-12.465,1.288-24.927,2.179-37.37c0.217-3.032,1.162-6.064,2.044-8.965c2.789-9.176,8.318-13.676,15.518-14.875
		c2.363-0.393,4.782-0.169,7.171-0.106c7.176,0.187,14.346,0.609,21.525,0.595c4.769-0.009,9.551-0.6,14.327-0.945
		c2.868-0.207,5.736-0.571,8.603-0.642c10.042-0.251,20.098,0.503,30.107-1.89c17.699,0.725,35.391-2.694,53.097-2.035
		c7.636,0.284,15.29,0.68,22.945-1.057c2.339-0.531,4.783-0.279,7.171-0.198c30.606,1.039,61.216,2.018,91.814,3.24
		c8.121,0.324,16.208,1.424,24.31,2.162c4.321,0.394,8.39,1.936,12.49,3.615c6.796,2.784,11.608,8.006,14.129,17.244
		c0.545,12.125-1.183,24.487-2.583,36.853c-0.559,4.939-1.676,9.786-2.393,14.706c-0.746,5.118-2.585,9.418-5.781,13.597
		c-2.913,2.069-6.269,4.452-8.955,6.36c-2.108,4.429-1.648,8.24-1.833,11.928c-1.002,19.952-2.126,39.9-2.938,59.857
		c-0.738,18.163-3.881,35.927-6.218,53.802c-1.607,12.29-4.511,24.347-6.998,36.458c-0.74,3.603-1.837,7.152-3.108,10.518
		c-3.537,9.364-9.644,13.925-17.311,14.932c-2.843,0.373-5.733-0.063-8.6-0.166c-20.084-0.72-40.168-1.451-60.252-2.174
		c-1.435-0.052-2.878-0.23-4.305-0.074c-19.172,2.093-38.269,0.162-57.403,0.306c-5.74,0.044-11.447,0.195-17.205,0.833
		c-7.625,0.844-15.31,0.345-22.969,0.395c-8.127,0.053-16.217,0.073-24.38,1.022c-10.499,1.221-21.076,0.766-31.199-3.535
		c-0.902-0.383-1.859-0.575-2.74-1.018c-7.844-3.944-11.998-11.512-12.68-22.449c-0.039-0.619-0.059-1.251-0.011-1.869
		c1.102-14.388-0.135-28.656-0.69-42.92c-0.773-19.855-1.501-39.741-3.352-59.466c-1.733-18.471-3.47-36.94-5.151-55.421
		C218.48,651.264,217.961,647.023,215.657,643.224z"/>
	<g>
		<path fill="#2D1F44" d="M509.327,651.803c-0.094,0.919-0.186,1.895-0.277,2.87l-8.533,0.166
			c-14.341,0.148-28.69,0.125-43.041,0.045l-85.966-0.371c-7.654-0.046-15.308-0.093-22.962-0.139
			c-1.162-0.004-2.323-0.007-3.485-0.011c-19.887-0.11-39.774-0.22-59.6-0.504c-14.359-0.251-28.721-0.559-43.028-1.155l-21.5-1.007
			l-5.62-0.369c0.023-0.972-0.021-1.942,0.002-2.915l5.963,0.411l21.363,1.013c14.307,0.596,28.603,0.964,42.96,1.158
			c19.897,0.338,39.784,0.448,59.739,0.555c1.162,0.004,2.255,0.01,3.417,0.013c7.583-0.008,15.237,0.039,22.823,0.089l85.969,0.428
			c14.348,0.023,28.697,0.046,42.97-0.099L509.327,651.803z"/>
	</g>
	<path fill="#4C8C7B" d="M303.02,659.981c-0.171,17.069,0.285,34.137-1.712,51.092c-0.114,0.913-0.229,1.884-0.342,2.854
		c-0.286,2.112-0.628,4.224-0.971,6.336c-0.399,2.512-0.685,5.024-0.685,7.535c0,33.338-1.199,66.333-1.884,99.615
		c-0.114,5.081-0.571,10.903-4.681,13.929c-2.911,2.169-6.85,2.169-10.447,2.055c-39.617-0.856-79.178-1.77-118.738-2.626
		c-1.027-0.057-1.998-0.057-2.969-0.057c-23.634-0.571-47.267-1.085-70.9-1.599c-47.552-1.028-39.675-34.023-38.476-69.53
		c0.342-10.104,0.628-20.151,0.913-30.255c0.114-3.768-0.057-7.593,0.571-11.303c1.655-10.275,2.569-20.608,2.968-30.997
		c0.057-0.97,0.057-1.941,0.114-2.911c0.228-8.791,0.171-17.582-0.057-26.374c-0.057-3.14-0.114-6.336,0.342-9.476
		c0.742-5.138,3.254-9.362,7.764-12.388c5.937-3.882,12.331-6.508,19.352-7.079c14.443-1.199,28.942-2.569,43.385-3.025
		c15.128-0.514,30.256-0.742,45.383-0.913c0.971,0,1.884,0,2.854-0.057c7.307-0.057,14.557-0.171,21.864-0.286v-0.456
		c20.208,0,40.417-0.057,60.625,0.057c6.965,0,13.872,0.399,20.836,0.571c5.195,0.171,9.933,1.998,14.271,4.51
		c5.766,3.368,9.419,8.335,10.218,15.128C302.792,656.214,303.02,658.097,303.02,659.981z"/>
	<g>
		<g>
			<path fill="#2D1F44" d="M301.307,711.073c-0.114,0.913-0.229,1.884-0.342,2.854l-7.136-0.228
				c-11.988-0.514-23.976-1.199-35.964-1.941l-71.814-4.339c-6.394-0.4-12.787-0.799-19.181-1.199
				c-0.971-0.057-1.941-0.114-2.911-0.171c-16.612-1.028-33.224-2.055-49.779-3.254c-11.988-0.913-23.976-1.884-35.907-3.14
				l-17.925-1.998l-4.681-0.628c0.057-0.97,0.057-1.941,0.114-2.911l4.966,0.685l17.811,1.998c11.931,1.256,23.862,2.284,35.85,3.14
				c16.612,1.256,33.224,2.284,49.893,3.311c0.97,0.057,1.884,0.114,2.854,0.171c6.336,0.343,12.73,0.742,19.066,1.142l71.814,4.396
				c11.988,0.685,23.976,1.37,35.907,1.884L301.307,711.073z"/>
		</g>
		<g>
			<path fill="#2D1F44" d="M174.805,634.807l-5.537,49.721c-0.685,6.28-1.427,12.616-2.112,18.895
				c-0.114,0.971-0.229,1.884-0.285,2.797c-1.313,11.246-2.512,22.435-3.54,33.623c-3.197,33.566-4.909,67.59,0.229,100.927
				c-1.027-0.057-1.998-0.057-2.969-0.057c-5.024-33.51-3.254-67.647-0.114-101.099c1.085-11.246,2.284-22.378,3.482-33.566
				c0.171-0.913,0.228-1.884,0.342-2.797c0.742-6.336,1.427-12.73,2.112-19.067l5.537-49.322
				C172.922,634.864,173.835,634.864,174.805,634.807z"/>
		</g>
	</g>
	<g>
		<path fill="#2D1F44" d="M1077.906,717.596l-51.347,0.849l-56.109,1.211l-112.218,2.423c-37.407,0.817-74.809,1.534-112.173,3.061
			c-18.681,0.764-37.352,1.73-55.999,3.015c-9.323,0.642-18.639,1.382-27.949,2.18l-24.661,2.409
			c-0.784,0.081-1.487-0.488-1.572-1.272c-0.085-0.784,0.482-1.484,1.267-1.565l24.715-2.414c9.329-0.8,18.663-1.541,28.002-2.184
			c18.68-1.287,37.377-2.255,56.079-3.02c37.406-1.528,74.825-2.245,112.228-3.062l112.218-2.423l56.109-1.211l51.41-0.85
			c0.79-0.011,1.427,0.618,1.427,1.407C1079.332,716.938,1078.694,717.585,1077.906,717.596z"/>
	</g>
	<g>
		<g>
			<path fill="#5C5CF7" d="M1146.86,812.571c-0.114,0.971-0.171,1.941-0.343,2.911c-4.453,0.285-9.191-0.456-13.016-3.539
				c-2.226-1.77-3.539-4.738-3.768-7.364c-0.342-2.569-0.285-5.081-0.856-7.136c-0.514-2.055-1.941-3.197-4.053-3.197
				c-2.055,0-4.339,0.799-6.508,1.77c-4.224,1.998-8.62,5.195-14.157,5.651c-2.626,0.285-5.709-0.228-7.992-2.055
				c-2.341-1.77-3.596-4.567-4.167-7.136c-1.085-5.138-0.571-10.275-2.226-14.329c-1.37-3.939-7.193-1.142-11.817-0.228
				l-14.386,3.539l-7.25,1.77c-2.398,0.628-5.024,1.256-7.935,0.742c-2.854-0.4-5.595-2.683-6.508-5.48
				c-0.913-2.74-0.799-5.366-0.685-7.878c0.285-4.909,0.913-10.047-1.941-13.244c-2.797-3.197-8.049-3.14-12.616-2.34
				c-4.681,0.856-9.59,2.169-14.386,3.254c-4.852,0.97-9.533,2.911-15.128,2.398c-1.598-0.171-3.368-0.799-4.795-1.827
				c0.457-0.457,0.97-0.799,1.655-1.085c0.628-0.057,1.256-0.171,1.884-0.285h0.057c0.514,0.171,1.028,0.285,1.541,0.342
				c4.395,0.514,9.305-1.313,14.1-2.284c0.685-0.171,1.427-0.342,2.112-0.514c4.11-0.971,8.163-1.998,12.445-2.854
				c2.569-0.4,5.138-0.628,7.821-0.285c1.199,0.114,2.455,0.399,3.654,0.97h0.057c1.427,0.571,2.74,1.427,3.768,2.569
				c1.884,2.226,2.683,5.137,2.854,7.706c0.171,2.683-0.114,5.195-0.228,7.592c-0.114,2.455-0.171,4.852,0.514,6.793
				c0.685,1.941,2.34,3.311,4.338,3.653c4.167,0.571,9.191-1.541,13.986-2.455l14.386-3.596c2.455-0.571,4.681-1.256,7.364-1.77
				c1.313-0.171,2.854-0.285,4.396,0.286c1.598,0.571,2.797,1.998,3.368,3.311c1.998,5.252,1.37,10.332,2.398,14.9
				c0.742,4.624,4.51,7.649,9.134,7.021c4.567-0.342,8.563-3.197,13.187-5.423c2.341-1.085,4.853-1.998,7.764-2.055
				c1.427,0,3.083,0.4,4.339,1.427c1.313,0.97,2.055,2.455,2.398,3.825c1.256,5.423,0.057,10.447,3.71,13.13
				C1138.355,812.229,1142.75,812.914,1146.86,812.571z"/>
		</g>
		<g>
			<path fill="#5C5CF7" d="M1099.536,831.638h-3.025c-0.4-1.541-0.457-3.083-0.343-4.453c0.171-2.797,0.457-5.195-0.343-7.421
				c-0.742-2.226-2.283-3.368-4.51-2.797c-2.283,0.514-4.966,1.541-7.478,2.284l-15.242,4.852l-3.825,1.256
				c-1.37,0.343-3.083,0.913-5.024-0.114c-1.998-1.199-2.112-3.482-2.112-4.795l0.114-4.053l0.343-14.557l-0.799,0.171l-3.14,0.742
				l-6.223,1.484l-12.502,2.968c-4.224,0.971-8.106,2.055-12.616,2.854c-2.283,0.457-5.138-0.057-7.136-1.826
				c-2.055-1.713-2.854-4.167-3.311-6.337c-0.971-4.395-0.971-8.734-2.455-12.273c-1.427-3.654-5.195-4.909-9.134-4.053
				c-3.311,0.685-6.679,1.884-9.819,3.368c-0.114-1.027-0.171-2.055-0.171-3.083c3.026-1.313,6.108-2.455,9.476-3.083
				c2.226-0.4,4.738-0.457,7.136,0.457c2.398,0.913,4.167,3.025,5.08,5.252c1.827,4.396,1.713,8.848,2.626,12.787
				c0.685,4.053,3.368,6.736,7.307,5.994c3.939-0.685,8.277-1.884,12.388-2.854l12.445-2.911l6.223-1.484l3.14-0.742l1.541-0.4
				l0.799-0.171l0.172-0.057h0.114c0,0,0.057,0,0.114,0.057c0.228,0.171,0.742,0.571,1.713,1.37l-0.057,0.4l-0.399,16.041
				c0,2.512-0.457,5.937,0.571,6.28c1.027,0.685,4.11-0.685,6.565-1.37l15.242-4.91c2.626-0.742,4.909-1.655,7.821-2.34
				c1.427-0.343,3.368-0.228,4.852,0.742c1.542,1.028,2.398,2.512,2.911,3.939c1.027,2.911,0.571,5.994,0.457,8.449
				C1098.965,828.898,1099.023,830.382,1099.536,831.638z"/>
		</g>
		<g>
			<path fill="#5C5CF7" d="M1149.258,779.005c-0.171,0.913-0.171,1.884-0.228,2.854c-1.37-0.286-2.854-0.4-4.396-0.457
				c-2.169-0.171-4.624-0.229-7.021-1.37c-2.455-1.142-4.053-3.882-4.453-6.222c-0.457-2.398-0.457-4.624-1.027-6.451
				c-0.571-1.827-1.77-2.911-3.596-3.254c-3.825-0.742-7.821,1.256-12.159,2.683c-2.226,0.742-4.624,1.142-7.136,0.913
				c-2.397-0.171-5.137-1.199-6.736-3.539c-1.598-2.283-1.77-4.909-1.77-7.136c0-2.283,0.057-4.51,0.228-6.793
				c0.057-0.571,0.114-1.085,0.171-1.655h0.228c0.914,0,1.77-0.057,2.683-0.057c-0.114,0.628-0.172,1.313-0.229,1.941
				c-0.114,4.224-0.913,9.191,1.028,12.102c2.055,2.854,6.85,2.797,10.675,1.541c3.996-1.256,8.391-3.71,13.586-2.797
				c2.569,0.342,5.137,2.683,5.708,5.195c0.742,2.455,0.685,4.738,1.141,6.679c0.4,1.998,1.313,3.482,2.969,4.281
				c1.599,0.799,3.711,0.97,5.937,1.085C1146.289,778.662,1147.716,778.719,1149.258,779.005z"/>
		</g>
	</g>
	<path fill="#4C8C7B" d="M190.279,541.328c-0.741-3.149-2.986-6.261-6.158-7.631c-1.565-0.721-3.463-1.007-5.275-0.537
		c-1.841,0.469-3.262,1.68-4.328,2.873c-8.081,9.602-10.824,22.133-11.238,34.038c-0.209,6.007,0.082,11.996,0.645,17.929
		c0.666,5.912,1.682,11.752,2.505,17.631l3.935,26.573c-0.963-2.263-1.888-4.545-2.726-6.869
		c-1.942-5.441-3.598-11.007-5.279-16.593c-3.331-11.146-6.961-22.516-13.261-32.653c-3.133-5.051-6.97-9.741-11.596-13.594
		c-2.226-1.872-4.982-3.901-8.422-4.272c-1.676-0.205-3.895,0.261-5.182,1.847c-1.344,1.558-1.53,3.386-1.746,4.802
		c-0.846,5.924-0.73,11.974,0.301,17.86c0.515,2.943,1.259,5.848,2.227,8.676c0.478,1.416,1.023,2.81,1.618,4.182
		c0.332,0.763,0.696,1.46,0.982,2.251c0.219,0.608,0.445,1.228,0.848,1.734c0.309,0.388,0.846,0.712,1.283,0.478
		c0.142-0.076,0.25-0.201,0.352-0.325c0.251-0.306,0.485-0.626,0.7-0.958c0.064-0.099,0.128-0.202,0.147-0.318
		c0.031-0.189-0.06-0.374-0.151-0.542c-1.263-2.333-2.224-4.89-3.078-7.426c-0.919-2.686-1.626-5.446-2.116-8.244
		c-0.979-5.595-1.089-11.345-0.286-16.963c0.258-2.977,1.353-4.489,3.821-4.214c2.455,0.274,4.705,1.772,6.88,3.628
		c4.344,3.618,7.988,8.057,10.996,12.906c6.057,9.741,9.628,20.833,12.951,31.968c1.678,5.576,3.347,11.191,5.325,16.732
		c0.998,2.768,2.075,5.515,3.263,8.222c0.131,0.289,0.276,0.572,0.407,0.861c-1.68,1.069-3.882,0.191-5.934-1.343
		c-4.369-3.467-8.142-8.33-12.6-12.282c-4.27-4.064-8.42-8.226-12.099-12.747c-3.565-4.113-7.53-11.072-7.294-10.858
		c-0.354-0.679-1.213-0.946-1.922-0.599c-0.708,0.348-0.978,1.212-0.602,1.932c-0.247-0.219,3.924,7.09,7.604,11.326
		c3.802,4.672,8.039,8.914,12.345,13.013c4.422,3.901,7.93,8.552,12.845,12.491c1.322,0.892,2.635,1.88,4.456,2.272
		c1.382,0.357,3.125,0.183,4.457-0.548c0.082,0.164,0.151,0.333,0.234,0.496l1.025,1.974l0.518,0.961
		c-0.15,0.056-0.211,0.081,0.01,0.019c0,0,0.132,0.245,0.231,0.429c5.297-1.885,1.466-0.542,2.642-1.005c0,0-0.08-0.54-0.08-0.541
		l-0.926-6.253c0.921-1.584,1.557-3.258,2.209-4.836c8.279-22.43,12.37-46.112,14.399-69.773l0.653-8.893
		C190.964,547.644,191.109,544.496,190.279,541.328z M187.295,559.268c-2.011,23.482-6.077,46.935-14.23,69.019
		c-0.093,0.24-0.194,0.481-0.289,0.723l-3.514-23.725c-0.82-5.849-1.836-11.692-2.496-17.547
		c-0.556-5.857-0.838-11.725-0.635-17.559c0.374-11.554,3.137-23.489,10.511-32.239c3.241-4.63,9.948-1.046,10.879,4.123
		C188.73,547.277,187.586,553.449,187.295,559.268z"/>
	<path fill="#F66D5B" d="M434.763,505.292c-0.616-1.371-1.871-2.441-3.278-2.872c-1.395-0.425-2.736-0.345-3.954-0.131
		c-9.022,2.892-16.364,7.512-23.749,12.649c-1.781,1.284-3.524,2.624-5.228,4.01c2.158-3.808,4.242-7.667,6.07-11.739
		c1.433-3.331,2.6-6.875,2.992-10.612c0.184-1.9,0.214-3.685-0.094-5.726c-0.174-1.007-0.729-2.42-2.027-3.157
		c-1.261-0.699-2.483-0.632-3.481-0.524c-7.778,1.101-13.744,6.419-18.306,11.902c-4.576,5.635-8.386,11.653-11.971,17.863
		c-4.985,8.768-9.037,18.052-12.204,27.628l0.376-4.873l1.581-20.511c0.525-6.837,1.039-13.736,0.859-20.692
		c-0.092-3.475-0.354-6.963-0.908-10.424c-0.282-1.729-0.609-3.454-1.038-5.158c-0.232-0.868-0.378-1.657-0.737-2.641
		c-0.319-0.952-1.121-2.171-2.371-2.709c-2.655-0.957-4.66,0.31-6.204,1.361c-1.46,1.26-2.742,2.423-3.87,3.872
		c-2.305,2.785-4.031,6.007-5.222,9.37c-2.335,6.777-2.699,13.934-2.309,20.875c0.385,6.98,1.714,13.805,3.432,20.463l3.758,15.853
		c-1.194-1.293-2.349-2.627-3.468-3.996c-2.35-2.883-4.553-5.908-6.724-8.976c-4.342-6.13-8.563-12.468-13.658-18.222
		c-5.131-5.747-11.282-10.69-18.423-13.883c-7.092-3.187-15.455-4.313-23.162-1.375c-0.996,0.438-2.124,1.184-2.792,2.376
		c-0.659,1.173-0.769,2.443-0.703,3.528c0.19,2.2,0.763,3.983,1.398,5.882c1.332,3.716,3.297,7.132,5.546,10.274
		c4.557,6.237,10.026,11.688,16.091,16.389c6.071,4.693,12.782,8.532,19.865,11.475c3.556,1.438,7.201,2.652,10.911,3.633
		l2.797,0.677l1.623,0.332l0.893,0.175c0.79,0.154,1.536-0.351,1.668-1.128c0.131-0.778-0.376-1.528-1.134-1.676l-0.862-0.169
		l-1.566-0.321l-2.701-0.654c-3.582-0.948-7.105-2.121-10.543-3.511c-6.847-2.846-13.339-6.559-19.207-11.096
		c-5.852-4.529-11.171-9.844-15.515-15.791c-2.137-2.985-3.961-6.176-5.177-9.569c-1.102-3.385-2.364-7.384,0.577-8.224
		c6.527-2.475,14.271-1.622,20.838,1.381c6.661,2.971,12.552,7.68,17.442,13.166c4.921,5.553,9.096,11.804,13.464,17.977
		c2.186,3.089,4.426,6.166,6.842,9.13c1.21,1.48,2.46,2.935,3.769,4.342c0.671,0.69,1.302,1.414,2.007,2.073l0.928,0.903
		c-0.048,0.032-0.06,0.043,0.005,0.005l0.103,0.101l0.259,0.252l0.13,0.126l0.064,0.063c4.697-2.867,1.296-0.82,2.342-1.47
		l-0.01-0.043l-0.162-0.685l0-0.001l-4.72-19.918c-1.71-6.621-3.005-13.304-3.374-20.042c-0.382-6.705-0.002-13.521,2.153-19.758
		c1.099-3.096,2.664-6.002,4.731-8.499c0.965-1.271,2.258-2.414,3.373-3.399c1.132-0.885,2.674-1.393,3.342-1.041
		c0.687,0.133,1.095,1.731,1.493,3.422c0.408,1.621,0.719,3.267,0.99,4.921c0.53,3.312,0.785,6.678,0.875,10.056
		c0.176,6.762-0.326,13.566-0.852,20.397l-1.582,20.511l-0.791,10.255l-0.395,5.128l-0.197,2.564l-0.049,0.641l-0.025,0.32
		l-0.003,0.04c1.254,0.203-2.812-0.397,2.811,0.465l0.019-0.077l0.033-0.137c0.333,0.047,0.206,0.023,0.003-0.013l0.001-0.005
		l0.301-1.237l0-0.001c3.297-13.654,8.503-26.855,15.448-39.07c3.495-6.064,7.313-12.071,11.683-17.447
		c4.35-5.271,9.903-9.993,16.458-10.894c1.661-0.097,2.051,0.013,2.36,1.398c0.219,1.464,0.231,3.255,0.056,4.879
		c-0.348,3.33-1.409,6.61-2.775,9.781c-2.831,6.318-6.424,12.496-10.019,18.528c-0.095,0.157-0.2,0.307-0.295,0.464
		c-9.067,8.695-16.717,18.869-22.338,30.12l-0.001,0.001l-0.606,1.203l-0.257,0.512c-0.724-0.466-0.536-0.336-0.007,0.014
		l-0.038,0.076l-0.076,0.151l-0.038,0.075l-0.019,0.037c-0.529-0.313,4.494,2.922,2.383,1.535l0.216-0.255l1.731-2.04l3.391-4.138
		c2.236-2.778,4.408-5.609,6.512-8.488c4.036-5.496,7.816-11.178,11.378-16.993c3.63-3.459,7.468-6.699,11.533-9.629
		c6.959-4.935,14.879-9.666,22.591-12.157c1.931-0.378,3.554,0.04,4.127,1.388c0.605,1.279,0.078,3.345-0.801,5.129
		c-1.923,3.76-4.345,7.413-7.011,10.796c-5.345,6.816-11.749,12.791-18.359,18.538c-6.658,5.722-13.296,11.507-20.316,16.66
		c-7.018,5.126-14.529,9.674-22.735,12.237c-2.049,0.625-4.123,1.157-6.227,1.529c-0.207,0.048-0.419,0.054-0.628,0.089l2.043-2.543
		c0.494-0.615,0.397-1.512-0.218-2.006c-0.615-0.494-1.512-0.396-2.007,0.218l-2.834,3.526l-1.033,1.286l-0.258,0.322l-0.13,0.161
		l-0.032,0.04c2.48,4.63,0.718,1.28,1.285,2.311l0.106-0.013l0.844-0.104c1.12-0.164,2.259-0.225,3.364-0.477
		c2.231-0.394,4.423-0.956,6.583-1.616c8.646-2.705,16.404-7.43,23.562-12.655c7.173-5.267,13.818-11.065,20.505-16.811
		c6.657-5.791,13.198-11.878,18.731-18.93c2.773-3.531,5.25-7.238,7.335-11.317C434.878,510.764,435.938,508.191,434.763,505.292z"
		/>
</g>
</svg>
