<?xml version="1.0" encoding="utf-8"?>
<!-- Designed by Vexels.com - 2020 All Rights Reserved - https://vexels.com/terms-and-conditions/  -->
<svg version="1.1" id="Layer_1" xmlns="http://www.w3.org/2000/svg" xmlns:xlink="http://www.w3.org/1999/xlink" x="0px" y="0px"
	 viewBox="0 0 1200 1200" enable-background="new 0 0 1200 1200" xml:space="preserve">
<g>
	<g>
		<path fill="#2E2044" d="M530.445,295.348c-0.937,0-1.77-0.67-1.948-1.623c-2.014-10.948-7.772-20.404-13.871-30.415
			c-4.481-7.354-9.112-14.96-12.094-23.189c-3.129-8.632-4.395-17.899-5.336-25.907c-0.984-8.357-1.808-17.244-0.159-25.934
			c1.886-9.964,7.3-17.601,14.476-20.428c6.974-2.75,15.839-0.918,22.6,4.651c6.44,5.305,10.235,12.865,12.826,18.859
			c7.861,18.182,11.296,37.827,14.394,58.03c1.723,11.227,3.342,22.468,4.852,33.722c0.147,1.084-0.616,2.083-1.7,2.227
			c-1.065,0.155-2.083-0.616-2.227-1.7c-1.51-11.23-3.129-22.449-4.845-33.645c-3.059-19.94-6.44-39.31-14.115-57.062
			c-2.413-5.584-5.925-12.605-11.711-17.372c-5.662-4.666-12.973-6.239-18.619-4.024c-5.906,2.327-10.402,8.86-12.036,17.477
			c-1.545,8.144-0.747,16.683,0.198,24.734c0.918,7.788,2.145,16.787,5.127,25.02c2.85,7.857,7.377,15.289,11.757,22.476
			c6.018,9.879,12.237,20.095,14.386,31.759c0.198,1.077-0.515,2.111-1.592,2.312C530.685,295.336,530.565,295.348,530.445,295.348z
			"/>
	</g>
	<g>
		<path fill="#2E2044" d="M741.028,137.978c-1.809,0-3.826-1.071-5.027-2.295c-9.309-9.483-18.933-19.285-25.525-31.267
			c-7.422-13.495-9.435-28.072-5.516-39.995c1.546-4.705,4.604-7.337,7.863-7.311c1.613,0.059,3.218,0.782,4.908,2.202
			c4.638,3.9,7.025,9.624,9.076,15.152c3.57,9.617,6.699,19.437,9.372,29.388c-1.086-14.87-1.142-29.862,4.642-43.683
			c2.714-6.503,6.777-10.114,11.441-10.169c0.033,0,0.07,0,0.104,0c3.667,0,7.303,2.436,9.283,6.232
			c1.742,3.337,2.069,7.044,2.235,10.258c0.526,10.114-0.371,20.094-2.05,29.937c3.752-5.409,8.23-10.306,13.317-14.459
			c2.617-2.135,6.71-4.286,10.369-3.908c1.894,0.196,3.507,1.053,4.668,2.48c1.149,1.412,1.742,3.303,1.809,5.783
			c0.304,11.044-8.138,19.86-16.071,27.256l-24.52,22.852c-0.775,0.716-1.969,0.671-2.684-0.096
			c-0.712-0.767-0.671-1.969,0.096-2.684l0.163-0.148c0-0.004,0-0.007,0-0.007c0.497-9.313,2.932-18.514,6.977-26.948
			c2.925-13.105,4.834-26.415,4.137-39.857c-0.148-2.814-0.423-6.043-1.813-8.701c-1.094-2.095-3.34-4.193-5.917-4.193
			c-0.019,0-0.037,0-0.059,0c-4.271,0.052-7.007,5.498-7.986,7.837c-6.699,16.008-5.094,34.155-3.544,51.706
			c0.471,5.339,0.956,10.855,1.205,16.238c0.048,0.997-0.686,1.861-1.676,1.976c-0.949,0.093-1.902-0.556-2.083-1.542
			c-3.426-18.436-8.464-36.68-14.974-54.227c-1.872-5.053-4.03-10.262-7.963-13.565c-1.016-0.856-1.868-1.286-2.603-1.312
			c-0.026-0.004-0.052-0.004-0.074-0.004c-1.843,0-3.326,2.521-4.045,4.705c-3.589,10.925-1.679,24.402,5.242,36.977
			c6.336,11.526,15.775,21.139,24.902,30.437c0.656,0.667,1.624,1.079,2.135,1.153c0.386-0.793,1.301-1.253,2.169-1.038
			c1.001,0.248,1.631,1.209,1.401,2.217c-0.278,1.238-1.12,2.143-2.306,2.48C741.762,137.93,741.399,137.978,741.028,137.978z
			 M759.576,107.771c-1.579,7.014-3.44,13.962-5.342,20.831l19.104-17.803c7.663-7.14,15.126-14.907,14.863-24.372
			c-0.044-1.613-0.356-2.755-0.956-3.492c-0.526-0.649-1.216-1.005-2.109-1.097c-2.05-0.211-5.075,1.027-7.581,3.073
			C769.993,91.077,763.861,98.977,759.576,107.771z"/>
	</g>
	<path fill="#DF5B5C" d="M813.537,222.411c-0.284-4.909-0.136-93.729-1.919-93.768c-37.549-0.827-74.873,0.853-112.406,1.064
		c-2.189,0.012-5.371,113.862,5.003,118.486c11.187,4.985,22.465,7.074,33.73,9.159c3.794,0.702,7.589,1.405,11.383,2.107
		c17.919,3.317,35.779,13.748,53.791,16.616c17.29,2.753,11.449-39.809,10.68-49.777
		C813.699,225.007,813.612,223.711,813.537,222.411z"/>
	<path fill="#18665E" d="M703.121,669.491c-1.586-7.773-82.958-13.641-107.861-15.545l-31.486-2.459
		c-24.824-1.666-49.807-2.538-74.71-2.538c-2.934,0-5.869,0-8.803,0.079c-3.886,0-7.693,0-11.499,0.079
		c-4.601,0.079-10.311,0.555-16.497,0.952c-21.572,1.269-48.933,1.428-54.882-19.907c-3.57-12.848,7.534-34.738,10.548-47.427
		c4.679-19.907,8.168-40.052,11.658-60.276c9.756-55.913,19.511-111.826,29.345-167.819c2.221-12.69,4.441-25.379,6.662-38.069
		c3.648-21.097,7.376-42.272,11.104-63.369c1.268-0.158,2.458-0.238,3.727-0.476c12.848-1.428,28.551-1.745,45.285-1.507
		c12.055,0.079,24.666,0.397,37.117,0.714c22.603,0.714,44.572,1.428,61.543,0.793c0.159,0.318,0.238,0.714,0.318,1.031
		c4.124,11.976,8.01,23.872,11.579,35.769c6.107,19.907,11.5,39.814,16.418,59.641c2.538,10.31,4.997,20.62,7.297,30.93
		c4.441,19.827,8.486,39.655,12.292,59.562c2.3,11.896,4.442,23.793,6.583,35.769c2.617,14.751,5.154,29.582,7.693,44.493
		c3.489,20.541,6.9,41.241,10.549,62.1C692.017,610.802,697.172,639.908,703.121,669.491z"/>
	<g>
		<path fill="#DF5B5C" d="M552.829,251.926c-6.582,6.345-13.007,12.848-19.273,19.352c-27.441,28.631-53.613,59.165-84.623,83.354
			c2.221-12.69,4.441-25.379,6.662-38.069c4.441-4.997,8.962-9.993,13.404-14.831c15.544-16.893,31.009-33.786,46.713-50.521
			C527.767,251.291,540.378,251.609,552.829,251.926z"/>
		<path fill="#DF5B5C" d="M458.212,456.148c-7.216,5.234-16.259,10.548-24.586,7.296c-3.331-6.345,0.317-13.959,4.045-20.065
			c45.207-73.996,118.41-125.706,177.019-189.63c4.124,11.976,8.01,23.872,11.579,35.769
			C567.978,341.704,521.581,409.355,458.212,456.148z"/>
		<path fill="#DF5B5C" d="M444.333,554.413c48.459-82.165,134.192-135.144,198.353-205.253c2.538,10.31,4.997,20.62,7.297,30.93
			c-25.697,20.224-48.22,44.176-71.537,67.175c-35.452,35.055-72.886,68.048-112.144,98.82
			C459.957,551.161,452.185,556.395,444.333,554.413z"/>
		<path fill="#DF5B5C" d="M480.261,649.029c70.348-48.3,124.04-117.616,188.598-173.609c-2.141-11.976-4.283-23.872-6.583-35.769
			c-37.593,36.641-76.058,72.251-115.395,106.989c-35.213,31.089-72.092,62.655-94.616,103.42L480.261,649.029z"/>
		<path fill="#DF5B5C" d="M595.26,653.946c29.345-22.127,58.293-44.731,86.844-67.889c1.665-1.348,3.331-2.697,4.996-4.045
			c-3.648-20.858-7.059-41.558-10.548-62.099c-11.659,10.628-23.476,21.096-34.976,31.803
			c-31.089,28.948-60.989,60.91-77.803,99.771L595.26,653.946z"/>
	</g>
	<path fill="#2E2044" d="M489.041,648.957c-6.765,0-13.529,0.086-20.294,0.171c-20.723,0.343-63.709,8.478-71.329-19.009
		c-3.597-12.844,7.534-34.68,10.532-47.353c4.624-19.951,8.134-40.075,11.645-60.283c15.67-89.739,31.341-179.479,47.096-269.305
		c1.285-0.171,2.483-0.257,3.768-0.428c0,4.196-0.171,8.135,0,11.303c1.112,22.263,2.312,44.527,3.681,66.705
		c2.741,43.928,6.508,87.856,12.416,131.527c2.398,17.126,5.053,34.167,6.165,51.378
		C495.721,558.617,487.843,603.83,489.041,648.957z"/>
	<path fill="#F8BC70" d="M676.919,381.415c1.328-19.632,0.656-39.307-0.552-58.929c-0.941-15.282,1.141-30.232-0.057-45.633
		c-0.922-11.852-1.843-23.749-0.837-35.596c0.04-0.475,0.103-0.99,0.485-1.338c0.464-0.424,1.227-0.45,1.906-0.448
		c32.713,0.117,65.551-1.177,98.236-0.611c36.284,0.628,72.612-1.903,108.909-1.735c3.984,0.018,9.776,177.221-9.106,184.419
		c-20.362,7.758-40.889,11.01-61.393,14.255c-6.906,1.093-13.812,2.186-20.719,3.279c-32.615,5.162-65.122,21.399-97.908,25.863
		c-31.469,4.285-20.839-61.962-19.439-77.476C676.624,385.456,676.782,383.44,676.919,381.415z"/>
	<path fill="#7E86DA" d="M933.673,568.45c-2.616,36.007-7.534,63.448-16.02,66.7c-27.997,10.627-56.23,15.227-84.465,19.748
		c-0.872,0.159-1.745,0.238-2.618,0.396c-9.755,1.507-19.51,3.093-29.344,4.6c-46.237,7.296-92.315,30.217-138.792,36.562
		c-44.65,6.028-29.582-87.558-27.6-109.447c0.318-2.855,0.476-5.71,0.714-8.566c2.854-41.638-0.714-83.433-3.728-124.913
		c-2.299-31.406-19.985-78.04,23.872-74.71c4.758,0.317,9.597,0.555,14.355,0.714c35.452,1.031,70.666-3.173,106.117-2.538h2.062
		c50.678,0.793,101.595-2.697,152.353-2.459C934.388,374.538,939.464,491.123,933.673,568.45z"/>
	<g>
		<path fill="#53569A" d="M933.673,568.45c-2.616,36.007-7.534,63.448-16.02,66.7c-27.997,10.627-56.23,15.227-84.465,19.748
			c-4.124-16.893,0.159-36.086,10.628-50.441c13.879-19.034,36.64-30.059,59.799-34.341
			C914.401,568.133,924.553,567.578,933.673,568.45z"/>
		<path fill="#53569A" d="M817.755,524.108c4.769,6.885,13.672,9.522,21.999,10.425c12.557,1.363,25.42-0.163,37.31-4.425
			c3.876-1.389,7.749-3.132,10.637-6.067c7.323-7.442,5.756-20.448-0.72-28.638s-16.485-12.642-26.211-16.44
			c-4.386-1.712-8.875-3.372-13.571-3.708C825.58,473.707,804.735,505.311,817.755,524.108z"/>
		<path fill="#53569A" d="M764.799,591.319c-3.973-5.337-10.573-7.899-16.823-10.18c-8.228-3.002-16.756-6.011-25.498-5.48
			c-10.922,0.662-21.164,7.125-27.124,16.303c-14.028,21.602-4.061,61.886,26.306,54.719
			C740.488,642.236,782.412,614.978,764.799,591.319z"/>
		<path fill="#53569A" d="M783.858,411.576c-0.635,12.055-1.506,24.745-8.169,34.738c-3.569,5.314-8.487,9.438-13.879,12.769
			c-23.317,14.276-55.993,10.865-75.82-7.852c-17.924-16.893-23.952-48.3-15.941-71.696c35.452,1.031,70.666-3.173,106.117-2.538
			h2.062c0.555,0.872,1.109,1.745,1.586,2.617C784.888,389.21,784.492,400.71,783.858,411.576z"/>
	</g>
	<path fill="#4C8C7B" d="M367.57,770.484c-8.114-42.147-11.238-84.642-9.341-127.056c0.117-2.621,0.363-5.435,3.027-7.509
		c3.637-2.833,10.342-3.268,16.282-3.459c68.591-2.204,134.919,2.49,203.742,2.18c54.057-0.243,108.107-1.058,162.117-2.446
		c25.988-0.668,52.268-2.208,78.116-3.803c12.083-0.746,24.256-0.727,36.402-0.708c42.1,0.066,84.2,0.133,126.3,0.199
		c11.533,0.018,28.302,175.537-26.363,182.666c-58.949,7.685-118.377,10.905-177.737,14.12c-19.994,1.083-39.988,2.165-59.982,3.248
		c-94.423,5.113-188.535,21.195-283.452,25.617C366.838,856.787,373.314,800.32,367.57,770.484z"/>
	<path fill="#F8BC70" d="M954.729,1079.128c-1.348,15.624,5.393,43.224-11.103,52.265c-6.98,3.886-15.308,4.282-23.239,4.6
		c-34.737,1.507-69.475,3.014-104.212,4.362c-17.765,0.793-35.61,1.665-53.375,2.141c-2.459,0.079-4.839,0-7.137-0.158
		c-10.072-0.555-19.671-2.697-30.059-2.3c-12.928,0.555-25.776,1.031-38.704,1.586c-42.826,1.745-85.734,3.569-128.561,5.314
		c-5.393,0.238-10.787,0.476-16.259,0.635c-16.813,0.714-33.627,1.348-50.519,1.745c-17.37,0.555-34.818,0.793-52.186,0.634
		c-18.954-0.079-38.228-0.238-56.944-2.696c-11.896-1.586-27.6-1.031-37.99-7.852c-4.362-2.856-5.154-8.804-5.472-14.038
		c-3.332-46.317-6.345-92.634-9.519-138.871c-3.33-47.665-3.886-95.33-3.013-143.074c0.079-4.362,0.397-9.041,3.013-12.452
		c3.648-4.759,10.311-5.472,16.259-5.79c53.375-2.855,105.403,1.269,158.222,2.935c15.07,0.555,30.217,0.872,45.526,0.714
		c42.668-0.317,85.335-1.19,127.925-2.696c11.42-0.397,22.763-0.873,34.183-1.349c26.012-1.11,52.264-3.648,78.119-6.345
		c7.298-0.714,14.673-1.031,21.969-1.031c4.839-0.159,9.596-0.159,14.435-0.159c26.331,0.079,52.581,0.159,78.913,0.159
		c15.783,0.079,31.644,0.159,47.427,0.159c7.772,38.861,10.469,79.944,10.39,121.74c-0.079,18.796-0.714,37.751-1.745,56.707
		C961.074,1023.612,957.268,1051.687,954.729,1079.128z"/>
	<path fill="#DE7B54" d="M962.819,939.305c-0.079,18.796-0.714,37.751-1.745,56.707c-30.853,15.465-63.606,26.251-97.869,26.648
		c-20.383,0.238-40.764-3.252-61.068-1.586c-20.304,1.745-41.558,9.993-51.869,27.6c-16.1,27.361,0.953,61.306,5.313,92.713
		c0.081,0.317,0.081,0.634,0.081,0.952c-10.072-0.555-19.671-2.697-30.059-2.3c-12.928,0.555-25.776,1.031-38.704,1.586
		c7.772-15.386,13.087-31.565,11.658-51.948c-1.665-23.396-11.817-45.365-16.416-68.365c-4.68-23-2.221-50.203,15.939-64.955
		c13.167-10.707,31.646-12.372,48.3-9.517c16.656,2.855,32.28,9.755,48.459,14.593C850.595,978.167,913.092,969.205,962.819,939.305
		z"/>
	<path fill="#DE7B54" d="M388.817,981.257c0.238-8.09,3.489-15.862,8.01-22.604c23.634-35.531,78.279-42.351,97.392-80.578
		c7.534-15.148,8.487-32.517,9.676-49.965c15.069,0.555,30.217,0.872,45.524,0.714c42.669-0.317,85.337-1.189,127.926-2.696
		c-8.724,13.72-17.527,27.758-30.455,37.513c-17.765,13.324-40.449,15.227-59.958,24.586
		c-41.161,19.749-61.782,67.096-91.681,99.455c-15.704,17.051-35.927,32.12-59.086,33.31
		C413.006,1022.26,388.024,1004.415,388.817,981.257z"/>
	<path fill="#DE7B54" d="M798.847,888.465c-8.882-10.707-4.282-26.727,0.714-39.655c4.045-10.469,8.09-20.938,12.055-31.407
		c4.838-0.158,9.596-0.158,14.434-0.158c26.33,0.079,52.582,0.158,78.914,0.158c-18.162,16.1-34.024,35.927-49.727,54.406
		c-7.217,8.645-15.069,17.29-25.379,21.81C819.547,898.14,805.986,897.188,798.847,888.465z"/>
	<path fill="#DE7B54" d="M561.988,1088.487c-2.221,20.303-12.847,39.734-19.907,59.086c-16.813,0.714-33.627,1.348-50.519,1.745
		c0.792-1.586,1.348-3.093,1.903-4.759c3.727-11.579,1.427-23.952,1.03-36.086c-0.554-17.131,3.33-35.61,15.862-47.427
		c12.532-11.738,35.292-13.245,45.841,0.317C561.988,1068.897,563.02,1079.049,561.988,1088.487z"/>
	<g>
		<g>
			<path fill="#2E2044" d="M642.009,1144.305c-1.057,0-1.932-0.785-1.979-1.793c-4.848-102.953-17.294-210.249-36.385-311.684
				c-0.194-1.023,0.527-1.995,1.603-2.178c1.088-0.169,2.111,0.495,2.3,1.518c19.123,101.596,31.587,209.06,36.44,312.175
				c0.05,1.038-0.798,1.914-1.89,1.958C642.067,1144.305,642.036,1144.305,642.009,1144.305z"/>
		</g>
		<g>
			<path fill="#2E2044" d="M960.586,934.878c-0.924-0.502-1.862-1.474-2.583-1.8c-2.035-0.92-4.554-0.797-6.721-0.621
				c-94.92,7.757-191.849,3.632-285.6-0.352c-111.072-4.728-225.924-9.616-337.678,5.325c-1.065,0.163-2.083-0.616-2.227-1.7
				c-0.147-1.084,0.616-2.083,1.7-2.227c112.098-14.995,227.128-10.1,338.375-5.36c93.63,3.989,190.444,8.101,285.104,0.364
				c2.877-0.223,6.024-0.199,8.711,0.993c1.795,0.796,4.516,2.652,3.162,4.864C962.197,935.399,961.396,935.32,960.586,934.878z"/>
		</g>
		<g>
			<path fill="#2E2044" d="M228.856,1057.022c-0.716,0-1.41-0.391-1.762-1.073c-0.503-0.972-0.124-2.169,0.852-2.672
				c46.955-24.32,83.476-66.499,100.953-116.335c-17.454,10.797-39.663,11.722-57.616,11.192
				c-19.715-0.569-39.562-2.633-58.979-6.142c-3.121-0.569-6.339-1.336-8.45-3.919c-1.363-1.669-1.96-3.873-1.677-6.208
				c0.349-2.873,2.014-5.755,4.349-7.513c3.706-2.792,8.376-3.365,12.841-3.71c30.55-2.389,61.937,0.577,91.64,8.57
				c-29.997-19.498-58.777-41.215-85.715-64.691l-2.347-2.021c-8.156-7.002-19.328-16.59-19.169-24.622
				c0.054-2.564,1.197-4.752,3.404-6.498c3.981-3.145,8.996-4.252,14.882-3.319c32.32,5.178,85.947,72.184,106.851,103.823
				c0.05,0.074,0.093,0.151,0.132,0.228c0.817-0.565,1.619-1.154,2.409-1.77c0.685-0.534,1.638-0.562,2.354-0.062
				c0.713,0.496,1.018,1.398,0.755,2.227c-16.954,53.278-55.153,98.579-104.799,124.293
				C229.475,1056.952,229.165,1057.022,228.856,1057.022z M240.032,923.807c-6.808,0-13.6,0.259-20.354,0.786
				c-4.043,0.318-7.912,0.778-10.766,2.928c-1.479,1.115-2.579,3.009-2.8,4.821c-0.105,0.887-0.05,2.165,0.813,3.222
				c1.255,1.541,3.598,2.072,6.088,2.525c19.219,3.474,38.865,5.518,58.386,6.08c15.548,0.449,34.462-0.198,50.149-7.726
				C295.409,928.098,267.6,923.807,240.032,923.807z M218.113,831.698c-3.315,0-6.107,0.926-8.469,2.796
				c-1.27,1.003-1.874,2.103-1.901,3.466c-0.124,6.157,11.087,15.781,17.787,21.531l2.366,2.041
				c30.357,26.453,63.064,50.664,97.212,71.96c0.077,0.047,0.151,0.101,0.221,0.159c-25.543-38.528-75.987-97.205-103.892-101.674
				C220.274,831.791,219.166,831.698,218.113,831.698z"/>
		</g>
	</g>
	<g>
		<g>
			<path fill="#2E2044" d="M758.929,630.474c-0.105,0-0.209-0.008-0.314-0.023c-1.08-0.17-1.82-1.185-1.65-2.269
				c13.256-84.205,15.889-166.388,18.437-250.185c0.035-1.092,0.848-2.01,2.045-1.921c1.092,0.035,1.952,0.949,1.921,2.045
				c-2.552,83.918-5.189,166.225-18.484,250.681C760.729,629.776,759.885,630.474,758.929,630.474z"/>
		</g>
		<g>
			<path fill="#2E2044" d="M697.975,447.392c-22.228,0-44.453-0.96-66.48-3.543c-1.088-0.128-1.863-1.115-1.739-2.203
				c0.132-1.084,1.108-1.87,2.203-1.739c53.855,6.324,109.144,2.839,162.616-0.531c50.25-3.172,90.15-7.753,141.039-2.917
				c1.092,0.105,1.89,1.073,1.789,2.161c-0.105,1.092-1.108,1.863-2.161,1.789c-50.599-4.802-90.324-0.236-140.419,2.924
				C762.976,445.343,730.473,447.392,697.975,447.392z"/>
		</g>
	</g>
	<g>
		<g>
			<path fill="#FFFFFF" d="M831.825,378.12c-0.046,0-0.089,0-0.132-0.004c-1.092-0.07-1.921-1.015-1.851-2.107
				c2.963-46.103,2.045-92.786-2.73-138.745c-0.112-1.088,0.678-2.064,1.766-2.176c1.065-0.147,2.06,0.678,2.176,1.766
				c4.798,46.18,5.724,93.084,2.746,139.411C833.734,377.314,832.859,378.12,831.825,378.12z"/>
		</g>
		<g>
			<path fill="#FFFFFF" d="M888.062,333.616c-0.174,0-0.349-0.023-0.527-0.07c-33.141-9.108-68.583-6.692-102.87-4.364
				c-35.283,2.401-74.798,4.883-109.128-5.065c-1.049-0.306-1.654-1.406-1.352-2.459c0.302-1.053,1.398-1.665,2.459-1.352
				c33.648,9.759,72.812,7.296,107.754,4.922c34.613-2.358,70.403-4.79,104.191,4.492c1.053,0.29,1.677,1.383,1.386,2.44
				C889.731,333.039,888.934,333.616,888.062,333.616z"/>
		</g>
	</g>
	<g>
		<g>
			<path fill="#2E2044" d="M751.916,237.417c-1.018,0-1.886-0.782-1.971-1.82l-8.837-106.375c-0.093-1.088,0.72-2.049,1.812-2.138
				c0.941-0.074,2.045,0.716,2.138,1.812l8.837,106.375c0.093,1.088-0.72,2.049-1.812,2.138
				C752.028,237.413,751.974,237.417,751.916,237.417z"/>
		</g>
	</g>
	<g>
		<path fill="#2E2044" d="M536.949,265.932c-0.86,0-1.65-0.562-1.901-1.425c-8.512-29.114-2.858-62.534,14.758-87.217
			c3.45-4.829,8.934-11.645,16.733-15.068c6.657-2.928,16.207-3.206,22.519,2.8c2.49,2.362,4.38,5.611,5.786,9.937
			c5.03,15.486,0.511,32.444-3.993,45.491c-0.836,2.42-1.708,4.837-2.579,7.261c-3.985,11.064-8.097,22.488-8.62,34.148
			c0.329,0.399,0.527,0.898,0.5,1.398c-0.07,1.231-1.224,2.358-2.478,2.262c-1.08-0.039-2.049-1.115-2.033-2.192
			c0.221-12.857,4.635-25.11,8.903-36.96c0.864-2.405,1.731-4.81,2.56-7.211c4.299-12.462,8.64-28.606,3.969-42.974
			c-1.197-3.679-2.746-6.39-4.744-8.287c-4.264-4.039-11.749-4.891-18.193-2.041c-5.255,2.308-10.053,6.672-15.099,13.74
			c-16.927,23.715-22.36,55.827-14.185,83.798c0.31,1.053-0.294,2.153-1.344,2.459C537.32,265.905,537.131,265.932,536.949,265.932z
			"/>
	</g>
	<g>
		<path fill="#53569A" d="M452.224,607.033c-2.653,0-5.243-0.794-7.358-2.614c-6.289-5.418-4.147-14.882-1.99-21.527
			c8.059-24.827,14.998-47.264,18.259-70.441c1.956-13.93,2.548-27.844,2.986-40.902c1.375-40.793,1.286-82.14-0.259-122.891
			c-0.039-1.092,0.813-2.014,1.909-2.056c1.092,0.023,2.014,0.821,2.056,1.909c1.545,40.844,1.634,82.284,0.259,123.17
			c-0.422,12.59-1.042,27.201-3.024,41.32c-3.307,23.499-10.297,46.11-18.414,71.115c-2.873,8.853-2.618,14.352,0.805,17.299
			c3.698,3.183,9.995,1.417,13.337-2.172c3.865-4.147,5.348-10.398,6.545-15.417c0.252-1.069,1.328-1.754,2.385-1.472
			c1.069,0.252,1.727,1.321,1.472,2.385c-1.301,5.476-2.924,12.291-7.497,17.206C460.828,605.019,456.449,607.033,452.224,607.033z"
			/>
	</g>
	<g>
		<g>
			<path fill="#FFFFFF" d="M367.498,762.482c-0.503,0-1.003-0.19-1.39-0.569c-0.782-0.767-0.79-2.021-0.023-2.804
				c45.347-46.161,94.687-89.146,146.641-127.755c0.864-0.654,2.107-0.476,2.773,0.411c0.654,0.879,0.469,2.118-0.411,2.773
				c-51.787,38.489-100.969,81.335-146.177,127.352C368.525,762.285,368.013,762.482,367.498,762.482z"/>
		</g>
		<g>
			<path fill="#FFFFFF" d="M798.2,822.389c-0.531,0-1.065-0.213-1.456-0.635c-0.744-0.802-0.693-2.056,0.108-2.804
				c60.613-56.148,127.24-106.232,198.034-148.86c0.941-0.55,2.157-0.259,2.722,0.678c0.562,0.937,0.259,2.157-0.678,2.722
				c-70.562,42.486-136.968,92.406-197.383,148.372C799.164,822.215,798.684,822.389,798.2,822.389z"/>
		</g>
		<g>
			<path fill="#FFFFFF" d="M911.96,800.703c-0.469,0-0.941-0.167-1.32-0.503c-13.933-12.435-21.582-31.716-19.955-50.324
				c0.441-5.054,1.526-10.022,2.734-14.878c-6.208,4.14-14.139,6.312-22.643,6.022c-9.221-0.325-18.875-3.315-30.384-9.414
				c-8.605-4.55-12.934-9.863-12.865-15.788c0.035-3.214,1.363-6.153,3.834-8.5c3.942-3.737,10.859-5.975,17.864-5.693
				c12.477,0.511,24.583,5.127,34.446,12.671c-4.488-7.939-8.496-16.071-11.645-24.668c-1.592-4.349-2.959-9.019-2.184-13.728
				c0.794-4.864,4.527-10.01,10.127-10.433c4.597-0.31,9.166,2.645,13.008,8.674c7.195,11.296,10.491,24.869,9.282,38.21
				c-0.418,4.624-1.367,9.174-2.451,13.631c0.345,0.248,0.604,0.608,0.732,1.034c5.646,18.778,25.396,32.525,44.98,31.457
				c1.046-0.093,2.029,0.771,2.095,1.863c0.066,1.096-0.771,2.033-1.863,2.095c-18.495,0.98-37.134-10.1-45.773-26.422
				c-0.128,0.136-0.279,0.259-0.445,0.356c-0.751,0.441-1.681,0.337-2.312-0.217c-1.154,4.639-2.172,9.364-2.587,14.077
				c-1.518,17.384,5.627,35.399,18.646,47.016c0.817,0.728,0.887,1.983,0.159,2.8C913.048,800.478,912.506,800.703,911.96,800.703z
				 M848.059,705.566c-5.484,0-10.998,1.808-13.968,4.624c-1.7,1.615-2.575,3.524-2.598,5.673
				c-0.05,4.318,3.567,8.438,10.754,12.237c10.959,5.809,20.068,8.655,28.668,8.953c8.57,0.399,16.633-2.207,22.376-6.878
				c-0.41-0.647-0.817-1.29-1.224-1.932c-10.127-13.318-26.209-21.969-43.005-22.654
				C848.729,705.574,848.392,705.566,848.059,705.566z M895.343,726.009c0.093,0.12,0.19,0.248,0.279,0.372
				c1.185-4.74,2.254-9.569,2.688-14.386c1.131-12.477-1.952-25.164-8.678-35.724c-2.095-3.288-5.48-7.211-9.364-6.847
				c-3.52,0.263-5.979,3.861-6.514,7.118c-0.623,3.803,0.593,7.881,1.998,11.722C880.623,701.558,887.66,713.822,895.343,726.009z"
				/>
		</g>
	</g>
</g>
</svg>
