<?xml version="1.0" encoding="utf-8"?>
<!-- Designed by Vexels.com - 2020 All Rights Reserved - https://vexels.com/terms-and-conditions/  -->
<svg version="1.1" id="Layer_1" xmlns="http://www.w3.org/2000/svg" xmlns:xlink="http://www.w3.org/1999/xlink" x="0px" y="0px"
	 viewBox="0 0 1200 1200" enable-background="new 0 0 1200 1200" xml:space="preserve">
<g>
	<path fill="#EA584A" d="M994.646,905.903c-0.075,7.129-0.225,14.407-0.525,21.536c-0.225,7.204-1.426,14.408-1.876,21.536
		c-0.45,7.203-0.3,14.407-0.9,21.61c-0.601,7.129-1.126,14.332-1.876,21.536c-0.751,7.128-4.278,13.957-5.177,21.085
		c-0.976,7.128-1.727,14.257-2.777,21.385c-1.05,7.129-1.425,14.332-2.626,21.385c-1.276,7.129-3.152,14.032-4.577,21.086
		c-1.726,8.929-2.626,16.508-6.678,22.361c-3.901,5.703-9.305,11.256-18.534,14.632c-6.002,2.101-13.807,4.052-23.261,5.327
		c-6.678,0.9-13.657-0.15-20.41,0.6c-6.754,0.675-13.507,1.426-20.261,1.951c-6.754,0.525-13.506,1.726-20.261,2.101
		c-6.753,0.375-13.581,0.825-20.335,1.126c-6.828,0.3-13.581,0.45-20.41,0.675c-6.828,0.3-13.582,0.9-20.335,1.126
		c-6.829,0.3-13.657-1.576-20.41-1.276c-6.829,0.375-13.507,2.626-20.186,3.001c-7.054,0.45-14.032,1.801-21.085,2.251
		c-6.979,0.375-14.033,0.825-21.086,1.276c-7.053,0.45-14.107-0.45-21.161,0c-7.053,0.45-14.181-0.375-21.16,0.075
		c-4.502,0.3-9.005,1.426-13.506,2.326c-2.477,0.525-4.953,0.975-7.504,1.125c-3.302,0.225-6.679-0.15-10.056-0.45
		c-3.752-0.45-7.504-0.9-11.18-0.675c-7.053,0.45-13.957,2.926-20.936,3.376c-7.053,0.451-14.181-0.45-21.235,0
		c-6.979,0.375-14.032,0.225-21.085,0.676c-7.054,0.375-13.958,2.776-21.011,3.227c-7.053,0.375-14.032,1.576-21.011,1.951
		c-7.053,0.45-14.181-0.825-21.235-0.375c-7.054,0.375-14.032,1.501-21.085,1.951c-6.979,0.45-14.108-0.075-21.086,0.375
		c-7.053,0.45-14.182-0.225-21.236,0.225c-6.978,0.375-13.881,2.851-20.935,3.227c-7.953,0.525-15.983,0.451-23.937,0.6
		c-1.5,0-3.076,0.075-4.576,0.075c-4.052,0.075-8.105,0.15-12.082-0.075c-2.401-0.075-4.877-0.15-7.278-0.375
		c-7.429-0.6-14.482-0.825-20.861-2.026c-7.278-1.5-13.432-5.027-19.585-7.203c-6.904-2.401-13.957-3.602-19.81-6.678
		c-6.303-3.377-12.23-7.129-17.858-10.88c-5.778-3.902-10.281-9.53-15.984-13.582c-5.553-3.902-12.456-6.078-18.534-9.83
		c-5.628-3.602-11.406-7.129-17.934-10.355c-5.327-2.626-11.18-4.352-16.508-6.978c-5.554-2.776-9.455-8.029-13.732-11.556
		c-5.478-4.427-9.229-8.854-11.631-14.257c-2.627-5.778-4.727-11.706-5.102-18.084c-0.376-6.303,0.074-12.681,0.524-18.91
		c0.526-7.579,1.576-15.158,1.727-22.737c0.149-7.578,0-15.232-0.075-22.811v-22.811c0.075-7.579,0.75-15.158,1.051-22.737
		c0.376-7.654-1.425-15.383-0.601-22.886c0.901-7.579,4.203-14.783,5.853-22.136c1.576-7.129,0.601-14.632,1.726-21.761
		c1.126-7.129,2.852-14.107,3.602-21.311c0.676-7.204,0.526-14.407,0.826-21.611c0.225-7.204,1.651-14.407,1.576-21.611
		c-0.075-7.203-0.225-14.482-0.676-21.686c-0.45-7.054-1.726-14.107-2.475-21.16c-0.075-0.15-0.075-0.225-0.075-0.376
		c-0.826-7.954,0.224-16.283,0.674-24.537c0.451-8.104,1.202-16.058,5.703-23.412c3.752-6.153,9.755-11.106,18.01-16.133
		c2.625-1.576,5.252-3.302,8.029-4.878c3.976-2.326,8.104-4.577,12.607-6.228c0.525-0.225,1.125-0.376,1.726-0.6h0.075
		c6.602-2.326,13.732-3.827,20.861-5.628c7.504-1.876,15.232-3.377,22.961-4.953c7.803-1.576,15.157-4.802,22.661-6.303
		c7.204-1.351,14.558-1.951,21.762-3.151c7.278-1.276,14.557-2.252,21.76-3.302c7.278-1.051,14.707-0.826,21.986-1.726
		c7.278-0.9,14.632-1.2,21.911-2.026c7.278-0.826,14.256-4.202,21.61-4.878c7.278-0.75,14.633-0.825,21.911-1.501
		c7.354-0.675,14.708-0.225,22.061-0.825c7.278-0.6,14.557-1.801,21.835-2.401c6.678-0.525,13.657,0.225,20.485-0.675
		c6.679-0.751,13.432-2.101,20.261-3.077c6.754-0.9,13.506-1.426,20.335-2.326c6.754-0.9,13.506-1.801,20.261-2.551
		c6.828-0.676,13.431-2.927,20.185-3.302c6.903-0.3,13.732,0.075,20.485,0.3c6.904,0.225,13.883-0.3,20.56,0.676
		c6.754,1.05,13.207,4.277,20.11,5.402c6.754,1.051,13.957,0.375,20.785,1.576c6.755,1.2,13.207,4.577,19.961,5.928
		c6.828,1.276,14.181,0,20.935,1.426c6.829,1.426,12.981,5.628,19.585,7.204c6.829,1.651,13.807,2.251,20.335,4.052
		c6.529,1.726,13.432,2.176,20.11,3.677c6.603,1.576,13.207,3.077,19.885,4.427c6.677,1.426,13.056,3.902,19.809,5.178
		c6.679,1.2,13.357,2.251,20.111,3.527c6.677,1.201,13.356,2.627,20.034,3.902c6.678,1.276,13.657,0.976,20.335,2.326
		c6.678,1.351,12.831,5.027,19.435,6.528c6.677,1.501,13.581,1.876,20.109,3.602c6.379,1.726,12.007,2.927,17.034,4.277
		c6.603,1.801,11.856,4.052,16.433,5.853c0.225,0.075,0.526,0.225,0.751,0.3c6.303,2.476,10.88,5.178,14.181,9.154h0.075
		c0.451,0.525,0.901,1.051,1.276,1.651c3.077,4.502,3.452,10.73,4.727,19.059c1.2,7.654,5.252,14.932,6.229,22.586
		c1.05,7.654-0.075,15.608,0.749,23.337c0.15,1.426,0.376,2.927,0.601,4.352c0.976,6.228,2.551,12.381,3.076,18.609
		c0.601,7.204-1.05,14.483-0.599,21.686c0.524,7.204,2.025,14.257,2.4,21.461c0.3,7.204,1.202,14.332,1.352,21.536
		c0.149,7.203-0.901,14.407-0.901,21.61C992.92,891.496,994.796,898.7,994.646,905.903z"/>
	<path fill="#BD432D" d="M979.272,677.274c7.69,2.875,12.118,6.463,15.781,11.481c3.324,4.554,7.254,9.69,8.632,18.119
		c0.957,5.857,2.657,12.703,4.158,19.904c1.378,6.606,0.262,13.621,0.04,20.31c-0.226,6.808-1.337,12.805-5.277,18.65
		c-3.302,4.899-7.339,9.881-14.589,13.42c-7.23,3.529-15.3,6.425-23.853,8.365c-8.115,1.841-16.712,2.471-25.043,3.73
		c-7.093,1.072-13.955,3.796-21.066,4.798c-7.103,1-14.59-0.797-21.71,0.134c-7.114,0.93-14.15,2.417-21.279,3.278
		c-7.123,0.861-14.022,3.7-21.159,4.493c-7.132,0.792-14.559-1.177-21.703-0.452c-7.14,0.724-14.049,3.817-21.199,4.474
		c-7.146,0.657-14.441-0.37-21.596,0.221c-7.153,0.59-14.279,1.466-21.439,1.991c-7.159,0.524-14.254,1.987-21.419,2.446
		c-7.164,0.459-14.341,0.769-21.509,1.164c-7.168,0.394-14.346,0.643-21.517,0.973c-7.172,0.33-14.36,0.267-21.533,0.534
		c-7.736,0.287-15.423,0.693-23.092,0.749c-7.712,0.056-15.395-0.982-23.081-1.036c-7.687-0.054-15.371-0.386-23.074-0.425
		c-7.669-0.039-15.369,0.506-23.095,0.604c-7.647,0.098-15.273,1.973-23.014,2.327c-7.119,0.325-14.232,0.869-21.351,1.17
		c-7.12,0.302-14.267,0.042-21.388,0.321c-7.121,0.279-14.271-0.178-21.392,0.077c-7.122,0.255-14.218,1.278-21.34,1.51
		c-7.123,0.232-14.239,0.768-21.361,0.977s-14.313-2.092-21.435-1.906c-7.31,0.19-14.33,1.489-21.184,1.16
		c-7.236-0.347-14.465,0.508-21.329-0.453c-7.07-0.99-13.637-4.378-20.463-6.056c-6.82-1.677-13.807-2.846-20.536-5.249
		c-6.877-2.456-13.318-6.016-20.1-8.58c-6.835-2.584-14.121-3.929-20.859-6.611c-6.786-2.701-13.331-5.936-20.018-8.723
		c-6.744-2.81-13.662-5.148-20.304-8.034c-6.32-2.745-12.302-6.033-18.615-8.467c-6.357-2.45-12.41-5.641-18.802-8.043
		c-6.315-2.372-13.419-2.834-19.812-5.42c-9.532-3.855-16.442-9.004-20.221-14.571c-4.706-6.932-5.602-15.89-3.732-24.542
		c1.015-4.693,0.211-11.724-0.435-19.665c-0.543-6.671,0.569-13.78,1.445-20.032c1.007-7.187,2.858-14.22,9.102-17.334
		c5.957-2.97,13.913-3.216,21.152-4.481c7.184-1.256,14.294-2.809,21.445-4.008c7.195-1.206,14.308-2.804,21.477-3.954
		c7.195-1.154,14.414-2.076,21.591-3.173c7.196-1.1,14.313-2.684,21.499-3.728c7.198-1.046,14.61-0.54,21.806-1.53
		c7.201-0.991,14.514-1.063,21.721-1.999c7.204-0.936,14.302-2.65,21.519-3.532c7.203-0.88,14.505-0.89,21.73-1.717
		c7.208-0.825,14.411-1.664,21.648-2.436c7.213-0.77,14.294-2.895,21.544-3.614c7.205-0.714,14.397-1.744,21.646-2.408
		c7.221-0.661,14.499-0.923,21.772-1.535c7.223-0.608,14.462-1.315,21.742-1.875c6.918-0.533,14.071-0.251,21.177-1.091
		c6.939-0.82,13.799-3.004,20.85-3.948c6.974-0.933,13.974-1.988,20.993-2.88c7.021-0.892,14.232,0.07,21.233-0.619
		c7.083-0.698,14.059-1.232,21.056-1.556c7.132-0.33,14.17-3.177,21.143-2.943c7.144,0.239,14.335,0.727,21.237,1.746
		c6.998,1.033,13.893,3.421,21.031,4.545c7.034,1.107,13.896,3.559,20.986,4.764c7.06,1.2,14.55,0.065,21.586,1.372
		c7.086,1.316,13.745,4.706,20.724,6.14c7.088,1.457,14.348,1.796,21.241,3.385c7.094,1.635,14.208,2.812,21.004,4.598
		c6.755,1.775,13.505,3.768,20.44,5.325c6.829,1.534,13.719,2.994,20.675,4.376c6.88,1.368,13.524,4.196,20.482,5.475
		c6.914,1.271,14.03,1.573,20.976,2.813c6.94,1.239,14.087,1.359,21.014,2.623c6.954,1.27,13.678,3.717,20.575,5.07
		c6.947,1.363,13.596,3.931,20.439,5.437c6.929,1.525,14.237,1.21,21.011,2.942c6.58,1.683,12.604,2.426,17.782,3.782
		C969.294,672.21,974.514,675.495,979.272,677.274z"/>
	<g>
		<path fill="#F0DAD2" d="M698.399,756.279c-0.526,5.028-1.801,9.98-2.402,15.083c-0.599,5.028-0.749,10.13-1.425,15.158
			c-0.675,5.027-3.602,9.68-4.352,14.708c-0.675,4.652-1.201,9.305-2.026,13.957c0,0.375-0.075,0.75-0.15,1.125
			c-0.75,4.953-0.375,10.13-1.276,15.083c-0.975,4.953-0.824,10.13-1.801,15.083c-1.05,4.953-1.876,9.905-2.775,14.857
			c-0.976,4.953-5.103,9.305-6.003,14.257c-0.9,5.027,2.402,10.73,1.801,15.758c-0.526,5.103-1.275,10.055-1.5,15.158
			c-0.3,5.102-1.276,10.13-1.276,15.233c0,5.102-0.45,10.205-0.3,15.307c0.075,5.102,0.3,10.205,0.6,15.307
			c0.225,5.102,2.327,10.13,2.627,15.233c0.225,5.102-0.526,10.28-0.3,15.458c0.376,7.579-0.825,7.579-0.376,15.158
			c0.376,7.578,1.801,7.504,2.252,15.082c0.376,7.504-2.551,7.654-2.176,15.233c0.376,7.504,0.376,7.504,0.751,15.083
			c0.375,7.504,2.326,7.429,2.7,15.007c0.376,7.504,0.676,7.504,1.052,15.083c0.225,5.103-0.901,10.43-0.976,15.758
			c0,5.102-0.9,10.205-1.726,15.458c-0.824,5.403-0.675,11.105-2.926,16.358c-1.126,2.551-4.052,4.127-5.553,6.528
			c-0.751,1.126-1.651,2.326-2.327,3.152c-0.15,0.075-0.225,0-0.3,0.15c-0.45,0.6-1.125,0.975-1.651,1.501
			c-0.526,0.6-0.9,1.351-1.35,2.026c-2.477,0.525-4.953,0.975-7.504,1.125c-3.302,0.225-6.679-0.15-10.056-0.45
			c1.201-0.825,2.327-1.426,3.301-2.251c1.802-1.576,5.628-0.976,7.204-2.626c0.825-0.901-0.15-3.377,0.525-4.277
			c0.376-0.45,0-1.426,0.376-1.876c0.225,0,1.726,1.125,1.876,1.125c0.526-0.675,0.225-2.551,0.751-3.376
			c1.2-1.876,0.824-4.352,1.726-6.378c1.726-4.052,3.752-7.879,4.426-12.456c0.751-4.652,3.977-9.38,3.977-14.332
			c0-4.727-0.749-9.68-0.975-14.632c-0.376-7.504,0-7.578-0.376-15.082c-0.376-7.579-2.852-7.429-3.301-15.007
			c-0.376-7.579,1.425-7.654,0.975-15.158c-0.375-7.579-3.451-7.429-3.827-15.008c-0.45-7.504,1.576-7.654,1.201-15.158
			c-0.45-7.579,0.225-7.579-0.224-15.157c-0.15-4.503,0.6-9.155,0.375-13.657c-0.224-4.503-1.726-9.005-1.951-13.582
			c-0.224-4.503-1.876-9.005-2.1-13.582c-0.15-4.503-0.826-9.08-0.901-13.657c-0.15-4.577,1.051-9.23,1.201-13.882
			c0.075-4.577,2.026-9.079,2.401-13.732c0.3-4.578,0.751-9.155,1.276-13.732c0.6-4.577-2.025-9.68-1.201-14.182
			c0.826-5.027,4.728-9.455,5.628-14.407c0.976-4.953,1.876-9.905,2.852-14.857c0.975-4.953-0.976-10.43,0-15.383
			c0.824-4.502,2.1-8.929,2.851-13.432c0.15-0.45,0.225-0.825,0.3-1.276c0.825-4.953,5.252-9.305,6.078-14.257
			c0.749-4.952-0.3-10.205,0.375-15.158c0.675-4.952-0.224-10.13,0.45-15.157c0.601-4.953,3.827-9.605,4.278-14.632
			c0.451-4.727-1.726-9.905-1.275-14.707c0.45-5.102,0.975-9.905,0.674-14.332c-0.149-1.051,2.477-2.551,2.251-3.602
			c-0.15-0.826-1.2-0.6-1.35-1.426c0-0.15,0.9-0.45,0.9-0.676c-0.075-0.375-0.976-0.15-1.126-0.525
			c-0.3-0.976-0.376-2.251-0.825-3.227c-0.9-1.876-2.701-3.452-3.977-5.027c-1.351-1.576-3.901-1.726-5.703-3.827
			c-1.126-1.126,0.225-2.401,1.576-3.677c0.299-0.3,0.15,0.15,0.525,0c3.602-1.126,7.429-3.002,10.28-1.126
			c3.002,1.951,3.002,6.678,4.727,9.605c0.9,1.426,1.051,2.851,1.726,4.502c0.15,0.6,4.126-0.825,4.277-0.225
			c0,0.3-3.076,1.276-3.451,1.801c0.3,0,1.201-0.225,1.351-0.225c0.224,0.751,2.401,1.051,2.551,1.801
			c0.3,1.426,0.075,3.077,0.15,4.503c0.601,5.778-1.5,11.256-1.876,16.283C697.948,748.55,699.15,748.7,698.399,756.279z"/>
	</g>
	<g>
		<g>
			<path fill="#BD432D" d="M405.272,822.491c0.18-0.347-0.062-0.742-0.007-1.09c0.504-2.851,0.74-4.897,0.891-7.235
				c0.177-2.299,0.842-4.594,1.203-7.049c0.285-1.92-0.108-4.023,0.312-6.03c1.106-5.378,2.859-11.194,3.735-16.909
				c0.666-4.257,1.335-8.518,1.849-12.797c0.75-6.177,1.136-12.399,1.428-18.612c0.099-2.931-0.37-2.939-0.325-5.871
				c0.017-2.782,0.469-5.561,0.128-8.346c-0.332-2.782-0.427-5.75-2.122-8.507c-0.207-0.335-0.76-0.482-1.077-0.726
				c-1.409-1.081-3.144-0.513-4.118,1.042c-1.689,2.712-2.704,5.201-3.17,7.886c-0.469,2.682,0.1,5.466-0.148,8.146
				c-0.267,2.822-0.925,2.761-1.179,5.584c-0.508,5.986-0.555,12.02-1.273,17.98c-0.496,4.128-1.798,8.139-2.441,12.246
				c-1.413,8.432-0.75,8.543-2.161,16.974c-0.321,2.208-1.081,4.415-1.228,6.753c-0.177,2.983,0.392,6.038,1.118,9.184
				c0.699,3.094,1.658,6.293,4.556,8.371C402.934,824.664,404.477,824.04,405.272,822.491z"/>
		</g>
		<g>
			<path fill="#BD432D" d="M411.155,859.53c-0.15,2.026-1.651,1.951-1.801,3.977c-0.075,0.525-0.376,0.45-0.45,0.976
				c-0.225,2.326,0,2.326-0.225,4.577c-1.051,10.43-0.675,10.43-1.726,20.785c-0.525,5.553,0.075,11.18-0.375,16.733
				c-0.526,5.553-1.127,11.105-1.576,16.658c-0.45,5.478-2.401,10.956-2.776,16.508c-0.376,5.553,0.75,11.18,0.376,16.734
				c-0.3,5.553-2.852,10.955-3.152,16.508c-0.3,5.028,2.025,10.13,1.801,15.083c-0.3,5.027-0.6,9.98-0.825,15.008
				c-0.15,4.953-0.976,9.98-1.201,14.932c-0.149,5.028-1.576,9.98-1.726,14.932c-0.075,5.028,0.675,10.055,0.6,15.007
				c-0.15,5.553-0.15,11.181-0.225,16.734c-0.075,5.553,1.052,11.105,1.052,16.658c-0.075,5.553-2.327,11.106-2.327,16.659
				c0,5.628,0.526,11.181,0.601,16.733c0.074,5.553,2.326,11.105,2.4,16.659c0.225,9.154-2.625,9.229-2.475,18.459v0.075
				c-4.052,0.075-8.105,0.15-12.082-0.075c-0.225-8.854,1.201-9.079,0.901-18.159c-0.15-5.628,1.35-11.256,1.275-16.808
				c-0.075-5.628-2.402-11.181-2.477-16.808c0-5.553,0.225-11.181,0.225-16.734c0.075-5.628-0.975-11.255-0.9-16.808
				c0.074-5.628,0.749-11.181,0.9-16.808c0.075-5.027,1.351-10.055,1.426-15.083c0.149-5.027,0.45-9.98,0.6-15.008
				c0.15-5.027,1.5-10.055,1.726-15.083c0.225-4.952,0.601-9.98,0.826-15.007c0.224-5.027-1.202-10.13-0.901-15.157
				c0.3-5.553-0.675-11.256-0.375-16.809c0.375-5.628,1.351-11.18,1.726-16.733c0.45-5.553,0.224-11.256,0.675-16.808
				c0.451-5.553,4.052-10.88,4.578-16.433c0.525-5.553-1.951-11.406-1.426-17.034c1.126-10.43,3.752-10.13,4.878-20.56
				c0.225-2.326,0.525-2.251,0.75-4.577c0-0.45-2.927-0.9-2.927-1.426c0.3-2.026,0.75-1.951,1.126-3.977
				c0.375-2.701,0.825-5.553,1.576-8.179c0.675-2.701,1.276-6.003,3.302-8.554c1.125-1.426,4.277-0.675,5.553,0.6
				c0.3,0.225,0.15,0.75,0.3,1.125c1.35,2.927,0.299,5.553,0.375,8.254C408.83,854.053,411.381,856.829,411.155,859.53z"/>
		</g>
		<g>
			<path fill="#BD432D" d="M206.379,657.605c7.279,2.926,8.254,3.752,17.484,7.429c6.603,2.626,6.828,2.251,13.507,4.877
				c6.678,2.626,7.129,1.351,13.807,3.977c4.727,1.876,6.003,2.626,8.779,3.827c1.126,0.525,2.476,1.051,4.427,1.801
				c6.603,2.626,6.003,4.127,12.681,6.753c5.328,2.026,10.955,3.377,16.283,5.403c5.328,2.101,11.03,3.077,16.358,5.028
				c5.403,2.026,10.13,5.703,15.533,7.579c4.427,1.651,9.305,2.101,13.807,3.602c4.502,1.576,9.155,2.776,13.657,4.277
				c4.502,1.501,8.629,4.127,13.132,5.628c4.577,1.426,9.004,3.152,13.582,4.502c7.054,2.101,7.354,1.126,14.332,3.227
				c1.951,0.6,2.176,0,4.127,0.675c2.551,0.825,4.877,2.326,7.429,3.377c0.675,0.3,1.201,0.6,1.801,0.9
				c1.726,1.05,3.227,2.401,4.877,4.127c0.225,0.3,0.225,0.375,0.375,0.75c0.675,1.576,0.975,3.602-0.75,4.202
				c-2.701,0.75-5.253,0.45-7.729,0.15c-0.375-0.075-0.75-0.15-1.126-0.15c-2.776-0.3-5.403-1.126-8.104-1.726
				c-2.026-0.525-2.176,0-4.127-0.45c-1.051-0.225-0.675-1.726-1.651-2.026c-6.153-1.726-6.603-0.3-12.756-2.101
				c-4.577-1.351-9.08-3.227-13.657-4.652s-9.23-2.626-13.807-4.127c-4.577-1.501-9.305-2.476-13.882-4.052
				c-4.577-1.576-8.704-4.277-13.207-5.928c-5.403-1.876-10.88-3.752-16.283-5.778c-5.328-1.951-10.955-3.527-16.283-5.553
				c-5.403-2.026-10.655-4.277-16.058-6.378c-6.678-2.626-6.303-3.527-12.981-6.153c-6.678-2.701-6.528-3.077-13.207-5.703
				c-0.375-0.15-0.75-0.3-1.126-0.375c-5.628-2.251-6.303-1.501-12.606-4.052c-6.678-2.626-6.903-1.951-13.582-4.652
				c-6.678-2.701-6.153-3.902-12.831-6.678c-1.576-0.675-1.651-0.45-3.227-1.126c-0.45-0.225-0.45-0.15-0.9-0.375
				c-1.876-0.9-2.026-0.675-3.902-1.576c-0.675-0.375-1.351-0.6-2.101-0.9L206.379,657.605z"/>
		</g>
		<g>
			<path fill="#BD432D" d="M1003.051,704.053c-4.802,0.75-9.38,3.077-14.257,3.677c-4.877,0.675-9.905,0.075-14.857,0.675h-0.075
				c-4.953,0.675-9.905,1.201-14.857,1.801c-4.952,0.6-9.83,1.126-14.782,1.726c-4.952,0.675-9.605,3.527-14.557,4.127
				c-5.553,0.675-11.331-0.6-16.883,0.075c-5.553,0.6-10.88,3.152-16.433,3.827c-5.553,0.6-11.256-0.225-16.808,0.375
				c-5.553,0.6-11.106,1.876-16.658,2.401c-4.952,0.525-9.98-0.15-14.932,0.3c-4.952,0.525-9.83,2.026-14.782,2.476
				c-4.952,0.525-9.83,2.026-14.782,2.476c-4.953,0.45-9.905,0.45-14.857,0.9c-4.952,0.45-10.055-0.45-15.007,0
				c-9.305,0.75-9.305,0.45-18.609,1.201c-2.101,0.15-2.101,0.45-4.202,0.6c-0.45,0.075-0.525-0.675-0.975-0.675
				c-2.101,0.075-1.951,2.551-4.052,2.626c-2.701,0.15-5.478-1.726-8.254-1.876c-2.701-0.225-5.778,0.9-8.629-0.6
				c-1.651-0.825-2.851-3.827-1.876-5.328c0.225-0.3,2.251,1.126,2.551,0.9c2.626-1.951,4.202-4.727,6.903-5.328
				c2.701-0.6,5.703,0.525,8.404,0.15c2.026-0.225,1.801-1.951,3.827-2.176c0.525-0.075,0.6,0.675,1.126,0.6
				c2.101-0.15,2.101-0.6,4.127-0.75c9.305-0.825,9.38-0.075,18.609-0.975c4.952-0.45,10.055,0.6,15.007,0.15
				c4.877-0.45,9.605-3.677,14.557-4.202c4.877-0.45,10.13,1.576,15.008,1.126c4.952-0.525,9.83-2.101,14.707-2.626
				c4.953-0.45,9.98-0.6,14.857-1.126c5.553-0.525,11.031-2.101,16.583-2.701c5.553-0.6,11.031-1.651,16.583-2.251
				c5.478-0.6,11.256,0.75,16.808,0.15c5.553-0.675,11.03-1.426,16.583-2.101c4.952-0.6,9.905-1.126,14.782-1.726
				c4.952-0.6,9.83-1.726,14.707-2.401c0.675-0.075,1.351-0.15,2.026-0.3c4.277-0.6,8.479-1.576,12.681-2.101
				c4.953-0.6,9.98-0.675,14.857-1.351c3.902-0.525,7.729-1.126,11.556-1.651L1003.051,704.053z"/>
		</g>
		<g>
			<path fill="#BD432D" d="M555.12,730.153c-0.143-0.383-0.872-0.413-1.161-0.722c-2.433-2.512-5.374-3.829-8.396-4.298
				c-3.059-0.485-6.113-0.521-8.962-0.344c-2.099,0.147-2.068,0.579-4.164,0.766c-3.443,0.307-3.413,0.607-6.853,0.945
				c-7.027,0.696-14.085,1.129-21.127,1.638c-6.327,0.459-12.671,0.771-19.01,1c-7.056,0.262-14.128-0.299-21.191-0.223
				c-6.005,0.073-5.99,1.193-11.995,1.274c-2.709,0.042-5.401-0.246-8.123,0.046c-2.724,0.309-5.622,0.096-8.426,1.651
				c-0.342,0.191-0.799,0.475-1.059,0.781c-1.15,1.357-0.388,3.276,1.138,4.321c2.658,1.828,5.214,2.629,7.956,3.12
				c2.742,0.523,5.493,0.801,8.251,0.997c2.069,0.128,2.081-0.076,4.152,0.027c1.352,0.067,1.335,0.701,2.688,0.734
				c2.704,0.065,2.714-0.217,5.418-0.184c7.213,0.071,14.421-0.58,21.631-0.853c6.478-0.234,12.931-0.734,19.396-1.203
				c7.196-0.515,14.408-0.798,21.57-1.655c2.469-0.304,2.41-0.736,4.875-1.069c1.022-0.138,1.075,0.265,2.094,0.108
				c1.977-0.305,1.905-0.797,3.884-1.086c2.483-0.327,5.016-0.199,7.538-0.531c2.443-0.326,4.702-0.332,7.509-1.258
				C554.343,733.647,555.745,731.86,555.12,730.153z"/>
		</g>
	</g>
	<g>
		<path fill="#F0DAD2" d="M394.717,674.039c-0.413-0.435-0.493-1.95-1.022-2.207c-4.347-2.089-9.098-2.471-13.241-2.632
			c-4.143-0.171-8.263,2.305-12.36,2.564c-3.072,0.202-3.232-2.139-6.303-1.927c-1.536,0.106-1.25,3.531-2.782,3.681
			c-7.308,0.718-7.518-1.399-14.822-0.643c-7.304,0.756-7.272,1.069-14.575,1.836c-5.445,0.593-10.846,2.919-17.089,4.263
			c-6.149,1.307-13.112,2.356-18.805,6.788c-3.672,2.83-8.635,4.596-11.167,8.139c-2.64,3.695-1.509,9.462-3.082,13.586
			c-1.621,4.248-5.101,7.916-5.781,12.237c-0.922,6.231,0.605,12.364,1.03,18.232c0.451,6.227-1.455,12.704-0.38,18.476
			c1.085,5.556,2.739,10.789,3.753,16.079c1.036,5.409,4.725,10.293,5.512,15.78c0.739,4.832,2.078,9.63,2.653,14.485
			c0.576,4.854-0.554,9.918-0.142,14.789c0.413,4.871-0.594,9.824-0.344,14.707c0.251,4.882,1.489,9.711,1.577,14.599
			c0.089,4.888,0.735,9.784,0.663,14.672s-0.017,9.803-0.249,14.687c-0.233,4.883-0.228,9.813-0.62,14.686
			c-0.392,4.873,0.057,9.882-0.494,14.739c-0.624,5.427-2.58,10.715-3.399,16.096c-0.821,5.389-2.427,10.656-3.44,16.014
			c-1.012,5.347-1.417,10.843-2.617,16.174c-1.193,5.299-2.149,10.703-3.525,16.001c-1.375,5.45-4.027,10.619-5.421,16.15
			c-1.374,5.451-2.859,10.919-4.111,16.472c-1.238,5.491-1.065,11.281-2.049,16.893c-0.971,5.538-2.161,11.023-2.755,16.7
			c-0.571,5.814-3.057,11.6-3.091,17.494c-0.033,5.836,0.218,11.871,0.89,17.74c0.146,1.474,1.424,2.841,1.661,4.312
			c0.193,1.245,0.872,1.138,1.071,2.381c0.065,0.407-2.022,0.829-1.938,1.233c0.17,0.81,2.832,0.246,3.007,1.055
			c0.458,2.156-1.498,4.934-0.877,7.062c1.156,4.261,3.973,8.169,6.028,12.124c2.149,3.901,5.14,6.922,9.456,9.506
			c0.518,0.315,0.563,1.797,1.155,1.9c2.63,0.453,6.299-1.961,6.546-4.623c0.36-4.609-1.518-8.499-2.336-12.24
			c-1.19-5.562,0.143-5.843-1.032-11.408c-0.378-1.853-3.191-3.262-3.45-5.146c-0.538-4.061-0.001-4.135-0.5-8.201
			c-0.566-5.175-1.099-10.459-1.034-15.729c0.064-5.213,1.144-10.429,1.683-15.657c0.584-5.385,2.09-10.632,3.075-16.023
			c0.971-5.314,2.447-10.515,3.682-15.853c1.22-5.27,0.133-11.143,1.49-16.454c1.341-5.247,5.515-9.797,6.874-15.101
			c1.432-5.446,3.259-10.886,4.514-16.421c1.248-5.502,1.803-11.231,2.862-16.795c1.057-5.554-0.898-11.632-0.043-17.221
			c0.857-5.598,4.803-10.787,5.443-16.395c0.574-5.057-2.417-10.462-2.008-15.536c0.409-5.073,1.211-10.073,1.453-15.157
			c0.242-5.084,3.038-10.091,3.113-15.18c0.075-5.089-1.479-10.196-1.572-15.285c-0.093-5.089,0.39-10.204,0.129-15.287
			c-0.261-5.083-2.485-10.018-2.915-15.09c-0.43-5.071,0.627-10.275,0.028-15.329c-0.6-5.054-2.817-9.887-3.587-14.919
			c-0.678-5.296-1.282-10.55-2.307-15.746c-1.047-5.309-0.467-10.878-1.451-16.004c-1.037-5.401-1.826-10.62-2.305-15.728
			c-0.517-5.519-3.437-11.078-2.692-16.142c0.65-4.42,4.445-8.24,6.33-12.07c2.047-4.158,5.216-6.879,8.546-9.385
			c3.319-2.705,6.978-5.246,12.199-6.28c4.272-0.846,9.21,0.208,14.267-0.307c7.301-0.786,6.952-3.997,14.251-4.798
			c7.299-0.801,7.558,1.523,14.853,0.683c1.529-0.176,1.542-0.233,3.066-0.453c3.047-0.44,2.999-0.782,6.044-1.233
			c4.061-0.611,8.092-1.452,12.106-2.493c4.015-1.031,8.441-1.592,12.25-4.552C396.452,679.702,396.553,675.97,394.717,674.039z"/>
	</g>
	<g>
		<path fill="#F0DAD2" d="M728.331,1082.018c1.617-1.821,2.393-4.171,0.935-6.835c-0.472-0.863-1.087-1.661-1.892-2.16
			c-1.511-0.937-3.389-0.676-5.111-0.38c-0.574,0.099-1.157,0.201-1.68,0.475c-0.484,0.253-0.895,0.642-1.28,1.048
			c-0.959,1.009-1.824,2.206-2.101,3.62c-0.407,2.077,0.587,4.281,2.144,5.576c1.623,1.35,2.957,1.548,4.929,1.135
			C725.863,1084.164,727.242,1083.244,728.331,1082.018z"/>
		<path fill="#F0DAD2" d="M611.085,998.605c1.617-1.821,2.393-4.171,0.935-6.835c-0.472-0.863-1.087-1.661-1.892-2.16
			c-1.511-0.937-3.389-0.676-5.111-0.38c-0.574,0.099-1.157,0.201-1.68,0.475c-0.484,0.253-0.895,0.642-1.28,1.047
			c-0.959,1.009-1.824,2.206-2.101,3.62c-0.407,2.077,0.587,4.281,2.144,5.576c1.623,1.35,2.956,1.548,4.929,1.135
			C608.618,1000.751,609.997,999.831,611.085,998.605z"/>
		<path fill="#F0DAD2" d="M573.093,1072.607c2.267-2.553,3.356-5.848,1.311-9.583c-0.662-1.21-1.524-2.329-2.653-3.029
			c-2.119-1.313-4.752-0.947-7.166-0.532c-0.804,0.138-1.622,0.282-2.355,0.666c-0.678,0.355-1.255,0.901-1.795,1.469
			c-1.344,1.414-2.557,3.093-2.945,5.075c-0.571,2.912,0.823,6.002,3.006,7.818c2.275,1.893,4.145,2.171,6.91,1.592
			C569.634,1075.616,571.568,1074.325,573.093,1072.607z"/>
		<path fill="#F0DAD2" d="M524.308,951.214c1.617-1.821,2.393-4.171,0.935-6.835c-0.472-0.863-1.087-1.661-1.892-2.16
			c-1.511-0.937-3.389-0.676-5.111-0.38c-0.574,0.099-1.157,0.201-1.68,0.475c-0.484,0.253-0.895,0.642-1.28,1.047
			c-0.959,1.009-1.824,2.206-2.101,3.62c-0.407,2.077,0.587,4.281,2.144,5.576c1.623,1.35,2.956,1.548,4.929,1.135
			C521.841,953.36,523.22,952.439,524.308,951.214z"/>
		<path fill="#F0DAD2" d="M347.435,942.719c1.617-1.821,2.393-4.171,0.935-6.835c-0.472-0.863-1.087-1.661-1.892-2.16
			c-1.511-0.937-3.389-0.676-5.111-0.38c-0.574,0.099-1.157,0.201-1.68,0.475c-0.484,0.253-0.895,0.642-1.28,1.047
			c-0.959,1.009-1.824,2.206-2.101,3.62c-0.407,2.077,0.587,4.281,2.144,5.576c1.623,1.35,2.956,1.548,4.929,1.135
			C344.968,944.865,346.347,943.945,347.435,942.719z"/>
		<path fill="#F0DAD2" d="M782.946,1015.29c1.617-1.821,2.393-4.171,0.935-6.835c-0.472-0.863-1.087-1.661-1.892-2.16
			c-1.511-0.937-3.389-0.676-5.111-0.38c-0.574,0.099-1.157,0.201-1.68,0.475c-0.484,0.253-0.895,0.642-1.28,1.047
			c-0.959,1.009-1.824,2.206-2.101,3.62c-0.407,2.077,0.587,4.281,2.144,5.576c1.623,1.35,2.956,1.548,4.929,1.135
			C780.479,1017.436,781.858,1016.516,782.946,1015.29z"/>
		<path fill="#F0DAD2" d="M859.042,993.929c2.368-2.667,3.505-6.109,1.37-10.011c-0.692-1.264-1.592-2.433-2.771-3.164
			c-2.214-1.372-4.964-0.99-7.486-0.556c-0.84,0.144-1.694,0.295-2.46,0.695c-0.709,0.371-1.311,0.941-1.875,1.534
			c-1.404,1.478-2.671,3.231-3.077,5.302c-0.596,3.042,0.86,6.27,3.141,8.167c2.377,1.977,4.33,2.267,7.219,1.663
			C855.428,997.073,857.448,995.724,859.042,993.929z"/>
		<path fill="#F0DAD2" d="M493.869,878.197c2.269-2.556,3.359-5.854,1.312-9.592c-0.663-1.211-1.526-2.331-2.656-3.032
			c-2.121-1.315-4.757-0.948-7.173-0.533c-0.805,0.138-1.623,0.282-2.357,0.666c-0.679,0.355-1.256,0.901-1.796,1.47
			c-1.345,1.416-2.559,3.096-2.948,5.08c-0.571,2.915,0.824,6.008,3.009,7.826c2.277,1.895,4.149,2.173,6.917,1.593
			C490.407,881.209,492.342,879.918,493.869,878.197z"/>
		<path fill="#F0DAD2" d="M341.443,852.846c2.269-2.556,3.359-5.854,1.312-9.592c-0.663-1.211-1.526-2.331-2.656-3.032
			c-2.121-1.315-4.757-0.948-7.173-0.533c-0.805,0.138-1.623,0.282-2.357,0.666c-0.679,0.355-1.256,0.901-1.796,1.47
			c-1.345,1.416-2.559,3.096-2.948,5.08c-0.571,2.915,0.824,6.008,3.009,7.826c2.277,1.895,4.149,2.173,6.917,1.593
			C337.981,855.858,339.916,854.566,341.443,852.846z"/>
		<path fill="#F0DAD2" d="M695.87,907.51c1.617-1.821,2.393-4.171,0.935-6.835c-0.472-0.863-1.087-1.661-1.892-2.16
			c-1.511-0.937-3.389-0.676-5.111-0.38c-0.574,0.099-1.157,0.201-1.68,0.475c-0.484,0.253-0.895,0.642-1.28,1.047
			c-0.959,1.009-1.824,2.206-2.101,3.62c-0.407,2.077,0.587,4.281,2.144,5.576c1.623,1.35,2.957,1.548,4.929,1.135
			C693.403,909.656,694.782,908.736,695.87,907.51z"/>
		<path fill="#F0DAD2" d="M371.566,1027.932c1.617-1.821,2.393-4.171,0.935-6.835c-0.472-0.863-1.087-1.661-1.892-2.16
			c-1.511-0.937-3.389-0.676-5.111-0.38c-0.574,0.099-1.157,0.201-1.68,0.475c-0.484,0.253-0.895,0.642-1.28,1.047
			c-0.959,1.009-1.824,2.206-2.101,3.62c-0.407,2.077,0.587,4.281,2.144,5.576c1.623,1.35,2.956,1.548,4.929,1.135
			C369.098,1030.079,370.478,1029.158,371.566,1027.932z"/>
		<path fill="#F0DAD2" d="M458.889,1021.449c1.617-1.821,2.393-4.171,0.935-6.835c-0.472-0.863-1.087-1.661-1.892-2.16
			c-1.511-0.937-3.389-0.676-5.111-0.38c-0.574,0.099-1.157,0.201-1.68,0.475c-0.484,0.253-0.895,0.642-1.28,1.047
			c-0.959,1.009-1.824,2.206-2.101,3.62c-0.407,2.077,0.587,4.281,2.144,5.576c1.623,1.35,2.956,1.548,4.929,1.135
			C456.422,1023.596,457.801,1022.675,458.889,1021.449z"/>
		<path fill="#F0DAD2" d="M254.531,868.145c1.617-1.821,2.393-4.171,0.935-6.835c-0.472-0.863-1.087-1.661-1.892-2.16
			c-1.511-0.937-3.389-0.676-5.111-0.38c-0.574,0.099-1.157,0.201-1.68,0.475c-0.484,0.253-0.895,0.642-1.28,1.047
			c-0.959,1.009-1.824,2.206-2.101,3.62c-0.407,2.077,0.587,4.281,2.144,5.576c1.623,1.35,2.956,1.548,4.929,1.135
			C252.064,870.292,253.443,869.371,254.531,868.145z"/>
		<path fill="#F0DAD2" d="M928.927,974.392c1.617-1.821,2.393-4.171,0.935-6.835c-0.472-0.863-1.087-1.661-1.892-2.16
			c-1.511-0.937-3.389-0.676-5.111-0.38c-0.574,0.099-1.157,0.201-1.68,0.475c-0.484,0.253-0.895,0.642-1.28,1.047
			c-0.959,1.009-1.824,2.206-2.101,3.62c-0.407,2.077,0.587,4.281,2.144,5.576c1.623,1.35,2.956,1.548,4.929,1.135
			C926.46,976.538,927.839,975.617,928.927,974.392z"/>
		<path fill="#F0DAD2" d="M938.524,900.187c1.617-1.821,2.393-4.171,0.935-6.835c-0.472-0.863-1.087-1.661-1.892-2.16
			c-1.511-0.937-3.389-0.676-5.111-0.38c-0.574,0.099-1.157,0.201-1.68,0.475c-0.484,0.253-0.895,0.642-1.28,1.047
			c-0.959,1.009-1.824,2.206-2.101,3.62c-0.407,2.077,0.587,4.281,2.144,5.576c1.623,1.35,2.956,1.548,4.929,1.135
			C936.057,902.333,937.436,901.412,938.524,900.187z"/>
		<path fill="#F0DAD2" d="M480.817,1099.085c1.617-1.821,2.393-4.171,0.935-6.835c-0.472-0.863-1.087-1.661-1.892-2.16
			c-1.511-0.937-3.389-0.676-5.111-0.38c-0.574,0.099-1.157,0.201-1.68,0.475c-0.484,0.253-0.895,0.642-1.28,1.047
			c-0.959,1.009-1.824,2.206-2.101,3.62c-0.407,2.077,0.587,4.281,2.144,5.576c1.623,1.35,2.956,1.548,4.929,1.135
			C478.349,1101.232,479.728,1100.311,480.817,1099.085z"/>
		<path fill="#F0DAD2" d="M840.969,1088.177c1.617-1.821,2.393-4.171,0.935-6.835c-0.472-0.863-1.087-1.661-1.892-2.16
			c-1.511-0.937-3.389-0.676-5.111-0.38c-0.574,0.099-1.157,0.201-1.68,0.475c-0.484,0.253-0.895,0.642-1.28,1.047
			c-0.959,1.009-1.824,2.206-2.101,3.62c-0.407,2.077,0.587,4.281,2.144,5.576c1.623,1.35,2.956,1.548,4.929,1.135
			C838.502,1090.324,839.881,1089.403,840.969,1088.177z"/>
		<path fill="#F0DAD2" d="M746.326,957.373c1.617-1.821,2.393-4.171,0.935-6.835c-0.472-0.863-1.087-1.661-1.892-2.16
			c-1.511-0.937-3.389-0.676-5.111-0.38c-0.574,0.099-1.157,0.201-1.68,0.475c-0.484,0.253-0.895,0.642-1.28,1.047
			c-0.959,1.009-1.824,2.206-2.101,3.62c-0.407,2.077,0.587,4.281,2.144,5.576c1.623,1.35,2.956,1.548,4.929,1.135
			C743.859,959.519,745.238,958.599,746.326,957.373z"/>
		<path fill="#F0DAD2" d="M880.182,835.87c1.617-1.821,2.393-4.171,0.935-6.835c-0.472-0.863-1.087-1.661-1.892-2.16
			c-1.511-0.937-3.389-0.676-5.111-0.38c-0.574,0.099-1.157,0.201-1.68,0.475c-0.484,0.253-0.895,0.642-1.28,1.047
			c-0.959,1.009-1.824,2.206-2.101,3.62c-0.407,2.077,0.587,4.281,2.144,5.576c1.623,1.35,2.957,1.548,4.929,1.135
			C877.715,838.016,879.094,837.095,880.182,835.87z"/>
		<path fill="#F0DAD2" d="M815.761,900.187c1.617-1.821,2.393-4.171,0.935-6.835c-0.472-0.863-1.087-1.661-1.892-2.16
			c-1.511-0.937-3.389-0.676-5.111-0.38c-0.574,0.099-1.157,0.201-1.68,0.475c-0.484,0.253-0.895,0.642-1.28,1.047
			c-0.959,1.009-1.824,2.206-2.101,3.62c-0.407,2.077,0.587,4.281,2.144,5.576c1.623,1.35,2.956,1.548,4.929,1.135
			C813.294,902.333,814.673,901.412,815.761,900.187z"/>
		<path fill="#F0DAD2" d="M932.061,1079.84c1.617-1.821,2.393-4.171,0.935-6.835c-0.472-0.863-1.087-1.661-1.892-2.16
			c-1.511-0.937-3.389-0.676-5.111-0.38c-0.574,0.099-1.157,0.201-1.68,0.475c-0.484,0.253-0.895,0.642-1.28,1.047
			c-0.959,1.009-1.824,2.206-2.101,3.62c-0.407,2.077,0.587,4.281,2.144,5.576c1.623,1.35,2.956,1.548,4.929,1.135
			C929.594,1081.986,930.973,1081.066,932.061,1079.84z"/>
		<path fill="#F0DAD2" d="M605.969,912.648c1.617-1.821,2.393-4.171,0.935-6.835c-0.472-0.863-1.087-1.661-1.892-2.16
			c-1.511-0.937-3.389-0.676-5.111-0.38c-0.574,0.099-1.157,0.201-1.68,0.475c-0.484,0.253-0.895,0.642-1.28,1.047
			c-0.959,1.009-1.824,2.206-2.101,3.62c-0.407,2.077,0.587,4.281,2.144,5.576c1.623,1.35,2.956,1.548,4.929,1.135
			C603.502,914.794,604.881,913.874,605.969,912.648z"/>
		<path fill="#F0DAD2" d="M562.119,844.379c1.617-1.821,2.393-4.171,0.935-6.835c-0.472-0.863-1.087-1.661-1.892-2.16
			c-1.511-0.937-3.389-0.676-5.111-0.38c-0.574,0.099-1.157,0.201-1.68,0.475c-0.484,0.253-0.895,0.642-1.28,1.048
			c-0.958,1.009-1.824,2.206-2.101,3.62c-0.407,2.077,0.587,4.281,2.144,5.576c1.623,1.35,2.956,1.548,4.929,1.135
			C559.652,846.525,561.031,845.605,562.119,844.379z"/>
		<path fill="#F0DAD2" d="M248.068,989.446c1.617-1.821,2.393-4.171,0.935-6.835c-0.472-0.863-1.087-1.661-1.892-2.16
			c-1.511-0.937-3.389-0.676-5.111-0.38c-0.574,0.099-1.157,0.201-1.68,0.475c-0.484,0.253-0.895,0.642-1.28,1.047
			c-0.959,1.009-1.824,2.206-2.101,3.62c-0.407,2.077,0.587,4.281,2.144,5.576c1.623,1.35,2.956,1.548,4.929,1.135
			C245.6,991.592,246.98,990.672,248.068,989.446z"/>
		<path fill="#F0DAD2" d="M321.365,1073.681c1.617-1.821,2.393-4.171,0.935-6.835c-0.472-0.863-1.087-1.661-1.892-2.16
			c-1.511-0.937-3.389-0.676-5.111-0.38c-0.574,0.099-1.157,0.201-1.68,0.475c-0.484,0.253-0.895,0.642-1.28,1.047
			c-0.959,1.009-1.824,2.206-2.101,3.62c-0.407,2.077,0.587,4.281,2.144,5.576c1.623,1.35,2.956,1.548,4.929,1.135
			C318.898,1075.827,320.277,1074.906,321.365,1073.681z"/>
		<path fill="#F0DAD2" d="M773.185,853.899c2.757-3.106,4.081-7.113,1.595-11.656c-0.805-1.471-1.854-2.833-3.227-3.684
			c-2.577-1.598-5.78-1.152-8.716-0.648c-0.978,0.168-1.973,0.343-2.864,0.81c-0.825,0.432-1.526,1.095-2.183,1.786
			c-1.635,1.72-3.11,3.762-3.582,6.173c-0.694,3.542,1.001,7.3,3.657,9.51c2.767,2.303,5.042,2.64,8.405,1.936
			C768.978,857.559,771.33,855.989,773.185,853.899z"/>
	</g>
	<path fill="#4A775B" d="M912.255,584.743c-0.075,3.151-0.376,6.228-0.675,9.305c-0.375,4.277-0.825,8.479-1.126,12.681
		c-0.601,7.279-1.651,14.557-2.551,21.911c-0.825,7.203-2.701,14.332-3.902,21.61c-0.9,5.478-0.675,11.181-1.126,16.809
		c-0.15,1.801-0.376,3.527-0.75,5.252c-1.876,9.005-6.002,14.257-14.708,18.61c-5.327,2.551-12.38,5.703-23.486,6.903
		c-6.754,0.75-13.657,1.276-20.56,1.801c-2.777,0.225-5.628,0.3-8.405,0.3c-4.051,0.075-8.178,0-12.23,0.225
		c-6.829,0.3-13.657,0.75-20.56,1.051c-6.904,0.225-13.808-0.375-20.71-0.15c-6.904,0.225-13.732,1.276-20.56,1.501
		c-0.451,0-0.826,0-1.276,0.075c-6.453,0.3-12.982,1.125-19.284,1.426c-7.129,0.3-14.258,0.525-21.386,0.825
		c-7.128,0.375-14.256,0.45-21.385,0.75c-7.129,0.376-14.332,0.6-21.461,0.976c-7.128,0.3-14.257,0.376-21.386,0.676
		c-7.128,0.375-14.181,1.801-21.309,2.101c-7.129,0.376-14.333,0.15-21.461,0.525c-7.128,0.3-14.256,0.375-21.385,0.676
		c-6.754,0.375-13.506,0.75-20.261,1.125c-0.375,0-0.749,0.075-1.125,0.075c-7.128,0.3-14.257,0.751-21.386,1.126
		c-4.051,0.15-8.103,0.6-12.155,1.051c-3.077,0.3-6.078,0.525-9.154,0.675c-7.129,0.375-14.408-1.351-21.537-1.051
		c-7.128,0.376-14.181,2.777-21.31,3.152c-6.002,0.3-12.156,0.525-18.234,0.6c-6.078,0.15-12.155-0.675-18.234-1.125
		c-7.954-0.525-15.233-0.676-21.686-2.026c-7.803-1.576-14.633-4.127-20.86-6.603c-1.501-0.6-3.078-1.276-4.503-1.876
		c-5.402-2.326-10.429-4.802-15.158-7.429c-3.527-1.951-6.903-4.127-10.279-6.303c-2.627-1.576-5.178-3.077-7.879-4.578
		c-0.15-0.075-0.376-0.225-0.526-0.3c-5.928-3.302-12.305-6.378-19.51-9.305c-8.404-3.377-16.958-7.504-23.487-11.856
		c-5.778-3.827-9.53-9.305-12.006-16.433c-2.251-6.303-3.002-13.356-3.603-20.785c-0.599-7.054-0.524-14.257-0.3-21.16
		c0.3-7.804,0.15-15.158,0.525-21.236c0.3-4.427,0.451-8.854,0.826-13.357c0.15-3.151,0.45-6.378,0.824-9.529
		c0.901-7.504,1.277-15.233,2.552-22.812c1.275-7.278,3.151-14.557,4.502-21.911c0.075-0.225,0.075-0.375,0.15-0.6
		c1.501-7.504,2.326-15.157,3.977-22.661c1.5-7.279,4.802-14.182,6.453-21.386c0.075-0.225,0.075-0.375,0.15-0.6
		c1.726-7.504,1.576-15.383,3.226-22.811c0.451-1.876,0.976-3.677,1.651-5.328c0.751-1.951,1.652-3.677,2.552-5.402
		c0.075,0,0.075-0.075,0.075-0.075c1.726-3.076,3.752-5.778,5.703-8.254c0.15-0.225,0.376-0.45,0.6-0.676
		c4.352-5.253,10.055-8.029,16.359-10.805c0.15,0,0.3-0.075,0.45-0.15c6.303-2.551,12.832-5.403,20.261-6.754
		c1.35-0.225,2.7-0.45,4.127-0.676c5.553-0.75,11.331-1.351,17.109-2.251c7.278-1.2,14.483-3.076,21.836-4.052
		s14.632-2.326,21.985-3.077h0.225c7.278-0.825,14.782,0.525,22.136-0.15c7.354-0.6,14.707-0.976,22.136-1.501
		c5.403-0.375,10.806-0.825,16.209-1.201c1.951-0.15,3.976-0.3,5.927-0.45c7.354-0.45,14.633-2.701,22.061-3.151
		c7.053-0.45,14.256-0.976,21.61-1.726c7.129-0.751,14.333-1.801,21.537-2.551c6.002-0.675,12.006-0.525,18.008-0.75
		c1.276,0,2.477-0.075,3.752-0.15c7.354-0.525,14.558-1.051,21.687-1.051c7.354,0.075,14.632-0.225,21.685,0.676
		c7.729,0.976,15.458,2.851,23.337,3.977c7.203,1.051,14.407,1.876,21.61,2.927c0.601,0.075,1.276,0.225,1.876,0.3
		c7.804,1.276,15.533,3.001,23.187,4.427c7.953,1.501,15.982,1.801,23.486,3.452c6.604,1.501,13.357,2.927,20.185,4.127
		c6.754,1.276,13.506,2.701,20.336,3.827c6.753,1.051,13.731,1.576,20.56,2.626c6.828,1.051,13.281,4.127,20.109,5.178
		c6.828,1.126,13.807,1.426,20.485,2.627c6.903,1.275,13.808,1.726,20.485,3.151c11.256,2.476,19.81,3.827,25.963,5.778
		c1.202,0.375,2.327,0.75,3.377,1.2c8.479,3.452,12.381,8.629,14.483,18.609c0.375,1.801,0.675,3.602,0.975,5.403
		c0.075,0.45,0.15,0.9,0.15,1.351c0.451,2.927,0.826,5.928,1.201,8.854c0.075,0.75,0.225,1.426,0.299,2.176
		c0.15,1.351,0.376,2.702,0.601,4.052c1.275,7.203,2.776,14.407,3.752,21.686c0.976,7.278,2.927,14.482,3.602,21.761
		c0.526,4.803,0.901,9.68,1.201,14.482c0.15,2.476,0.299,5.028,0.45,7.504c0.376,7.354-0.975,14.783-0.899,22.061
		C911.13,570.036,912.481,577.39,912.255,584.743z"/>
	<g>
		<path fill="#7BA583" d="M322.987,600.351c15.233,28.439,31.741,57.178,43.822,87.043c-0.15-0.075-0.376-0.225-0.526-0.3
			c-5.928-3.302-12.305-6.378-19.51-9.305c-8.404-3.377-16.958-7.504-23.487-11.856c-5.778-3.827-9.53-9.305-12.006-16.433
			c-2.251-6.303-3.002-13.356-3.603-20.785c-0.599-7.054-0.524-14.257-0.3-21.16c0.3-7.804,0.15-15.158,0.525-21.236
			c0.3-4.427,0.451-8.854,0.826-13.357C313.382,582.117,318.11,591.272,322.987,600.351z"/>
		<path fill="#F0DAD2" d="M433.919,645.889c-2.276-4.21-4.72-8.31-7.155-12.221c-33.242-53.202-66.334-106.403-99.575-159.605
			c-1.651,7.204-4.953,14.107-6.453,21.386c-1.652,7.504-2.476,15.157-3.977,22.661c-0.075,0.225-0.075,0.375-0.15,0.6
			c3.902,5.553,7.504,11.256,11.031,16.808c32.715,51.701,66.632,102.651,101.825,152.701c0.063,0.091,0.136,0.183,0.201,0.274
			C429.964,674.126,431.786,660.036,433.919,645.889z"/>
		<path fill="#7BA583" d="M440.353,592.873c1.046-15.923,1.585-31.534,3.12-47.095c-14.042-26.036-31.53-52.924-41.999-80.715
			c-21.713-8.883-41.535-21.599-63.191-30.464c-1.201,1.642-2.38,3.356-3.44,5.246c0,0,0,0.075-0.075,0.075
			c25.512,29.339,44.947,64.157,64.382,98.149C410.555,557.974,422.646,578.315,440.353,592.873z"/>
	</g>
	<path fill="#F0DAD2" d="M758.051,479.722c-16.541,1.559-33.08,3.095-49.622,4.584c-58.511,39.368-117.708,77.713-179.39,111.844
		c-28.813,15.935-58.42,31.203-86.776,48.118c-0.884,14.621-1.476,29.178-2.639,43.633
		c126.939-59.82,243.023-141.737,365.789-210.88C789.138,477.681,773.161,478.297,758.051,479.722z"/>
	<path fill="#7BA583" d="M621.432,491.211c-36.328,2.397-72.703,4.044-109.165,4.285c-21.163,14.766-42.32,29.436-63.071,44.807
		c0.465,14.43-0.293,28.708-1.527,43.003C505.582,552.607,563.514,521.909,621.432,491.211z"/>
	<path fill="#F0DAD2" d="M911.58,594.048c-0.375,4.277-0.825,8.479-1.126,12.681c-0.601,7.279-1.651,14.557-2.551,21.911
		c-0.825,7.203-2.701,14.332-3.902,21.61c-0.9,5.478-0.675,11.181-1.126,16.809c-22.586,10.955-45.473,21.536-67.909,32.866
		c-4.051,0.075-8.178,0-12.23,0.225c-6.829,0.3-13.657,0.75-20.56,1.051c-6.904,0.225-13.808-0.375-20.71-0.15
		c-6.904,0.225-13.732,1.276-20.56,1.501c-0.451,0-0.826,0-1.276,0.075c4.577-6.528,11.555-11.18,18.31-15.608
		C823.261,657.23,867.834,626.239,911.58,594.048z"/>
	<path fill="#7BA583" d="M911.505,533.118c-22.061,8.78-43.071,20.41-63.932,31.891c-91.546,50.425-184.066,99.349-277.264,146.698
		c-0.375,0-0.749,0.075-1.125,0.075c-7.128,0.3-14.257,0.751-21.386,1.126c-4.051,0.15-8.103,0.6-12.155,1.051
		c1.5-3.602,3.977-7.054,6.602-9.605c31.142-30.465,71.21-49.675,109.706-70.01c74.361-39.244,145.572-84.642,212.505-135.517
		c12.757-9.68,25.363-19.585,37.594-29.865c0.075,0.75,0.225,1.426,0.299,2.176c0.15,1.351,0.376,2.702,0.601,4.052
		c1.275,7.203,2.776,14.407,3.752,21.686c0.976,7.278,2.927,14.482,3.602,21.761C910.83,523.438,911.205,528.315,911.505,533.118z"
		/>
	<path fill="#7BA583" d="M596.348,483.068c-16.883-7.204-33.917-14.182-51.025-21.01c-21.311-8.479-42.847-16.659-65.358-20.936
		c-25.438-4.952-51.476-4.802-77.138-8.404c-15.533-2.176-31.217-5.928-45.323-12.606c-5.615,2.473-10.695,5.046-14.826,9.269
		c14.726,6.417,26.703,16.561,39.137,26.347c1.03,0.257,2.044,0.42,3.077,0.703c26.639,7.354,51.476,17.183,78.864,22.361
		c19.542,3.716,39.056,7.405,58.59,11.114c1.748-0.519,3.613-0.896,5.734-0.919c24.459-0.263,48.809-1.745,73.132-3.625
		C599.623,484.524,597.979,483.767,596.348,483.068z"/>
	<path fill="#F0DAD2" d="M685.91,478.062c19.996-1.447,41.816-4.093,63.568-5.622c-46.52-17.358-96.187-24.634-144.697-35.595
		c-36.169-8.179-72.486-18.834-104.677-36.544c-5.403,0.376-10.806,0.826-16.209,1.201c-7.429,0.525-14.782,0.9-22.136,1.501
		c-7.353,0.675-14.857-0.676-22.136,0.15c78.02,25.261,156.1,50.582,234.129,75.851C677.806,478.685,681.855,478.356,685.91,478.062
		z"/>
	<path fill="#7BA583" d="M896.977,460.106c-27.163-7.204-53.801-18.91-80.59-27.839c-21.086-7.054-42.696-12.381-64.307-17.634
		c-23.562-5.703-47.124-11.181-70.761-16.583c0.601,0.075,1.276,0.225,1.876,0.3c7.804,1.276,15.533,3.001,23.187,4.427
		c7.953,1.501,15.982,1.801,23.486,3.452c6.604,1.501,13.357,2.927,20.186,4.127c6.754,1.276,13.506,2.701,20.336,3.827
		c6.753,1.051,13.731,1.576,20.56,2.626c6.828,1.051,13.281,4.127,20.109,5.178c6.828,1.126,13.807,1.426,20.485,2.627
		c6.903,1.275,13.808,1.726,20.485,3.151c11.256,2.476,19.81,3.827,25.963,5.778c1.202,0.375,2.327,0.75,3.377,1.2
		c8.479,3.452,12.381,8.629,14.483,18.609c0.375,1.801,0.675,3.602,0.975,5.403C896.901,459.206,896.977,459.656,896.977,460.106z"
		/>
	<path fill="#EA584A" d="M801.203,267.859c6.868,2.193,10.325,4.285,11.835,11.319c1.961,9.131,2.832,18.431,4.068,27.609
		c0.993,7.375,1.224,14.789,1.743,22.189c0.52,7.413,1.701,14.784,1.726,22.213c0.025,7.419-1.122,14.795-1.609,22.219
		c-0.485,7.39-0.634,14.809-1.644,22.196c-1.002,7.324-2.101,14.667-3.637,21.977c-1.929,9.177-4.972,13.323-23.57,15.39
		c-6.372,0.708-12.785,2.484-19.39,2.882c-6.459,0.389-13.034-0.01-19.581,0.217c-6.53,0.226-13.071,0.36-19.556,0.556
		c-6.597,0.199-13.106,1.112-19.517,1.417c-6.765,0.322-13.536,0.498-20.301,0.821c-6.765,0.322-13.536,0.517-20.3,0.839
		c-6.765,0.322-13.54,0.432-20.304,0.754s-13.564-0.082-20.329,0.24c-6.765,0.322-13.497,1.33-20.261,1.652
		c-6.765,0.322-13.537,0.477-20.302,0.799c-6.765,0.322-13.528,0.679-20.293,1.001s-13.559,0.024-20.324,0.346
		c-7.687,0.366-15.415,1.415-22.995,0.885c-9.03-0.632-16.227-2.214-22.457-4.28c-7.944-2.635-14.467-5.75-20.823-9.408
		c-6.219-3.579-12.183-7.892-20.03-11.06c-5.307-2.142-11.162-3.872-15.307-6.609c-6.833-4.512-10.08-13.709-10.868-23.769
		c-0.746-9.534,1.222-19.692,1.695-26.903c0.466-7.101,0.022-14.479,1.081-21.781c1.031-7.109,3.739-14.034,5.135-21.201
		c1.388-7.125,1.995-14.43,3.553-21.483c1.584-7.17,2.923-14.335,4.483-21.298c1.611-7.189,5.244-11.839,9.244-15.3
		c4.432-3.834,9.997-5.77,16.261-7.163c5.589-1.243,11.542-2.704,17.717-3.695c6.9-1.107,13.985-1.2,20.992-2.031
		c6.947-0.823,13.833-2.574,20.848-3.198c6.983-0.622,14.085-0.021,21.099-0.518c7.008-0.497,14.008-1.129,21.011-1.575
		c7.39-0.47,15.088-1.105,22.816-1.974c7.598-0.854,15.179-2.723,22.736-3.133c7.805-0.423,15.564-0.285,22.931,0.658
		c6.471,0.828,13.151,1.497,19.806,2.476c6.602,0.97,13.057,3.051,19.542,4.199c6.721,1.19,13.458,1.688,19.727,3.102
		c6.271,1.414,12.73,2.487,19.279,3.609c6.396,1.096,12.734,3.012,19.23,4.013c6.478,0.999,12.912,2.268,19.327,3.353
		c6.526,1.104,13.065,1.744,19.357,3.126C792.183,265.109,797.289,266.609,801.203,267.859z"/>
	<path fill="#BD432D" d="M822.488,265.683c6.889,2.941,8.975,7.048,9.993,15.678c0.644,5.454,3.104,12.708,2.615,19.447
		c-0.441,6.072-3.303,11.191-11.079,14.65c-6.866,3.054-15.173,4.236-23.394,5.154c-6.81,0.76-13.563,2.145-20.4,2.769
		c-6.826,0.623-13.73,0.32-20.578,0.809c-6.839,0.488-13.671,0.989-20.526,1.346c-6.848,0.357-13.684,0.92-20.542,1.148
		c-6.856,0.228-13.711,0.361-20.57,0.463c-6.86,0.102-13.72,1.144-20.578,1.122c-6.177-0.02-12.311-0.408-18.407-0.682
		c-6.116-0.275-12.174-1.617-18.311-1.874c-6.07-0.254-12.191,0.583-18.382,0.617c-6.809,0.037-13.622-0.477-20.43-0.486
		c-6.809-0.008-13.622,0.558-20.429,0.504c-6.809-0.053-13.607-1.157-20.413-1.255c-7.18-0.104-13.827-0.302-20.168-1.468
		c-6.706-1.233-12.932-3.471-19.26-6.061c-6.489-2.656-13.168-4.752-19.465-7.598c-6.395-2.891-12.581-6.117-18.778-9.156
		c-8.886-4.358-17.754-7.736-26.801-11.888c-10.036-4.606-11.78-11.283-9.85-18.768c1.629-6.318-3.646-23.28,5.197-27.304
		c2.904-1.321,6.535-1.784,10.017-2.255c7.508-1.016,14.944-2.209,22.382-3.099c7.5-0.897,15.001-1.528,22.468-2.299
		c7.492-0.774,15.028-0.921,22.526-1.569c7.48-0.647,14.927-1.779,22.451-2.303c7.475-0.52,14.993-0.792,22.55-1.193
		c7.465-0.396,14.972-0.877,22.553-1.158c7.619-0.282,15.547-0.986,23.544-1.741c7.852-0.742,15.782-1.099,23.56-1.305
		c8.076-0.214,15.984-0.288,23.504,1.154c6.591,1.264,13.242,3.126,20.012,4.581c6.711,1.442,13.704,1.826,20.281,3.48
		c6.805,1.711,13.125,4.728,19.45,6.694c6.332,1.968,13.011,3.259,19.65,4.883c6.492,1.587,13.095,3.022,19.697,4.498
		c6.583,1.472,13.345,2.231,19.857,3.806c6.615,1.6,12.942,4.115,19.296,6.043C812.941,263.254,818.562,264.008,822.488,265.683z"/>
	<g>
		<g>
			<path fill="#F0DAD2" d="M575.631,229.449c0.273,0.527,1.148,0.833,1.558,1.214c3.341,3.174,7.194,3.954,10.624,5.729
				c3.396,1.804,6.764,3.626,10.295,5.376c2.667,1.339,2.08,2.495,4.739,3.849c1.349,0.687,1.964-0.536,3.322,0.131
				c6.131,3.01,6.032,3.209,12.179,6.186c6.871,3.328,7.037,2.984,13.912,6.305c6.875,3.321,6.668,3.75,13.546,7.064
				c6.878,3.314,6.687,3.711,13.565,7.023c4.681,2.266,9.6,3.539,12.419,5.644c2.557,1.855,3.136,4.43,4.197,7.035
				c0.889,2.653,2.644,5.941,2.329,9.668c-0.353,4.016-2.567,8.042-3.762,12.441c-1.067,3.93-2.548,7.974-3.776,12.302
				c-1.437,5.084-2.864,10.195-3.915,15.332c-1.058,5.17-1.452,10.469-2.176,15.666c-0.728,5.226-0.608,10.525-1.054,15.751
				c-0.449,5.261-0.626,10.499-0.848,15.733c-0.224,5.192-1.71,10.337-1.77,15.502c-0.013,1.954,0.349,1.961,0.362,3.916
				c0.005,0.779,1.271,0.747,1.296,1.526c0.1,3.112-0.885,3.144-0.771,6.255c0.168,4.145,1.002,8.175,1.646,12.295
				c0.651,4.112,0.92,8.177,3.526,12.239c0.319,0.495,0.303,1.375,0.786,1.732c2.141,1.587,5.976,1.103,7.396-1.27
				c2.471-4.14,1.815-8.744,2.363-12.834c0.574-4.083,2.216-8.051,2.402-12.109c0.263-6.596,0.034-6.607,0.284-13.203
				c0.25-6.596-1.431-6.664-1.154-13.259c0.261-4.924,1.724-9.77,2.179-14.652c0.458-4.914-0.063-9.942,0.634-14.793
				c0.702-4.885,3.014-9.476,4.004-14.275c0.996-4.829,1.426-9.761,2.76-14.482c1.214-4.416,3.172-8.941,4.471-13.904
				c1.174-4.487,2.419-9.286,2.894-14.359c0.443-5.362-0.03-11.526-2.086-17.565c-2.092-5.967-6.377-12.169-11.295-15.61
				c-5.442-3.905-10.717-5.634-15.159-7.836c-6.882-3.305-7.114-2.821-14.014-6.091c-6.899-3.27-7.26-2.507-14.162-5.77
				c-6.902-3.263-6.942-3.177-13.848-6.431c-6.195-2.919-5.519-4.365-11.735-7.24c-1.42-0.657-1.39-0.785-2.834-1.388
				c-2.927-1.225-3.194-0.588-6.137-1.776c-3.974-1.559-7.981-3.603-12.349-4.45c-4.346-0.829-8.965-0.71-13.704,1.03
				C576.041,224.129,574.414,227.111,575.631,229.449z"/>
		</g>
		<g>
			<path fill="#F0DAD2" d="M738.782,231.422c-0.383-0.463-0.933-1.283-1.451-1.576c-4.261-2.383-9.037-1.791-13.263-2.042
				c-4.235-0.264-8.403,0.307-12.575,0.619c-3.126,0.249-3.194-0.556-6.318-0.282c-1.559,0.137-1.542,0.402-3.094,0.598
				c-4.485,0.566-4.356,1.491-8.831,2.134c-5.751,0.827-6.04-1.115-11.784-0.242c-5.075,0.799-10.064,2.153-15.134,2.943
				c-5.071,0.79-10.006,2.436-15.074,3.224c-5.068,0.788-10.366,0.098-15.433,0.892c-5.065,0.794-9.759,3.943-14.825,4.75
				c-5.059,0.806-10.277,0.63-15.339,1.457c-5.062,0.828-10.002,2.387-15.07,3.243c-6.834,1.174-6.962,0.425-13.795,1.606
				c-6.844,1.182-7.077-0.17-13.921,1.012c-6.844,1.182-6.532,2.985-13.376,4.168c-10.26,1.773-10.481,0.494-20.741,2.27
				c-3.569,0.624-6.986,3.087-10.933,4.193c-3.544,0.993-7.207,1.828-10.859,3.63c-4.28,2.142-9.512,4.417-12.923,9.049
				c-3.417,4.626-3.604,11.075-3.88,15.807c-0.386,4.873-1.266,8.736-1.279,12.383c0.093,3.74,0.42,7.48,0.387,11.222
				c-0.083,4.989-0.494,9.97-0.797,14.952c-0.303,4.981-1.708,9.847-2.231,14.81c-0.523,4.962,0.438,10.106-0.305,15.042
				c-1.15,7.398-4.141,14.437-5.768,21.748c-0.567,2.537,0.7,2.819,0.142,5.358c-0.161,0.732-0.623,0.633-0.779,1.367
				c-0.622,2.935-0.983,2.859-1.606,5.794c-0.82,3.922-0.193,8.074-0.745,12.096c-0.614,4.01-1.749,7.775-0.685,12.427
				c0.136,0.569-0.582,1.587-0.249,2.086c1.48,2.221,4.83,2.179,6.973,0.397c3.769-3.094,5.359-6.97,7.17-10.797
				c1.772-3.845,3.543-7.649,4.755-11.676c0.904-3.024-0.391-3.404,0.498-6.433c0.222-0.757,2.351-0.17,2.544-0.936
				c0.668-2.655-0.049-2.838,0.587-5.5c0.889-3.844,1.57-7.738,2.314-11.613c0.743-3.874,1.43-7.761,2.063-11.655
				c0.82-5.197,1.797-10.386,2.381-15.615c0.584-5.229,1.858-10.434,2.204-15.685c0.346-5.25,0.669-10.562,0.777-15.824
				c0.051-3.948-0.069-7.93-0.153-11.878c-0.01-4.039-1.659-7.826-1.395-10.627c0.242-2.937,1.292-4.468,2.4-6.106
				c1.18-1.577,3.371-2.389,5.957-3.676c3.422-1.69,7.192-4.087,11.836-5.101c4.033-0.881,8.548-0.653,12.927-1.359
				c4.302-0.694,8.625-1.52,12.748-2.342c6.762-1.21,6.825-0.829,13.594-1.998c6.78-1.171,6.49-2.85,13.27-4.02
				c6.78-1.171,7.017,0.217,13.803-0.919c7.566-1.267,7.326-2.726,14.897-3.957c7.58-1.233,7.869,0.541,15.448-0.692
				c7.581-1.233,7.294-2.994,14.875-4.228c7.583-1.234,7.877,0.572,15.459-0.662c7.595-1.236,7.52-1.696,15.115-2.932
				c7.595-1.236,7.659-0.826,15.258-2.038c7.241-1.155,7.258-1.027,14.502-2.158c7.244-1.131,7.241-1.156,14.484-2.296
				c3.975-0.644,7.529-3.208,11.469-4.143c3.95-0.929,8.173-0.568,12.11-3.254C739.379,236.897,740.483,233.477,738.782,231.422z"/>
		</g>
		<g>
			<path fill="#F0DAD2" d="M644.534,246.612c0.598-0.031,1.316-0.273,1.857-0.513c4.44-1.975,6.713-5.825,9.453-9.035
				c2.824-3.163,5.245-6.496,7.597-9.977c1.717-2.641,2.329-2.25,4.008-4.915c0.84-1.333-0.141-1.946,0.691-3.284
				c0.104-0.167-0.1-0.237-0.005-0.41c1.637-2.963,1.711-2.92,3.343-5.885c2.275-4.123,4.877-8.051,6.992-12.257
				c2.098-4.217,4.517-8.279,6.438-12.578c1.92-4.299,3.228-8.858,5.016-13.214c1.767-4.366,3.446-8.751,5.05-13.18
				c1.604-4.428,3.296-8.817,4.735-13.302c1.439-4.485,2.617-9.038,3.89-13.573c1.272-4.535,3.177-8.907,4.28-13.487
				c1.078-4.698,2.624-9.406,3.53-14.387c0.846-4.654,0.204-9.642,0.332-14.808c0.103-5.311-0.426-10.669-2.115-16.245
				c-1.722-5.721-4.188-10.996-8.216-15.486c-4.047-4.433-9.595-7.398-16.121-9.109c-6.581-1.701-13.06-1.128-18.933,1.483
				c-5.494,2.634-9.877,5.685-13.415,9.525c-3.948,4.286-7.344,8.752-9.99,13.35c-2.289,4.3-4.921,8.431-6.842,12.814
				c-1.947,4.442-2.72,9.343-4.328,13.872c-1.616,4.551-3.143,9.109-4.457,13.751c-1.311,4.631-2.43,9.308-3.481,14.032
				c-1.055,5.031-2.324,10.026-3.028,15.116c-0.703,5.091-1.433,10.204-1.782,15.332c-0.349,5.128-0.619,10.293-0.609,15.432
				c0.009,5.139,1.328,10.229,1.698,15.356c0.37,5.125-0.664,10.418,0.07,15.506c0.733,5.085,1.974,10.142,3.073,15.165
				c1.097,5.017,2.807,9.915,4.272,14.847c0,0.001,0.877-0.275,0.878-0.274c0.94,2.958,0.114,3.22,1.054,6.179
				c0.235,0.74-0.165,0.867,0.07,1.606c0.118,0.37,0.344,0.298,0.462,0.667c0.059,0.185,0.969-0.105,1.028,0.079
				c0.029,0.092-1.492,0.576-1.462,0.668c0.004,0.012,1.265,0.596,1.254,0.601c-1.768,0.7,4.847-3.942,11.27-6.46
				c6.959-2.729,13.363-3.745,5.481-0.662c-0.022,0.008,0.162-0.549,0.153-0.571c-0.019-0.042-0.37,0.112-0.389,0.07
				c-0.596-1.359-0.678-1.323-1.274-2.681c-2.382-5.434-2.453-5.404-4.835-10.838c-2.382-5.435-1.882-5.654-4.264-11.088
				c-2.382-5.435-2.839-5.234-5.221-10.669c-3.173-7.238-2.622-7.48-5.794-14.718c-3.178-7.25-3.784-6.984-6.962-14.234
				c-3.178-7.25-2.904-7.37-6.086-14.618c-2.738-6.239-2.069-6.534-4.811-12.771c-2.748-6.252-4.385-5.533-7.133-11.785
				c-2.753-6.263-1.522-6.804-4.274-13.066c-2.753-6.263-2.823-6.233-5.598-12.485c-1.977-4.335-4.315-8.65-6.738-13.01
				c-2.319-4.174-4.464-8.653-7.475-12.638c-3.127-4.123-6.472-8.078-10.791-11.742c-4.628-3.496-10.666-7.288-19.502-6.846
				c-3.32,0.284-7.209,1.632-9.91,3.741c-2.757,2.104-4.593,5.115-5.801,7.499c-2.389,4.885-3.39,9.033-4.012,12.688
				c-1.241,7.556-0.863,15.404-0.381,22.965c0.371,4.997,1.981,9.787,2.977,14.645c1.004,4.9,0.883,10.109,2.455,14.818
				c1.584,4.744,4.507,8.985,6.597,13.484c2.03,4.427,3.265,9.272,5.708,13.417c2.465,4.184,5.675,7.927,8.495,11.84
				c2.835,3.934,6.763,6.966,9.89,10.641c3.143,3.696,5.875,7.699,9.245,11.151c3.392,3.474,6.801,6.893,10.354,10.136
				c3.596,3.283,7.051,6.686,10.74,9.749c4.108,3.361,4.406,2.992,8.537,6.325c0.516,0.417,0.893-0.108,1.424,0.29
				c0.472,0.354-0.44,1.583,0.036,1.931c0.952,0.696,1.79-0.466,2.749,0.221c1.912,1.37,1.564,1.852,3.485,3.209
				c3.406,2.392,6.497,5.265,10.176,7.235c3.672,1.983,7.45,4.239,12.261,4.616c0.587,0.044,1.04-1.29,1.616-1.459
				c2.557-0.749,3.505-2.539,2.469-5.104c-1.807-4.47-3.774-8.059-6.686-10.97c-2.909-2.917-6.81-4.676-9.911-7.28
				c-7.478-6.201-7.435-6.252-14.914-12.453c-4.06-3.395-8.435-6.48-12.28-10.073c-3.875-3.621-7.251-7.774-10.824-11.619
				c-3.614-3.89-7.193-7.826-10.412-11.969c-3.253-4.188-6.201-8.621-8.961-13.093c-2.774-4.495-4.902-9.359-7.086-14.166
				c-2.69-5.823-5.875-11.559-7.522-17.675c-1.67-6.206-2.779-12.696-3.24-19.009c-0.38-6.267,1.782-12.428,2.796-18.534
				c0.468-3.159-0.236-6.421,0.508-7.759c0.868-1.41,1.514,0.255,1.672,0.104c0.377-0.219,2.567,0.39,4.93,2.459
				c2.597,2.226,6.185,4.539,8.514,7.681c2.469,3.268,3.593,7.518,5.669,11.308c1.973,3.603,4.647,6.951,6.42,10.867
				c2.743,6.201,3.071,6.057,5.797,12.266c2.732,6.223,1.514,6.758,4.246,12.981c2.737,6.233,2.858,6.18,5.595,12.412
				c2.737,6.233,2.989,6.122,5.723,12.356c3.175,7.237,4.369,6.714,7.542,13.952c3.178,7.25,2.766,7.431,5.943,14.681
				c3.178,7.25,3.13,7.271,6.308,14.521c2.382,5.435,2.813,5.246,5.195,10.68c2.382,5.435,1.844,5.67,4.226,11.105
				c2.382,5.434,2.109,5.554,4.491,10.988c0.596,1.359,0.438,1.428,1.033,2.787c0.019,0.042,0.221-0.046,0.24-0.004
				c0.009,0.021,0.222,0.465,0.201,0.474c-7.88,3.09-2.289-0.002,4.673-2.725c6.424-2.513,13.696-5.546,11.924-4.859
				c-0.01,0.004-0.284,0.655-0.287,0.644c-0.027-0.084,1.025-0.417,0.998-0.502c-0.053-0.169-0.816,0.072-0.869-0.097
				c-0.107-0.337,0.526-0.538,0.419-0.875c-0.214-0.674-0.962-0.437-1.176-1.111c-0.857-2.697,0.221-3.04-0.636-5.736
				c0-0.001-1.492,0.459-1.492,0.458c-1.565-5.264-1.784-10.89-2.891-16.27c-1.106-5.377-1.934-10.774-2.586-16.229
				c-0.651-5.451-2.254-10.85-2.455-16.34c-0.201-5.487-0.165-11.041,0.081-16.529c0.246-5.486,2.006-10.857,2.694-16.305
				c0.688-5.449,0.72-11.007,1.848-16.381c1.246-5.66,2.753-11.341,4.463-16.932c1.71-5.59,4.051-10.974,6.23-16.348
				c2.213-5.458,4.493-10.845,7.196-15.928c3.875-7.13,9.425-12.981,14.668-15.319c5.101-2.284,9.62-1.198,14.087,3.583
				c4.401,4.773,5.827,11.049,5.644,18.956c-0.06,4.025,1.099,8.5,0.272,12.915c-0.766,4.089-3.024,8.041-4.006,12.272
				c-1.387,5.82-2.627,11.673-4.3,17.418c-1.673,5.744-3.549,11.425-5.501,17.081c-1.952,5.655-3.733,11.383-5.96,16.937
				c-1.692,4.157-4.389,7.881-6.207,11.986c-1.818,4.104-3.169,8.405-5.156,12.431c-2.004,4.015-4.379,7.823-6.536,11.759
				c-1.635,2.998-1.769,2.929-3.392,5.934c-0.714,1.322,0.391,1.915-0.312,3.242c-1.409,2.657-2.613,2.01-4.043,4.656
				c-1.952,3.502-3.751,7.153-5.457,10.831c-1.646,3.724-3.667,7.656-3.876,12.441C638.846,244.127,641.879,246.75,644.534,246.612z
				"/>
		</g>
	</g>
	<g>
		<g>
			<path fill="#4A775B" d="M460.38,491.097c-1.201,7.054,0.3,7.278-0.9,14.332c-0.976,6.003-1.727,5.928-2.626,11.931
				c-0.976,6.003-0.451,6.078-1.351,12.081c-0.9,6.078-0.375,6.078-1.276,12.156c-0.675,5.178-2.775,10.13-3.451,15.308
				c-0.6,5.177-1.425,10.28-1.951,15.532c-0.6,5.178-1.425,10.28-1.951,15.533c-0.45,5.178,0.676,10.505,0.3,15.683
				c-0.451,5.178-0.676,10.43-0.976,15.608c-0.525,8.629-1.651,8.554-2.175,17.183c-0.075,0.976,0.375,1.051,0.3,2.026
				c-0.15,2.026-0.224,2.026-0.375,4.052c-1.789,24.134-0.668,50.795-7.651,74.152c-8.006-19.917-6.394-42.684-3.339-63.439
				c1.698-11.536-1.028-22.801-0.339-34.839c0.3-5.239,0.823-10.479,1.198-15.719c0.376-5.253,1.575-10.505,2.026-15.758
				c0.451-5.253,1.876-10.355,2.402-15.608c0.6-5.253,0.15-10.581,0.824-15.833c0.601-5.253,1.951-10.355,2.702-15.608
				c0.525-4.052,0.9-8.104,1.425-12.231c0.601-4.052,0.826-8.179,1.5-12.231c0.976-6.078,2.026-5.853,3.003-11.931
				c0.9-5.102,3.076-5.628,0.075-9.83c-4.127-5.628-6.003-2.551-12.457-5.252c-4.877-2.026-9.38-4.953-14.181-7.054
				c-4.878-2.026-9.605-4.352-14.408-6.528c-4.803-2.101-9.905-3.527-14.707-5.703c-4.803-2.176-9.605-4.352-14.332-6.603
				c-4.803-2.251-8.854-5.928-13.582-8.254c-8.854-4.352-8.854-4.277-17.708-8.629c-1.951-0.975-2.402-0.075-4.353-1.126
				c-0.451-0.225-0.675,0.15-1.125-0.15c-1.802-0.976-1.052-2.251-2.852-3.302c-0.975-0.525-2.101-0.901-3.226-1.201
				c1.726-3.076,3.752-5.778,5.703-8.254c0.15-0.225,0.376-0.45,0.6-0.676c0.525,0.3,1.051,0.6,1.576,0.825
				c1.876,0.9,1.425,1.726,3.301,2.627c5.628,2.701,5.928,1.951,11.556,4.727c5.628,2.701,5.102,3.752,10.73,6.453
				c4.727,2.251,9.755,3.902,14.482,6.078c4.728,2.176,9.605,4.052,14.408,6.228c4.726,2.176,9.454,4.277,14.256,6.453
				c4.727,2.101,9.755,3.677,14.557,5.703c4.803,2.101,9.08,5.402,13.883,7.429c4.952,2.026,5.027,1.876,10.055,3.977
				c3.527,1.426,3.527,1.426,7.129,2.927c1.5,0.751,3.677,0.6,4.802,1.576C461.956,488.621,460.906,488.47,460.38,491.097z"/>
		</g>
		<g>
			<path fill="#4A775B" d="M902.35,471.137c-4.576,0.225-9.454-1.876-13.956-1.351c-4.953,0.6-9.83,1.801-14.782,2.401
				c-4.954,0.6-9.68,2.776-14.633,3.302c-4.953,0.525-9.98,0.676-14.932,1.201c-4.953,0.525-10.13-1.276-15.083-0.751
				c-5.028,0.525-9.679,3.827-14.633,4.277c-4.952,0.525-10.054-0.825-15.083-0.375c-5.177,0.525-10.279,1.951-15.457,2.401
				c-5.253,0.45-10.28,2.326-15.532,2.776c-5.178,0.375-10.43,0.6-15.608,0.976c-5.252,0.45-10.655-2.476-15.907-2.026
				c-5.178,0.375-10.206,3.602-15.383,3.977c-5.252,0.375-10.43,1.125-15.608,1.5c-4.952,0.3-10.055-0.45-15.007-0.15
				c-4.952,0.3-10.055-1.126-15.008-0.826c-5.027,0.225-9.904,1.201-14.932,1.501c-4.952,0.225-9.905,1.201-14.857,1.426
				c-4.952,0.3-9.981,0.45-14.932,0.676c-4.952,0.225-9.981,0.525-14.932,0.75c-4.953,0.225-9.905,0.825-14.932,1.051
				c-6.528,0.225-6.454,1.801-12.981,2.026c-6.529,0.225-6.604-1.651-13.132-1.426c-7.825,0.27-16.05-2.034-23.846-1.134
				c-4.331,0.5-8.424,2.32-12.752,2.849c-8.007,0.98-15.79-2.497-23.652-4.3c-6.191-1.42-12.565-1.81-18.905-2.194
				c-5.744-0.348-11.488-0.697-17.232-1.045c2.972-2.592,7.202-3.034,11.14-3.234c11.919-0.607,23.895-0.09,35.717,1.541
				c5.335,0.736,10.687,1.701,16.066,1.429c14.509-0.734,28.149-6.207,42.769-6.743c8.179-0.3,8.179,1.2,16.358,0.9
				c4.953-0.225,9.905-1.2,14.857-1.426c4.953-0.225,9.905-0.525,14.932-0.825c4.954-0.225,9.83-2.176,14.783-2.476
				c4.953-0.225,9.905,0.3,14.857,0c4.953-0.3,10.055,1.651,15.007,1.351c4.953-0.3,9.98,0.075,14.932-0.225
				c4.953-0.3,9.754-3.152,14.708-3.527c5.177-0.3,10.279-2.026,15.457-2.401c5.253-0.375,10.505,0.751,15.683,0.376
				c5.252-0.376,10.581,1.276,15.759,0.9c5.177-0.45,10.204-2.776,15.382-3.227c5.253-0.45,10.505,0.525,15.758,0.075
				c5.177-0.45,10.206-2.626,15.383-3.076c4.952-0.525,9.755-2.401,14.632-2.851c4.953-0.525,10.28,2.626,15.233,2.101
				c4.952-0.45,9.605-3.677,14.557-4.202c4.953-0.525,9.755-1.651,14.707-2.176c4.954-0.525,10.206,1.801,15.158,1.276
				c4.954-0.6,9.68-2.851,14.633-3.376c4.427-0.525,9.08,0.3,13.581-0.075C901.3,462.883,901.751,467.01,902.35,471.137z"/>
		</g>
	</g>
</g>
</svg>
